<svg width="26" height="27" viewBox="0 0 26 27" fill="none" xmlns="http://www.w3.org/2000/svg">
<mask id="mask0_5339_2372" style="mask-type:luminance" maskUnits="userSpaceOnUse" x="0" y="0" width="26" height="27">
<path d="M25.6333 0.591797H0.0234375V26.2017H25.6333V0.591797Z" fill="white"/>
</mask>
<g mask="url(#mask0_5339_2372)">
<path d="M11.5473 19.5585C11.9474 19.5585 12.3076 19.8786 12.3076 20.3188C12.3076 20.7189 11.9875 21.0791 11.5473 21.0791C11.1471 21.0791 10.787 20.7589 10.787 20.3188C10.787 19.8786 11.1471 19.5585 11.5473 19.5585ZM23.3119 14.9167C22.9117 14.9167 22.5516 14.5965 22.5516 14.1564C22.5516 13.7562 22.8717 13.3961 23.3119 13.3961C23.712 13.3961 24.0722 13.7162 24.0722 14.1564C24.0722 14.5565 23.712 14.9167 23.3119 14.9167ZM23.3119 11.8355C22.0314 11.8355 20.991 12.8759 20.991 14.1564C20.991 14.3965 21.031 14.6366 21.111 14.8767L13.468 18.9583C13.0279 18.318 12.3076 17.9579 11.5473 17.9579C10.6669 17.9579 9.86664 18.4781 9.46648 19.2384L2.58383 15.6369C1.86355 15.2368 1.30334 14.0763 1.38337 12.9559C1.42338 12.3957 1.62346 11.9555 1.90357 11.7955C2.10365 11.6754 2.30372 11.7154 2.58383 11.8355L2.62385 11.8755C4.46455 12.8359 10.4269 15.9571 10.6669 16.0771C11.0671 16.2372 11.2672 16.3172 11.9474 15.9971L24.2722 9.59462C24.4723 9.51459 24.6724 9.35452 24.6724 9.07442C24.6724 8.71428 24.3123 8.55421 24.3123 8.55421C23.592 8.23409 22.5116 7.71389 21.4712 7.23371C19.2303 6.19331 16.6693 4.99284 15.5488 4.39261C14.5885 3.87241 13.7881 4.31258 13.6681 4.39261L13.388 4.51266C8.30603 7.07365 1.58345 10.3949 1.18329 10.635C0.50303 11.0352 0.0628599 11.8755 0.0228445 12.9159C-0.0571864 14.5565 0.783138 16.2772 1.9836 16.8775L9.2664 20.6389C9.42647 21.7593 10.4269 22.6397 11.5473 22.6397C12.8278 22.6397 13.8282 21.6393 13.8682 20.3588L21.8713 16.0371C22.2715 16.3572 22.7917 16.5173 23.3119 16.5173C24.5924 16.5173 25.6328 15.4769 25.6328 14.1964C25.6328 12.8759 24.5924 11.8355 23.3119 11.8355Z" fill="#969190"/>
</g>
</svg>
