<svg width="260" height="220" viewBox="0 0 260 220" fill="none" xmlns="http://www.w3.org/2000/svg">
<g opacity="0.2">
<path d="M226.113 81.089L226.485 80.8902L226.351 80.4898C226.064 79.6289 225.922 78.773 225.922 77.9204C225.922 73.3475 229.638 69.6316 234.211 69.6316C238.778 69.6316 242.5 73.3419 242.5 78.0719C242.5 82.6448 238.784 86.3607 234.211 86.3607C232.339 86.3607 230.483 85.7839 229.068 84.6519L228.81 84.4451L228.519 84.6024L198.212 100.968L197.959 101.105L197.95 101.392C197.807 105.98 194.231 109.545 189.661 109.545C185.672 109.545 182.09 106.4 181.519 102.398L181.482 102.143L181.253 102.024L153.674 87.7804L153.674 87.7803L153.669 87.7774C151.52 86.703 149.655 84.6025 148.363 81.9801C147.072 79.3621 146.372 76.264 146.519 73.2473L146.519 73.2473L146.52 73.2421C146.667 69.4204 148.279 66.4221 150.668 65.0166L150.668 65.0166L150.672 65.0144C151.407 64.5731 158.119 61.2166 167.098 56.7367C168.1 56.2366 169.13 55.7227 170.183 55.1976C178.534 51.0318 188.299 46.1601 196.842 41.8549L197.889 41.4064L197.931 41.3883L197.969 41.3629C198.353 41.1073 201.174 39.5439 204.576 41.3865L204.578 41.3876C208.837 43.669 218.551 48.2222 227.03 52.159L227.031 52.1595C228.628 52.8963 230.254 53.6606 231.806 54.3898C234.07 55.4534 236.175 56.4422 237.795 57.1621C237.795 57.1622 237.795 57.1623 237.795 57.1624C237.795 57.1625 237.796 57.1626 237.796 57.1627C237.796 57.1627 237.796 57.1628 237.796 57.1628C237.796 57.1629 237.796 57.1629 237.796 57.163L237.799 57.1643C237.805 57.167 237.815 57.172 237.829 57.1791C237.857 57.1935 237.899 57.2166 237.952 57.2487C238.058 57.3135 238.199 57.4115 238.338 57.5431C238.618 57.8072 238.863 58.1771 238.863 58.676C238.863 59.4393 238.334 59.9128 237.662 60.1816L237.639 60.1908L237.617 60.2022L190.954 84.4426C189.694 85.0348 188.943 85.2242 188.354 85.2242C187.77 85.2242 187.293 85.0416 186.533 84.7376C185.83 84.3822 177.195 79.8669 169.007 75.5856C163.854 72.8908 158.878 70.2888 156.169 68.8753L156.071 68.778L156.003 68.71L155.915 68.672C154.834 68.2087 153.869 67.9635 152.889 68.5486C152.238 68.9225 151.726 69.5908 151.36 70.4038C150.991 71.2248 150.752 72.2312 150.673 73.3388C150.515 75.5515 150.989 77.7943 151.854 79.6819C152.716 81.5624 153.99 83.1388 155.475 83.9641L155.475 83.9642L155.486 83.9701L181.549 97.608L181.991 97.8392L182.224 97.3978C183.658 94.6722 186.525 92.816 189.661 92.816C192.382 92.816 194.952 94.1039 196.522 96.3875L196.776 96.7559L197.17 96.5453L226.113 81.089ZM193.04 101.256C193.04 99.2963 191.435 97.8772 189.661 97.8772C187.887 97.8772 186.282 99.2963 186.282 101.256C186.282 103.216 187.887 104.635 189.661 104.635C191.621 104.635 193.04 103.03 193.04 101.256ZM230.832 77.9204C230.832 79.8804 232.437 81.2995 234.211 81.2995C236.003 81.2995 237.59 79.7118 237.59 77.9204C237.59 75.9604 235.985 74.5413 234.211 74.5413C232.251 74.5413 230.832 76.1462 230.832 77.9204Z" fill="#0D0D0E" stroke="#FF6F43"/>
</g>
<path d="M122.957 82.7673L123.329 82.5685L123.196 82.1681C122.799 80.9788 122.602 79.7947 122.602 78.6137C122.602 72.2899 127.741 67.1512 134.065 67.1512C140.383 67.1512 145.527 72.2843 145.527 78.82C145.527 85.1439 140.389 90.2825 134.065 90.2825C131.481 90.2825 128.915 89.4868 126.952 87.9171L126.694 87.7102L126.402 87.8675L85.1521 110.143L84.8989 110.279L84.8899 110.567C84.6918 116.906 79.7482 121.839 73.4271 121.839C67.9063 121.839 62.9564 117.49 62.1659 111.956L62.1294 111.7L61.9003 111.582L24.3629 92.1946L24.357 92.1917C21.3875 90.7069 18.8253 87.8129 17.0537 84.2192C15.2844 80.63 14.3247 76.3829 14.5266 72.2444L14.5266 72.2444L14.5268 72.2392C14.7285 66.9948 16.9424 62.8473 20.2619 60.8947L20.2656 60.8925C21.2748 60.287 30.4215 55.7131 42.6355 49.619C44.0004 48.938 45.4031 48.2382 46.8364 47.5232C58.204 41.8524 71.4972 35.221 83.1258 29.361L84.5554 28.7483L84.5975 28.7302L84.6357 28.7048C85.1832 28.3398 89.099 26.1744 93.814 28.7284L93.816 28.7295C99.6071 31.8317 112.823 38.0264 124.367 43.386L124.368 43.3865C126.544 44.3908 128.759 45.4316 130.872 46.4242C133.952 47.8715 136.814 49.2162 139.018 50.1956L139.027 50.1996C139.036 50.204 139.051 50.2115 139.072 50.2222C139.113 50.2435 139.175 50.2771 139.251 50.3233C139.403 50.4163 139.605 50.557 139.806 50.7468C140.209 51.1272 140.577 51.6749 140.577 52.42C140.577 53.5664 139.775 54.2587 138.829 54.637L138.806 54.6462L138.784 54.6575L75.2679 87.653C73.5426 88.4641 72.4904 88.7356 71.6482 88.7356C70.8113 88.7356 70.1296 88.4711 69.0951 88.0574C68.1842 87.5981 56.3921 81.4318 45.2182 75.5889C38.1925 71.915 31.4112 68.369 27.7327 66.4497L27.5807 66.2977L27.5126 66.2296L27.4241 66.1917C25.96 65.5642 24.7211 65.2643 23.4682 66.0135C22.6255 66.4968 21.9492 67.3704 21.4602 68.457C20.9677 69.5516 20.6474 70.9 20.5409 72.3906C20.3282 75.3693 20.9659 78.3919 22.132 80.9361C23.2948 83.4732 25.0063 85.5832 26.9843 86.6821L26.9842 86.6822L26.9953 86.688L62.4703 105.251L62.9123 105.482L63.1446 105.041C65.1263 101.275 69.0871 98.7077 73.4271 98.7077C77.1877 98.7077 80.7433 100.488 82.9151 103.647L83.1684 104.016L83.5627 103.805L122.957 82.7673ZM77.8459 110.376C77.8459 107.815 75.7485 105.958 73.4271 105.958C71.1058 105.958 69.0084 107.815 69.0084 110.376C69.0084 112.938 71.1058 114.795 73.4271 114.795C75.989 114.795 77.8459 112.698 77.8459 110.376ZM129.646 78.6137C129.646 81.1756 131.744 83.0325 134.065 83.0325C136.404 83.0325 138.484 80.9524 138.484 78.6137C138.484 76.0519 136.386 74.195 134.065 74.195C131.503 74.195 129.646 76.2924 129.646 78.6137Z" fill="#0D0D0E" stroke="#FF6F43"/>
<g opacity="0.5">
<path d="M184.768 162.398L184.395 162.597L137.291 187.752L136.896 187.963L136.643 187.594C134.027 183.789 129.745 181.645 125.217 181.645C119.989 181.645 115.221 184.738 112.835 189.27L112.603 189.712L112.161 189.48L69.7425 167.284L69.7315 167.278L69.7315 167.278C67.3902 165.978 65.3557 163.474 63.9709 160.453C62.5827 157.424 61.8239 153.826 62.077 150.282C62.2037 148.509 62.5845 146.908 63.1679 145.612C63.7477 144.323 64.5451 143.298 65.5291 142.734C66.9839 141.864 68.4246 142.204 70.1713 142.953L70.2598 142.991L70.3279 143.059L70.5203 143.251C74.9136 145.543 83.0259 149.785 91.4322 154.181C104.811 161.177 118.934 168.562 119.997 169.098C121.234 169.592 122.067 169.917 123.09 169.917C124.119 169.917 125.393 169.585 127.462 168.613L203.412 129.158L203.434 129.147L203.457 129.137C204.605 128.678 205.609 127.825 205.609 126.396C205.609 125.469 205.15 124.79 204.656 124.324C204.41 124.091 204.162 123.919 203.976 123.805C203.883 123.748 203.807 123.707 203.756 123.681C203.73 123.667 203.711 123.658 203.699 123.652L203.687 123.647L203.686 123.646C203.686 123.646 203.686 123.646 203.686 123.646M184.768 162.398L186.379 115.051C188.991 116.256 191.644 117.503 194.171 118.69C197.848 120.418 201.259 122.02 203.89 123.189C203.686 123.646 203.686 123.646 203.686 123.646M184.768 162.398L184.634 161.997C184.157 160.566 183.92 159.139 183.92 157.716C183.92 150.101 190.108 143.912 197.724 143.912C205.334 143.912 211.528 150.095 211.528 157.963C211.528 165.579 205.34 171.767 197.724 171.767C194.616 171.767 191.524 170.81 189.158 168.917L188.899 168.71L188.608 168.868L139.284 195.503L139.03 195.639L139.021 195.927C138.783 203.558 132.83 209.5 125.217 209.5C118.566 209.5 112.607 204.263 111.655 197.598L111.618 197.343L111.389 197.225L66.5045 174.042L66.4987 174.039C62.9236 172.252 59.8466 168.773 57.7219 164.462C55.5993 160.156 54.4478 155.062 54.6901 150.095L54.6901 150.095L54.6903 150.09C54.9324 143.796 57.5904 138.801 61.5962 136.445L61.5999 136.442C62.8109 135.716 73.7541 130.244 88.355 122.959C89.987 122.144 91.6642 121.308 93.3779 120.453C106.971 113.672 122.868 105.742 136.773 98.7343L138.485 98.0006L138.527 97.9825L138.565 97.957C139.234 97.5113 143.957 94.9019 149.641 97.9806L149.643 97.9817C156.565 101.689 172.365 109.095 186.169 115.505L186.17 115.505C188.774 116.707 191.423 117.952 193.95 119.139C197.632 120.869 201.052 122.475 203.686 123.646M184.768 162.398L203.686 123.646M130.403 195.696C130.403 192.69 127.942 190.51 125.217 190.51C122.492 190.51 120.031 192.69 120.031 195.696C120.031 198.702 122.492 200.882 125.217 200.882C128.223 200.882 130.403 198.421 130.403 195.696ZM192.538 157.716C192.538 160.722 194.999 162.902 197.724 162.902C200.466 162.902 202.91 160.459 202.91 157.716C202.91 154.71 200.449 152.531 197.724 152.531C194.718 152.531 192.538 154.991 192.538 157.716Z" fill="#0D0D0E" stroke="#FF6F43"/>
</g>
</svg>
