<svg width="370" height="323" viewBox="0 0 370 323" fill="none" xmlns="http://www.w3.org/2000/svg">
<g clip-path="url(#clip0_5561_5562)">
<path d="M293.305 259H86.8724C54.1053 265.238 -12.3027 287.109 -15.7979 288.685C-19.293 290.261 -14.3415 294.595 -11.4289 296.565C112.722 296.893 364.956 297.353 380.684 296.565C396.412 295.777 393.791 289.67 390.514 286.715L293.305 259Z" fill="#141922" stroke="url(#paint0_linear_5561_5562)" stroke-opacity="0.06"/>
<path d="M280.032 227.5H93.7385C64.1682 233.738 4.23903 255.609 1.08486 257.185C-2.06931 258.761 2.3991 263.095 5.02757 265.065C117.066 265.393 344.692 265.853 358.886 265.065C373.079 264.277 370.714 258.17 367.757 255.215L280.032 227.5Z" fill="#141922" stroke="url(#paint1_linear_5561_5562)" stroke-opacity="0.1"/>
<path d="M271.813 201.5H101.631C74.6185 207.738 19.8724 220.609 16.991 222.185C14.1097 223.761 18.1916 228.095 20.5928 230.065C122.942 230.393 330.881 230.853 343.847 230.065C356.813 229.277 354.652 223.17 351.951 220.215L271.813 201.5Z" fill="#141922" stroke="url(#paint2_linear_5561_5562)" stroke-opacity="0.25"/>
<path d="M257.186 172.5H114.697C92.08 178.738 46.2423 191.609 43.8298 193.185C41.4173 194.761 44.835 199.095 46.8454 201.065C132.54 201.393 306.643 201.853 317.499 201.065C328.355 200.277 326.546 194.17 324.284 191.215L257.186 172.5Z" fill="#141922" stroke="url(#paint3_linear_5561_5562)" stroke-opacity="0.35"/>
<path d="M241.776 142.5H129.496C111.674 148.953 75.5549 162.268 73.6538 163.898C71.7528 165.529 74.4459 170.012 76.0301 172.05C143.556 172.39 280.747 172.865 289.301 172.05C297.856 171.235 296.43 164.917 294.648 161.86L241.776 142.5Z" fill="#141922" stroke="url(#paint4_linear_5561_5562)"/>
<path d="M217.042 141.805C214.805 142.872 217.12 149.897 214.446 152.167C212.85 154.1 205.421 152.942 204.611 153.313C202.319 152.796 205.6 148.582 202.892 149.009C198.554 150.256 195.553 150.425 190.506 150.425C188.708 150.425 186.944 150.335 185.202 150.166C184.718 150.121 185.202 152.808 183.561 153.313C180.549 153.426 177.638 153.504 176.435 153.268C172.614 153.37 174.794 148.548 173.816 147.806C173.232 147.615 172.659 147.413 172.097 147.211C171.142 147.458 172.535 149.099 171.142 150.256C168.793 151.29 161.049 151.043 160.15 149.211C158.722 144.333 161.858 142.232 161.038 141.422C157.88 139.175 155.115 136.556 152.844 133.668C148.27 128.632 145.438 132.735 141.28 128.992C138.728 125.553 140.639 116.281 141.482 115.191C143.235 112.92 144.471 115.854 145.921 112.01C146.528 103.547 150.709 95.8595 157.25 89.9253C154.07 86.6659 148.023 81.8781 154.766 78.0344C161.307 76.7082 173.974 83.0133 173.974 83.0133C173.974 83.0133 181.515 80.6868 189.81 80.6868C213.4 80.6868 229.865 96.2304 229.865 115.393C229.854 126.913 227.348 135.207 217.042 141.805ZM163.859 97.6689C161.184 97.6689 159.015 99.8381 159.015 102.513C159.015 105.188 161.184 107.368 163.859 107.368C166.534 107.368 168.703 105.199 168.703 102.513C168.703 99.8381 166.534 97.6689 163.859 97.6689ZM207.444 94.758C207.444 94.758 197.902 91.4987 187.899 91.9708C186.359 91.9708 185.1 93.2183 185.1 94.758C185.1 96.2978 186.348 97.5566 187.899 97.5566C187.899 97.5566 198.138 96.6237 207.444 100.344C208.983 100.344 210.242 99.0963 210.242 97.5566C210.231 96.0056 208.983 94.758 207.444 94.758Z" fill="url(#paint5_linear_5561_5562)"/>
</g>
<defs>
<linearGradient id="paint0_linear_5561_5562" x1="152.59" y1="295.189" x2="152.783" y2="267.753" gradientUnits="userSpaceOnUse">
<stop stop-color="#DE643E"/>
<stop offset="1" stop-color="#9EFEFF"/>
</linearGradient>
<linearGradient id="paint1_linear_5561_5562" x1="153.045" y1="263.689" x2="153.258" y2="236.253" gradientUnits="userSpaceOnUse">
<stop stop-color="#DE643E"/>
<stop offset="1" stop-color="#9EFEFF"/>
</linearGradient>
<linearGradient id="paint2_linear_5561_5562" x1="155.809" y1="228.689" x2="156.042" y2="201.254" gradientUnits="userSpaceOnUse">
<stop stop-color="#DE643E"/>
<stop offset="1" stop-color="#9EFEFF"/>
</linearGradient>
<linearGradient id="paint3_linear_5561_5562" x1="160.059" y1="199.689" x2="160.337" y2="172.255" gradientUnits="userSpaceOnUse">
<stop stop-color="#DE643E"/>
<stop offset="1" stop-color="#9EFEFF"/>
</linearGradient>
<linearGradient id="paint4_linear_5561_5562" x1="165.241" y1="170.626" x2="165.619" y2="142.248" gradientUnits="userSpaceOnUse">
<stop stop-color="#DE643E"/>
<stop offset="1" stop-color="#9EFEFF"/>
</linearGradient>
<linearGradient id="paint5_linear_5561_5562" x1="184.933" y1="77.8511" x2="184.933" y2="153.422" gradientUnits="userSpaceOnUse">
<stop stop-color="white"/>
<stop offset="1" stop-color="#FFE2D9"/>
</linearGradient>
<clipPath id="clip0_5561_5562">
<rect width="370" height="322" fill="white" transform="translate(0 0.399902)"/>
</clipPath>
</defs>
</svg>
