<svg width="519" height="459" viewBox="0 0 519 459" fill="none" xmlns="http://www.w3.org/2000/svg">
<path opacity="0.35" d="M133.316 248.629L2 300.813L187.64 394.916L517 239.218L320 152.5" stroke="url(#paint0_linear_5658_6353)" stroke-width="0.855482"/>
<path opacity="0.1" d="M133.316 264.129L2 316.313L187.64 410.416L517 254.718L320 168" stroke="url(#paint1_linear_5658_6353)" stroke-width="0.855482"/>
<path d="M133.316 232.375L2 284.559L187.64 378.662L517 222.964L320 136" stroke="url(#paint2_linear_5658_6353)" stroke-width="0.855482"/>
<path d="M407.5 28L406 253.5L347 283L344 56.5L407.5 28Z" fill="#0A0E16" stroke="url(#paint3_linear_5658_6353)"/>
<path d="M279.5 27.5L343 1L408 27" stroke="url(#paint4_linear_5658_6353)"/>
<path d="M343 57L280.5 27V251L346.5 284.5L343 57Z" fill="#0A0E16" stroke="url(#paint5_linear_5658_6353)"/>
<path d="M320 104.5L319 332.5L259 361L256.5 133L320 104.5Z" fill="#0A0E16" stroke="url(#paint6_linear_5658_6353)"/>
<path d="M192 104L255.5 77.5L320 104" stroke="url(#paint7_linear_5658_6353)"/>
<path d="M255.5 133.5L193 103.5V327.5L259 361L255.5 133.5Z" fill="#0A0E16" stroke="url(#paint8_linear_5658_6353)"/>
<path d="M245 201L243.5 426.5L184.5 456L181.5 229.5L245 201Z" fill="#0A0E16" stroke="url(#paint9_linear_5658_6353)"/>
<path d="M117 200.5L180.5 174L245.5 200" stroke="url(#paint10_linear_5658_6353)"/>
<path d="M180.5 230L118 200V424L184 457.5L180.5 230Z" fill="#0A0E16" stroke="url(#paint11_linear_5658_6353)"/>
<circle cx="251.5" cy="73.5" r="36.5" fill="url(#paint12_linear_5658_6353)"/>
<defs>
<linearGradient id="paint0_linear_5658_6353" x1="215.022" y1="379.774" x2="225.695" y2="150.923" gradientUnits="userSpaceOnUse">
<stop stop-color="#DE643E"/>
<stop offset="1" stop-color="#9EFEFF"/>
</linearGradient>
<linearGradient id="paint1_linear_5658_6353" x1="215.022" y1="395.274" x2="225.695" y2="166.423" gradientUnits="userSpaceOnUse">
<stop stop-color="#DE643E"/>
<stop offset="1" stop-color="#9EFEFF"/>
</linearGradient>
<linearGradient id="paint2_linear_5658_6353" x1="215.022" y1="363.504" x2="225.717" y2="134.423" gradientUnits="userSpaceOnUse">
<stop stop-color="#DE643E"/>
<stop offset="1" stop-color="#9EFEFF"/>
</linearGradient>
<linearGradient id="paint3_linear_5658_6353" x1="370.266" y1="267.072" x2="453.138" y2="58.7919" gradientUnits="userSpaceOnUse">
<stop stop-color="#195353"/>
<stop offset="1" stop-color="#80341D"/>
</linearGradient>
<linearGradient id="paint4_linear_5658_6353" x1="332.652" y1="25.8447" x2="333.164" y2="0.783697" gradientUnits="userSpaceOnUse">
<stop stop-color="#DE643E"/>
<stop offset="1" stop-color="#9EFEFF"/>
</linearGradient>
<linearGradient id="paint5_linear_5658_6353" x1="307.8" y1="268.416" x2="389.732" y2="56.4692" gradientUnits="userSpaceOnUse">
<stop stop-color="#2E1108"/>
<stop offset="1" stop-color="#5FB6B6"/>
</linearGradient>
<linearGradient id="paint6_linear_5658_6353" x1="280.983" y1="309.688" x2="357.008" y2="300.615" gradientUnits="userSpaceOnUse">
<stop stop-color="#DE643E"/>
<stop offset="0.605" stop-color="#9EFEFF"/>
<stop offset="1"/>
</linearGradient>
<linearGradient id="paint7_linear_5658_6353" x1="241.353" y1="98.6988" x2="265.557" y2="42.3415" gradientUnits="userSpaceOnUse">
<stop stop-color="#DE643E"/>
<stop offset="0.605" stop-color="#9EFEFF"/>
<stop offset="1"/>
</linearGradient>
<linearGradient id="paint8_linear_5658_6353" x1="218.447" y1="309.488" x2="297.385" y2="299.735" gradientUnits="userSpaceOnUse">
<stop stop-color="#DE643E"/>
<stop offset="0.605" stop-color="#9EFEFF"/>
<stop offset="1"/>
</linearGradient>
<linearGradient id="paint9_linear_5658_6353" x1="181" y1="497.5" x2="278.265" y2="486.591" gradientUnits="userSpaceOnUse">
<stop stop-color="#0A0E16"/>
<stop offset="0.515" stop-color="#5B4224"/>
<stop offset="1" stop-color="#1C6A6B"/>
</linearGradient>
<linearGradient id="paint10_linear_5658_6353" x1="166.545" y1="195.199" x2="190.684" y2="138.773" gradientUnits="userSpaceOnUse">
<stop stop-color="#EBC28E"/>
<stop offset="1" stop-color="#0F595A"/>
</linearGradient>
<linearGradient id="paint11_linear_5658_6353" x1="118" y1="242.5" x2="60.5902" y2="268.667" gradientUnits="userSpaceOnUse">
<stop stop-color="#552A1E"/>
<stop offset="1" stop-color="#0A0E16"/>
</linearGradient>
<linearGradient id="paint12_linear_5658_6353" x1="251.5" y1="37" x2="251.5" y2="110" gradientUnits="userSpaceOnUse">
<stop stop-color="#FFEFEB"/>
<stop offset="1" stop-color="#FFE7E0"/>
</linearGradient>
</defs>
</svg>
