<svg width="88" height="22" viewBox="0 0 88 22" fill="none" xmlns="http://www.w3.org/2000/svg">
<g clip-path="url(#clip0_5641_6342)">
<g clip-path="url(#clip1_5641_6342)">
<path d="M12.1882 11.701C12.1882 12.2649 12.0002 12.6118 11.5145 13.0166L9.00764 15.0549C8.52194 15.4596 8.03629 15.6766 7.29988 15.6766H-0.972656V7.72559H7.29988C8.03629 7.72559 8.5221 7.95692 9.00764 8.34716L11.5143 10.3855C12.0002 10.7759 12.1882 11.1373 12.1882 11.701ZM9.94386 11.3811C9.94386 11.1098 9.88596 10.8413 9.77347 10.5907C9.66098 10.3401 9.4961 10.1124 9.28824 9.92067C9.08038 9.72888 8.83362 9.57676 8.56204 9.47297C8.29047 9.36918 7.99939 9.31576 7.70544 9.31577H0.907493V14.0865H7.67414C8.27557 14.0849 8.85186 13.8637 9.27714 13.4713C9.70242 13.079 9.94211 12.5472 9.94386 11.9923V11.3811Z" fill="white"/>
<path d="M41.8992 11.701C41.8992 12.2649 41.7112 12.6118 41.2255 13.0166L38.7186 15.0549C38.2329 15.4596 37.7472 15.6766 37.0108 15.6766H28.7383V7.72559H37.0109C37.7473 7.72559 38.2331 7.95692 38.7186 8.34716L41.2255 10.3855C41.7112 10.7759 41.8992 11.1373 41.8992 11.701ZM39.6547 11.3811C39.6547 11.1098 39.5968 10.8413 39.4844 10.5907C39.3719 10.3401 39.207 10.1124 38.9991 9.92067C38.7913 9.72888 38.5445 9.57676 38.2729 9.47297C38.0014 9.36918 37.7103 9.31576 37.4163 9.31577H30.6184V14.0865H37.3851C37.9865 14.0849 38.5628 13.8637 38.988 13.4713C39.4133 13.0789 39.653 12.5472 39.6547 11.9923V11.3811Z" fill="white"/>
<path d="M17.9536 9.31577H26.6003V7.72559H18.3279C17.5914 7.72559 17.1056 7.94245 16.6201 8.34725L14.1132 10.3855C13.6275 10.7903 13.4395 11.1372 13.4395 11.701C13.4395 12.2649 13.6275 12.6262 14.1132 13.0166L16.62 15.0549C17.1058 15.4452 17.5914 15.6765 18.3278 15.6765H26.6003V14.0864H17.9222C17.4182 14.0863 16.9289 13.9293 16.5336 13.6407C16.1383 13.3521 15.8601 12.9489 15.7441 12.4963H26.6006V10.906H15.7512C15.8746 10.4528 16.158 10.0504 16.5569 9.76244C16.9557 9.47446 17.4472 9.31729 17.9536 9.31577Z" fill="white"/>
<path d="M86.2997 10.3855L83.7928 8.34716C83.3072 7.95682 82.8215 7.72559 82.0851 7.72559H73.8125V15.6765H82.0851C82.8215 15.6765 83.3073 15.4596 83.7928 15.0549L86.2997 13.0166C86.7854 12.6118 86.9734 12.2649 86.9734 11.701C86.9734 11.1372 86.7854 10.7759 86.2997 10.3855ZM82.4907 9.31577C82.9947 9.31588 83.484 9.47295 83.8793 9.76155C84.2746 10.0501 84.5528 10.4534 84.6688 10.906H75.6926V9.31577H82.4907ZM82.4593 14.0865H75.6926V12.4963H84.6617C84.5383 12.9495 84.2549 13.3518 83.856 13.6398C83.4572 13.9277 82.9658 14.0848 82.4594 14.0864L82.4593 14.0865Z" fill="white"/>
<path d="M69.7944 7.72559V14.0864H62.5665C62.2799 14.0864 61.9961 14.0342 61.7314 13.933C61.4667 13.8317 61.2263 13.6832 61.0238 13.4961C60.8213 13.309 60.6608 13.0869 60.5515 12.8425C60.4421 12.5981 60.386 12.3362 60.3865 12.0718L60.3938 7.72559H58.5137V11.6671C58.5137 12.3465 58.7488 12.7801 59.1874 13.2428L61.1826 15.0549C61.684 15.4597 62.1541 15.6765 62.8905 15.6765H71.6745V7.72559H69.7944Z" fill="white"/>
<path d="M47.7947 7.72559C47.0584 7.72559 46.5885 7.9424 46.087 8.34716L44.0917 10.1593C43.653 10.6219 43.418 11.0556 43.418 11.735V15.6765H45.2981V12.4963H52.2471C52.9835 12.4963 53.4534 12.2795 53.955 11.8748L54.6989 11.1978V15.6765H56.5788V7.72559H47.7947ZM52.6274 10.906H45.2882C45.3927 10.4559 45.6614 10.0525 46.0493 9.76312C46.4373 9.47372 46.921 9.3158 47.4199 9.31572H54.7594C54.6548 9.76585 54.3861 10.1693 53.9981 10.4587C53.6101 10.7481 53.1262 10.906 52.6273 10.906H52.6274Z" fill="white"/>
</g>
</g>
<defs>
<clipPath id="clip0_5641_6342">
<rect width="88" height="24" fill="white" transform="translate(0 -0.298828)"/>
</clipPath>
<clipPath id="clip1_5641_6342">
<rect width="88" height="8" fill="white" transform="translate(-1 7.70117)"/>
</clipPath>
</defs>
</svg>
