<svg width="27" height="27" viewBox="0 0 27 27" fill="none" xmlns="http://www.w3.org/2000/svg">
<rect width="27" height="27" rx="13.5" fill="#202939"/>
<path d="M18.6015 9.11696C17.709 8.71447 16.7524 8.41697 15.752 8.24781C15.7431 8.2461 15.7339 8.24721 15.7257 8.25097C15.7174 8.25473 15.7105 8.26097 15.706 8.26881C15.5835 8.48406 15.4469 8.76463 15.3513 8.98629C14.2903 8.82777 13.2116 8.82777 12.1506 8.98629C12.0441 8.74064 11.9239 8.50111 11.7907 8.26881C11.7862 8.26087 11.7794 8.2545 11.7711 8.25053C11.7629 8.24657 11.7537 8.24522 11.7446 8.24665C10.7448 8.41581 9.78819 8.7133 8.89513 9.11637C8.88745 9.11959 8.88094 9.12509 8.87647 9.13212C7.06119 11.8008 6.56362 14.4035 6.80803 16.9737C6.80871 16.98 6.81066 16.986 6.81377 16.9915C6.81688 16.997 6.82108 17.0019 6.82611 17.0057C7.88565 17.7771 9.06741 18.3648 10.3219 18.744C10.3307 18.7467 10.34 18.7467 10.3488 18.744C10.3575 18.7413 10.3652 18.736 10.3709 18.7288C10.6404 18.3672 10.8807 17.9851 11.0861 17.5838C11.0983 17.5605 11.0867 17.5325 11.0622 17.5231C10.6853 17.3813 10.3202 17.21 9.97018 17.011C9.9639 17.0074 9.9586 17.0023 9.95477 16.9962C9.95093 16.99 9.94868 16.983 9.94821 16.9758C9.94775 16.9685 9.9491 16.9613 9.95212 16.9548C9.95513 16.9481 9.95974 16.9424 9.96552 16.9381C10.039 16.8838 10.1125 16.8272 10.1825 16.7707C10.1888 16.7656 10.1964 16.7624 10.2044 16.7613C10.2125 16.7603 10.2206 16.7615 10.228 16.7648C12.5187 17.7938 14.9995 17.7938 17.2634 16.7648C17.2708 16.7613 17.279 16.7599 17.2872 16.7608C17.2953 16.7618 17.303 16.765 17.3095 16.7701C17.3795 16.8272 17.4524 16.8838 17.5265 16.9381C17.5323 16.9424 17.537 16.948 17.5401 16.9545C17.5432 16.9611 17.5447 16.9683 17.5443 16.9754C17.544 16.9827 17.5418 16.9897 17.5381 16.9959C17.5344 17.0021 17.5292 17.0073 17.523 17.011C17.1741 17.2117 16.8114 17.3813 16.4304 17.5226C16.4245 17.5247 16.4193 17.528 16.4148 17.5324C16.4103 17.5367 16.4068 17.542 16.4046 17.5478C16.4023 17.5535 16.4013 17.5598 16.4017 17.566C16.402 17.5722 16.4036 17.5783 16.4065 17.5838C16.6165 17.9846 16.8569 18.3661 17.121 18.7282C17.1265 18.7357 17.1342 18.7413 17.143 18.7442C17.1517 18.7471 17.1612 18.7472 17.17 18.7446C18.4267 18.3664 19.6104 17.7785 20.6712 17.0057C20.6763 17.0021 20.6806 16.9974 20.6839 16.992C20.6871 16.9865 20.6891 16.9805 20.6898 16.9742C20.9814 14.0028 20.2009 11.4211 18.6196 9.13328C18.6157 9.12586 18.6093 9.12005 18.6015 9.11696ZM11.4285 15.4086C10.739 15.4086 10.1703 14.785 10.1703 14.0203C10.1703 13.255 10.7279 12.632 11.4285 12.632C12.1343 12.632 12.6978 13.2602 12.6867 14.0203C12.6867 14.7856 12.129 15.4086 11.4285 15.4086ZM16.0804 15.4086C15.3904 15.4086 14.8222 14.785 14.8222 14.0203C14.8222 13.255 15.3793 12.632 16.0804 12.632C16.7862 12.632 17.3498 13.2602 17.3386 14.0203C17.3386 14.7856 16.7869 15.4086 16.0804 15.4086Z" fill="#D2D6DB"/>
</svg>
