<svg width="26" height="27" viewBox="0 0 26 27" fill="none" xmlns="http://www.w3.org/2000/svg">
<path d="M21.7285 5.38602C20.0959 4.64975 18.346 4.10556 16.516 3.79611C16.4996 3.79299 16.4828 3.795 16.4678 3.80189C16.4526 3.80877 16.4401 3.82018 16.4318 3.83452C16.2077 4.22828 15.9579 4.74151 15.783 5.147C13.8421 4.85701 11.8689 4.85701 9.92806 5.147C9.73315 4.69762 9.51335 4.25946 9.26969 3.83452C9.26143 3.82001 9.24893 3.80834 9.23387 3.80109C9.21881 3.79384 9.20191 3.79137 9.1854 3.79398C7.35647 4.10343 5.60652 4.64762 3.97287 5.38494C3.95881 5.39084 3.94691 5.4009 3.93873 5.41376C0.618076 10.2955 -0.292114 15.0567 0.154979 19.7581C0.156223 19.7697 0.159797 19.7807 0.165484 19.7908C0.17117 19.8009 0.178851 19.8097 0.188057 19.8167C2.12624 21.2278 4.28801 22.3028 6.58286 22.9965C6.59887 23.0015 6.61598 23.0015 6.63197 22.9965C6.64796 22.9915 6.66208 22.9819 6.6725 22.9688C7.16547 22.3073 7.6051 21.6083 7.9807 20.8742C8.00311 20.8315 7.98177 20.7803 7.93695 20.7632C7.24765 20.5037 6.57976 20.1905 5.93943 19.8263C5.92794 19.8198 5.91824 19.8105 5.91123 19.7993C5.9042 19.7881 5.90009 19.7753 5.89924 19.762C5.89839 19.7487 5.90086 19.7356 5.90638 19.7236C5.9119 19.7114 5.92032 19.701 5.9309 19.693C6.06535 19.5937 6.1998 19.4902 6.32784 19.3868C6.33936 19.3775 6.35326 19.3716 6.36795 19.3697C6.38264 19.3677 6.39758 19.37 6.41107 19.3761C10.6014 21.2584 15.1395 21.2584 19.2807 19.3761C19.2943 19.3697 19.3094 19.3671 19.3243 19.3687C19.3391 19.3705 19.3532 19.3764 19.3651 19.3857C19.4931 19.4902 19.6264 19.5937 19.762 19.693C19.7726 19.7008 19.7812 19.7111 19.7868 19.7231C19.7926 19.7351 19.7953 19.7482 19.7947 19.7613C19.794 19.7746 19.79 19.7874 19.7833 19.7988C19.7764 19.8102 19.767 19.8196 19.7556 19.8263C19.1175 20.1935 18.4538 20.5039 17.7569 20.7622C17.7462 20.766 17.7366 20.7721 17.7284 20.7801C17.7203 20.7881 17.7139 20.7977 17.7097 20.8083C17.7055 20.8189 17.7038 20.8302 17.7044 20.8416C17.7049 20.853 17.708 20.8642 17.7132 20.8742C18.0974 21.6073 18.5371 22.3052 19.0203 22.9677C19.0304 22.9813 19.0445 22.9915 19.0605 22.9968C19.0765 23.0023 19.0938 23.0024 19.1099 22.9976C21.4087 22.3058 23.574 21.2304 25.5145 19.8167C25.5239 19.8102 25.5318 19.8015 25.5377 19.7916C25.5436 19.7817 25.5473 19.7706 25.5486 19.7591C26.0821 14.3236 24.6543 9.60086 21.7617 5.41588C21.7545 5.4023 21.7428 5.39168 21.7285 5.38602ZM8.60705 16.8951C7.34581 16.8951 6.30543 15.7545 6.30543 14.3556C6.30543 12.9556 7.32553 11.816 8.60705 11.816C9.89819 11.816 10.929 12.9652 10.9087 14.3556C10.9087 15.7556 9.88859 16.8951 8.60705 16.8951ZM17.1167 16.8951C15.8544 16.8951 14.8151 15.7545 14.8151 14.3556C14.8151 12.9556 15.8342 11.816 17.1167 11.816C18.4079 11.816 19.4387 12.9652 19.4184 14.3556C19.4184 15.7556 18.409 16.8951 17.1167 16.8951Z" fill="#969190"/>
</svg>
