<svg width="24" height="24" viewBox="0 0 24 24" fill="none" xmlns="http://www.w3.org/2000/svg">
<path d="M11.97 18.6746L16.7144 13.9446C16.8218 13.8375 16.8808 13.6948 16.8808 13.543C16.8808 13.3901 16.821 13.2463 16.7127 13.138C16.5065 12.9321 16.1838 12.9119 15.9574 13.0896L12.0973 16.9366V5.69239C12.0973 5.37853 11.8407 5.12305 11.5251 5.12305C11.2095 5.12305 10.9532 5.37853 10.9532 5.69239V16.9363L7.00196 12.9962C6.76614 12.8777 6.49388 12.9145 6.31641 13.0913C6.21047 13.1973 6.15237 13.3406 6.15234 13.4949C6.15234 13.6647 6.22069 13.8267 6.34487 13.9509L6.66018 14.2665L7.52919 15.1326L7.68979 15.2961L11.0799 18.6741C11.1924 18.786 11.3465 18.8427 11.514 18.8344L11.5251 18.8338L11.5365 18.8344C11.7042 18.8426 11.8583 18.7859 11.9699 18.6746H11.97Z" fill="#FF6F43"/>
</svg>
