<svg width="370" height="323" viewBox="0 0 370 323" fill="none" xmlns="http://www.w3.org/2000/svg">
<g clip-path="url(#clip0_5561_5591)">
<g opacity="0.2">
<mask id="path-1-inside-1_5561_5591" fill="white">
<path fill-rule="evenodd" clip-rule="evenodd" d="M286.08 86.0689C283.871 86.0689 282.08 84.2781 282.08 82.0689V-211.993C282.08 -216.086 276.661 -217.538 274.616 -213.992L0.54122 261.07C-0.997241 263.737 0.927335 267.069 4.00597 267.069H111.078C113.288 267.069 115.078 268.86 115.078 271.069V534.126C115.078 538.219 120.499 539.67 122.543 536.124L276.899 268.458C277.395 267.599 278.312 267.069 279.304 267.069C280.837 267.069 282.08 265.826 282.08 264.293V260.544C282.08 259.843 282.265 259.154 282.615 258.546L378.619 92.0672C380.157 89.4005 378.233 86.0689 375.154 86.0689H286.08Z"/>
</mask>
<path d="M378.619 92.0672L377.753 91.5676L378.619 92.0672ZM282.615 258.546L281.749 258.047L282.615 258.546ZM276.899 268.458L277.765 268.958L276.899 268.458ZM0.54122 261.07L1.40741 261.57L0.54122 261.07ZM274.616 -213.992L275.482 -213.492L274.616 -213.992ZM281.08 -211.993V82.0689H283.08V-211.993H281.08ZM1.40741 261.57L275.482 -213.492L273.749 -214.492L-0.324965 260.57L1.40741 261.57ZM111.078 266.069H4.00597V268.069H111.078V266.069ZM116.078 534.126V271.069H114.078V534.126H116.078ZM276.033 267.959L121.677 535.624L123.41 536.623L277.765 268.958L276.033 267.959ZM281.08 260.544V264.293H283.08V260.544H281.08ZM377.753 91.5676L281.749 258.047L283.481 259.046L379.486 92.5667L377.753 91.5676ZM286.08 87.0689H375.154V85.0689H286.08V87.0689ZM379.486 92.5667C381.408 89.2334 379.002 85.0689 375.154 85.0689V87.0689C377.463 87.0689 378.906 89.5676 377.753 91.5676L379.486 92.5667ZM283.08 260.544C283.08 260.018 283.219 259.502 283.481 259.046L281.749 258.047C281.311 258.806 281.08 259.668 281.08 260.544H283.08ZM279.304 268.069C281.39 268.069 283.08 266.378 283.08 264.293H281.08C281.08 265.274 280.285 266.069 279.304 266.069V268.069ZM277.765 268.958C278.083 268.408 278.669 268.069 279.304 268.069V266.069C277.954 266.069 276.707 266.789 276.033 267.959L277.765 268.958ZM114.078 534.126C114.078 539.242 120.854 541.056 123.41 536.623L121.677 535.624C120.144 538.284 116.078 537.196 116.078 534.126H114.078ZM111.078 268.069C112.735 268.069 114.078 269.412 114.078 271.069H116.078C116.078 268.308 113.84 266.069 111.078 266.069V268.069ZM-0.324965 260.57C-2.24804 263.904 0.157679 268.069 4.00597 268.069V266.069C1.69699 266.069 0.253561 263.57 1.40741 261.57L-0.324965 260.57ZM281.08 82.0689C281.08 84.8304 283.319 87.0689 286.08 87.0689V85.0689C284.423 85.0689 283.08 83.7258 283.08 82.0689H281.08ZM283.08 -211.993C283.08 -217.11 276.306 -218.924 273.749 -214.492L275.482 -213.492C277.016 -216.151 281.08 -215.063 281.08 -211.993H283.08Z" fill="url(#paint0_linear_5561_5591)" mask="url(#path-1-inside-1_5561_5591)"/>
</g>
<mask id="path-3-inside-2_5561_5591" fill="white">
<path fill-rule="evenodd" clip-rule="evenodd" d="M241.079 123.069C238.869 123.069 237.079 121.279 237.079 119.069V-14.087C237.079 -18.1734 231.673 -19.6299 229.62 -16.0968L86.571 230.059C85.0213 232.726 86.9452 236.069 90.0294 236.069H148.079C150.288 236.069 152.079 237.86 152.079 240.069V377.116C152.079 381.21 157.5 382.66 159.544 379.113L303.623 129.066C305.16 126.4 303.235 123.069 300.157 123.069H241.079Z"/>
</mask>
<path d="M303.623 129.066L302.757 128.567L303.623 129.066ZM159.544 379.113L160.411 379.612L159.544 379.113ZM86.571 230.059L87.4356 230.562L86.571 230.059ZM229.62 -16.0968L228.755 -16.5992L229.62 -16.0968ZM236.079 -14.087V119.069H238.079V-14.087H236.079ZM87.4356 230.562L230.485 -15.5943L228.755 -16.5992L85.7064 229.557L87.4356 230.562ZM148.079 235.069H90.0294V237.069H148.079V235.069ZM153.079 377.116V240.069H151.079V377.116H153.079ZM302.757 128.567L158.678 378.613L160.411 379.612L304.489 129.566L302.757 128.567ZM241.079 124.069H300.157V122.069H241.079V124.069ZM304.489 129.566C306.41 126.232 304.004 122.069 300.157 122.069V124.069C302.465 124.069 303.909 126.567 302.757 128.567L304.489 129.566ZM151.079 377.116C151.079 382.233 157.856 384.046 160.411 379.612L158.678 378.613C157.145 381.274 153.079 380.186 153.079 377.116H151.079ZM148.079 237.069C149.735 237.069 151.079 238.412 151.079 240.069H153.079C153.079 237.307 150.84 235.069 148.079 235.069V237.069ZM85.7064 229.557C83.7693 232.89 86.1741 237.069 90.0294 237.069V235.069C87.7163 235.069 86.2734 232.562 87.4356 230.562L85.7064 229.557ZM236.079 119.069C236.079 121.831 238.317 124.069 241.079 124.069V122.069C239.422 122.069 238.079 120.726 238.079 119.069H236.079ZM238.079 -14.087C238.079 -19.195 231.322 -21.0157 228.755 -16.5992L230.485 -15.5943C232.025 -18.2442 236.079 -17.1518 236.079 -14.087H238.079Z" fill="url(#paint1_linear_5561_5591)" mask="url(#path-3-inside-2_5561_5591)"/>
<path d="M259.078 123.569H296.078" stroke="url(#paint2_linear_5561_5591)" stroke-linecap="round"/>
<path fill-rule="evenodd" clip-rule="evenodd" d="M205.862 163.388C204.758 163.388 203.862 162.493 203.862 161.388V128.285C203.862 126.239 201.153 125.513 200.13 127.285L162.39 192.653C161.62 193.986 162.583 195.653 164.122 195.653H191.091C192.195 195.653 193.091 196.548 193.091 197.653V230.756C193.091 232.802 195.8 233.528 196.823 231.756L234.563 166.388C235.333 165.055 234.37 163.388 232.831 163.388H205.862Z" fill="url(#paint3_linear_5561_5591)"/>
<path d="M196.823 231.756L196.39 231.506L196.823 231.756ZM162.39 192.653L162.823 192.903L162.39 192.653ZM200.13 127.285L199.697 127.035L200.13 127.285ZM203.362 128.285V161.388H204.362V128.285H203.362ZM162.823 192.903L200.563 127.535L199.697 127.035L161.957 192.403L162.823 192.903ZM191.091 195.153H164.122V196.153H191.091V195.153ZM193.591 230.756V197.653H192.591V230.756H193.591ZM234.13 166.138L196.39 231.506L197.256 232.006L234.996 166.638L234.13 166.138ZM205.862 163.888H232.831V162.888H205.862V163.888ZM234.996 166.638C235.958 164.972 234.755 162.888 232.831 162.888V163.888C233.986 163.888 234.707 165.138 234.13 166.138L234.996 166.638ZM192.591 230.756C192.591 233.314 195.977 234.221 197.256 232.006L196.39 231.506C195.622 232.835 193.591 232.291 193.591 230.756H192.591ZM191.091 196.153C191.919 196.153 192.591 196.825 192.591 197.653H193.591C193.591 196.272 192.471 195.153 191.091 195.153V196.153ZM161.957 192.403C160.995 194.07 162.198 196.153 164.122 196.153V195.153C162.967 195.153 162.246 193.903 162.823 192.903L161.957 192.403ZM203.362 161.388C203.362 162.769 204.482 163.888 205.862 163.888V162.888C205.034 162.888 204.362 162.217 204.362 161.388H203.362ZM204.362 128.285C204.362 125.727 200.976 124.82 199.697 127.035L200.563 127.535C201.331 126.206 203.362 126.75 203.362 128.285H204.362Z" fill="#FFC5B3" fill-opacity="0.5"/>
<path d="M107.078 196.112L125.578 164.069" stroke="url(#paint4_linear_5561_5591)" stroke-linecap="round"/>
</g>
<defs>
<linearGradient id="paint0_linear_5561_5591" x1="93.9998" y1="355" x2="242.706" y2="-74.7845" gradientUnits="userSpaceOnUse">
<stop stop-color="#EE6339"/>
<stop offset="1" stop-color="#51FEFF"/>
</linearGradient>
<linearGradient id="paint1_linear_5561_5591" x1="176.254" y1="356.186" x2="242.561" y2="-9.48645" gradientUnits="userSpaceOnUse">
<stop stop-color="#DE643E"/>
<stop offset="1" stop-color="#9EFEFF"/>
</linearGradient>
<linearGradient id="paint2_linear_5561_5591" x1="259.078" y1="124.069" x2="296.078" y2="124.069" gradientUnits="userSpaceOnUse">
<stop stop-color="#FF6F43"/>
<stop offset="1" stop-opacity="0"/>
</linearGradient>
<linearGradient id="paint3_linear_5561_5591" x1="198.477" y1="126.282" x2="198.477" y2="232.759" gradientUnits="userSpaceOnUse">
<stop stop-color="white"/>
<stop offset="1" stop-color="#FFC5B3"/>
</linearGradient>
<linearGradient id="paint4_linear_5561_5591" x1="126.011" y1="164.319" x2="107.511" y2="196.362" gradientUnits="userSpaceOnUse">
<stop stop-color="#FF6F43"/>
<stop offset="1" stop-color="#141922" stop-opacity="0"/>
</linearGradient>
<clipPath id="clip0_5561_5591">
<rect width="370" height="322" fill="white" transform="translate(0 0.399902)"/>
</clipPath>
</defs>
</svg>
