<svg width="199" height="192" viewBox="0 0 199 192" fill="none" xmlns="http://www.w3.org/2000/svg">
<circle cx="95.5" cy="95.5" r="94.95" transform="matrix(-1 0 0 1 191 1)" fill="#0F1217" stroke="#476666" stroke-width="1.1"/>
<circle cx="95.5" cy="95.5" r="94.95" transform="matrix(-1 0 0 1 199 0)" fill="#00040C" stroke="#476666" stroke-width="1.1"/>
<circle cx="81.0689" cy="81.0689" r="80.5189" transform="matrix(-1 0 0 1 185 14)" fill="#00040C" stroke="#476666" stroke-width="1.1"/>
<path d="M101.672 30H101.669C65.9534 30 37 58.9534 37 94.6693V94.6716C37 130.388 65.9534 159.341 101.669 159.341H101.672C137.388 159.341 166.341 130.388 166.341 94.6716V94.6693C166.341 58.9534 137.388 30 101.672 30Z" fill="#0F1217"/>
<path d="M127.258 96.0004L100.426 112.891L99.7398 83.9327L98.9576 50.5882L127.258 96.0004Z" fill="#1C2028"/>
<path d="M98.9531 50.5898L99.7367 83.9441L100.421 112.893L72.8174 97.0548L98.9531 50.5898Z" fill="#1C2028"/>
<path d="M99.739 83.9436L127.256 96.0015L100.423 112.892L72.8196 97.0543L99.739 83.9436Z" fill="#1C2028"/>
<path d="M127.383 101.26L101.087 140.8L100.549 118.141L127.383 101.26Z" fill="#1C2028"/>
<path d="M100.547 118.142L101.085 140.801L72.924 102.307L100.547 118.142Z" fill="#1C2028"/>
<path fill-rule="evenodd" clip-rule="evenodd" d="M99.739 83.9436L127.256 96.0015L100.423 112.892L99.739 83.9436Z" fill="#1C2028"/>
</svg>
