<svg width="214" height="206" viewBox="0 0 214 206" fill="none" xmlns="http://www.w3.org/2000/svg">
<circle cx="102.544" cy="102.544" r="102.43" transform="matrix(-1 0 0 1 205.088 0)" fill="url(#paint0_linear_5840_15258)" stroke="white" stroke-width="0.227876"/>
<circle cx="102.544" cy="102.544" r="102.43" transform="matrix(-1 0 0 1 213.291 0.911133)" fill="url(#paint1_linear_5840_15258)" stroke="white" stroke-width="0.227876"/>
<g clip-path="url(#clip0_5840_15258)">
<path d="M199.07 -3.19141H7.18164V196.587H199.07V-3.19141Z" fill="url(#paint2_linear_5840_15258)"/>
<g clip-path="url(#clip1_5840_15258)">
<path d="M134.487 143.667C142.629 148.111 158.915 168.988 159.419 185.043C159.922 201.098 153.704 203.025 147.035 202.003C145.866 201.416 144.312 201.543 143.792 199.17" fill="white"/>
<path d="M134.487 143.667C142.629 148.111 158.915 168.988 159.419 185.043C159.922 201.098 153.704 203.025 147.035 202.003C145.866 201.416 144.312 201.543 143.792 199.17" stroke="#4D64F1" stroke-width="2.23093" stroke-linecap="round"/>
<mask id="mask0_5840_15258" style="mask-type:luminance" maskUnits="userSpaceOnUse" x="132" y="143" width="27" height="59">
<path d="M132.591 143.374C140.585 147.5 157.061 167.732 158.198 183.757C159.335 199.782 153.444 201.944 147.004 201.182C145.857 200.639 144.372 200.826 143.777 198.477" fill="white"/>
</mask>
<g mask="url(#mask0_5840_15258)">
<path d="M155.083 178.083C155.083 178.083 154.721 177.828 154.09 177.52C151.866 176.435 146.299 174.686 141.34 181.024C134.97 189.163 137.677 227.286 155.618 213.9C173.556 200.52 170.435 180.572 170.435 180.572L171.828 158.059L166.765 164.235" fill="white"/>
</g>
<path d="M111.623 228.669C92.7712 228.669 77.4886 207.665 77.4886 181.757C77.4886 155.848 92.7712 134.845 111.623 134.845C130.475 134.845 145.758 155.848 145.758 181.757C145.758 207.665 130.475 228.669 111.623 228.669Z" fill="white"/>
<path d="M91.1055 138.636C83.5286 142.512 60.1273 167.295 59.9531 184.161C59.6659 211.965 78.9105 202.514 77.5477 197.701C77.5477 197.701 80.0945 191.661 79.7037 189.931C79.313 188.201 76.6085 175.507 80.5346 170.573" fill="white"/>
<mask id="mask1_5840_15258" style="mask-type:luminance" maskUnits="userSpaceOnUse" x="59" y="138" width="33" height="66">
<path d="M91.1035 138.635C83.5267 142.511 60.1253 167.294 59.9512 184.16C59.664 211.964 78.9086 202.513 77.5457 197.7C77.5457 197.7 80.0925 191.66 79.7018 189.93C79.311 188.2 76.6066 175.507 80.5327 170.572" fill="white"/>
</mask>
<g mask="url(#mask1_5840_15258)">
<path d="M52.9294 181.993C52.9294 181.993 53.1036 181.965 53.4166 181.921C55.8034 181.579 66.2448 180.317 68.7939 183.905C71.6797 187.964 80.0921 181.28 80.0921 181.28C80.0921 181.28 95.4765 209.809 71.1971 210.167C46.9178 210.524 46.1976 191.426 46.1976 191.426" fill="white"/>
</g>
<path d="M91.1055 138.636C83.5286 142.512 60.1273 167.295 59.9531 184.161C59.6659 211.965 78.9105 202.514 77.5477 197.701" stroke="#4D64F1" stroke-width="2.3308" stroke-linecap="round"/>
<path d="M132.223 146.154C135.367 151.031 148.038 176.679 144.325 195.195C141.849 218.128 139.017 217.136 140.196 220.484C140.552 221.807 141.072 221.746 143.077 223.359C144.68 224.65 144.678 230.69 144.325 233.004H115.783" fill="white"/>
<path d="M132.223 146.154C135.367 151.031 148.038 176.679 144.325 195.195C141.849 218.128 139.017 217.136 140.196 220.484C140.552 221.807 141.072 221.746 143.077 223.359C144.68 224.65 144.678 230.69 144.325 233.004H115.783" stroke="#FF4141" stroke-width="2.3308" stroke-linecap="round"/>
<path d="M93.4292 146.153C90.2045 149.662 82.2498 165.069 79.0722 175.441L93.4292 146.153ZM111.783 204.496L110.797 222.412C106.428 221.832 104.288 222.017 109.871 223.157C119.614 225.147 116.912 230.706 115.575 233.235H79.0722C79.0722 221.949 78.3543 211.532 78.3543 196.648" fill="white"/>
<path d="M93.4292 146.153C90.2045 149.662 82.2498 165.069 79.0722 175.441M111.783 204.496L110.797 222.412C106.428 221.832 104.288 222.017 109.871 223.157C119.614 225.147 116.912 230.706 115.575 233.235H79.0722C79.0722 221.949 78.3543 211.532 78.3543 196.648" stroke="#FF4141" stroke-width="2.3308" stroke-linecap="round" stroke-linejoin="round"/>
<path d="M153.369 190.627C152.312 192.249 149.572 195.038 147.085 193.215C146.404 192.107 145.679 189.433 148.205 187.593" fill="white"/>
<path d="M153.369 190.627C152.312 192.249 149.572 195.038 147.085 193.215C146.404 192.107 145.679 189.433 148.205 187.593" stroke="#FF4141" stroke-width="2.23093" stroke-linecap="round" stroke-linejoin="round"/>
<path d="M79.1022 175.383C78.8998 176.874 78.0336 180.152 78.0712 181.248C78.2195 185.47 83.0707 188.633 79.3988 195.48C78.389 197.081 76.1788 199.851 74.4629 195.372L74.6535 190.828" stroke="#FF4141" stroke-width="2.3308" stroke-linecap="round"/>
<path d="M161.037 84.3817C161.031 84.3502 161.016 84.334 161.025 84.3033C161.272 83.2713 168.193 54.3158 159.505 41.0167C159.453 40.9442 159.377 40.9172 159.297 40.9446C157.713 41.6253 141.372 48.8207 136.554 57.1131C136.503 57.2042 136.392 57.2301 136.3 57.1868C135.254 56.6468 128.955 53.904 109.413 54.6012C88.9325 55.4333 83.7316 58.4976 82.8047 59.1937C82.7154 59.2595 82.5752 59.2451 82.5095 59.1486C77.0838 51.2603 60.2957 45.3433 58.6639 44.7834C58.5791 44.756 58.5069 44.7916 58.464 44.8674C50.7764 58.7874 59.7996 87.1406 60.1178 88.1447C60.1241 88.1761 60.1233 88.1917 60.114 88.2224C53.6732 114.272 59.6189 126.679 59.6835 126.799C59.6835 126.799 59.6835 126.799 59.6831 126.806C68.1842 141.514 89.7391 146.651 103.021 148.439C110.51 149.447 118.112 149.097 125.47 147.381C137.92 144.472 157.058 137.712 164.26 122.85C164.277 122.82 164.286 122.797 164.295 122.766C164.616 121.979 169.149 109.164 161.037 84.3817Z" fill="white"/>
<path d="M160.606 84.413C160.592 84.3812 160.585 84.3653 160.594 84.3346C160.841 83.303 167.413 55.7569 159.677 42.0683C159.454 41.6684 158.197 41.2817 157.652 41.5284C153.423 43.461 140.335 49.8862 136.117 57.1527C136.066 57.2437 135.955 57.2696 135.863 57.2263C134.817 56.6862 128.515 53.9424 108.969 54.6343C88.4832 55.4608 83.2818 58.523 82.3549 59.2187C82.2656 59.2845 82.1253 59.2701 82.0596 59.1735C77.8288 53.0244 66.6876 48.0733 61.2107 45.9215C60.1584 45.5056 58.8499 45.8406 58.3503 46.1283C57.8585 46.4164 56.8942 47.2349 56.5928 48.1082C51.5818 62.7259 59.3523 87.1451 59.6704 88.1568C59.6767 88.1883 59.676 88.2038 59.6662 88.2423C53.2311 114.284 59.1818 126.689 59.2463 126.809C59.2463 126.809 59.2463 126.809 59.246 126.817C67.7533 141.523 89.315 146.665 102.6 148.463C110.091 149.473 117.696 149.125 125.054 147.411C137.491 144.513 156.576 137.781 163.804 122.972C163.839 122.904 163.882 122.813 163.902 122.736C164.398 121.397 168.528 108.614 160.606 84.413Z" stroke="#4D64F1" stroke-width="2.23058" stroke-miterlimit="10" stroke-linecap="round" stroke-linejoin="round"/>
<path d="M110.939 55.7715C116.593 61.7548 123.793 86.2997 121.746 111.43" stroke="#4EB474" stroke-width="2.20117" stroke-miterlimit="10" stroke-linecap="round" stroke-linejoin="round"/>
<path d="M68.9902 135.905C85.4393 132.162 126.316 126.035 158.229 131.472" stroke="#FF4141" stroke-width="2.20117" stroke-miterlimit="10" stroke-linecap="round" stroke-linejoin="round"/>
<path d="M152.903 75.2676C157.04 100.089 157.926 113.091 150.539 129.638M68.6875 160.665C71.6424 161.847 77.966 164.92 79.6207 167.757M141.083 167.757C142.265 166.181 145.456 162.556 148.766 160.665" stroke="#FF4141" stroke-width="2.20117" stroke-miterlimit="10" stroke-linecap="round" stroke-linejoin="round"/>
<path d="M74.6051 52.2801L70.4682 57.008M56.5801 62.6224L62.1944 62.6224M146.41 49.3252L151.433 54.9396M157.452 59.0764L161.293 59.0764" stroke="#FF4141" stroke-width="2.20117" stroke-miterlimit="10" stroke-linecap="round" stroke-linejoin="round"/>
<path d="M69.582 77.1016C86.0804 72.5707 125.992 65.7842 153.65 74.8854" stroke="#FF4141" stroke-width="2.20117" stroke-miterlimit="10" stroke-linecap="round" stroke-linejoin="round"/>
<path d="M86.2969 157.812L101.784 164.415L112.082 175.735M138.653 159.286L131.028 164.415L120.258 178.644" stroke="#FF4141" stroke-width="2.20117" stroke-miterlimit="10" stroke-linecap="round" stroke-linejoin="round"/>
<path d="M81.6953 173.728L115.677 189.389L125.428 189.389L143.453 176.387" stroke="#FF4141" stroke-width="2.20117" stroke-miterlimit="10" stroke-linecap="round" stroke-linejoin="round"/>
<path d="M103.859 130.881C104.45 134.722 103.859 143.882 101.791 148.315M136.955 129.403C137.053 132.851 136.777 140.868 134.886 145.36" stroke="#FF4141" stroke-width="2.20117" stroke-miterlimit="10" stroke-linecap="round" stroke-linejoin="round"/>
<circle cx="74.3092" cy="81.9772" r="2.36394" stroke="#FF4141" stroke-width="2.20117" stroke-miterlimit="10" stroke-linecap="round" stroke-linejoin="round"/>
<circle cx="149.956" cy="79.613" r="2.36394" stroke="#FF4141" stroke-width="2.20117" stroke-miterlimit="10" stroke-linecap="round" stroke-linejoin="round"/>
<circle cx="98.3913" cy="136.495" r="2.36394" stroke="#FF4141" stroke-width="2.20117" stroke-miterlimit="10" stroke-linecap="round" stroke-linejoin="round"/>
<circle cx="141.831" cy="135.018" r="2.36394" stroke="#FF4141" stroke-width="2.20117" stroke-miterlimit="10" stroke-linecap="round" stroke-linejoin="round"/>
<circle cx="72.6842" cy="167.226" r="2.36394" stroke="#FF4141" stroke-width="2.20117" stroke-miterlimit="10" stroke-linecap="round" stroke-linejoin="round"/>
<circle cx="150.102" cy="168.114" r="2.36394" stroke="#FF4141" stroke-width="2.20117" stroke-miterlimit="10" stroke-linecap="round" stroke-linejoin="round"/>
<path d="M58.4688 106.084C69.3473 103.112 98.0469 97.6445 119.883 97.169C141.719 96.6935 157.562 99.9425 163.496 101.924" stroke="#FF4141" stroke-width="2.23058" stroke-miterlimit="10" stroke-linecap="round" stroke-linejoin="round"/>
<path d="M77.4555 180.964C73.8111 180.176 65.2222 179.073 60.0215 180.964M144.237 180.964C146.798 180.176 153.042 178.659 157.534 178.896" stroke="#FF4141" stroke-width="2.23058" stroke-miterlimit="10" stroke-linecap="round" stroke-linejoin="round"/>
<path d="M67.1156 76.0645C66.1306 88.0811 67.1158 119.797 74.7985 133.39" stroke="#FF4141" stroke-width="2.23058" stroke-miterlimit="10" stroke-linecap="round" stroke-linejoin="round"/>
<path d="M157.159 46.4121C157.128 46.2627 156.951 46.2076 156.851 46.3197C155.596 47.8173 149.561 55.0209 145.66 59.2349C144.181 60.8387 144.135 63.4988 145.564 65.1387L153.208 73.9381C153.312 74.0598 153.755 74.1119 153.878 74.0009C155.415 72.6412 161.057 66.1274 157.159 46.4121Z" fill="#59B87D"/>
<path d="M68.1954 75.9251C68.332 76.0094 68.7612 75.8739 68.8384 75.7374L75.5717 64.1126C76.1966 63.0288 75.8778 61.5656 74.8492 60.8475C70.4635 57.7676 61.7149 50.6746 60.0376 49.3108C59.9247 49.2199 59.7558 49.3131 59.7563 49.461C59.669 69.5588 66.4394 74.8845 68.1954 75.9251Z" fill="#59B87D"/>
<path d="M122.457 127.311V117.248" stroke="#4EB474" stroke-width="2.20117" stroke-linecap="round"/>
<path d="M115.053 161.914C115.041 161.876 114.988 161.862 114.966 161.899C114.596 162.487 112.414 165.946 111.763 166.675C111.745 166.696 111.746 166.727 111.767 166.745L114.943 169.657C114.978 169.689 115.098 169.687 115.126 169.652C115.495 169.225 116.793 167.236 115.053 161.914Z" fill="#FFEBD8"/>
<path d="M125.883 171.528L117.615 176.733L117.404 167.809L117.163 157.535L125.883 171.528Z" fill="#F4E66A"/>
<path d="M117.162 157.534L117.404 167.812L117.614 176.733L109.109 171.852L117.162 157.534Z" fill="#E98870"/>
<path d="M117.404 167.812L125.884 171.528L117.615 176.733L109.109 171.852L117.404 167.812Z" fill="#905FA2"/>
<path d="M125.922 173.148L117.819 185.332L117.653 178.35L125.922 173.148Z" fill="#0EA9CC"/>
<path d="M117.653 178.35L117.818 185.333L109.141 173.471L117.653 178.35Z" fill="#6375B9"/>
<path fill-rule="evenodd" clip-rule="evenodd" d="M117.404 167.812L125.884 171.528L117.615 176.733L117.404 167.812Z" fill="#4EB474"/>
<path d="M68.6855 115.204C84.8275 120.655 127.41 128.678 155.082 115.597" stroke="#FF4141" stroke-width="2.23058" stroke-miterlimit="10" stroke-linecap="round" stroke-linejoin="round"/>
<path d="M87.5016 112.531C86.6631 115.676 85.1275 123.411 85.379 125.424L92.6115 115.047C91.7205 117.667 91.1178 121.179 91.1178 125.424L97.0924 117.72C96.6207 119.344 95.7402 122.877 95.9918 124.009" stroke="#FF4141" stroke-width="2.23058" stroke-miterlimit="10" stroke-linecap="round" stroke-linejoin="round"/>
<path d="M147.612 110.959C148.556 114.575 150.128 120.864 149.342 123.223L143.446 112.531C144.625 115.597 145.38 121.886 144.625 123.773L139.908 116.462C140.223 117.982 141.685 121.76 140.93 123.773" stroke="#FF4141" stroke-width="2.23058" stroke-miterlimit="10" stroke-linecap="round" stroke-linejoin="round"/>
<path d="M122.339 107.636C122.63 107.252 122.937 106.904 123.266 106.591C123.551 106.334 123.876 106.102 124.24 105.883C124.604 105.671 124.987 105.568 125.392 105.582C125.965 105.609 126.441 105.724 126.831 105.933C127.221 106.142 127.533 106.416 127.772 106.744C128.011 107.079 128.178 107.461 128.279 107.887C128.38 108.318 128.422 108.758 128.412 109.212C128.401 109.667 128.339 110.108 128.22 110.528C128.101 110.949 127.954 111.339 127.768 111.711C127.582 112.076 127.38 112.418 127.15 112.73C126.926 113.041 126.697 113.33 126.464 113.584C126.109 113.97 125.743 114.333 125.356 114.671C124.968 115.01 124.6 115.304 124.246 115.546C123.891 115.794 123.569 115.986 123.277 116.133C122.986 116.28 122.756 116.356 122.587 116.365C122.407 116.379 122.166 116.327 121.876 116.198C121.586 116.075 121.27 115.898 120.921 115.68C120.572 115.462 120.208 115.196 119.816 114.895C119.425 114.588 119.046 114.265 118.663 113.924C118.418 113.705 118.146 113.45 117.864 113.16C117.577 112.869 117.308 112.551 117.053 112.199C116.797 111.846 116.572 111.467 116.383 111.055C116.194 110.642 116.082 110.199 116.042 109.725C116.007 109.25 116.04 108.808 116.142 108.387C116.243 107.971 116.412 107.593 116.638 107.253C116.863 106.918 117.15 106.626 117.486 106.395C117.828 106.158 118.214 105.986 118.648 105.88C118.865 105.827 119.087 105.809 119.306 105.837C119.525 105.859 119.743 105.91 119.96 105.978C120.171 106.045 120.382 106.136 120.573 106.249C120.771 106.362 120.957 106.475 121.137 106.599C121.558 106.884 121.959 107.232 122.339 107.636Z" fill="white" stroke="#FF4141" stroke-width="2.20117" stroke-miterlimit="10" stroke-linecap="round" stroke-linejoin="round"/>
<path d="M135.424 100.614C133.661 100.644 132.136 99.7101 131.083 98.3484C130.029 96.9868 129.394 95.1436 129.36 93.1436C129.325 91.1439 129.896 89.2806 130.901 87.8844C131.907 86.4878 133.399 85.5037 135.161 85.4742C136.924 85.4448 138.449 86.3793 139.502 87.7411C140.555 89.1028 141.191 90.946 141.225 92.945C141.26 94.9437 140.689 96.8069 139.684 98.2032C138.679 99.5998 137.187 100.585 135.424 100.614Z" fill="#F4E66A" stroke="#FF4141" stroke-width="2.23058" stroke-miterlimit="10" stroke-linecap="round" stroke-linejoin="round"/>
<path d="M99.079 99.7071C100.173 101.128 101.755 102.101 103.581 102.07C105.408 102.039 106.956 101.013 108 99.5561C109.044 98.0988 109.639 96.1523 109.602 94.0622L99.079 99.7071ZM99.079 99.7071C97.9853 98.2861 97.3241 96.361 97.2885 94.271M99.079 99.7071L97.2885 94.271M97.2885 94.271C97.2516 92.1807 97.846 90.2339 98.8903 88.7765C99.9346 87.3191 101.483 86.2932 103.309 86.2624C105.136 86.2315 106.718 87.2044 107.811 88.6254C108.905 90.0464 109.566 91.9715 109.602 94.0615L97.2885 94.271Z" fill="#F4E66A" stroke="#FF4141" stroke-width="2.23058" stroke-miterlimit="10" stroke-linecap="round" stroke-linejoin="round"/>
</g>
</g>
<defs>
<linearGradient id="paint0_linear_5840_15258" x1="102.544" y1="0" x2="161.082" y2="205.089" gradientUnits="userSpaceOnUse">
<stop stop-color="#00F0FF"/>
<stop offset="1" stop-color="#FF6F43"/>
</linearGradient>
<linearGradient id="paint1_linear_5840_15258" x1="102.544" y1="0" x2="161.082" y2="205.089" gradientUnits="userSpaceOnUse">
<stop stop-color="#00F0FF"/>
<stop offset="1" stop-color="#FF6F43"/>
</linearGradient>
<linearGradient id="paint2_linear_5840_15258" x1="7.18164" y1="96.6978" x2="199.069" y2="96.6978" gradientUnits="userSpaceOnUse">
<stop stop-color="#101010"/>
<stop offset="1" stop-color="#484848"/>
</linearGradient>
<clipPath id="clip0_5840_15258">
<rect x="26.1699" y="19.1416" width="168.89" height="168.89" rx="84.445" fill="white"/>
</clipPath>
<clipPath id="clip1_5840_15258">
<rect width="161" height="161" fill="white" transform="translate(33.9395 27)"/>
</clipPath>
</defs>
</svg>
