<svg width="26" height="27" viewBox="0 0 26 27" fill="none" xmlns="http://www.w3.org/2000/svg">
<mask id="mask0_5339_2366" style="mask-type:luminance" maskUnits="userSpaceOnUse" x="0" y="0" width="26" height="27">
<path d="M25.6099 0.591797H0V26.2017H25.6099V0.591797Z" fill="white"/>
</mask>
<g mask="url(#mask0_5339_2366)">
<path fill-rule="evenodd" clip-rule="evenodd" d="M12.6799 0.591797C5.6052 0.591797 -0.125 6.46694 -0.125 13.7206C-0.125 19.5301 3.5404 24.437 8.63038 26.1765C9.27063 26.2914 9.5107 25.8975 9.5107 25.5529C9.5107 25.2411 9.49471 24.2073 9.49471 23.1076C6.27747 23.7149 5.44515 22.3037 5.18905 21.5651C5.045 21.1877 4.42076 20.0225 3.87655 19.7107C3.42838 19.4645 2.78811 18.8572 3.86054 18.8409C4.86893 18.8244 5.58921 19.7928 5.8293 20.1865C6.98175 22.1722 8.82245 21.6143 9.55874 21.2697C9.67076 20.4164 10.0069 19.8419 10.3751 19.5138C7.52596 19.1855 4.54881 18.0531 4.54881 13.0313C4.54881 11.6036 5.045 10.422 5.86131 9.50298C5.73326 9.17476 5.28509 7.82905 5.98936 6.02385C5.98936 6.02385 7.06176 5.67922 9.5107 7.36955C10.5351 7.07415 11.6235 6.92645 12.712 6.92645C13.8004 6.92645 14.8888 7.07415 15.9132 7.36955C18.3622 5.66281 19.4346 6.02385 19.4346 6.02385C20.1388 7.82905 19.6907 9.17476 19.5626 9.50298C20.3789 10.422 20.8751 11.5872 20.8751 13.0313C20.8751 18.0695 17.882 19.1855 15.0328 19.5138C15.497 19.924 15.8972 20.7117 15.8972 21.9426C15.8972 23.6986 15.8812 25.1099 15.8812 25.5529C15.8812 25.8975 16.1213 26.3079 16.7615 26.1765C19.3035 25.2966 21.5123 23.6216 23.0773 21.3871C24.642 19.1527 25.4841 16.4714 25.4849 13.7206C25.4849 6.46694 19.7547 0.591797 12.6799 0.591797Z" fill="#969190"/>
</g>
</svg>
