<svg width="27" height="27" viewBox="0 0 27 27" fill="none" xmlns="http://www.w3.org/2000/svg">
<rect width="27" height="27" rx="13.5" fill="#202939"/>
<mask id="mask0_5840_18741" style="mask-type:luminance" maskUnits="userSpaceOnUse" x="5" y="5" width="17" height="17">
<path d="M21.9375 5.26367H5.0625V21.7367H21.9375V5.26367Z" fill="white"/>
</mask>
<g mask="url(#mask0_5840_18741)">
<path fill-rule="evenodd" clip-rule="evenodd" d="M13.418 5.26367C8.75624 5.26367 4.98047 9.04275 4.98047 13.7085C4.98047 17.4454 7.3957 20.6016 10.7496 21.7205C11.1715 21.7945 11.3297 21.5411 11.3297 21.3194C11.3297 21.1189 11.3191 20.4539 11.3191 19.7466C9.19922 20.1372 8.65079 19.2294 8.48204 18.7544C8.38711 18.5116 7.97579 17.7621 7.61719 17.5615C7.32188 17.4032 6.89999 17.0125 7.60665 17.002C8.2711 16.9914 8.74571 17.6143 8.90391 17.8676C9.66329 19.1449 10.8762 18.786 11.3613 18.5643C11.4352 18.0154 11.6566 17.6459 11.8992 17.4349C10.0219 17.2237 8.06016 16.4953 8.06016 13.2652C8.06016 12.3468 8.38711 11.5868 8.925 10.9956C8.84063 10.7845 8.54532 9.9189 9.00938 8.75773C9.00938 8.75773 9.71601 8.53606 11.3297 9.62333C12.0047 9.43332 12.7219 9.33832 13.4391 9.33832C14.1562 9.33832 14.8734 9.43332 15.5484 9.62333C17.1621 8.5255 17.8688 8.75773 17.8688 8.75773C18.3328 9.9189 18.0375 10.7845 17.9531 10.9956C18.491 11.5868 18.818 12.3362 18.818 13.2652C18.818 16.5059 16.8457 17.2237 14.9684 17.4349C15.2742 17.6988 15.5379 18.2054 15.5379 18.9971C15.5379 20.1267 15.5273 21.0344 15.5273 21.3194C15.5273 21.5411 15.6856 21.8051 16.1074 21.7205C17.7824 21.1546 19.2379 20.0772 20.269 18.6399C21.3001 17.2026 21.855 15.4779 21.8555 13.7085C21.8555 9.04275 18.0797 5.26367 13.418 5.26367Z" fill="#C0C3C7"/>
</g>
</svg>
