<svg width="96" height="27" viewBox="0 0 96 27" fill="none" xmlns="http://www.w3.org/2000/svg">
<path d="M34.5371 8.94434V13.0276H29.3894V8.94434H28.3633V18.0785H29.3894V14.0208H34.5371V18.0785H35.5675V8.94434H34.5371Z" fill="white"/>
<path d="M49.4757 14.622L52.0279 11.2676H50.8251L48.9196 13.9102L46.8415 11.2676H45.5869L48.2384 14.6263L45.5352 18.0787H46.7208L48.8161 15.3551L50.9588 18.0787H52.1961L49.4757 14.622Z" fill="white"/>
<path d="M58.749 11.268L58.7231 12.4699C58.8525 12.6916 58.9473 12.9217 58.999 13.1732L58.7102 13.0283L58.7231 12.4699C58.7016 12.4359 58.6843 12.4017 58.6627 12.3719C58.499 12.1247 58.2963 11.9073 58.0549 11.7197C57.8134 11.5322 57.5375 11.3873 57.2314 11.2807C56.921 11.1784 56.5891 11.123 56.2269 11.123C55.619 11.123 55.0715 11.2765 54.5843 11.5791C54.0971 11.8817 53.7048 12.2994 53.4159 12.8322C53.1271 13.365 52.9805 13.9702 52.9805 14.6607C52.9805 15.3512 53.1227 15.948 53.403 16.4807C53.6832 17.0178 54.0669 17.4397 54.5498 17.7467C55.0326 18.0578 55.5759 18.2112 56.1751 18.2112C56.52 18.2112 56.8477 18.1601 57.1581 18.0535C57.4686 17.9512 57.7531 17.8063 58.0032 17.623C58.2532 17.4397 58.4688 17.2309 58.6412 16.9922C58.6757 16.9454 58.7059 16.8984 58.7318 16.8559V16.4126L58.9948 16.2421C58.943 16.4552 58.8567 16.6555 58.7318 16.8559V18.0834H59.7362V11.2722H58.7446L58.749 11.268ZM58.4774 16.0119C58.2704 16.4083 57.9859 16.7152 57.6281 16.9368C57.2659 17.1584 56.8563 17.2693 56.3993 17.2693C55.9423 17.2693 55.5198 17.1542 55.1577 16.9283C54.7955 16.7024 54.5153 16.3912 54.3127 15.9949C54.1101 15.5984 54.0109 15.1552 54.0109 14.6565C54.0109 14.1578 54.1143 13.706 54.3213 13.3139C54.5282 12.9217 54.8085 12.6149 55.1663 12.3889C55.5242 12.163 55.9337 12.048 56.3993 12.048C56.8649 12.048 57.2659 12.163 57.6281 12.3889C57.9902 12.6149 58.2704 12.926 58.4774 13.3139C58.6843 13.706 58.7878 14.1535 58.7878 14.6565C58.7878 15.1594 58.6843 15.6112 58.4774 16.0077V16.0119Z" fill="white"/>
<path d="M58.994 13.173C58.9422 12.9215 58.8474 12.6914 58.718 12.4697L58.7051 13.0281L58.994 13.173Z" fill="white"/>
<path d="M58.7324 16.4083V16.8515C58.8575 16.6555 58.948 16.4509 58.9954 16.2378L58.7324 16.4083Z" fill="white"/>
<path d="M67.5236 12.4188C67.5236 12.4188 67.5282 12.423 67.5322 12.4273C67.6532 12.6106 67.7353 12.7982 67.7912 12.9899L67.5151 12.9516L67.5282 12.4188C67.4119 12.2397 67.2653 12.0735 67.093 11.9201C66.9161 11.7624 66.7222 11.626 66.5065 11.5024C66.2909 11.3788 66.0535 11.285 65.7991 11.2211C65.545 11.1572 65.282 11.123 65.0061 11.123C64.3809 11.123 63.8162 11.2765 63.3161 11.5791C62.8159 11.8817 62.415 12.3037 62.1219 12.8365C61.8287 13.3735 61.6777 13.983 61.6777 14.6693C61.6777 15.3555 61.8244 15.9565 62.1132 16.4893C62.4021 17.0263 62.803 17.444 63.3074 17.7467C63.8118 18.0493 64.3895 18.2027 65.032 18.2027C65.4544 18.2027 65.8556 18.1175 66.2304 17.947C66.6058 17.7765 66.9286 17.5506 67.1962 17.2693C67.3474 17.1073 67.4638 16.9411 67.5539 16.7663V16.3912L67.7136 16.3529C67.6788 16.4978 67.6229 16.6342 67.5539 16.7706V17.6997C67.5539 18.2411 67.4592 18.6929 67.2692 19.0552C67.0798 19.4217 66.8083 19.6945 66.4506 19.8821C66.0923 20.0696 65.6614 20.1634 65.1483 20.1634C64.8681 20.1634 64.5879 20.1293 64.3163 20.0654C64.0446 20.0014 63.7903 19.9119 63.5575 19.8054C63.3247 19.6945 63.1177 19.5709 62.9453 19.4345L62.5486 20.2572C62.8461 20.4916 63.2256 20.6877 63.6825 20.8454C64.1395 21.003 64.6224 21.0797 65.1354 21.0797C65.6485 21.0797 66.1101 21.003 66.5282 20.8496C66.9464 20.6962 67.308 20.4745 67.6104 20.1847C67.9122 19.8949 68.1449 19.5368 68.3041 19.1149C68.4638 18.6929 68.5414 18.207 68.5414 17.6614V11.268H67.5499L67.5236 12.4188ZM67.2607 16.0162C67.0496 16.4083 66.761 16.7152 66.3941 16.9368C66.0279 17.1584 65.614 17.2693 65.1483 17.2693C64.6827 17.2693 64.2387 17.1542 63.8765 16.9283C63.51 16.7024 63.2255 16.3912 63.0186 15.9949C62.8116 15.5984 62.7082 15.1552 62.7082 14.6565C62.7082 14.1578 62.8159 13.706 63.0229 13.3139C63.2342 12.9217 63.523 12.6149 63.8895 12.3889C64.2559 12.163 64.6741 12.048 65.1483 12.048C65.6226 12.048 66.0325 12.163 66.4027 12.3889C66.7735 12.6149 67.0628 12.926 67.2692 13.3139C67.4763 13.706 67.5802 14.1535 67.5802 14.6565C67.5802 15.1594 67.4724 15.624 67.2653 16.0119L67.2607 16.0162Z" fill="white"/>
<path d="M67.5449 16.3952V16.7702C67.614 16.6339 67.6698 16.4975 67.7047 16.3525L67.5449 16.3909V16.3952Z" fill="white"/>
<path d="M67.7879 12.9896C67.736 12.7978 67.6498 12.6102 67.5295 12.427C67.5295 12.427 67.5249 12.4227 67.5203 12.4185L67.5078 12.9512L67.7833 12.9896H67.7879Z" fill="white"/>
<path d="M76.2188 16.4083V16.8515C76.3437 16.6555 76.4344 16.4509 76.4817 16.2378L76.2188 16.4083Z" fill="white"/>
<path d="M76.2052 12.4699C76.3348 12.6916 76.4294 12.926 76.4814 13.1732L76.1928 13.0283L76.2052 12.4699C76.1835 12.4359 76.1665 12.4017 76.1448 12.3719C75.981 12.1247 75.7785 11.9073 75.5373 11.7197C75.296 11.5322 75.0198 11.3873 74.7134 11.2807C74.4077 11.1784 74.0711 11.123 73.7095 11.123C73.1013 11.123 72.5536 11.2765 72.0665 11.5791C71.5793 11.8817 71.1868 12.2994 70.8981 12.8322C70.6095 13.365 70.4629 13.9702 70.4629 14.6607C70.4629 15.3512 70.6049 15.948 70.885 16.4807C71.1657 17.0178 71.549 17.4397 72.0323 17.7467C72.5149 18.0578 73.0579 18.2112 73.6529 18.2112C73.9981 18.2112 74.3255 18.1601 74.6359 18.0535C74.9462 17.9512 75.2309 17.8063 75.4814 17.623C75.7312 17.4397 75.9469 17.2309 76.1191 16.9922C76.154 16.9454 76.1835 16.8984 76.2098 16.8559V16.4126L76.4728 16.2421C76.4209 16.4552 76.3348 16.6555 76.2098 16.8559V18.0834H77.2145V11.2722H76.2223L76.1967 12.4742L76.2052 12.4699ZM75.964 16.0119C75.7568 16.4083 75.4722 16.7152 75.1106 16.9368C74.7483 17.1584 74.3387 17.2693 73.8817 17.2693C73.4248 17.2693 73.002 17.1542 72.6398 16.9283C72.2775 16.7024 71.9974 16.3912 71.7949 15.9949C71.5924 15.5984 71.4931 15.1552 71.4931 14.6565C71.4931 14.1578 71.5964 13.706 71.8035 13.3139C72.0106 12.9217 72.2907 12.6149 72.6483 12.3889C73.0066 12.163 73.4162 12.048 73.8817 12.048C74.3472 12.048 74.7483 12.163 75.1106 12.3889C75.4722 12.6149 75.7529 12.926 75.964 13.3139C76.1711 13.706 76.2743 14.1535 76.2743 14.6565C76.2743 15.1594 76.1711 15.6112 75.964 16.0077V16.0119Z" fill="white"/>
<path d="M76.482 13.173C76.4301 12.9215 76.3354 12.6871 76.2058 12.4697L76.1934 13.0281L76.482 13.173Z" fill="white"/>
<path d="M81.5926 11.2674V9.48145H80.6051V11.2674H79.0449V12.2051H80.6051V18.0785H81.5926V12.2051H83.3343V11.2674H81.5926Z" fill="white"/>
<path d="M85.558 14.0332H85.0879L85.2345 14.8558H85.5231C85.5231 14.7834 85.5106 14.7109 85.5106 14.6342C85.5106 14.4211 85.5277 14.2207 85.558 14.0332Z" fill="white"/>
<path d="M41.8017 14.8563L43.2417 14.0337L43.3969 13.9441L44.3109 13.4199H44.3152L44.3066 13.3986C44.2807 13.2878 44.2505 13.1812 44.2117 13.0746C44.0695 12.674 43.8625 12.3288 43.5866 12.0389C43.3107 11.7491 42.9787 11.5189 42.595 11.3527C42.2113 11.1865 41.7888 11.1055 41.3231 11.1055C40.8317 11.1055 40.3747 11.195 39.9522 11.374C39.5297 11.5531 39.1676 11.8045 38.8614 12.1241C38.5597 12.4481 38.3225 12.8232 38.1544 13.2537C37.9862 13.6841 37.9043 14.1658 37.9043 14.6943C37.9043 15.3806 38.0553 15.9901 38.3527 16.5229C38.6502 17.0556 39.0683 17.4648 39.5987 17.7632C39.866 17.9124 40.1548 18.0232 40.4609 18.0956C40.7627 18.1681 41.0861 18.2065 41.4266 18.2065C41.7673 18.2065 42.1208 18.1596 42.457 18.0701C42.7933 17.9806 43.0994 17.857 43.3797 17.7036C43.6599 17.5501 43.9014 17.3753 44.104 17.175L43.6254 16.5229L43.5866 16.4717C43.1986 16.7956 42.8451 17.0088 42.5261 17.1196C42.207 17.2304 41.8836 17.2816 41.556 17.2816C41.362 17.2816 41.1809 17.2645 41.0041 17.2346C40.6808 17.1836 40.392 17.094 40.1376 16.9534C39.8185 16.7786 39.5641 16.5356 39.3659 16.2416L39.5901 16.1137L41.7974 14.8521L41.8017 14.8563ZM40.1376 14.8563L39.2064 15.3891L39.0253 15.4914C38.9735 15.2953 38.939 15.0822 38.9261 14.8563C38.9261 14.7839 38.9132 14.7114 38.9132 14.6346C38.9132 14.4216 38.9304 14.2212 38.9606 14.0337C39.008 13.7268 39.0856 13.4498 39.2064 13.2111C39.4004 12.8274 39.6762 12.5376 40.0384 12.3416C40.4006 12.1455 40.8273 12.0474 41.3189 12.0474C41.7414 12.0474 42.1035 12.137 42.4096 12.3203C42.7114 12.5036 42.9485 12.7379 43.1167 13.0321C43.1339 13.0619 43.1468 13.096 43.1641 13.1258L43.0434 13.194L41.5775 14.0294L40.1376 14.8521V14.8563Z" fill="white"/>
<path d="M88.3949 14.8563L89.8354 14.0337L89.9906 13.9441L90.9044 13.4199H90.9084L90.8998 13.3986C90.8742 13.2878 90.844 13.1812 90.8052 13.0746C90.6631 12.674 90.4561 12.3288 90.1799 12.0389C89.9044 11.7491 89.5724 11.5189 89.1884 11.3527C88.8045 11.1865 88.3824 11.1055 87.9169 11.1055C87.4251 11.1055 86.9682 11.195 86.5454 11.374C86.1233 11.5531 85.7611 11.8045 85.4547 12.1241C85.1529 12.4481 84.9162 12.8232 84.7479 13.2537C84.5796 13.6841 84.498 14.1658 84.498 14.6943C84.498 15.3806 84.6486 15.9901 84.9464 16.5229C85.2436 17.0556 85.6618 17.4648 86.1923 17.7632C86.4593 17.9124 86.7486 18.0232 87.0543 18.0956C87.3561 18.1681 87.6795 18.2065 88.0201 18.2065C88.3607 18.2065 88.7144 18.1596 89.0504 18.0701C89.387 17.9806 89.6927 17.857 89.9728 17.7036C90.2535 17.5501 90.4948 17.3753 90.6973 17.175L90.2187 16.5229L90.1799 16.4717C89.792 16.7956 89.4383 17.0088 89.1194 17.1196C88.8005 17.2304 88.4771 17.2816 88.1496 17.2816C87.9557 17.2816 87.7742 17.2645 87.5974 17.2346C87.2745 17.1836 86.9853 17.094 86.7308 16.9534C86.4119 16.7786 86.1575 16.5356 85.9596 16.2416L86.1838 16.1137L88.3909 14.8521L88.3949 14.8563ZM86.7308 14.8563L85.7998 15.3891L85.6184 15.4914C85.5671 15.2953 85.5322 15.0822 85.5198 14.8563C85.5198 14.7839 85.5066 14.7114 85.5066 14.6346C85.5066 14.4216 85.5237 14.2212 85.5539 14.0337C85.6013 13.7268 85.6789 13.4498 85.7998 13.2111C85.9938 12.8274 86.2699 12.5376 86.6315 12.3416C86.9938 12.1455 87.4205 12.0474 87.9123 12.0474C88.335 12.0474 88.6967 12.137 89.003 12.3203C89.3048 12.5036 89.5422 12.7379 89.7098 13.0321C89.7276 13.0619 89.7401 13.096 89.7578 13.1258L89.6368 13.194L88.1707 14.0294L86.7308 14.8521V14.8563Z" fill="white"/>
<path d="M22.3651 17.7332L14.9238 21.9784V13.5391L22.3651 9.28955V17.7332Z" fill="white"/>
<path d="M14.9213 13.5395L7.48438 9.29L14.8782 5.07031L22.3152 9.31983L14.9213 13.5395Z" fill="white"/>
<path d="M14.8912 25.4228C14.8179 25.4228 14.7489 25.4058 14.6842 25.3674L4.88468 19.7753C4.75534 19.7028 4.67773 19.5665 4.67773 19.4215V7.91333C4.67773 7.76844 4.75534 7.63201 4.88468 7.55953L14.6842 1.96743C14.8136 1.89497 14.9688 1.89497 15.0981 1.96743L24.958 7.59366C25.0874 7.66613 25.165 7.8025 25.165 7.94745V19.089C25.165 19.2297 25.0917 19.3618 24.9666 19.4386L15.1067 25.3632C15.0421 25.4015 14.9688 25.4228 14.8912 25.4228ZM5.5055 19.1871L14.8869 24.5405L24.3372 18.8632V8.18613L14.8912 2.79432L5.5055 8.15201V19.1871Z" fill="white"/>
</svg>
