<svg width="370" height="323" viewBox="0 0 370 323" fill="none" xmlns="http://www.w3.org/2000/svg">
<g clip-path="url(#clip0_5561_5513)">
<rect opacity="0.35" x="327.226" y="160.92" width="201.134" height="201.134" rx="8.5" transform="rotate(134.968 327.226 160.92)" fill="#141922" stroke="url(#paint0_linear_5561_5513)"/>
<rect opacity="0.15" x="366.394" y="160.898" width="256.526" height="256.526" rx="8.5" transform="rotate(134.968 366.394 160.898)" fill="#141922" stroke="url(#paint1_linear_5561_5513)"/>
<rect opacity="0.15" x="410.18" y="160.874" width="318.448" height="318.448" rx="8.5" transform="rotate(134.968 410.18 160.874)" fill="#141922" stroke="url(#paint2_linear_5561_5513)"/>
<rect x="283.293" y="160.945" width="139" height="139" rx="8.5" transform="rotate(134.968 283.293 160.945)" fill="#141922" stroke="url(#paint3_linear_5561_5513)"/>
<path d="M188.207 172.788V175.667C188.207 180.013 189.483 184.01 190.896 187.279C190.918 187.332 191.034 187.385 191.055 187.427C193.248 192.184 196.602 195.2 200.294 195.2C202.139 195.2 203.911 194.451 205.472 193.091C205.504 193.07 205.662 192.711 205.694 192.679C209.68 189.157 212.307 183.029 212.307 172.777H188.207V172.788Z" fill="#414A4F"/>
<path d="M190.769 175.657V137.561H202.581L178.197 109.127L153.812 137.561H164.507V175.509C164.507 179.823 166.353 183.799 168.895 187.047C168.926 187.1 168.916 187.142 168.968 187.195C172.839 192.057 178.703 195.2 185.369 195.2H200.556C191.37 192.637 191.412 187.111 190.769 175.657Z" fill="url(#paint4_linear_5561_5513)"/>
<path d="M168.683 187.442L168.674 187.43L168.664 187.419C168.62 187.37 168.596 187.323 168.581 187.283L168.555 187.211L168.508 187.151C165.642 183.468 164.131 179.418 164.131 175.498V138.426V137.926H163.631H153.812C153.677 137.926 153.543 137.846 153.474 137.709C153.414 137.569 153.442 137.414 153.524 137.321L153.524 137.321L153.527 137.317L177.911 108.883C177.964 108.822 178.063 108.772 178.191 108.772C178.319 108.772 178.418 108.822 178.471 108.883C178.471 108.883 178.471 108.883 178.471 108.883L202.855 137.317L202.858 137.321C202.949 137.425 202.97 137.579 202.911 137.702L202.908 137.709L202.905 137.715C202.85 137.836 202.716 137.926 202.57 137.926H191.643H191.143V138.426V175.635V175.648L191.144 175.661L191.207 176.895L191.207 176.897L191.212 176.983C191.492 182.119 191.704 185.992 192.905 188.856C193.519 190.317 194.391 191.525 195.657 192.514C196.916 193.5 198.543 194.252 200.643 194.838L200.644 194.838C200.818 194.886 200.937 195.059 200.913 195.255C200.893 195.426 200.746 195.565 200.545 195.565H185.357C178.879 195.565 172.809 192.61 168.683 187.442ZM169.259 186.944L169.283 186.992L169.316 187.033C173.29 191.979 179.138 194.824 185.368 194.824H196.105H197.945L196.358 193.893C193.81 192.398 192.465 190.357 191.69 187.601C190.904 184.809 190.709 181.318 190.466 176.936L190.466 176.935L190.393 175.694V137.561C190.393 137.356 190.555 137.196 190.757 137.196H200.671H201.758L201.051 136.371L178.576 110.141L178.196 109.698L177.817 110.141L155.331 136.36L154.623 137.186H155.71H164.517C164.722 137.186 164.882 137.348 164.882 137.551V175.498C164.882 180.3 167.236 184.293 169.172 186.79C169.198 186.83 169.227 186.881 169.259 186.944Z" fill="white" stroke="white"/>
</g>
<defs>
<linearGradient id="paint0_linear_5561_5513" x1="411.543" y1="350.428" x2="430.307" y2="161.049" gradientUnits="userSpaceOnUse">
<stop stop-color="#DE643E"/>
<stop offset="1" stop-color="#9EFEFF"/>
</linearGradient>
<linearGradient id="paint1_linear_5561_5513" x1="473.623" y1="402.338" x2="497.53" y2="161.063" gradientUnits="userSpaceOnUse">
<stop stop-color="#DE643E"/>
<stop offset="1" stop-color="#9EFEFF"/>
</linearGradient>
<linearGradient id="paint2_linear_5561_5513" x1="543.022" y1="460.368" x2="572.676" y2="161.078" gradientUnits="userSpaceOnUse">
<stop stop-color="#DE643E"/>
<stop offset="1" stop-color="#9EFEFF"/>
</linearGradient>
<linearGradient id="paint3_linear_5561_5513" x1="341.909" y1="292.199" x2="354.905" y2="161.034" gradientUnits="userSpaceOnUse">
<stop stop-color="#DE643E"/>
<stop offset="1" stop-color="#9EFEFF"/>
</linearGradient>
<linearGradient id="paint4_linear_5561_5513" x1="178.197" y1="109.127" x2="178.197" y2="195.2" gradientUnits="userSpaceOnUse">
<stop stop-color="white"/>
<stop offset="1" stop-color="#FFE2D9"/>
</linearGradient>
<clipPath id="clip0_5561_5513">
<rect width="370" height="322" fill="white" transform="translate(0 0.399902)"/>
</clipPath>
</defs>
</svg>
