<svg width="111" height="33" viewBox="0 0 111 33" fill="none" xmlns="http://www.w3.org/2000/svg">
<path d="M22.5634 18.7397C22.5634 19.9635 21.5699 20.957 20.3462 20.957C19.1224 20.957 18.1289 19.9635 18.1289 18.7397C18.1289 17.5159 19.1224 16.5225 20.3462 16.5225C21.5745 16.527 22.5634 17.5159 22.5634 18.7397Z" fill="#E0C091"/>
<path d="M17.6429 17.9742C17.695 17.7797 17.566 17.5687 17.3658 17.5459C17.116 17.5175 16.8658 17.4715 16.6173 17.4049L15.8627 17.2027C13.0514 16.4494 11.383 13.5597 12.1363 10.7484C12.8878 7.94366 15.7816 6.26928 18.5906 7.02197L19.3409 7.223C22.1456 7.97452 23.82 10.8682 23.0673 13.6773C22.9241 14.2119 22.7015 14.7049 22.417 15.148C22.0687 15.6906 22.1968 16.5023 22.5839 17.0178C23.0957 17.6992 24.3384 18.3407 24.8628 17.6689C25.5599 16.7759 26.0932 15.7319 26.4042 14.5714C27.6489 9.92599 24.8837 5.13639 20.2382 3.89165L19.4879 3.69062C14.8425 2.44587 10.0529 5.21115 8.80815 9.85661L8.0613 12.6439C7.72048 13.9158 6.41306 14.6707 5.14109 14.3299C4.22072 14.0832 3.27497 14.6293 3.02836 15.5496C2.78175 16.47 3.32778 17.4158 4.24815 17.6624C5.52011 18.0032 6.27495 19.3106 5.93413 20.5826L4.41589 26.2487C4.16928 27.1691 4.71531 28.1148 5.63568 28.3615C6.55604 28.6081 7.5018 28.062 7.74841 27.1417L8.31877 25.0131C9.18309 21.7874 12.4987 19.8731 15.7244 20.7374C16.7254 21.0056 17.4377 19.3673 17.5706 18.3396C17.5863 18.2179 17.6103 18.0959 17.6429 17.9742Z" fill="#EC724A"/>
<path d="M79.7612 20.9816H78.1656V19.8659H78.1365C77.8921 20.2905 77.5848 20.6122 77.2165 20.83C76.8472 21.0478 76.4278 21.1553 75.9491 21.1553C75.2771 21.1553 74.7255 20.9559 74.2988 20.5607C73.8675 20.1655 73.6523 19.6298 73.6523 18.9506C73.6523 18.2862 73.8675 17.7467 74.3024 17.3295C74.7337 16.9122 75.3838 16.642 76.2418 16.5134L78.1766 16.2551V16.0998C78.1766 15.6045 78.0489 15.2396 77.7936 15.0099C77.5383 14.7801 77.1873 14.6662 76.7496 14.6662C76.4032 14.6662 76.0485 14.7287 75.6911 14.8582C75.3337 14.9878 74.9826 15.1799 74.6471 15.4381L73.9386 14.441C74.3763 14.101 74.8367 13.8464 75.3154 13.6837C75.7941 13.5211 76.3156 13.4365 76.8818 13.4365C77.8492 13.4365 78.5686 13.6801 79.0473 14.1681C79.5224 14.6561 79.7631 15.3867 79.7631 16.3654V20.9816H79.7612ZM78.1766 17.9792V17.3616L76.6101 17.5721C76.146 17.6383 75.8032 17.7642 75.5735 17.9526C75.3437 18.141 75.2306 18.4139 75.2306 18.7723C75.2306 19.1234 75.3364 19.4 75.5516 19.5994C75.7667 19.7989 76.0485 19.9027 76.395 19.9027C76.9284 19.9027 77.3587 19.7217 77.6879 19.3632C78.0125 19.0021 78.1766 18.5398 78.1766 17.9792Z" fill="white"/>
<path d="M99.7038 17.7324H95.3239C95.0746 17.7324 94.8869 17.9658 94.9325 18.2176C95.0165 18.6816 95.1934 19.051 95.4606 19.3239C95.8189 19.6897 96.3219 19.8707 96.9742 19.8707C97.2297 19.8707 97.5272 19.8156 97.8677 19.7044C98.2081 19.5932 98.5449 19.4158 98.8818 19.1686L99.5939 20.2134C99.1507 20.5424 98.7004 20.7786 98.2474 20.9302C97.7935 21.0818 97.294 21.1553 96.7517 21.1553C95.6562 21.1553 94.8021 20.8263 94.1927 20.1657C93.5833 19.505 93.2751 18.5815 93.2715 17.3924C93.2715 16.2144 93.5869 15.2615 94.2213 14.53C94.8557 13.8022 95.6643 13.4365 96.6525 13.4365C97.6059 13.4365 98.3502 13.7471 98.8925 14.3674C99.4349 14.9876 99.7038 15.867 99.7038 17.0046V17.7324ZM97.7131 16.5801C97.9677 16.5801 98.1688 16.3494 98.1321 16.0903C98.0767 15.6961 97.9534 15.3818 97.7613 15.1475C97.496 14.8259 97.1198 14.6633 96.6373 14.6633C96.1798 14.6633 95.7903 14.8369 95.4713 15.1843C95.2649 15.4085 95.1112 15.6823 95.0085 16.0049C94.9182 16.2879 95.1192 16.5801 95.4087 16.5801H97.7131Z" fill="white"/>
<path d="M103.388 12.1494H101.735V13.7509H100.666V15.0288H101.216C101.501 15.0288 101.734 15.2587 101.734 15.5414V19.0233C101.734 19.7277 101.913 20.2576 102.279 20.6139C102.645 20.9693 103.168 21.1474 103.849 21.1474V21.1547H104.525V19.885L104.193 19.8922C103.922 19.8922 103.718 19.8122 103.585 19.6559C103.454 19.4996 103.388 19.2424 103.388 18.8825V15.5423C103.388 15.2587 103.62 15.0297 103.906 15.0297H104.525V13.7509H103.388V12.1494Z" fill="white"/>
<path d="M72.3653 20.8297H70.8343V14.2252C70.8343 14.0103 70.593 13.8822 70.4116 13.9993L68.01 15.567C67.6952 15.7718 67.2862 15.7718 66.9751 15.5633L64.6151 14.0057C64.4337 13.884 64.1888 14.0157 64.1888 14.2316V20.8334H62.7168V12.7856C62.7168 12.0429 63.5485 11.5993 64.1707 12.0054L66.9742 13.8337C67.2853 14.035 67.6843 14.0386 67.9982 13.8374L70.9141 11.978C71.5399 11.5792 72.3617 12.0228 72.3617 12.7618V20.8306L72.3653 20.8297Z" fill="white"/>
<path fill-rule="evenodd" clip-rule="evenodd" d="M84.5822 15.1211C83.6382 15.1211 82.8692 15.9079 82.8692 16.8753V20.986H81.373V16.8753C81.373 15.0616 82.8114 13.5889 84.5822 13.5889H84.9108V15.1211H84.5822Z" fill="white"/>
<path d="M108.299 21.1301C106.827 21.1301 105.86 20.4199 105.469 19.3496L106.683 18.6395C106.94 19.3084 107.445 19.7407 108.34 19.7407C109.194 19.7407 109.493 19.3805 109.493 18.9791C109.493 18.4439 109.009 18.2381 107.939 17.9293C106.838 17.6103 105.767 17.1472 105.767 15.7784C105.767 14.4199 106.899 13.6377 108.134 13.6377C109.318 13.6377 110.224 14.2449 110.707 15.2535L109.513 15.943C109.256 15.3976 108.865 15.0168 108.134 15.0168C107.537 15.0168 107.187 15.3255 107.187 15.7372C107.187 16.1798 107.465 16.4165 108.556 16.7458C109.699 17.106 110.913 17.4868 110.913 18.9585C110.913 20.3067 109.832 21.1301 108.299 21.1301Z" fill="white"/>
<path d="M92.6276 21.1547L89.9493 18.0336C89.667 17.7043 89.6697 17.2201 89.9555 16.8937L92.4105 14.0963H90.4192L88.2662 16.8028C87.9982 17.0727 87.8668 17.0115 87.8052 16.8464V12.1494H86.1953V21.1547H87.8052V18.3944C87.9142 18.0484 88.2876 18.3406 88.5002 18.5456L90.5764 21.1547H92.6276Z" fill="white"/>
<path d="M77.834 16.4436C77.834 16.4436 78.2417 16.2922 78.2156 16.0572C78.1966 15.885 78.3689 16.2134 78.4628 16.4009C78.4985 16.4734 78.4664 16.5522 78.382 16.6029C78.2572 16.6778 78.0622 16.6657 77.9624 16.5756L77.8376 16.4637" fill="white"/>
<path d="M33.7585 21V12.2727H37.2017C37.8636 12.2727 38.4276 12.3991 38.8935 12.652C39.3594 12.902 39.7145 13.25 39.9588 13.696C40.206 14.1392 40.3295 14.6506 40.3295 15.2301C40.3295 15.8097 40.2045 16.321 39.9545 16.7642C39.7045 17.2074 39.3423 17.5526 38.8679 17.7997C38.3963 18.0469 37.8253 18.1705 37.1548 18.1705H34.9602V16.6918H36.8565C37.2116 16.6918 37.5043 16.6307 37.7344 16.5085C37.9673 16.3835 38.1406 16.2116 38.2543 15.9929C38.3707 15.7713 38.429 15.517 38.429 15.2301C38.429 14.9403 38.3707 14.6875 38.2543 14.4716C38.1406 14.2528 37.9673 14.0838 37.7344 13.9645C37.5014 13.8423 37.206 13.7812 36.848 13.7812H35.6037V21H33.7585ZM44.3714 21.1278C43.6982 21.1278 43.1186 20.9915 42.6328 20.7188C42.1499 20.4432 41.7777 20.054 41.5163 19.5511C41.255 19.0455 41.1243 18.4474 41.1243 17.7571C41.1243 17.0838 41.255 16.4929 41.5163 15.9844C41.7777 15.4759 42.1456 15.0795 42.62 14.7955C43.0973 14.5114 43.657 14.3693 44.299 14.3693C44.7308 14.3693 45.1328 14.4389 45.505 14.5781C45.88 14.7145 46.2067 14.9205 46.4851 15.196C46.7663 15.4716 46.9851 15.8182 47.1413 16.2358C47.2976 16.6506 47.3757 17.1364 47.3757 17.6932V18.1918H41.8487V17.0668H45.6669C45.6669 16.8054 45.6101 16.5739 45.4964 16.3722C45.3828 16.1705 45.2251 16.0128 45.0234 15.8991C44.8246 15.7827 44.593 15.7244 44.3288 15.7244C44.0533 15.7244 43.8089 15.7884 43.5959 15.9162C43.3857 16.0412 43.2209 16.2102 43.1016 16.4233C42.9822 16.6335 42.9212 16.8679 42.9183 17.1264V18.196C42.9183 18.5199 42.978 18.7997 43.0973 19.0355C43.2195 19.2713 43.3913 19.4531 43.6129 19.581C43.8345 19.7088 44.0973 19.7727 44.4013 19.7727C44.603 19.7727 44.7876 19.7443 44.9553 19.6875C45.1229 19.6307 45.2663 19.5455 45.3857 19.4318C45.505 19.3182 45.5959 19.179 45.6584 19.0142L47.3374 19.125C47.2521 19.5284 47.0774 19.8807 46.8132 20.1818C46.5518 20.4801 46.2138 20.7131 45.799 20.8807C45.3871 21.0455 44.9112 21.1278 44.3714 21.1278ZM52.0419 14.4545V15.8182H48.1001V14.4545H52.0419ZM48.995 12.8864H50.8104V18.9886C50.8104 19.1562 50.8359 19.2869 50.8871 19.3807C50.9382 19.4716 51.0092 19.5355 51.1001 19.5724C51.1939 19.6094 51.3018 19.6278 51.424 19.6278C51.5092 19.6278 51.5945 19.6207 51.6797 19.6065C51.7649 19.5895 51.8303 19.5767 51.8757 19.5682L52.1612 20.919C52.0703 20.9474 51.9425 20.9801 51.7777 21.017C51.6129 21.0568 51.4126 21.081 51.1768 21.0895C50.7393 21.1065 50.3558 21.0483 50.0263 20.9148C49.6996 20.7812 49.4453 20.5739 49.2635 20.2926C49.0817 20.0114 48.9922 19.6562 48.995 19.2273V12.8864ZM58.5884 16.321L56.9265 16.4233C56.8981 16.2812 56.837 16.1534 56.7433 16.0398C56.6495 15.9233 56.5259 15.831 56.3725 15.7628C56.2219 15.6918 56.0415 15.6562 55.8313 15.6562C55.5501 15.6562 55.3129 15.7159 55.1197 15.8352C54.9265 15.9517 54.8299 16.108 54.8299 16.304C54.8299 16.4602 54.8924 16.5923 55.0174 16.7003C55.1424 16.8082 55.3569 16.8949 55.6609 16.9602L56.8455 17.1989C57.4819 17.3295 57.9563 17.5398 58.2688 17.8295C58.5813 18.1193 58.7376 18.5 58.7376 18.9716C58.7376 19.4006 58.6112 19.777 58.3583 20.1009C58.1083 20.4247 57.7646 20.6776 57.3271 20.8594C56.8924 21.0384 56.391 21.1278 55.8228 21.1278C54.9563 21.1278 54.266 20.9474 53.7518 20.5866C53.2404 20.223 52.9407 19.7287 52.8526 19.1037L54.6381 19.0099C54.6921 19.2741 54.8228 19.4759 55.0302 19.6151C55.2376 19.7514 55.5032 19.8196 55.8271 19.8196C56.1452 19.8196 56.4009 19.7585 56.5941 19.6364C56.7901 19.5114 56.8896 19.3509 56.8924 19.1548C56.8896 18.9901 56.82 18.8551 56.6836 18.75C56.5472 18.642 56.337 18.5597 56.0529 18.5028L54.9194 18.277C54.2802 18.1491 53.8043 17.9276 53.4918 17.6122C53.1822 17.2969 53.0273 16.8949 53.0273 16.4062C53.0273 15.9858 53.141 15.6236 53.3683 15.3196C53.5984 15.0156 53.9208 14.7812 54.3356 14.6165C54.7532 14.4517 55.2418 14.3693 55.8015 14.3693C56.6282 14.3693 57.2788 14.544 57.7532 14.8935C58.2305 15.2429 58.5089 15.7187 58.5884 16.321Z" fill="white"/>
</svg>
