<svg width="325" height="215" viewBox="0 0 325 215" fill="none" xmlns="http://www.w3.org/2000/svg">
<g clip-path="url(#clip0_5741_9078)">
<path d="M144.836 24.9009C148.986 17.7188 159.074 11.8965 167.369 11.8965H267.696C275.99 11.8965 279.351 17.7188 275.201 24.9009L176.725 195.341C172.575 202.523 162.487 208.345 154.192 208.345H53.8649C45.5702 208.345 42.2099 202.523 46.3596 195.341L144.836 24.9009Z" fill="#141922"/>
<path opacity="0.45" d="M44.5519 203.539L42.4492 190.623L272.54 4.6875C276.937 7.67719 277.848 13.4233 277.628 17.8992C277.489 20.7208 276.359 23.3228 274.966 25.7805C243.151 81.9075 181.865 189.239 175.518 197.231C169.029 205.402 161.6 207.845 158.696 208.045C124.053 208.145 53.8637 208.285 50.2591 208.045C46.6545 207.805 44.9524 204.941 44.5519 203.539Z" fill="#141922" stroke="url(#paint0_linear_5741_9078)" stroke-width="0.60076"/>
<rect x="0.150107" y="0.260089" width="129.764" height="226.281" rx="14.7186" transform="matrix(1 0 -0.500278 0.865865 149.476 1.11789)" fill="#141922" stroke="url(#paint1_linear_5741_9078)" stroke-width="0.60076"/>
<rect x="0.150107" y="0.260089" width="117.804" height="205.466" rx="14.7186" transform="matrix(1 0 -0.500278 0.865865 150.249 10.1291)" fill="#141922" stroke="url(#paint2_linear_5741_9078)" stroke-width="0.60076"/>
<rect x="267.521" y="25.7881" width="4.17247" height="26.0779" rx="2.08624" transform="rotate(29.7676 267.521 25.7881)" fill="#00F0FF"/>
<rect x="182.428" y="14.2998" width="35.4449" height="6.60837" rx="3.30418" fill="#141922"/>
<rect x="91.7129" y="199.334" width="25.8327" height="4.80608" rx="2.40304" fill="#FF6F43"/>
<path d="M242.503 69.2695L245.807 71.973L198.047 153.376L196.545 149.171L242.503 69.2695Z" fill="url(#paint3_linear_5741_9078)" stroke="url(#paint4_linear_5741_9078)" stroke-width="0.60076"/>
<path opacity="0.45" d="M201.652 148.57L242.804 75.5771H314.295C319.101 75.5771 319.502 80.183 319.101 82.4859C308.988 99.9079 287.982 136.014 284.858 141.06C281.734 146.106 274.344 148.169 271.04 148.57H201.652Z" fill="#141922" stroke="url(#paint5_linear_5741_9078)" stroke-width="0.60076"/>
<path d="M200.449 145.566L241.601 72.5737H313.092C317.898 72.5737 318.298 77.1796 317.898 79.4825C307.785 96.9045 286.778 133.01 283.655 138.057C280.531 143.103 273.141 145.166 269.837 145.566H200.449Z" fill="#141922" stroke="url(#paint6_linear_5741_9078)" stroke-width="0.60076"/>
<path d="M291.525 92.6075L291.461 92.6237C291.051 92.729 290.442 92.8916 289.876 93.0853C289.845 93.0961 289.816 93.1258 289.816 93.1258C289.799 93.1441 289.778 93.1663 289.755 93.1913L289.753 93.1946C289.653 93.302 289.51 93.4633 289.45 93.5294L289.403 93.5814C289.395 93.5895 289.394 93.5989 289.399 93.605C289.402 93.6091 289.406 93.6111 289.413 93.6111C289.416 93.6111 289.42 93.6104 289.424 93.6091L289.493 93.5848C289.649 93.5301 289.852 93.4471 290.058 93.3742L290.066 93.3715C290.459 93.2338 290.902 93.0779 291.17 92.9834C291.17 92.9834 291.214 92.9666 291.246 92.9348L291.541 92.6379C291.549 92.6304 291.552 92.621 291.548 92.6142C291.544 92.6075 291.535 92.6048 291.525 92.6075Z" fill="url(#paint7_linear_5741_9078)"/>
<path d="M290.372 92.1199C290.414 92.0774 290.605 91.8833 290.648 91.84L290.655 91.8323C291.924 90.5605 293.321 89.3603 294.808 88.2663L294.85 88.2358C294.862 88.2266 294.87 88.2125 294.868 88.2018C294.866 88.1905 294.855 88.1848 294.841 88.1862L294.796 88.1919C294.087 88.2776 293.356 88.396 292.622 88.544C292.548 88.5611 292.488 88.6014 292.475 88.6106C291.738 89.1654 291.017 89.7492 290.328 90.3479C290.293 90.3784 290.269 90.4181 290.26 90.4507C290.252 90.4825 290.041 91.23 289.959 91.8039C289.118 92.8561 288.179 94.2426 288.179 94.2426C288.172 94.2518 288.17 94.261 288.172 94.2688C288.175 94.2766 288.182 94.2809 288.193 94.2809H288.419C288.433 94.2809 288.449 94.2731 288.46 94.261L288.491 94.2221C288.966 93.6425 289.471 93.07 289.997 92.5117C290.118 92.382 290.372 92.1199 290.372 92.1199Z" fill="url(#paint8_linear_5741_9078)"/>
<path d="M294.975 88.5225L294.991 88.4832C294.996 88.4706 294.992 88.4601 294.981 88.4559C294.971 88.4517 294.955 88.4552 294.942 88.4643L294.901 88.4938C293.181 89.7578 291.591 91.16 290.176 92.6627L290.143 92.6978C290.132 92.709 290.129 92.7223 290.134 92.7315C290.138 92.7371 290.145 92.7406 290.153 92.7406C290.157 92.7406 290.162 92.7399 290.167 92.7385L290.212 92.7237C290.986 92.4697 291.76 92.2493 292.512 92.0689C292.557 92.0584 292.603 92.0317 292.636 91.9974C293.157 91.4653 294.281 90.435 294.281 90.435C294.308 90.4119 294.318 90.3775 294.318 90.3775C294.318 90.3775 294.72 89.1458 294.975 88.5225Z" fill="url(#paint9_linear_5741_9078)"/>
<path d="M297.291 86.7186C297.179 86.583 296.96 86.5195 296.582 86.5117C296.238 86.5047 295.798 86.5739 295.272 86.7151C295.193 86.7377 295.121 86.7737 295.053 86.8182C294.405 87.2285 293.76 87.6642 293.135 88.1134L293.087 88.1473C293.074 88.1572 293.066 88.1713 293.068 88.1819C293.071 88.1932 293.083 88.1988 293.098 88.196L293.151 88.1861C293.912 88.0477 294.666 87.9418 295.392 87.8719C295.44 87.8669 295.481 87.881 295.503 87.91C295.525 87.939 295.526 87.9806 295.507 88.0237C295.227 88.6607 294.982 89.3005 294.779 89.9255L294.766 89.9665C294.762 89.9792 294.767 89.9891 294.78 89.9926C294.782 89.9933 294.784 89.9933 294.787 89.994C294.797 89.994 294.809 89.9898 294.82 89.9813L294.859 89.9481C295.469 89.4326 296.107 88.9312 296.756 88.4566C296.829 88.4036 296.856 88.3704 296.886 88.3224C297.378 87.4905 297.42 86.8747 297.291 86.7186Z" fill="url(#paint10_linear_5741_9078)"/>
<rect x="0.445762" y="-0.224914" width="13.6018" height="2.96756" rx="1.48378" transform="matrix(0.491478 -0.87089 0.992515 0.122126 240.94 88.7376)" fill="#141922" stroke="url(#paint11_linear_5741_9078)" stroke-width="0.60076"/>
<rect x="0.445762" y="-0.224914" width="13.6018" height="2.96756" rx="1.48378" transform="matrix(0.491478 -0.87089 0.992515 0.122126 232.135 105.559)" fill="#141922" stroke="url(#paint12_linear_5741_9078)" stroke-width="0.60076"/>
<rect x="0.133759" y="0.249931" width="17.8522" height="21.782" rx="1.77896" transform="matrix(1 0 -0.5547 0.83205 291.879 78.0224)" stroke="#656565" stroke-width="0.60076"/>
<path d="M289.356 84.2388L305.78 84.1655" stroke="url(#paint13_linear_5741_9078)" stroke-width="0.60076"/>
<path d="M290.137 81.4829L307.38 81.3296" stroke="url(#paint14_linear_5741_9078)" stroke-width="0.60076"/>
<path d="M119.952 128.69C112.875 139.305 96.7961 147.911 84.0382 147.911C71.2803 147.911 66.6749 139.305 73.7517 128.69C80.8285 118.075 96.9077 109.47 109.666 109.47C122.424 109.47 127.029 118.075 119.952 128.69Z" fill="#141922" stroke="url(#paint15_linear_5741_9078)" stroke-width="0.60076"/>
<circle cx="23.4006" cy="23.4006" r="23.1002" transform="matrix(1 0 -0.5547 0.83205 84.7402 106.759)" fill="#141922" stroke="url(#paint16_linear_5741_9078)" stroke-width="0.60076"/>
<path d="M90.1081 135.694L89.2066 137.046H86.0145L86.9159 135.694C83.4045 135.694 82.1541 133.26 84.1372 130.285H87.3294C86.3378 131.773 86.963 132.99 88.7187 132.99L92.3244 127.581C88.813 127.581 87.5626 125.147 89.5457 122.173C91.5288 119.198 96.0243 116.764 99.5356 116.764L100.437 115.412H103.629L102.728 116.764C106.239 116.764 107.49 119.198 105.506 122.173H102.314C103.306 120.685 102.681 119.468 100.925 119.468L97.3193 124.877H97.9578C99.075 124.877 100.151 125.418 100.727 126.229C101.373 127.176 101.339 128.663 100.258 130.285C98.1149 133.26 93.6194 135.694 90.1081 135.694ZM91.9109 132.99C93.6666 132.99 95.9143 131.773 96.9059 130.285C97.8974 128.798 97.2722 127.581 95.5165 127.581L91.9109 132.99ZM97.7328 119.468C95.9771 119.468 93.7294 120.685 92.7378 122.173C91.7463 123.66 92.3715 124.877 94.1272 124.877L97.7328 119.468Z" fill="url(#paint17_linear_5741_9078)"/>
<circle cx="23.4006" cy="23.4006" r="23.1002" transform="matrix(1 0 -0.5547 0.83205 51.0605 77.3799)" fill="#141922" stroke="url(#paint18_linear_5741_9078)" stroke-width="0.60076"/>
<circle cx="23.4006" cy="23.4006" r="23.1002" transform="matrix(1 0 -0.5547 0.83205 49.7871 73.7754)" fill="#141922" stroke="url(#paint19_linear_5741_9078)" stroke-width="0.60076"/>
<path d="M70.7492 93.3486L56.6177 98.8347L62.6203 89.4291L69.5351 78.599L70.7492 93.3486Z" fill="url(#paint20_linear_5741_9078)"/>
<path d="M69.5312 78.5991L62.6149 89.4324L56.6139 98.8348L49.268 93.6907L69.5312 78.5991Z" fill="url(#paint21_linear_5741_9078)"/>
<path d="M62.6166 89.4323L70.7471 93.3486L56.6155 98.8347L49.2696 93.6906L62.6166 89.4323Z" fill="url(#paint22_linear_5741_9078)"/>
<path d="M69.6562 95.0571L50.8299 107.899L55.5263 100.54L69.6562 95.0571Z" fill="#FFEDE9"/>
<path d="M55.5273 100.54L50.831 107.9L48.1734 95.3969L55.5273 100.54Z" fill="url(#paint23_linear_5741_9078)"/>
<path d="M181.574 54.8681C181.085 55.6017 179.972 56.1972 179.091 56.1972C178.209 56.1972 177.891 55.6017 178.38 54.8681C178.869 54.1346 179.981 53.5391 180.863 53.5391C181.746 53.5418 182.063 54.1346 181.574 54.8681Z" fill="#E0C091"/>
<path d="M178.337 54.4091C178.452 54.2924 178.444 54.166 178.308 54.1523C178.14 54.1353 177.978 54.1077 177.826 54.0678L177.363 53.9466C175.639 53.4951 175.591 51.763 177.257 50.0778C178.92 48.3966 181.673 47.393 183.396 47.8441L183.856 47.9646C185.577 48.4151 185.627 50.1496 183.962 51.8335C183.645 52.1539 183.288 52.4494 182.906 52.715C182.438 53.0402 182.206 53.5268 182.279 53.8358C182.375 54.2442 183.014 54.6287 183.66 54.2261C184.519 53.6908 185.321 53.065 186.008 52.3694C188.761 49.5848 188.683 46.7139 185.834 45.9678L185.374 45.8473C182.525 45.1012 177.969 46.7587 175.216 49.5433L173.564 51.214C172.811 51.9764 171.567 52.4289 170.787 52.2246C170.222 52.0768 169.323 52.4041 168.777 52.9557C168.232 53.5074 168.247 54.0743 168.812 54.2221C169.592 54.4264 169.613 55.2101 168.86 55.9726L165.502 59.3689C164.956 59.9206 164.972 60.4875 165.536 60.6353C166.101 60.7831 167 60.4558 167.545 59.9042L168.807 58.6282C170.719 56.6947 173.872 55.5473 175.851 56.0654C176.465 56.2261 177.632 55.2441 178.139 54.6281C178.199 54.5551 178.265 54.482 178.337 54.4091Z" fill="#EC724A"/>
<path d="M147.429 72.8761H145.939L145.763 71.3913C145.729 71.131 145.661 70.9522 145.559 70.8521C145.455 70.7514 145.29 70.7004 145.062 70.6942H144.674C144.515 70.6942 144.313 70.8045 144.222 70.9409L142.931 72.8773H141.636L145.363 67.2866H147.857C148.653 67.2866 149.189 67.4156 149.469 67.6765C149.749 67.9368 149.715 68.325 149.373 68.8376C149.116 69.2235 148.753 69.5495 148.286 69.816C147.819 70.0848 147.291 70.2794 146.703 70.4045L146.692 70.4209C146.844 70.4803 146.959 70.5725 147.033 70.6959C147.108 70.8193 147.157 70.9669 147.183 71.139L147.429 72.8761ZM146.144 68.0534L145.306 69.3101C145.081 69.6474 145.276 69.9201 145.74 69.9201H145.886C146.294 69.9201 146.691 69.8256 147.076 69.6389C147.462 69.4522 147.752 69.2145 147.945 68.9248C148.128 68.6498 148.156 68.4347 148.027 68.2808C147.899 68.1269 147.608 68.0511 147.157 68.0511H146.146L146.144 68.0534Z" fill="white"/>
<path d="M153.685 72.8767H152.462L153.869 70.767C153.982 70.5978 153.897 70.4603 153.68 70.4603H151.114C150.897 70.4603 150.629 70.5978 150.516 70.767L149.109 72.8773H147.892L151.619 67.2866H152.836L151.476 69.3267C151.363 69.4959 151.448 69.6335 151.665 69.6335H154.231C154.448 69.6335 154.716 69.4959 154.829 69.3267L156.189 67.2866H157.411L153.685 72.8767Z" fill="white"/>
<path d="M157.535 72.9691C156.642 72.9691 156.089 72.7171 155.876 72.2125C155.664 71.7085 155.829 71.0509 156.369 70.2409C156.945 69.3774 157.686 68.6845 158.593 68.1623C159.499 67.6407 160.424 67.3784 161.363 67.3784C162.242 67.3784 162.783 67.6304 162.987 68.135C163.19 68.639 163.019 69.3023 162.472 70.1225C161.894 70.99 161.154 71.6829 160.255 72.1971C159.353 72.7108 158.449 72.9691 157.535 72.9691ZM158.082 72.1653C158.672 72.1653 159.254 71.9924 159.823 71.6471C160.393 71.3018 160.886 70.8171 161.3 70.1959C161.726 69.5565 161.89 69.0622 161.792 68.7107C161.694 68.3591 161.356 68.1845 160.778 68.1845C160.199 68.1845 159.612 68.3671 159.015 68.7346C158.421 69.0998 157.923 69.5821 157.523 70.1817C157.121 70.7853 156.971 71.2676 157.078 71.6272C157.188 71.9844 157.522 72.1653 158.082 72.1653Z" fill="white"/>
<path d="M175.532 72.7731H174.383L174.829 72.1044H174.808C174.462 72.3589 174.112 72.5517 173.76 72.6822C173.407 72.8128 173.061 72.8772 172.717 72.8772C172.232 72.8772 171.915 72.7577 171.765 72.5208C171.613 72.284 171.672 71.9628 171.943 71.5557C172.209 71.1574 172.579 70.8341 173.059 70.584C173.537 70.3339 174.113 70.1719 174.782 70.0948L176.279 69.94L176.341 69.8469C176.539 69.55 176.593 69.3313 176.501 69.1936C176.409 69.0559 176.202 68.9876 175.886 68.9876C175.637 68.9876 175.356 69.025 175.047 69.1027C174.738 69.1804 174.408 69.2955 174.063 69.4503L173.951 68.8526C174.403 68.6488 174.836 68.4962 175.246 68.3987C175.656 68.3012 176.065 68.2505 176.473 68.2505C177.17 68.2505 177.591 68.3965 177.741 68.689C177.888 68.9815 177.769 69.4194 177.378 70.0061L175.534 72.7731H175.532ZM175.59 70.9734L175.837 70.6032L174.625 70.7294C174.264 70.7691 173.967 70.8445 173.726 70.9575C173.485 71.0704 173.294 71.234 173.151 71.4488C173.011 71.6593 172.977 71.8251 173.052 71.9446C173.127 72.0642 173.289 72.1264 173.538 72.1264C173.923 72.1264 174.305 72.0179 174.685 71.803C175.063 71.5866 175.366 71.3095 175.59 70.9734Z" fill="white"/>
<path d="M191.197 70.8255H188.041C187.862 70.8255 187.633 70.9654 187.565 71.1163C187.44 71.3945 187.42 71.6159 187.504 71.7795C187.616 71.9987 187.906 72.1072 188.376 72.1072C188.56 72.1072 188.796 72.0742 189.086 72.0075C189.375 71.9409 189.689 71.8346 190.03 71.6864L190.126 72.3127C189.675 72.5099 189.256 72.6514 188.869 72.7423C188.482 72.8332 188.093 72.8772 187.702 72.8772C186.913 72.8772 186.429 72.68 186.254 72.284C186.079 71.888 186.226 71.3344 186.698 70.6217C187.169 69.9156 187.777 69.3444 188.527 68.9059C189.274 68.4697 190.003 68.2505 190.715 68.2505C191.402 68.2505 191.814 68.4367 191.957 68.8085C192.1 69.1802 191.942 69.7074 191.487 70.3893L191.197 70.8255ZM190.223 70.1348C190.406 70.1348 190.643 69.9965 190.72 69.8412C190.838 69.6049 190.875 69.4165 190.83 69.2761C190.767 69.0833 190.561 68.9858 190.214 68.9858C189.884 68.9858 189.534 69.0899 189.166 69.2981C188.927 69.4325 188.707 69.5967 188.504 69.79C188.326 69.9596 188.354 70.1348 188.563 70.1348H190.223Z" fill="white"/>
<path d="M196.084 67.4795H194.893L194.253 68.4394H193.483L192.972 69.2054H193.368C193.574 69.2054 193.65 69.3433 193.537 69.5127L192.146 71.5998C191.864 72.022 191.781 72.3396 191.903 72.5532C192.024 72.7662 192.33 72.873 192.82 72.873L192.817 72.8774H193.305L193.812 72.1163L193.57 72.1206C193.374 72.1206 193.259 72.0727 193.226 71.979C193.194 71.8853 193.249 71.7311 193.393 71.5154L194.728 69.5132C194.841 69.3433 195.1 69.206 195.306 69.206H195.752L196.263 68.4394H195.444L196.084 67.4795H196.084Z" fill="white"/>
<path d="M170.264 72.6823H169.161L171.8 68.7235C171.886 68.5946 171.763 68.5179 171.586 68.588L169.229 69.5277C168.921 69.6505 168.626 69.6505 168.485 69.5255L167.408 68.5919C167.325 68.519 167.096 68.5979 167.01 68.7273L164.372 72.6845H163.312L166.528 67.8605C166.824 67.4154 167.601 67.1495 167.887 67.3929L169.176 68.4888C169.319 68.6094 169.605 68.6116 169.912 68.491L172.756 67.3764C173.366 67.1374 173.781 67.4033 173.485 67.8463L170.261 72.6828H170.263L170.264 72.6823Z" fill="white"/>
<path fill-rule="evenodd" clip-rule="evenodd" d="M181.344 69.2607C180.664 69.2607 179.796 69.7324 179.409 70.3122L177.766 72.7763H176.689L178.331 70.3122C179.056 69.225 180.681 68.3423 181.956 68.3423H182.193L181.581 69.2607H181.344Z" fill="white"/>
<path d="M196.031 72.8626C194.971 72.8626 194.558 72.437 194.704 71.7954L195.862 71.3697C195.78 71.7707 195.971 72.0298 196.616 72.0298C197.231 72.0298 197.59 71.8139 197.751 71.5733C197.965 71.2525 197.698 71.1291 197.051 70.9441C196.385 70.7528 195.799 70.4752 196.346 69.6547C196.889 68.8404 198.017 68.3716 198.907 68.3716C199.759 68.3716 200.169 68.7356 200.114 69.3401L198.979 69.7534C199.011 69.4265 198.882 69.1982 198.356 69.1982C197.925 69.1982 197.55 69.3833 197.386 69.6301C197.209 69.8953 197.314 70.0372 197.969 70.2346C198.648 70.4505 199.37 70.6788 198.782 71.561C198.243 72.3691 197.136 72.8626 196.031 72.8626Z" fill="white"/>
<path d="M184.731 72.8774L184.048 71.0065C183.977 70.8092 184.172 70.519 184.508 70.3233L187.395 68.6465H185.96L183.328 70.2688C183.027 70.4306 182.957 70.3939 182.978 70.2949L184.855 67.4795H183.695L180.097 72.8774H181.256L182.36 71.2228C182.576 71.0154 182.729 71.1906 182.8 71.3134L183.253 72.8774H184.731Z" fill="white"/>
<path d="M175.957 70.0536C175.957 70.0536 176.311 69.9629 176.386 69.822C176.442 69.7187 176.434 69.9156 176.427 70.028C176.424 70.0714 176.369 70.1187 176.288 70.1491C176.168 70.194 176.033 70.1867 175.997 70.1327L175.952 70.0656" fill="white"/>
</g>
<defs>
<linearGradient id="paint0_linear_5741_9078" x1="139.74" y1="195.467" x2="156.122" y2="4.35052" gradientUnits="userSpaceOnUse">
<stop stop-color="#DE643E"/>
<stop offset="1" stop-color="#9EFEFF"/>
</linearGradient>
<linearGradient id="paint1_linear_5741_9078" x1="53.9235" y1="212.71" x2="89.8687" y2="4.25686" gradientUnits="userSpaceOnUse">
<stop stop-color="#DE643E"/>
<stop offset="1" stop-color="#9EFEFF"/>
</linearGradient>
<linearGradient id="paint2_linear_5741_9078" x1="45.653" y1="164.844" x2="179.185" y2="127.857" gradientUnits="userSpaceOnUse">
<stop stop-color="#DE643E"/>
<stop offset="1" stop-color="#9EFEFF"/>
</linearGradient>
<linearGradient id="paint3_linear_5741_9078" x1="216.922" y1="148.122" x2="230.008" y2="70.7636" gradientUnits="userSpaceOnUse">
<stop stop-color="#DE643E"/>
<stop offset="1" stop-color="#9EFEFF"/>
</linearGradient>
<linearGradient id="paint4_linear_5741_9078" x1="216.922" y1="148.122" x2="230.008" y2="70.7636" gradientUnits="userSpaceOnUse">
<stop stop-color="#DE643E"/>
<stop offset="1" stop-color="#9EFEFF"/>
</linearGradient>
<linearGradient id="paint5_linear_5741_9078" x1="250.282" y1="144.01" x2="254.514" y2="75.2129" gradientUnits="userSpaceOnUse">
<stop stop-color="#DE643E"/>
<stop offset="1" stop-color="#9EFEFF"/>
</linearGradient>
<linearGradient id="paint6_linear_5741_9078" x1="249.079" y1="141.007" x2="253.311" y2="72.2095" gradientUnits="userSpaceOnUse">
<stop stop-color="#DE643E"/>
<stop offset="1" stop-color="#9EFEFF"/>
</linearGradient>
<linearGradient id="paint7_linear_5741_9078" x1="290.685" y1="92.6064" x2="290.685" y2="93.6111" gradientUnits="userSpaceOnUse">
<stop stop-color="#F9F1EE"/>
<stop offset="1" stop-color="#F4E3DE"/>
</linearGradient>
<linearGradient id="paint8_linear_5741_9078" x1="292.806" y1="88.186" x2="292.806" y2="94.2809" gradientUnits="userSpaceOnUse">
<stop stop-color="#F9F1EE"/>
<stop offset="1" stop-color="#F4E3DE"/>
</linearGradient>
<linearGradient id="paint9_linear_5741_9078" x1="293.531" y1="88.4541" x2="293.531" y2="92.7406" gradientUnits="userSpaceOnUse">
<stop stop-color="#F9F1EE"/>
<stop offset="1" stop-color="#F4E3DE"/>
</linearGradient>
<linearGradient id="paint10_linear_5741_9078" x1="295.732" y1="86.5112" x2="295.732" y2="89.994" gradientUnits="userSpaceOnUse">
<stop stop-color="#F9F1EE"/>
<stop offset="1" stop-color="#F4E3DE"/>
</linearGradient>
<linearGradient id="paint11_linear_5741_9078" x1="-1.53264e-07" y1="2.77536" x2="11.7804" y2="-4.64061" gradientUnits="userSpaceOnUse">
<stop stop-color="#DE643E"/>
<stop offset="1" stop-color="#9EFEFF"/>
</linearGradient>
<linearGradient id="paint12_linear_5741_9078" x1="-1.53264e-07" y1="2.77536" x2="11.7804" y2="-4.64061" gradientUnits="userSpaceOnUse">
<stop stop-color="#DE643E"/>
<stop offset="1" stop-color="#9EFEFF"/>
</linearGradient>
<linearGradient id="paint13_linear_5741_9078" x1="289.03" y1="84.2837" x2="291.549" y2="78.5651" gradientUnits="userSpaceOnUse">
<stop stop-color="#141922"/>
<stop offset="0.460206" stop-color="#713B2F"/>
<stop offset="1" stop-color="#DE643E"/>
</linearGradient>
<linearGradient id="paint14_linear_5741_9078" x1="290.67" y1="81.6779" x2="293.01" y2="76.0177" gradientUnits="userSpaceOnUse">
<stop stop-color="#141922"/>
<stop offset="1" stop-color="#9EFEFF"/>
</linearGradient>
<linearGradient id="paint15_linear_5741_9078" x1="81.4512" y1="145.728" x2="84.8264" y2="107.038" gradientUnits="userSpaceOnUse">
<stop stop-color="#DE643E"/>
<stop offset="1" stop-color="#9EFEFF"/>
</linearGradient>
<linearGradient id="paint16_linear_5741_9078" x1="19.3586" y1="43.8778" x2="23.7032" y2="0.0299786" gradientUnits="userSpaceOnUse">
<stop stop-color="#DE643E"/>
<stop offset="1" stop-color="#9EFEFF"/>
</linearGradient>
<linearGradient id="paint17_linear_5741_9078" x1="102.113" y1="115.412" x2="102.113" y2="137.046" gradientUnits="userSpaceOnUse">
<stop stop-color="white"/>
<stop offset="1" stop-color="#F5E7E3"/>
</linearGradient>
<linearGradient id="paint18_linear_5741_9078" x1="19.3586" y1="43.8778" x2="23.7032" y2="0.0299786" gradientUnits="userSpaceOnUse">
<stop stop-color="#DE643E"/>
<stop offset="1" stop-color="#9EFEFF"/>
</linearGradient>
<linearGradient id="paint19_linear_5741_9078" x1="19.3586" y1="43.8778" x2="23.7032" y2="0.0299786" gradientUnits="userSpaceOnUse">
<stop stop-color="#DE643E"/>
<stop offset="1" stop-color="#9EFEFF"/>
</linearGradient>
<linearGradient id="paint20_linear_5741_9078" x1="72.466" y1="78.2725" x2="74.534" y2="96.8391" gradientUnits="userSpaceOnUse">
<stop stop-color="white"/>
<stop offset="1" stop-color="#FFDDD4"/>
</linearGradient>
<linearGradient id="paint21_linear_5741_9078" x1="62.7462" y1="79.3549" x2="64.8143" y2="97.9214" gradientUnits="userSpaceOnUse">
<stop stop-color="white"/>
<stop offset="1" stop-color="#FFDDD4"/>
</linearGradient>
<linearGradient id="paint22_linear_5741_9078" x1="61.9884" y1="89.5023" x2="62.9493" y2="98.1292" gradientUnits="userSpaceOnUse">
<stop stop-color="white"/>
<stop offset="1" stop-color="#FFDDD4"/>
</linearGradient>
<linearGradient id="paint23_linear_5741_9078" x1="53.4051" y1="94.8142" x2="54.8132" y2="107.456" gradientUnits="userSpaceOnUse">
<stop stop-color="white"/>
<stop offset="1" stop-color="#FFDDD4"/>
</linearGradient>
<clipPath id="clip0_5741_9078">
<rect width="325" height="214.401" fill="white" transform="translate(0 0.602539)"/>
</clipPath>
</defs>
</svg>
