<svg width="166" height="140" viewBox="0 0 166 140" fill="none" xmlns="http://www.w3.org/2000/svg">
<g clip-path="url(#clip0_5581_6994)">
<mask id="mask0_5581_6994" style="mask-type:luminance" maskUnits="userSpaceOnUse" x="1" y="6" width="163" height="128">
<path d="M163.71 6.46191H1.29297V133.932H163.71V6.46191Z" fill="white"/>
</mask>
<g mask="url(#mask0_5581_6994)">
<g opacity="0.2">
<path d="M134.004 71.4076C136.656 70.4058 139.131 69.2271 141.547 67.8127L133.827 71.8201C133.768 71.7023 133.827 71.5255 134.004 71.4076ZM82.2022 12.8288C71.3587 28.7995 65.9959 46.7738 67.9996 67.5181C76.1912 73.5292 84.147 77.183 91.985 79.6581C93.8119 77.124 95.4031 74.531 96.8764 71.7023C94.2244 70.7004 91.7493 69.5218 89.3331 68.1074C88.9205 67.8717 88.9205 67.2823 89.2741 67.0466C89.8045 66.693 90.276 66.2805 90.7474 65.868C90.9242 65.6912 91.2189 65.6912 91.3957 65.809C106.895 72.9988 123.926 72.9988 139.602 65.809C139.838 65.6912 140.074 65.7501 140.251 65.9269C140.722 66.3394 141.252 66.693 141.724 67.1055C142.077 67.4002 142.077 67.9306 141.665 68.1663C139.249 69.5218 136.774 70.7593 134.122 71.7612C135.536 74.531 137.186 77.183 139.013 79.6581C146.792 77.2419 154.748 73.5881 162.998 67.5181C164.649 49.6026 161.289 31.4514 148.796 12.8288C142.667 10.0001 136.125 7.93746 129.289 6.75879C128.464 8.23212 127.462 10.1769 126.814 11.7091L126.696 11.9449L126.46 11.8859C119.212 10.7662 111.904 10.7662 104.479 11.8859L104.243 11.9449L104.125 11.7681C103.477 10.2358 102.534 8.29105 101.709 6.81772C94.8727 7.99639 88.3312 10.059 82.2022 12.8288ZM140.074 66.1626C140.015 66.1037 139.838 66.1037 139.779 66.1037L140.074 66.1626ZM140.486 46.8917C140.486 52.3724 136.479 56.9691 131.47 56.9691C126.401 56.9691 122.453 52.4313 122.453 46.8917C122.394 41.411 126.401 36.8143 131.47 36.8143C136.538 36.8143 140.486 41.411 140.486 46.8917ZM108.427 46.8917C108.427 52.3724 104.42 56.9691 99.4105 56.9691C94.3423 56.9691 90.3938 52.4313 90.3938 46.8917C90.3349 41.411 94.3423 36.8143 99.4105 36.8143C104.479 36.8143 108.427 41.411 108.427 46.8917Z" fill="#0D0D0E"/>
<path d="M134.004 71.4076C136.656 70.4058 139.131 69.2271 141.547 67.8127L133.827 71.8201C133.768 71.7023 133.827 71.5255 134.004 71.4076ZM134.004 71.4076L134.122 71.7023M82.2022 12.8288C71.3587 28.7995 65.9959 46.7738 67.9996 67.5181C76.1912 73.5292 84.147 77.183 91.985 79.6581C93.8119 77.124 95.4031 74.531 96.8764 71.7023C94.2244 70.7004 91.7493 69.5218 89.3331 68.1074C88.9205 67.8717 88.9205 67.2823 89.2741 67.0466C89.8045 66.693 90.276 66.2805 90.7474 65.868C90.9242 65.6912 91.2189 65.6912 91.3957 65.809C106.895 72.9988 123.926 72.9988 139.602 65.809C139.838 65.6912 140.074 65.7501 140.251 65.9269C140.722 66.3394 141.252 66.693 141.724 67.1055C142.077 67.4002 142.077 67.9306 141.665 68.1663C139.249 69.5218 136.774 70.7593 134.122 71.7612C135.536 74.531 137.186 77.183 139.013 79.6581C146.792 77.2419 154.748 73.5881 162.998 67.5181C164.649 49.6026 161.289 31.4514 148.796 12.8288C142.667 10.0001 136.125 7.93746 129.289 6.75879C128.464 8.23212 127.462 10.1769 126.814 11.7091L126.696 11.9449L126.46 11.8859C119.212 10.7662 111.904 10.7662 104.479 11.8859L104.243 11.9449L104.125 11.7681C103.477 10.2358 102.534 8.29105 101.709 6.81772C94.8727 7.99639 88.3312 10.059 82.2022 12.8288ZM140.074 66.1626C140.015 66.1037 139.838 66.1037 139.779 66.1037L140.074 66.1626ZM140.486 46.8917C140.486 52.3724 136.479 56.9691 131.47 56.9691C126.401 56.9691 122.453 52.4313 122.453 46.8917C122.394 41.411 126.401 36.8143 131.47 36.8143C136.538 36.8143 140.486 41.411 140.486 46.8917ZM108.427 46.8917C108.427 52.3724 104.42 56.9691 99.4105 56.9691C94.3423 56.9691 90.3938 52.4313 90.3938 46.8917C90.3349 41.411 94.3423 36.8143 99.4105 36.8143C104.479 36.8143 108.427 41.411 108.427 46.8917Z" stroke="#FF6F43" stroke-width="0.589323"/>
</g>
<g opacity="0.5">
<path d="M112.553 121.734C116.325 120.319 119.92 118.551 123.397 116.548L112.317 122.323C112.2 122.146 112.317 121.851 112.553 121.734ZM37.8861 37.3424C22.2101 60.385 14.49 86.3152 17.3777 116.135C29.2231 124.798 40.6559 130.102 51.9709 133.579C54.564 129.984 56.9213 126.153 58.9837 122.146C55.2122 120.732 51.5584 119.023 48.0814 116.96C47.4921 116.606 47.4921 115.781 48.0225 115.428C48.7297 114.897 49.4958 114.308 50.144 113.778C50.4387 113.542 50.7923 113.483 51.087 113.66C73.4221 123.973 97.9379 123.973 120.568 113.66C120.863 113.542 121.275 113.542 121.511 113.778C122.218 114.367 122.925 114.897 123.632 115.428C124.163 115.84 124.104 116.665 123.515 116.96C120.038 118.964 116.443 120.732 112.612 122.146C114.616 126.153 116.973 129.925 119.625 133.579C130.881 130.102 142.314 124.798 154.159 116.135C156.576 90.3226 151.684 64.1567 133.71 37.3424C124.87 33.2761 115.441 30.3295 105.54 28.6205C104.303 30.8009 102.947 33.5118 102.004 35.7513L101.886 36.1049L101.533 36.0459C91.1018 34.4548 80.5529 34.4548 69.8861 36.0459L69.5325 36.1049L69.4147 35.7513C68.4717 33.5708 67.1163 30.742 65.9377 28.5615C56.1551 30.3295 46.667 33.2761 37.8861 37.3424ZM121.275 114.19C121.157 114.072 120.98 114.072 120.804 114.131L121.275 114.19ZM121.864 86.3742C121.864 94.33 116.03 100.872 108.899 100.872C101.592 100.872 95.9342 94.33 95.9342 86.3742C95.8163 78.4772 101.592 71.8768 108.899 71.8768C116.207 71.8768 121.864 78.4772 121.864 86.3742ZM75.6615 86.3742C75.6615 94.33 69.8272 100.872 62.6964 100.872C55.389 100.872 49.7315 94.33 49.7315 86.3742C49.6137 78.4772 55.389 71.8768 62.6964 71.8768C70.004 71.8768 75.6615 78.4772 75.6615 86.3742Z" fill="#0D0D0E"/>
<path d="M112.553 121.734C116.325 120.319 119.92 118.551 123.397 116.548L112.317 122.323C112.2 122.146 112.317 121.851 112.553 121.734ZM112.553 121.734L112.73 122.146V122.205M37.8861 37.3424C22.2101 60.385 14.49 86.3152 17.3777 116.135C29.2231 124.798 40.6559 130.102 51.9709 133.579C54.564 129.984 56.9213 126.153 58.9836 122.146C55.2122 120.732 51.5584 119.023 48.0814 116.96C47.4921 116.606 47.4921 115.781 48.0225 115.428C48.7297 114.897 49.4958 114.308 50.144 113.778C50.4387 113.542 50.7923 113.483 51.087 113.66C73.4221 123.973 97.9379 123.973 120.568 113.66C120.863 113.542 121.275 113.542 121.511 113.778C122.218 114.367 122.925 114.897 123.632 115.428C124.163 115.84 124.104 116.665 123.515 116.96C120.038 118.964 116.443 120.732 112.612 122.146C114.616 126.153 116.973 129.925 119.625 133.579C130.881 130.102 142.314 124.798 154.159 116.135C156.576 90.3226 151.684 64.1567 133.71 37.3424C124.87 33.2761 115.441 30.3295 105.54 28.6205C104.303 30.8009 102.947 33.5118 102.004 35.7513L101.886 36.1049L101.533 36.0459C91.1017 34.4548 80.5529 34.4548 69.8861 36.0459L69.5325 36.1049L69.4147 35.7513C68.4717 33.5708 67.1163 30.742 65.9377 28.5615C56.1551 30.3295 46.667 33.2761 37.8861 37.3424ZM121.275 114.19C121.157 114.072 120.98 114.072 120.804 114.131L121.275 114.19ZM121.864 86.3742C121.864 94.33 116.03 100.872 108.899 100.872C101.592 100.872 95.9342 94.33 95.9342 86.3742C95.8163 78.4772 101.592 71.8768 108.899 71.8768C116.207 71.8768 121.864 78.4772 121.864 86.3742ZM75.6615 86.3742C75.6615 94.33 69.8272 100.872 62.6964 100.872C55.389 100.872 49.7315 94.33 49.7315 86.3742C49.6136 78.4772 55.389 71.8768 62.6964 71.8768C70.004 71.8768 75.6615 78.4772 75.6615 86.3742Z" stroke="#FF6F43" stroke-width="0.589323"/>
</g>
<path d="M65.3476 76.8267C67.646 75.9427 69.8265 74.8819 71.948 73.7033L65.1708 77.2392C65.1119 77.0624 65.1708 76.8856 65.3476 76.8267ZM19.8518 25.3791C10.3047 39.405 5.59016 55.1988 7.35811 73.4086C14.5479 78.7125 21.5608 81.8949 28.4559 84.0754C30.047 81.8949 31.4614 79.5376 32.7579 77.1214C30.4596 76.2374 28.2201 75.1766 26.0986 73.939C25.745 73.7033 25.745 73.2318 26.0396 72.9961C26.5111 72.6425 26.9236 72.3479 27.3362 71.9943C27.513 71.8764 27.7487 71.8175 27.9255 71.9353C41.5388 78.2411 56.4487 78.2411 70.239 71.9353C70.4158 71.8764 70.6515 71.8764 70.8283 71.9943C71.2408 72.3479 71.7123 72.7014 72.1248 72.9961C72.4195 73.2318 72.4195 73.7622 72.0659 73.939C69.9443 75.1766 67.7638 76.2374 65.4655 77.1214C66.7031 79.5376 68.1174 81.8949 69.7675 84.0754C76.6037 81.9538 83.6166 78.7125 90.8064 73.4086C92.2797 57.674 89.2741 41.7034 78.3127 25.3791C72.9499 22.9039 67.1745 21.077 61.1634 20.0752C60.3973 21.3717 59.5722 23.0807 58.9829 24.4362L58.8649 24.6719L58.6292 24.613C52.2645 23.6701 45.8409 23.6701 39.3583 24.613L39.1226 24.6719L39.0048 24.4362C38.4154 23.0807 37.5904 21.3717 36.8832 20.0752C30.99 21.136 25.2146 22.9039 19.8518 25.3791ZM70.6515 72.23C70.5926 72.1711 70.4747 72.1711 70.3569 72.1711L70.6515 72.23ZM71.0051 55.2578C71.0051 60.0902 67.4692 64.0973 63.1082 64.0973C58.6881 64.0973 55.2111 60.0902 55.2111 55.2578C55.1522 50.4253 58.6292 46.4179 63.1082 46.4179C67.5281 46.4769 71.0051 50.4253 71.0051 55.2578ZM42.8943 55.2578C42.8943 60.0902 39.3584 64.0973 34.9974 64.0973C30.5185 64.0973 27.1004 60.0902 27.1004 55.2578C27.0415 50.4253 30.5185 46.4179 34.9974 46.4179C39.4173 46.4769 42.8943 50.4253 42.8943 55.2578Z" fill="#262528"/>
<path d="M65.3476 76.8267C67.646 75.9427 69.8265 74.8819 71.948 73.7033L65.1708 77.2392C65.1119 77.0624 65.1708 76.8856 65.3476 76.8267ZM65.3476 76.8267L65.4655 77.0624M19.8518 25.3791C10.3047 39.405 5.59016 55.1988 7.35811 73.4086C14.5479 78.7125 21.5608 81.8949 28.4559 84.0754C30.047 81.8949 31.4614 79.5376 32.7579 77.1214C30.4596 76.2374 28.2201 75.1766 26.0986 73.939C25.745 73.7033 25.745 73.2318 26.0396 72.9961C26.5111 72.6425 26.9236 72.3479 27.3362 71.9943C27.513 71.8764 27.7487 71.8175 27.9255 71.9353C41.5388 78.2411 56.4487 78.2411 70.239 71.9353C70.4158 71.8764 70.6515 71.8764 70.8283 71.9943C71.2408 72.3479 71.7123 72.7014 72.1248 72.9961C72.4195 73.2318 72.4195 73.7622 72.0659 73.939C69.9443 75.1766 67.7638 76.2374 65.4655 77.1214C66.7031 79.5376 68.1174 81.8949 69.7675 84.0754C76.6037 81.9538 83.6166 78.7125 90.8064 73.4086C92.2797 57.674 89.2741 41.7033 78.3127 25.3791C72.9499 22.9039 67.1745 21.077 61.1634 20.0752C60.3973 21.3717 59.5722 23.0807 58.9829 24.4362L58.8649 24.6719L58.6292 24.613C52.2645 23.6701 45.8409 23.6701 39.3583 24.613L39.1226 24.6719L39.0048 24.4362C38.4154 23.0807 37.5904 21.3717 36.8832 20.0752C30.99 21.136 25.2146 22.9039 19.8518 25.3791ZM70.6515 72.23C70.5926 72.1711 70.4747 72.1711 70.3569 72.1711L70.6515 72.23ZM71.0051 55.2578C71.0051 60.0902 67.4692 64.0973 63.1082 64.0973C58.6881 64.0973 55.2111 60.0902 55.2111 55.2578C55.1522 50.4253 58.6292 46.4179 63.1082 46.4179C67.5281 46.4769 71.0051 50.4253 71.0051 55.2578ZM42.8943 55.2578C42.8943 60.0902 39.3584 64.0973 34.9974 64.0973C30.5185 64.0973 27.1004 60.0902 27.1004 55.2578C27.0415 50.4253 30.5185 46.4179 34.9974 46.4179C39.4173 46.4769 42.8943 50.4253 42.8943 55.2578Z" stroke="#FF6F43" stroke-width="0.589323"/>
<path d="M14.4299 25.3808C4.88285 39.4067 0.168271 55.2006 1.93624 73.4103C9.126 78.7142 16.1389 81.8966 23.034 84.0771C24.6252 81.8966 26.0396 79.5393 27.3361 77.1231C25.0377 76.2391 22.7983 75.1783 20.6767 73.9407C20.3231 73.705 20.3231 73.2335 20.6178 72.9978C21.0893 72.6442 21.5018 72.3496 21.9143 71.996C22.0911 71.8781 22.3268 71.8192 22.5036 71.937C36.117 78.2428 51.0269 78.2428 64.8172 71.937C64.994 71.8781 65.2297 71.8781 65.4065 71.996C65.8191 72.3496 66.2905 72.7032 66.703 72.9978C66.9977 73.2335 66.9977 73.7639 66.6441 73.9407C64.5225 75.1783 62.342 76.2391 60.0437 77.1231C61.2813 79.5393 62.6956 81.8966 64.3457 84.0771C71.1819 81.9555 78.1948 78.7142 85.3846 73.4103C86.8579 57.6757 83.8523 41.7051 72.8909 25.3808C67.5281 22.9057 61.7527 21.0788 55.7415 20.0769C54.9753 21.3734 54.1503 23.0825 53.561 24.4379L53.4431 24.6736L53.2074 24.6147C46.8427 23.6718 40.4191 23.6718 33.9365 24.6147L33.7008 24.6736V24.4379C33.1114 23.0825 32.2864 21.3734 31.5792 20.0769C25.5681 21.1377 19.7927 22.9057 14.4299 25.3808ZM65.5833 55.2595C65.5833 60.0919 62.0474 64.099 57.6862 64.099C53.2663 64.099 49.7893 60.0919 49.7893 55.2595C49.7304 50.427 53.2074 46.4196 57.6862 46.4196C62.1652 46.4786 65.5833 50.427 65.5833 55.2595ZM37.4724 55.2595C37.4724 60.0919 33.9365 64.099 29.5755 64.099C25.0967 64.099 21.6786 60.0919 21.6786 55.2595C21.6196 50.427 25.0967 46.4196 29.5755 46.4196C33.9954 46.4786 37.4724 50.427 37.4724 55.2595Z" fill="#0D0D0E" stroke="#FF6F43" stroke-width="0.589323"/>
</g>
</g>
<defs>
<clipPath id="clip0_5581_6994">
<rect width="165.01" height="138.99" fill="white" transform="translate(0 0.756836)"/>
</clipPath>
</defs>
</svg>
