<svg width="166" height="140" viewBox="0 0 166 140" fill="none" xmlns="http://www.w3.org/2000/svg">
<path opacity="0.15" d="M160.36 5C163.534 5 165.929 7.80315 164.648 13.017L149.112 86.7398C148.026 91.9817 144.88 93.2431 140.537 90.8043L103.479 63.2494C103.335 63.1456 103.218 63.0088 103.137 62.8504C103.056 62.692 103.014 62.5165 103.014 62.3384C103.014 62.1603 103.056 61.9848 103.137 61.8264C103.218 61.6679 103.335 61.5312 103.479 61.4274L146.272 22.5197C148.221 20.7817 145.855 19.9408 143.293 21.5105L89.5852 55.6248C89.4223 55.7318 89.2374 55.8 89.0444 55.8243C88.8515 55.8486 88.6555 55.8283 88.4715 55.765L65.6686 48.5048C60.6013 47.0192 60.6013 43.5152 66.8102 41.0204L158.049 5.58866C158.773 5.23917 159.559 5.03902 160.36 5Z" fill="black" fill-opacity="0.38" stroke="#FF6F43" stroke-linecap="round" stroke-linejoin="round"/>
<mask id="mask0_19_21" style="mask-type:luminance" maskUnits="userSpaceOnUse" x="0" y="0" width="166" height="140">
<path d="M165.01 0.756836H0V139.747H165.01V0.756836Z" fill="white"/>
</mask>
<g mask="url(#mask0_19_21)">
<path opacity="0.4" d="M140.054 27C144.122 27 147.19 30.5764 145.549 37.2286L125.639 131.289C124.247 137.977 120.215 139.586 114.649 136.475L67.1569 101.318C66.9728 101.186 66.8227 101.011 66.7192 100.809C66.6157 100.607 66.5617 100.383 66.5617 100.156C66.5617 99.9287 66.6157 99.7047 66.7192 99.5026C66.8227 99.3005 66.9728 99.126 67.1569 98.9935L121.999 49.3527C124.497 47.1353 121.464 46.0624 118.181 48.0652L49.3519 91.5903C49.1432 91.7268 48.9062 91.8138 48.6589 91.8448C48.4116 91.8758 48.1605 91.8499 47.9246 91.7691L18.7016 82.5062C12.2075 80.6107 12.2075 76.1401 20.1645 72.9571L137.093 27.7511C138.02 27.3051 139.027 27.0498 140.054 27Z" fill="black" fill-opacity="0.38" stroke="#FF6F43" stroke-linecap="round" stroke-linejoin="round"/>
<path d="M85.4872 20C88.0522 20 89.9872 22.25 88.9522 26.435L76.3972 85.61C75.5197 89.8175 72.9772 90.83 69.4672 88.8725L39.5197 66.755C39.4036 66.6717 39.309 66.5619 39.2437 66.4347C39.1784 66.3076 39.1444 66.1667 39.1444 66.0237C39.1444 65.8808 39.1784 65.7399 39.2437 65.6128C39.309 65.4856 39.4036 65.3758 39.5197 65.2925L74.1022 34.0625C75.6772 32.6675 73.7647 31.9925 71.6947 33.2525L28.2922 60.635C28.1606 60.7208 28.0111 60.7756 27.8552 60.7951C27.6993 60.8146 27.5409 60.7983 27.3922 60.7475L8.96471 54.92C4.86971 53.7275 4.86971 50.915 9.88721 48.9125L83.6197 20.4725C84.2044 20.192 84.8394 20.0313 85.4872 20Z" fill="#262528" stroke="#713321" stroke-linecap="round" stroke-linejoin="round"/>
<path d="M80.4872 20C83.0522 20 84.9872 22.25 83.9522 26.435L71.3972 85.61C70.5197 89.8175 67.9772 90.83 64.4672 88.8725L34.5197 66.755C34.4036 66.6717 34.309 66.5619 34.2437 66.4347C34.1784 66.3076 34.1444 66.1667 34.1444 66.0237C34.1444 65.8808 34.1784 65.7399 34.2437 65.6128C34.309 65.4856 34.4036 65.3758 34.5197 65.2925L69.1022 34.0625C70.6772 32.6675 68.7647 31.9925 66.6947 33.2525L23.2922 60.635C23.1606 60.7208 23.0111 60.7756 22.8552 60.7951C22.6993 60.8146 22.5409 60.7983 22.3922 60.7475L3.96471 54.92C-0.130292 53.7275 -0.130293 50.915 4.88721 48.9125L78.6197 20.4725C79.2044 20.192 79.8394 20.0313 80.4872 20Z" fill="black" stroke="#FF6F43" stroke-linecap="round" stroke-linejoin="round"/>
</g>
</svg>
