<svg width="54" height="60" viewBox="0 0 54 60" fill="none" xmlns="http://www.w3.org/2000/svg">
<g clip-path="url(#clip0_5840_7301)">
<path d="M19.9375 59.5958C26.8371 52.533 33.5829 45.6301 40.4862 38.5673C35.0761 33.0085 29.8423 27.621 24.6048 22.2372C24.6573 22.0697 24.7061 21.9022 24.7586 21.7385C25.7228 21.7385 26.687 21.7385 27.6475 21.7385C30.5852 21.7385 33.5266 21.8108 36.4605 21.708C37.9688 21.6547 39.0268 22.1839 40.066 23.2614C44.2606 27.6171 48.5302 31.8967 52.7735 36.2067C54.368 37.8249 54.428 39.1346 52.826 40.7756C46.9769 46.7723 41.1015 52.7424 35.2187 58.701C34.8397 59.0818 34.307 59.5501 33.8418 59.5577C29.2458 59.6224 24.6498 59.5958 19.9375 59.5958Z" fill="#9D9DA6"/>
<path d="M34.0038 0.763229C27.2542 7.68134 20.516 14.588 13.6089 21.6737C18.9777 27.2135 24.1627 32.5705 29.3252 37.9009C29.1752 38.1294 29.1114 38.3198 29.0476 38.3198C24.7443 38.3769 20.4372 38.4492 16.1338 38.4188C15.6086 38.4149 15.0045 37.92 14.5843 37.4974C10.0821 33.0046 5.60246 28.489 1.13403 23.9657C-0.310418 22.4999 -0.392958 21.1063 1.01773 19.6519C6.98313 13.5067 12.9898 7.39959 19.0152 1.31531C19.4092 0.919334 20.0995 0.637584 20.6585 0.629969C24.9694 0.576665 29.284 0.603317 33.5986 0.614739C33.7561 0.618547 33.9175 0.728962 34.0038 0.763229Z" fill="#9D9DA6"/>
</g>
<defs>
<clipPath id="clip0_5840_7301">
<rect width="54" height="59" fill="white" transform="translate(0 0.599609)"/>
</clipPath>
</defs>
</svg>
