<svg width="45" height="46" viewBox="0 0 45 46" fill="none" xmlns="http://www.w3.org/2000/svg">
<path d="M22.5 35.4756C19.2177 35.4756 16.0698 34.1717 13.7489 31.8507C11.4279 29.5298 10.124 26.3819 10.124 23.0996C10.124 19.8173 11.4279 16.6694 13.7489 14.3485C16.0698 12.0275 19.2177 10.7236 22.5 10.7236V0.599609C18.0499 0.599609 13.6998 1.91921 9.99967 4.39154C6.29957 6.86387 3.41569 10.3779 1.71272 14.4892C0.00974979 18.6006 -0.435826 23.1246 0.432341 27.4891C1.30051 31.8537 3.44343 35.8628 6.59011 39.0095C9.73679 42.1562 13.7459 44.2991 18.1105 45.1673C22.475 46.0354 26.999 45.5899 31.1104 43.8869C35.2217 42.1839 38.7357 39.3 41.2081 35.5999C43.6804 31.8998 45 27.5497 45 23.0996H34.876C34.876 26.3819 33.5721 29.5298 31.2511 31.8507C28.9302 34.1717 25.7823 35.4756 22.5 35.4756Z" fill="#9D9DA6"/>
</svg>
