<svg width="46" height="59" viewBox="0 0 46 59" fill="none" xmlns="http://www.w3.org/2000/svg">
<path d="M20.6444 1.74739L1.14778 21.2441C-0.382594 22.7745 -0.382594 25.2557 1.14778 26.786C2.67816 28.3164 5.15939 28.3164 6.68976 26.786L26.1865 7.28937C27.7169 5.759 27.7169 3.27776 26.1865 1.74739C24.6561 0.217015 22.1747 0.217015 20.6444 1.74739Z" fill="#9D9DA6"/>
<path d="M36.8828 17.9847L17.3861 37.4814C15.8557 39.0118 15.8557 41.4929 17.3861 43.0233C18.9164 44.5537 21.3977 44.5537 22.9281 43.0233L42.4248 23.5266C43.9551 21.9963 43.9551 19.5151 42.4248 17.9847C40.8944 16.4543 38.4132 16.4543 36.8828 17.9847Z" fill="#9D9DA6"/>
<path d="M22.9081 15.7103L3.41145 35.2069C1.88108 36.7372 1.88108 39.2187 3.41145 40.749C4.94183 42.2794 7.42306 42.2794 8.95343 40.749L28.4501 21.2523C29.9804 19.7219 29.9804 17.2407 28.4501 15.7103C26.9197 14.1799 24.4385 14.1799 22.9081 15.7103Z" fill="#9D9DA6"/>
<path d="M39.1464 31.9476L19.6497 51.4441C18.1194 52.9744 18.1194 55.4559 19.6497 56.9862C21.1801 58.5166 23.6612 58.5166 25.1916 56.9862L44.6883 37.4895C46.2187 35.9591 46.2187 33.478 44.6883 31.9476C43.158 30.4172 40.6768 30.4172 39.1464 31.9476Z" fill="#9D9DA6"/>
</svg>
