<svg width="77" height="23" viewBox="0 0 77 23" fill="none" xmlns="http://www.w3.org/2000/svg">
<g clip-path="url(#clip0_5813_7557)">
<path d="M22.5805 0.604988H0.511618C0.374666 0.604988 0.244072 0.656248 0.147716 0.748318C0.100816 0.792361 0.0633254 0.845753 0.0375768 0.905173C0.0118281 0.964592 -0.00162761 1.02877 -0.00195312 1.09371L-0.00195312 22.1056C-0.00195312 22.235 0.0518496 22.3594 0.148205 22.451C0.244561 22.5425 0.375155 22.5943 0.511129 22.5943H22.5805C22.717 22.5943 22.8471 22.5425 22.9439 22.451C22.9909 22.4069 23.0285 22.3536 23.0543 22.2941C23.0801 22.2347 23.0937 22.1705 23.0941 22.1056V1.09371C23.0941 0.964309 23.0403 0.839891 22.9439 0.748318C22.845 0.655499 22.7151 0.604283 22.5805 0.604988ZM15.3954 14.7758C15.3954 14.9052 15.3416 15.0296 15.2448 15.1212C15.1461 15.2138 15.0166 15.265 14.8823 15.2645H8.20981C8.07383 15.2645 7.94324 15.2128 7.84689 15.1212C7.7999 15.0772 7.76231 15.0238 7.73648 14.9644C7.71065 14.905 7.69711 14.8408 7.69673 14.7758V8.42347C7.69673 8.29408 7.75053 8.16966 7.84689 8.07808C7.94324 7.98601 8.07383 7.93475 8.20981 7.93475H14.8823C15.0183 7.93475 15.1489 7.98601 15.2448 8.07808C15.2919 8.12202 15.3295 8.17537 15.3555 8.2348C15.3814 8.29423 15.395 8.35846 15.3954 8.42347V14.7758ZM68.7824 7.93575H62.1099C61.8262 7.93575 61.5963 8.15473 61.5963 8.42447V14.7768C61.5963 15.0465 61.8262 15.2655 62.1099 15.2655H68.7819C69.0656 15.2655 69.2955 15.0465 69.2955 14.7768V8.42447C69.2955 8.15423 69.0656 7.93575 68.7819 7.93575H68.7824ZM61.0852 0.604988H54.4131C54.1294 0.604988 53.8996 0.823965 53.8996 1.0942V7.44653C53.8996 7.71627 54.1294 7.93525 54.4131 7.93525H61.0847C61.3684 7.93525 61.5982 7.71627 61.5982 7.44653V1.0942C61.5982 0.823965 61.3684 0.605485 61.0847 0.605485L61.0852 0.604988ZM76.485 0.604988H69.8124C69.5293 0.604988 69.2994 0.823965 69.2994 1.0942V7.44653C69.2994 7.71627 69.5293 7.93525 69.8129 7.93525H76.4845C76.7682 7.93525 76.998 7.71627 76.998 7.44653V1.0942C76.998 0.823965 76.7682 0.605485 76.4845 0.605485L76.485 0.604988ZM61.0852 15.265H54.4131C54.1294 15.265 53.8996 15.484 53.8996 15.7537V22.1066C53.8996 22.3763 54.1294 22.5948 54.4131 22.5948H61.0847C61.3684 22.5948 61.5982 22.3758 61.5982 22.1066V15.7537C61.5982 15.484 61.3688 15.265 61.0852 15.265ZM76.485 15.265H69.8124C69.5293 15.265 69.2994 15.484 69.2994 15.7537V22.1066C69.2994 22.3763 69.5293 22.5948 69.8129 22.5948H76.4845C76.7682 22.5948 76.998 22.3758 76.998 22.1066V15.7537C76.998 15.484 76.7682 15.265 76.4845 15.265H76.485ZM49.5278 0.604988H42.8563C42.5726 0.604988 42.3427 0.823965 42.3427 1.0942V7.44653C42.3427 7.71627 42.5726 7.93525 42.8563 7.93525H49.5278C49.8115 7.93525 50.0414 7.71627 50.0414 7.44653V1.0942C50.0414 0.823965 49.8115 0.605485 49.5278 0.605485V0.604988ZM49.5278 15.265H42.8563C42.5726 15.265 42.3427 15.484 42.3427 15.7537V22.1066C42.3427 22.3763 42.5726 22.5948 42.8563 22.5948H49.5278C49.8115 22.5948 50.0414 22.3758 50.0414 22.1066V15.7537C50.0414 15.484 49.8115 15.265 49.5278 15.265ZM42.3408 8.418C42.3408 8.2886 42.286 8.16418 42.1901 8.07211C42.0912 7.97955 41.9616 7.92852 41.8272 7.92928H34.6416V1.09371C34.6416 0.964309 34.5878 0.839891 34.4915 0.748318C34.3926 0.655573 34.263 0.60436 34.1285 0.604988H27.4565C27.32 0.604988 27.1894 0.656248 27.0931 0.748318C27.0461 0.792317 27.0085 0.84569 26.9827 0.905112C26.9569 0.964533 26.9433 1.02873 26.9429 1.09371V22.0946C26.9429 22.224 26.9967 22.3484 27.0931 22.44C27.1894 22.5316 27.32 22.5833 27.4565 22.5833H34.128C34.2645 22.5833 34.3951 22.5316 34.4915 22.44C34.5878 22.3484 34.6416 22.224 34.6416 22.0946V15.259H41.8267C41.9632 15.259 42.0938 15.2073 42.1901 15.1157C42.2371 15.0717 42.2747 15.0183 42.3005 14.9589C42.3263 14.8995 42.3399 14.8353 42.3403 14.7703L42.3408 8.418Z" fill="#9D9DA6"/>
</g>
<defs>
<clipPath id="clip0_5813_7557">
<rect width="77" height="22" fill="white" transform="translate(-0.00195312 0.599609)"/>
</clipPath>
</defs>
</svg>
