<svg width="85" height="31" viewBox="0 0 85 31" fill="none" xmlns="http://www.w3.org/2000/svg">
<g clip-path="url(#clip0_5840_6991)">
<path d="M84.9758 29.8515C84.6633 29.8515 84.3896 29.8515 84.1167 29.8515C82.6743 29.8515 81.2335 29.8502 79.7912 29.8542C79.6486 29.8542 79.5655 29.8372 79.5053 29.6824C78.7666 27.752 78.0112 25.828 77.2778 23.8962C77.0994 23.428 76.9866 22.9362 76.8417 22.4497C76.8227 22.6436 76.7868 22.8426 76.7853 23.0429C76.783 25.2192 76.783 27.3956 76.7937 29.5719C76.7937 29.8164 76.722 29.8645 76.4773 29.862C74.9871 29.8502 73.497 29.8529 72.0069 29.8685C71.7397 29.871 71.7729 29.728 71.7729 29.5692C71.7729 25.9425 71.7742 22.3157 71.7729 18.6877C71.7729 16.4411 71.7729 14.1932 71.7676 11.9466C71.7676 11.7958 71.7888 11.7177 71.975 11.719C73.82 11.7294 75.6638 11.719 77.5088 11.7373C78.7346 11.7489 79.9399 11.9311 81.049 12.4644C82.7529 13.284 83.7142 14.6629 84.0473 16.4788C84.2097 17.3569 84.2188 18.2311 84.0221 19.1065C83.6997 20.5453 82.8337 21.5626 81.5072 22.2168C81.3121 22.3131 81.296 22.3899 81.386 22.572C82.5059 24.8133 83.6166 27.0599 84.7281 29.3052C84.8119 29.473 84.8821 29.6473 84.9743 29.8515H84.9758ZM76.8112 17.9722C76.8112 17.9722 76.8059 17.9722 76.8029 17.9722C76.8029 18.6096 76.8029 19.247 76.8029 19.8844C76.8029 19.995 76.7792 20.1082 76.9561 20.116C77.4264 20.1368 77.8694 20.0601 78.2559 19.7778C79.0159 19.2223 79.1783 18.4418 79.1348 17.5741C79.1013 16.9237 78.865 16.3982 78.2665 16.0678C77.8877 15.8583 77.4745 15.8401 77.0514 15.8388C76.8547 15.8388 76.8059 15.9039 76.8082 16.0821C76.8166 16.7117 76.8112 17.3413 76.8112 17.9722Z" fill="#9D9DA6"/>
<path d="M0 29.8316C0.103685 29.401 0.203415 28.9808 0.305771 28.5619C1.13658 25.1641 1.96737 21.7663 2.79951 18.3685C3.31262 16.2715 3.82972 14.1758 4.34016 12.0788C4.42524 11.7302 4.41593 11.7263 4.78548 11.7263C6.63053 11.7263 8.47423 11.7315 10.3193 11.7276C10.5227 11.7276 10.6091 11.7875 10.653 11.9943C10.9667 13.4734 11.2991 14.9485 11.6194 16.4276C12.0766 18.544 12.5272 20.6631 12.9846 22.7809C13.4777 25.0678 13.9762 27.3534 14.472 29.6403C14.4854 29.7014 14.4867 29.7639 14.4973 29.8537C14.3604 29.8537 14.2354 29.8537 14.1105 29.8537C12.6044 29.8537 11.0983 29.851 9.59219 29.8575C9.40481 29.8575 9.325 29.8198 9.2958 29.6234C9.20401 29.0003 9.09241 28.3798 8.97409 27.7605C8.96075 27.6877 8.85845 27.5771 8.79731 27.5758C7.75909 27.5693 6.71957 27.5771 5.68007 27.5823C5.65614 27.5823 5.63356 27.5914 5.58837 27.5993C5.46208 28.2809 5.32915 28.9677 5.21084 29.6572C5.18559 29.8029 5.14171 29.8549 4.98618 29.8549C3.38305 29.851 1.77995 29.8549 0.17815 29.8549C0.131625 29.8549 0.0850762 29.8432 0.00133073 29.8316H0ZM7.44671 16.4497C7.06653 18.8406 6.68638 21.2303 6.30487 23.6382H8.37322C7.97582 21.2407 7.64215 18.8576 7.44804 16.4497H7.44671Z" fill="#9D9DA6"/>
<path d="M70.7202 29.8513C70.2564 29.8513 69.831 29.8513 69.4056 29.8513C68.2212 29.8513 67.0382 29.8436 65.8537 29.8579C65.6158 29.8604 65.5227 29.785 65.4895 29.5729C65.3965 28.9733 65.2888 28.3762 65.2037 27.7752C65.1824 27.6243 65.1345 27.5762 64.9817 27.5775C63.9754 27.5827 62.9678 27.58 61.9616 27.5775C61.8326 27.5775 61.7782 27.6191 61.7569 27.7466C61.6412 28.4373 61.5176 29.1267 61.3939 29.837H56.207C56.3626 29.1944 56.5115 28.5674 56.6644 27.9417C57.4526 24.7364 58.2435 21.5324 59.0291 18.3271C59.5303 16.2848 60.0261 14.2399 60.5219 12.1962C60.635 11.7292 60.6309 11.7266 61.1267 11.7279C62.9146 11.7279 64.7026 11.7292 66.4905 11.7332C66.8321 11.7332 66.8188 11.75 66.8839 12.0674C67.0475 12.8779 67.2336 13.6831 67.4064 14.4909C68.0245 17.371 68.6386 20.2511 69.2581 23.1311C69.6395 24.9016 70.0264 26.6721 70.4119 28.4412C70.4956 28.8263 70.5861 29.2087 70.6724 29.5937C70.6897 29.6692 70.7003 29.7473 70.7189 29.8539L70.7202 29.8513ZM64.5351 23.6567C64.2214 21.2007 63.913 18.7967 63.6059 16.3941C63.5554 16.4292 63.5474 16.4604 63.5474 16.4916C63.4875 18.054 63.1579 19.5824 62.9213 21.1214C62.8017 21.8993 62.6461 22.6706 62.5172 23.4472C62.5066 23.511 62.5784 23.6476 62.613 23.6476C63.255 23.6593 63.897 23.6567 64.5364 23.6567H64.5351Z" fill="#9D9DA6"/>
<path d="M41.1593 16.0351V18.5821C41.2497 18.5873 41.3348 18.5964 41.4198 18.5977C42.5471 18.5991 43.6757 18.6029 44.8029 18.5977C44.9677 18.5977 45.0501 18.6225 45.0501 18.8137C45.0501 20.0677 45.0581 21.3204 45.0674 22.5744C45.0674 22.7384 44.9876 22.7656 44.8414 22.7656C43.7142 22.7618 42.5856 22.7708 41.4584 22.7592C41.2297 22.7565 41.15 22.8086 41.154 23.0428C41.1673 23.8532 41.1593 24.6623 41.1593 25.4961H45.4476C45.4569 25.5625 45.4675 25.6067 45.4675 25.6509C45.4675 26.9752 45.4648 28.3007 45.4716 29.6251C45.4716 29.8071 45.4276 29.8644 45.2282 29.8644C42.2799 29.8605 39.3315 29.8644 36.3832 29.8722C36.1984 29.8722 36.1425 29.8123 36.1479 29.6419C36.1559 29.3817 36.1465 29.1216 36.1465 28.8614C36.1465 23.3341 36.1465 17.8055 36.1465 12.2783C36.1465 11.7267 36.1466 11.728 36.7182 11.7293C39.5455 11.7293 42.3729 11.7332 45.2017 11.7253C45.4303 11.7253 45.4848 11.7865 45.4822 12.0025C45.4689 13.2564 45.4648 14.5105 45.4716 15.7632C45.4716 15.987 45.3971 16.0442 45.1791 16.0416C43.9309 16.0324 42.6813 16.0377 41.4331 16.0377C41.3454 16.0377 41.2576 16.0377 41.158 16.0377L41.1593 16.0351Z" fill="#9D9DA6"/>
<path d="M51.5613 25.49H55.3232C55.3299 25.5901 55.3378 25.6656 55.3378 25.7411C55.3378 27.0419 55.3351 28.3427 55.3378 29.6435C55.3378 29.7984 55.3046 29.8621 55.1239 29.8621C52.3762 29.8543 49.6298 29.853 46.8822 29.8504C46.7785 29.8504 46.6735 29.8504 46.5339 29.8504C46.5339 29.7489 46.5339 29.6579 46.5339 29.5668C46.5339 23.7156 46.5339 17.8644 46.5312 12.0132C46.5312 11.8376 46.5325 11.7192 46.7758 11.7205C48.3311 11.7322 49.8851 11.7296 51.4403 11.7335C51.4709 11.7335 51.5015 11.7413 51.5613 11.7478V25.49Z" fill="#9D9DA6"/>
<path d="M32.4393 13.6531C33.209 14.3854 33.98 15.1204 34.7403 15.845C33.0588 17.4737 31.3918 19.088 29.7594 20.6698C31.4689 22.374 33.1173 24.0169 34.7522 25.6469C33.9746 26.4183 33.2076 27.1806 32.3781 28.0027C32.0458 27.6515 31.7281 27.2977 31.3878 26.9633C29.7116 25.3152 28.0314 23.6721 26.3485 22.0292C26.0095 21.6975 25.8034 21.3124 25.7861 20.8389C25.7689 20.342 25.9802 19.9388 26.3312 19.5953C28.2786 17.6896 30.2273 15.7838 32.1761 13.8794C32.2492 13.8079 32.333 13.7441 32.4393 13.6531Z" fill="#9D9DA6"/>
<path d="M29.6749 10.9604C30.4552 11.7136 31.2275 12.4591 32.0104 13.2148C31.9573 13.2746 31.9134 13.3293 31.8629 13.3774C29.9035 15.2936 27.9428 17.2097 25.9834 19.1272C25.5155 19.5851 24.9705 19.8504 24.3072 19.6748C24.0254 19.6007 23.7303 19.4472 23.5242 19.2481C21.5077 17.2982 19.5085 15.3313 17.5052 13.3683C17.4613 13.3254 17.4254 13.2733 17.3789 13.2174C18.1539 12.4694 18.9196 11.7292 19.7065 10.9696C19.8474 11.0996 20.0016 11.2362 20.1478 11.3806C21.5768 12.7803 23.0032 14.1827 24.4322 15.5811C24.6794 15.823 24.6847 15.8165 24.9386 15.5693C26.4766 14.0643 28.0133 12.5605 29.5526 11.0567C29.5912 11.019 29.6377 10.9891 29.6736 10.9618L29.6749 10.9604Z" fill="#9D9DA6"/>
<path d="M16.9085 27.9702C16.1547 27.2001 15.4077 26.4379 14.6407 25.6534C16.2798 24.0729 17.9507 22.4599 19.615 20.8547C19.2693 20.5021 18.9876 20.2029 18.6925 19.9154C17.4031 18.6588 16.1096 17.4048 14.8175 16.1495C14.5716 15.9114 14.5702 15.9075 14.8042 15.676C15.4157 15.0711 16.0298 14.4675 16.6453 13.8652C16.729 13.7833 16.8234 13.7117 16.9165 13.6323C17.4323 14.1344 17.9347 14.6222 18.4372 15.1114C19.9101 16.545 21.3829 17.9798 22.8544 19.4146C22.9913 19.5473 23.1243 19.6864 23.2426 19.8361C23.6998 20.4163 23.7132 21.1278 23.2692 21.7184C23.1416 21.8888 22.9887 22.0436 22.8358 22.1945C20.8964 24.0977 18.9543 25.9982 17.0122 27.8987C16.9963 27.9143 16.9736 27.9248 16.9085 27.9677V27.9702Z" fill="#9D9DA6"/>
<path d="M17.3295 28.3465C19.3433 26.3939 21.3201 24.4725 23.3034 22.559C23.5014 22.3678 23.7168 22.1727 23.9613 22.0491C24.5994 21.7239 25.2787 21.828 25.8078 22.3249C26.6372 23.1054 27.4507 23.9041 28.2696 24.6963C29.5112 25.8996 30.75 27.1042 32.0115 28.3295C31.9052 28.4479 31.8214 28.5494 31.7284 28.6418C31.0983 29.2622 30.4603 29.875 29.8368 30.502C29.6946 30.6451 29.6149 30.6204 29.4885 30.4955C27.9412 28.967 26.3913 27.4411 24.8413 25.9152C24.7975 25.8723 24.7483 25.8333 24.6938 25.7851C24.0318 26.4199 23.3724 27.043 22.7225 27.6753C21.7521 28.621 20.791 29.5745 19.8206 30.5189C19.7767 30.5618 19.6398 30.5866 19.6092 30.5567C18.8502 29.8308 18.1004 29.0958 17.3281 28.3426L17.3295 28.3465Z" fill="#9D9DA6"/>
<path d="M15.3984 6.68267V0.702148H17.4791C17.9474 0.702148 18.3337 0.781887 18.638 0.941368C18.9424 1.09515 19.1677 1.30875 19.3141 1.58214C19.4604 1.85554 19.5336 2.1688 19.5336 2.52194C19.5336 2.87507 19.4604 3.18834 19.3141 3.46174C19.1677 3.73513 18.9424 3.95156 18.638 4.11104C18.3337 4.26483 17.9474 4.34172 17.4791 4.34172H16.3291V6.68267H15.3984ZM16.3291 3.53008H17.4352C17.8332 3.53008 18.123 3.43895 18.3044 3.25668C18.4918 3.07442 18.5854 2.82951 18.5854 2.52194C18.5854 2.22006 18.4918 1.978 18.3044 1.79573C18.123 1.60777 17.8332 1.51379 17.4352 1.51379H16.3291V3.53008Z" fill="#9D9DA6"/>
<path d="M22.9377 6.78518C22.4402 6.78518 22.0101 6.65986 21.6472 6.40926C21.2842 6.15864 21.0063 5.80266 20.8131 5.3413C20.62 4.87995 20.5234 4.33031 20.5234 3.69238C20.5234 3.05447 20.62 2.50483 20.8131 2.04348C21.0063 1.58212 21.2842 1.22614 21.6472 0.97553C22.0101 0.724918 22.4402 0.599609 22.9377 0.599609C23.4411 0.599609 23.8713 0.724918 24.2283 0.97553C24.5912 1.22614 24.8693 1.58212 25.0624 2.04348C25.2555 2.50483 25.352 3.05447 25.352 3.69238C25.352 4.33031 25.2555 4.87995 25.0624 5.3413C24.8693 5.80266 24.5912 6.15864 24.2283 6.40926C23.8713 6.65986 23.4411 6.78518 22.9377 6.78518ZM22.9377 5.93081C23.3767 5.93081 23.7308 5.74001 24.0001 5.3584C24.2693 4.97109 24.4039 4.41575 24.4039 3.69238C24.4039 2.96903 24.2693 2.41655 24.0001 2.03494C23.7308 1.64763 23.3767 1.45398 22.9377 1.45398C22.4929 1.45398 22.1359 1.64763 21.8667 2.03494C21.6033 2.41655 21.4715 2.96903 21.4715 3.69238C21.4715 4.41575 21.6033 4.97109 21.8667 5.3584C22.1359 5.74001 22.4929 5.93081 22.9377 5.93081Z" fill="#9D9DA6"/>
<path d="M26.6826 6.68267L25.8398 0.702148H26.7441L27.2533 5.05084L28.0083 0.702148H28.9214L29.6764 5.05084L30.1857 0.702148H31.0899L30.2471 6.68267H29.1672L28.4649 2.45359L27.7625 6.68267H26.6826Z" fill="#9D9DA6"/>
<path d="M32.0605 6.68267V0.702148H35.985V1.51379H32.9911V3.25668H35.7216V4.05979H32.9911V5.87103H35.985V6.68267H32.0605Z" fill="#9D9DA6"/>
<path d="M37.5449 6.68267V0.702148H39.5554C40.0354 0.702148 40.4304 0.781887 40.7406 0.941368C41.0567 1.10085 41.2908 1.31729 41.443 1.59069C41.6011 1.85839 41.68 2.16311 41.68 2.50485C41.68 2.89216 41.5776 3.23675 41.3727 3.53862C41.1738 3.8348 40.8665 4.05123 40.4509 4.18794L41.7415 6.68267H40.6616L39.4852 4.31609H38.4756V6.68267H37.5449ZM38.4756 3.4959H39.5027C39.9242 3.4959 40.2315 3.40477 40.4246 3.22251C40.6236 3.04025 40.7231 2.80102 40.7231 2.50485C40.7231 2.20297 40.6265 1.96375 40.4333 1.78719C40.2402 1.60492 39.9271 1.51379 39.494 1.51379H38.4756V3.4959Z" fill="#9D9DA6"/>
<path d="M43.1152 6.68267V0.702148H47.0396V1.51379H44.0459V3.25668H46.7763V4.05979H44.0459V5.87103H47.0396V6.68267H43.1152Z" fill="#9D9DA6"/>
<path d="M48.4414 6.68267V0.702148H49.9164C50.9055 0.702148 51.6401 0.969853 52.12 1.50525C52.5999 2.03496 52.8399 2.764 52.8399 3.6924C52.8399 4.62081 52.5999 5.35272 52.12 5.88811C51.6401 6.41782 50.9055 6.68267 49.9164 6.68267H48.4414ZM49.3721 5.8454H49.8812C50.5953 5.8454 51.1104 5.65174 51.4265 5.26443C51.7425 4.87143 51.9005 4.34742 51.9005 3.6924C51.9005 3.0374 51.7425 2.51624 51.4265 2.12893C51.1104 1.73593 50.5953 1.53942 49.8812 1.53942H49.3721V5.8454Z" fill="#9D9DA6"/>
<path d="M59.4883 6.68267V0.702148H61.6831C62.3211 0.702148 62.804 0.844544 63.1318 1.12933C63.4595 1.41412 63.6234 1.7815 63.6234 2.23146C63.6234 2.5789 63.5298 2.86083 63.3425 3.07727C63.1552 3.29371 62.9386 3.45035 62.6928 3.54717V3.60697C62.9855 3.7095 63.2371 3.87752 63.4478 4.11104C63.6585 4.33887 63.7638 4.64075 63.7638 5.01667C63.7638 5.32424 63.6848 5.60618 63.5268 5.86248C63.3746 6.1131 63.1493 6.31245 62.8509 6.46054C62.5523 6.60863 62.1865 6.68267 61.7534 6.68267H59.4883ZM60.4189 3.19688H61.569C61.9261 3.19688 62.1982 3.12853 62.3855 2.99183C62.5728 2.84944 62.6664 2.63585 62.6664 2.35106C62.6664 1.78719 62.2947 1.50525 61.5515 1.50525H60.4189V3.19688ZM60.4189 5.8454H61.6304C62.0109 5.8454 62.3036 5.76566 62.5084 5.60618C62.7132 5.4467 62.8157 5.21317 62.8157 4.9056C62.8157 4.60373 62.7074 4.37305 62.4908 4.21357C62.2743 4.0484 61.9816 3.96581 61.6129 3.96581H60.4189V5.8454Z" fill="#9D9DA6"/>
<path d="M66.6921 6.68267V4.41008L64.6641 0.702148H65.7264L67.1573 3.45318L68.5884 0.702148H69.6507L67.6227 4.41008V6.68267H66.6921Z" fill="#9D9DA6"/>
</g>
<defs>
<clipPath id="clip0_5840_6991">
<rect width="85" height="30" fill="white" transform="translate(0 0.599609)"/>
</clipPath>
</defs>
</svg>
