<svg width="48" height="54" viewBox="0 0 48 54" fill="none" xmlns="http://www.w3.org/2000/svg">
<path d="M0 32.3754C0.061541 32.1592 0.0803801 32.0171 0.139409 31.8964C1.51466 29.0993 2.89368 26.3035 4.27396 23.5089C5.31765 21.3944 6.36761 19.2849 7.40376 17.1667C8.34823 15.2357 9.27888 13.2985 10.2095 11.3613C10.5637 10.6221 11.2645 10.2424 11.8586 9.7622C13.6018 8.35422 15.3689 6.97515 17.131 5.59105C19.0124 4.11393 20.89 2.63052 22.789 1.17603C23.8001 0.401638 23.8176 0.429295 24.9216 1.12826C28.2398 3.2264 31.558 5.3258 34.8812 7.41514C35.3459 7.7068 35.5783 8.12416 35.798 8.61318C36.5491 10.2801 37.3629 11.9182 38.1454 13.57C39.1263 15.6393 40.0984 17.7135 41.0768 19.784C42.4344 22.6616 43.7934 25.5379 45.151 28.4142C45.9523 30.1113 46.7511 31.8084 47.5511 33.5055C47.7207 33.8651 47.6667 34.1492 47.3389 34.417C44.1086 37.0569 40.8859 39.7069 37.6606 42.3544C34.9553 44.5745 32.2488 46.7934 29.5485 49.0185C27.8869 50.3875 26.2378 51.7728 24.5775 53.1431C23.8453 53.7478 23.7599 53.7415 23.0992 53.1494C20.7356 51.0324 18.3719 48.9141 16.0082 46.7971C13.5164 44.5657 11.0259 42.3318 8.5316 40.1017C5.80495 37.6654 3.07203 35.2341 0.346639 32.7953C0.204718 32.6708 0.101731 32.4998 0 32.3754ZM44.3234 33.4075C44.2744 33.0957 44.2869 32.8858 44.2091 32.7173C43.2483 30.6405 42.2774 28.5688 41.3041 26.4983C40.3244 24.4127 39.3448 22.3259 38.3564 20.2441C36.9008 17.1792 35.4288 14.1219 33.9882 11.0495C33.7923 10.6321 33.6089 10.5957 33.2372 10.7956C30.3736 12.3355 27.4988 13.8541 24.6453 15.4117C24.4054 15.5425 24.1881 15.8907 24.1404 16.1685C23.9721 17.1566 23.893 18.1598 23.7611 19.1542C23.422 21.6911 23.0678 24.2267 22.7287 26.7648C22.5705 27.9503 22.4461 29.1408 22.2866 30.3263C22.1598 31.2679 22.0041 32.2069 21.8584 33.146C21.8056 33.4829 21.9852 33.6111 22.2766 33.5621C22.8028 33.4729 23.3241 33.3484 23.8465 33.2378C24.8601 33.0241 25.8761 32.8217 26.8872 32.5954C28.5513 32.2233 30.2104 31.8273 31.8757 31.4589C32.9018 31.2314 33.9455 31.078 34.9616 30.8153C35.7892 30.6016 36.5252 30.4394 37.4019 30.8241C39.1614 31.5972 40.9939 32.2019 42.7974 32.8719C43.2633 33.0442 43.7331 33.2001 44.3234 33.4075ZM19.0112 33.8751C19.0576 33.7255 19.0915 33.6501 19.1041 33.5709C19.2498 32.6117 19.4005 31.6538 19.5336 30.6946C19.7748 28.9648 20.0121 27.235 20.237 25.5039C20.4015 24.2342 20.5346 22.962 20.7004 21.6923C20.924 19.9776 21.1538 18.2629 21.405 16.5519C21.469 16.1132 21.2919 15.9007 20.9089 15.7914C19.4018 15.3602 17.8934 14.9277 16.3862 14.499C15.2283 14.1697 14.064 13.8604 12.9136 13.5072C12.3522 13.3349 12.1776 13.3852 11.9415 13.8868C11.3198 15.2068 10.6931 16.5255 10.0475 17.8342C9.12691 19.7023 8.17868 21.5566 7.25807 23.4246C5.97953 26.0206 4.71354 28.6229 3.45635 31.2301C3.36592 31.4174 3.38852 31.6601 3.34582 31.9681C3.60078 31.8449 3.73265 31.8009 3.84443 31.7254C6.26463 30.0761 8.68608 28.4267 11.0987 26.7661C11.414 26.5486 11.6551 26.5612 11.9214 26.8264C12.8018 27.7039 13.701 28.5625 14.5727 29.4475C15.9027 30.7977 17.2139 32.1667 18.5377 33.5219C18.6607 33.6463 18.8215 33.7356 19.0112 33.8751ZM22.4399 13.4468C22.6421 13.3789 22.8481 13.3362 23.0277 13.2432C23.7272 12.8786 24.4167 12.4952 25.1125 12.1218C27.0982 11.057 29.0888 9.99854 31.0707 8.92495C31.6158 8.62953 31.6095 8.52141 31.0619 8.17319C28.8263 6.75138 26.582 5.34214 24.3514 3.91279C24.0311 3.70788 23.7887 3.73679 23.515 3.95679C22.897 4.45335 22.2741 4.94238 21.6524 5.43391C19.3955 7.21777 17.1373 9.00038 14.8841 10.788C14.7862 10.8647 14.7309 10.9954 14.6556 11.101C14.7648 11.1677 14.8653 11.2619 14.9834 11.2971C16.8798 11.8616 18.7776 12.421 20.6765 12.9742C21.2568 13.1426 21.8433 13.2872 22.4399 13.4468ZM21.2593 33.7796C20.7569 33.904 20.2608 34.0851 19.7509 34.1391C19.2473 34.1919 19.1594 34.3692 19.2586 34.8419C19.6014 36.4648 19.9117 38.094 20.2156 39.7245C20.3864 40.641 20.5007 41.5687 20.6753 42.4839C21.0269 44.3332 21.3974 46.1786 21.7767 48.0216C21.8182 48.2252 21.9262 48.449 22.0719 48.5923C22.514 49.0273 22.9736 49.4509 23.4647 49.8281C23.6305 49.955 23.9633 50.038 24.1291 49.9563C24.4544 49.7966 24.786 49.559 24.6918 49.0776C24.4745 47.9776 24.2685 46.8751 24.0575 45.7738C23.6167 43.4821 23.1758 41.1891 22.7325 38.8974C22.4298 37.3347 22.1083 35.7759 21.8282 34.2095C21.7579 33.8324 21.5971 33.7419 21.2593 33.7796Z" fill="#9D9DA6"/>
<path d="M44.3229 33.4082C43.7326 33.2008 43.2629 33.0449 42.7994 32.8726C40.9959 32.2026 39.1635 31.5967 37.4039 30.8248C36.5273 30.4401 35.7913 30.6023 34.9636 30.816C33.9476 31.0787 32.9039 31.2334 31.8778 31.4596C30.2124 31.828 28.5533 32.224 26.8892 32.5961C25.8781 32.8224 24.8621 33.026 23.8485 33.2385C23.3248 33.3491 22.8049 33.4736 22.2786 33.5628C21.9872 33.6118 21.8089 33.4836 21.8604 33.1467C22.0061 32.2076 22.1618 31.2686 22.2887 30.327C22.4482 29.1415 22.5725 27.951 22.7308 26.7655C23.0686 24.2274 23.424 21.693 23.7631 19.1549C23.8963 18.1605 23.9754 17.1573 24.1424 16.1692C24.1902 15.8914 24.4074 15.5444 24.6473 15.4124C27.5008 13.8549 30.3757 12.3362 33.2392 10.7963C33.611 10.5964 33.7943 10.6328 33.9903 11.0502C35.4308 14.1226 36.9028 17.1799 38.3584 20.2448C39.3468 22.3266 40.3265 24.4122 41.3061 26.499C42.2795 28.5695 43.2503 30.6413 44.2111 32.718C44.2864 32.8865 44.2751 33.0964 44.3229 33.4082Z" fill="#090909"/>
<path d="M19.011 33.8758C18.8214 33.7362 18.6606 33.647 18.5375 33.5213C17.2138 32.1661 15.9013 30.7971 14.5725 29.4469C13.7009 28.5619 12.8017 27.7033 11.9213 26.8258C11.655 26.5606 11.4139 26.548 11.0986 26.7655C8.68596 28.4261 6.26451 30.0755 3.84431 31.7248C3.73253 31.8003 3.60066 31.8455 3.3457 31.9675C3.38841 31.6595 3.3658 31.4169 3.45623 31.2295C4.71342 28.6235 5.97941 26.0213 7.25795 23.424C8.1773 21.556 9.12554 19.7017 10.0474 17.8336C10.6929 16.5249 11.3197 15.2062 11.9414 13.8862C12.1775 13.3846 12.352 13.3344 12.9134 13.5066C14.0639 13.8586 15.2281 14.1678 16.3861 14.4985C17.8945 14.9284 19.4016 15.3596 20.9088 15.7908C21.2918 15.9001 21.4689 16.1126 21.4049 16.5513C21.1537 18.2623 20.9238 19.977 20.7003 21.6917C20.5345 22.9614 20.4026 24.2336 20.2368 25.5033C20.012 27.2344 19.7734 28.9642 19.5335 30.694C19.3991 31.6544 19.2497 32.6124 19.104 33.5703C19.0914 33.6508 19.0575 33.7262 19.011 33.8758Z" fill="#090909"/>
<path d="M22.4386 13.4443C21.8408 13.2847 21.2555 13.1401 20.6753 12.9704C18.775 12.4172 16.8786 11.8566 14.9821 11.2934C14.864 11.2582 14.7636 11.1639 14.6543 11.0973C14.7297 10.9917 14.7849 10.8622 14.8829 10.7842C17.136 8.99661 19.3942 7.214 21.6511 5.43014C22.2728 4.9386 22.8958 4.44958 23.5137 3.95302C23.7875 3.73302 24.0299 3.70411 24.3501 3.90902C26.5807 5.33963 28.8251 6.74887 31.0606 8.16942C31.607 8.51764 31.6145 8.6245 31.0694 8.92118C29.0888 9.99602 27.0981 11.0533 25.1112 12.118C24.4155 12.4914 23.7259 12.8748 23.0264 13.2394C22.8468 13.3337 22.6408 13.3764 22.4386 13.4443Z" fill="#090909"/>
<path d="M21.2606 33.7794C21.5997 33.7416 21.7605 33.8322 21.8283 34.2093C22.1084 35.7757 22.4299 37.3345 22.7326 38.8971C23.1759 41.1889 23.6168 43.4806 24.0576 45.7736C24.2698 46.8748 24.4746 47.9773 24.6918 49.0773C24.7873 49.5575 24.4557 49.7964 24.1292 49.9561C23.9634 50.0378 23.6306 49.9561 23.4648 49.8278C22.9737 49.4507 22.5153 49.027 22.0719 48.5921C21.9263 48.4488 21.8182 48.225 21.7768 48.0213C21.3975 46.1784 21.0283 44.3329 20.6753 42.4837C20.5008 41.5685 20.3865 40.6408 20.2157 39.7243C19.9117 38.0938 19.6015 36.4646 19.2586 34.8416C19.1594 34.369 19.2473 34.1917 19.751 34.1389C20.2609 34.0848 20.7582 33.9051 21.2606 33.7794Z" fill="black"/>
</svg>
