<svg width="59" height="68" viewBox="0 0 59 68" fill="none" xmlns="http://www.w3.org/2000/svg">
<path d="M0 50.6795L9.75135 45.0476L19.5027 50.6795L9.75135 56.3112L0 50.6795Z" fill="#525A66"/>
<path d="M9.75391 11.3115L19.5053 16.8892V50.6798L9.75391 45.048V11.3115Z" fill="#9D9DA6"/>
<path d="M9.75135 11.3115L0 16.8892V50.6795L9.75135 45.0478V11.3115Z" fill="#87878E"/>
<path d="M29.253 0.00537109L29.2565 11.2627L19.5016 16.8883L19.498 5.6309L29.253 0.00537109Z" fill="#525A66"/>
<path d="M58.4863 28.1295L58.5297 16.8992L29.2539 0.00390625L29.2568 11.2608L58.4863 28.1295Z" fill="#87878E"/>
<path d="M58.4857 28.1307L48.7776 33.7833L19.502 16.8879L19.5032 16.8856L29.2574 11.2627L58.4857 28.1307Z" fill="#9D9DA6"/>
<path d="M48.7789 33.7847L48.7754 45.042L58.5303 50.6675L58.534 39.4102L48.7789 33.7847Z" fill="#525A66"/>
<path d="M19.5488 61.9101L29.2569 67.5627L58.5327 50.6674L48.778 45.042L19.5488 61.9101Z" fill="#9D9DA6"/>
<path d="M19.5472 61.9095L19.5039 50.6794L48.7784 33.7847L48.7748 45.0412L19.5472 61.9095Z" fill="#87878E"/>
</svg>
