<svg width="61" height="60" viewBox="0 0 61 60" fill="none" xmlns="http://www.w3.org/2000/svg">
<g clip-path="url(#clip0_5840_7220)">
<path d="M0 59.8466C0 40.0343 0 20.1983 0 0.352783C20.3286 0.352783 40.6524 0.352783 61 0.352783C61 20.1698 61 39.9963 61 59.8466C40.6762 59.8466 20.3381 59.8466 0 59.8466ZM33.0067 36.9571C33.1585 37.1708 33.2106 37.2752 33.2913 37.356C37.0335 41.0933 40.7805 44.8307 44.5133 48.5775C44.8642 48.9337 45.0919 48.8577 45.3955 48.5443C46.2302 47.6848 47.0508 46.811 47.9377 46.0084C48.4974 45.505 48.4263 45.1916 47.9235 44.693C44.3093 41.0981 40.7188 37.4747 37.1189 33.8656C36.9766 33.7231 36.8058 33.5996 36.5687 33.4049C35.8335 35.0575 34.6999 36.24 33.0067 36.9571ZM16.4773 48.8387C20.5088 44.7879 24.4455 40.8369 28.3253 36.9333C27.7562 36.5059 27.021 36.0785 26.4471 35.4944C25.8732 34.9151 25.4558 34.179 24.9246 33.4524C24.7443 33.6139 24.5689 33.7658 24.4028 33.9273C23.3214 35.0148 22.2495 36.1023 21.1681 37.1898C18.6353 39.7352 16.1026 42.2758 13.5698 44.8212C13.3137 45.0776 12.9911 45.3151 13.3801 45.7092C14.4378 46.7777 15.4955 47.8462 16.4773 48.8387ZM25.0337 29.0265C25.7688 27.2979 26.9546 26.1391 28.5814 25.4173C28.4344 25.2036 28.3822 25.0944 28.3016 25.0137C24.5736 21.2953 20.8408 17.5817 17.1176 13.8586C16.7571 13.4977 16.5057 13.5451 16.169 13.8918C15.3437 14.7561 14.5136 15.6251 13.6314 16.4325C13.1382 16.8883 13.1619 17.1685 13.6314 17.6339C17.1223 21.1148 20.5847 24.6243 24.0613 28.1194C24.3412 28.3996 24.64 28.6608 25.0337 29.0265ZM36.5592 28.9315C36.7394 28.8318 36.8153 28.8128 36.8628 28.7653C40.643 24.9662 44.4231 21.1623 48.2081 17.368C48.5211 17.0546 48.4025 16.8551 48.1417 16.5987C47.2879 15.7629 46.4152 14.9366 45.6136 14.0533C45.1251 13.5166 44.8168 13.5214 44.2998 14.0438C40.7141 17.6577 37.0904 21.2478 33.4857 24.8475C33.3292 25.0042 33.2154 25.1989 33.0257 25.4458C34.7189 26.1581 35.8146 27.3454 36.5592 28.9315Z" fill="#9D9DA6"/>
<path d="M33.0059 36.9569C34.6944 36.2446 35.828 35.0621 36.5726 33.4048C36.8098 33.6042 36.9805 33.723 37.1228 33.8654C40.7228 37.4746 44.3085 41.098 47.9274 44.6928C48.4302 45.1915 48.4966 45.5049 47.9416 46.0083C47.0547 46.8108 46.2341 47.6846 45.3994 48.5442C45.0958 48.8576 44.8729 48.9336 44.5172 48.5774C40.7844 44.8306 37.0374 41.098 33.2952 37.3558C33.2146 37.2751 33.1576 37.1659 33.0059 36.9569Z" fill="#1A212D"/>
<path d="M16.477 48.8387C15.4952 47.8462 14.4375 46.7777 13.3798 45.7092C12.9909 45.3151 13.3134 45.0776 13.5695 44.8212C16.1023 42.2805 18.6351 39.7351 21.1678 37.1898C22.2493 36.1023 23.3212 35.0148 24.4026 33.9273C24.5639 33.7658 24.7441 33.6139 24.9243 33.4524C25.4555 34.179 25.8729 34.915 26.4468 35.4944C27.0255 36.0785 27.7559 36.5059 28.3251 36.9333C24.4453 40.8369 20.5086 44.7879 16.477 48.8387Z" fill="#1A212D"/>
<path d="M25.034 29.0265C24.6403 28.6609 24.3415 28.3997 24.0664 28.1195C20.5898 24.6243 17.1274 21.1149 13.6365 17.634C13.1669 17.1639 13.1432 16.8884 13.6365 16.4325C14.5187 15.6252 15.344 14.7562 16.174 13.8919C16.506 13.5452 16.7574 13.493 17.1226 13.8586C20.8459 17.5818 24.5787 21.2954 28.3067 25.0137C28.3873 25.0945 28.4395 25.2037 28.5865 25.4174C26.9502 26.1392 25.7692 27.2979 25.034 29.0265Z" fill="#1A212D"/>
<path d="M36.5589 28.9316C35.8143 27.3454 34.7186 26.1582 33.0254 25.4459C33.2151 25.1989 33.3289 25.0042 33.4855 24.8475C37.0902 21.2479 40.7138 17.6577 44.3043 14.0391C44.8213 13.5167 45.1296 13.512 45.6181 14.0486C46.4197 14.9319 47.2924 15.7582 48.1461 16.594C48.407 16.8504 48.5208 17.0499 48.2125 17.3633C44.4276 21.1577 40.6474 24.9615 36.8672 28.7606C36.8151 28.8081 36.7392 28.8318 36.5589 28.9316Z" fill="#1A212D"/>
</g>
<defs>
<clipPath id="clip0_5840_7220">
<rect y="0.352783" width="61" height="59.4938" rx="29.7469" fill="white"/>
</clipPath>
</defs>
</svg>
