<svg width="65" height="62" viewBox="0 0 65 62" fill="none" xmlns="http://www.w3.org/2000/svg">
<path d="M11.005 43.3999L5.58 37.3549L0.0452559 45.3495L0 46.3449V49.2899L18.6 61.9999L54.715 40.9199L64.325 43.3999L46.655 26.6599L33.17 35.4949L19.685 46.3449L11.005 43.3999Z" fill="#9D9DA6"/>
<path d="M6.82031 30.225L11.7803 22.63C12.5036 23.1466 14.0433 24.335 14.4153 24.955C14.7873 25.575 16.1203 25.6266 16.7403 25.575C19.4786 23.3016 25.1413 18.538 25.8853 17.67C26.6293 16.802 33.4286 14.9316 36.7353 14.105L45.2603 21.235C42.1603 22.94 35.4643 26.536 33.4803 27.28C31.4963 28.024 23.147 35.1333 19.2203 38.595L11.1603 35.96L6.82031 30.225Z" fill="#9D9DA6"/>
<path d="M24.4909 0L12.7109 16.275L16.1209 19.375L17.6709 17.67C22.4759 10.85 31.3626 8.73167 35.9609 8.68L24.4909 0Z" fill="#9D9DA6"/>
</svg>
