<svg width="46" height="59" viewBox="0 0 46 59" fill="none" xmlns="http://www.w3.org/2000/svg">
<path d="M31.2938 0.739579L22.3131 5.8048C19.0669 7.63568 18.778 12.188 21.767 14.412L30.9365 21.2349C32.8042 22.6245 32.6243 25.4689 30.5963 26.6137L22.3221 31.2849C19.0739 33.1187 18.7898 37.6764 21.7854 39.8968L30.5153 46.3681C31.4212 47.0396 31.955 48.0986 31.955 49.2239V49.4902C31.955 50.3095 32.8423 50.8234 33.5562 50.4178L42.584 45.2881C45.8319 43.4428 46.0981 38.8754 43.0866 36.6674L33.9235 29.9493C32.0424 28.5702 32.2072 25.7176 34.2349 24.5629L42.6006 19.7986C45.8434 17.952 46.1087 13.3905 43.1017 11.1825L34.3447 4.75262C33.4314 4.0819 32.892 3.01827 32.892 1.8873V1.66878C32.892 0.851072 32.0077 0.336924 31.2938 0.739579Z" fill="#9D9DA6"/>
<path d="M11.6024 8.77987L2.62168 13.8451C-0.624515 15.676 -0.913329 20.2284 2.0756 22.4523L11.2451 29.2751C13.1127 30.6647 12.9328 33.5092 10.9049 34.654L2.63059 39.3253C-0.617541 41.1591 -0.901592 45.7166 2.09387 47.9371L10.8239 54.4084C11.7297 55.0799 12.2636 56.1389 12.2636 57.2641V57.5306C12.2636 58.3498 13.1509 58.8638 13.8648 58.4581L22.8926 53.3285C26.1404 51.483 26.4067 46.9156 23.395 44.7076L14.2321 37.9895C12.351 36.6104 12.5158 33.7578 14.5434 32.6032L22.9092 27.839C26.1519 25.9922 26.4172 21.4308 23.4103 19.2228L14.6534 12.7929C13.7399 12.1222 13.2006 11.0586 13.2006 9.92759V9.70906C13.2006 8.89136 12.3163 8.3772 11.6024 8.77987Z" fill="#9D9DA6"/>
</svg>
