<svg width="84" height="85" viewBox="0 0 84 85" fill="none" xmlns="http://www.w3.org/2000/svg">
<path d="M67.7521 33.1513V33.1565C67.7521 33.2709 67.7521 33.3826 67.7469 33.5022C67.7417 33.6971 67.7313 33.8946 67.7132 34.0921C67.695 34.3 67.6716 34.508 67.6456 34.7133C67.565 35.324 67.4351 35.9244 67.2583 36.5117C67.1986 36.7118 67.1336 36.912 67.0608 37.1069C65.6002 35.8802 63.9265 34.8952 62.1073 34.2169C62.1696 33.8738 62.2008 33.5204 62.2008 33.1591C62.2008 32.7381 62.1566 32.3327 62.0761 31.935C62.0579 31.8389 62.0345 31.7401 62.0085 31.6439C61.9591 31.4516 61.9019 31.2645 61.8344 31.0826C61.7668 30.898 61.6888 30.7161 61.6031 30.5368C61.1405 29.57 60.4232 28.7461 59.5369 28.1484C58.9781 27.7689 58.3466 27.4831 57.6709 27.3089C57.5747 27.2829 57.476 27.2595 57.3798 27.2414C56.99 27.1608 56.5819 27.1192 56.1635 27.1192C55.9608 27.1192 55.7581 27.1296 55.5606 27.1504C52.5094 27.4519 50.1262 30.0248 50.1262 33.1591C50.1262 33.5334 50.16 33.8998 50.2276 34.2533C48.4187 34.9394 46.7528 35.927 45.3026 37.1589C44.9621 36.2414 44.736 35.285 44.6373 34.3078C44.6373 34.2793 44.6321 34.2507 44.6295 34.2195C44.6087 33.996 44.5931 33.7725 44.5853 33.5516C44.5853 33.536 44.5853 33.5178 44.5853 33.5022C44.5853 33.3852 44.5801 33.2709 44.5801 33.1565V33.1513C44.5801 32.7303 44.6009 32.3145 44.6476 31.9038C44.6632 31.7583 44.6814 31.6153 44.6996 31.4672C44.801 30.7707 44.9647 30.0924 45.1882 29.44C45.2402 29.2815 45.2974 29.123 45.3598 28.967C45.5417 28.4966 45.7548 28.0418 45.9939 27.6026C46.0797 27.4441 46.1706 27.2881 46.2642 27.1348C46.3603 26.9789 46.4565 26.8281 46.5579 26.68C46.6644 26.5266 46.7736 26.3707 46.8827 26.2226C46.9971 26.0744 47.1062 25.9341 47.2232 25.7885C47.2232 25.7885 47.2284 25.7885 47.2284 25.7834C47.3973 25.578 47.5766 25.3779 47.7586 25.1856C47.9431 24.9933 48.1328 24.8062 48.3303 24.6268C48.5253 24.4449 48.7254 24.2734 48.9359 24.107C49.0398 24.0265 49.1464 23.9433 49.2556 23.8601C50.2198 23.1454 51.2983 22.5737 52.4626 22.1812C52.6446 22.1215 52.8239 22.0643 53.0084 22.0097C53.1877 21.9603 53.3697 21.9135 53.5516 21.8694C53.5568 21.8694 53.562 21.8694 53.5646 21.8694C54.0324 21.7628 54.5132 21.6848 54.9966 21.6355C55.0927 21.6251 55.1915 21.6173 55.2903 21.6095C55.5813 21.5887 55.8802 21.5757 56.1791 21.5757C56.9744 21.5757 57.7541 21.6563 58.5051 21.8096C58.6923 21.8486 58.8768 21.8928 59.0613 21.9395C59.2458 21.9863 59.4252 22.0357 59.6097 22.0955C59.88 22.1786 60.1477 22.2748 60.4102 22.3788C60.5245 22.4229 60.6363 22.4697 60.748 22.5191C60.8676 22.5685 60.9871 22.6231 61.1015 22.6776C62.3152 23.252 63.4119 24.0317 64.3475 24.9673C64.5425 25.1622 64.7348 25.3675 64.9167 25.578C64.9765 25.6482 65.0389 25.721 65.1012 25.7937C65.2026 25.9159 65.2987 26.0406 65.3923 26.1654C65.7458 26.6306 66.0654 27.1218 66.3461 27.6416C66.4345 27.8053 66.5228 27.969 66.6008 28.1354C66.6008 28.1432 66.6086 28.1484 66.6086 28.151C66.684 28.3017 66.7541 28.4602 66.8191 28.6162C66.9101 28.8267 66.9958 29.0398 67.0712 29.2581C67.0972 29.3205 67.1206 29.3829 67.1388 29.4452C67.3597 30.0976 67.526 30.7733 67.6248 31.4724C67.643 31.6205 67.6638 31.7635 67.6768 31.909C67.7261 32.3197 67.7469 32.7329 67.7469 33.1565L67.7521 33.1513Z" fill="#9D9DA6"/>
<path d="M39.0485 52.0195C39.0485 58.3999 33.8506 63.5614 27.4962 63.5614C21.1418 63.5614 15.9258 58.3999 15.9258 52.0195H21.4641C21.4641 55.3384 24.1696 58.0516 27.4962 58.0516C30.8228 58.0516 33.4841 55.3384 33.4841 52.0195H39.0485Z" fill="#9D9DA6"/>
<path d="M27.3581 21.5781C19.9018 21.5781 13.8125 27.6388 13.8125 35.1237C13.8125 42.6087 19.9018 48.6122 27.3581 48.6122C34.8144 48.6122 40.8752 42.5801 40.8752 35.1237C40.8752 27.6674 34.8144 21.5781 27.3581 21.5781ZM27.3581 43.0661C22.9399 43.0661 19.3612 39.4951 19.3612 35.1237C19.3612 30.7523 22.9425 27.1268 27.3581 27.1268C31.7737 27.1268 35.329 30.7082 35.329 35.1237C35.329 39.5393 31.7581 43.0661 27.3581 43.0661Z" fill="#9D9DA6"/>
<path d="M56.2155 36.5403C48.7592 36.5403 42.6699 42.601 42.6699 50.0859C42.6699 57.5708 48.7592 63.5743 56.2155 63.5743C63.6719 63.5743 69.7326 57.5422 69.7326 50.0859C69.7326 42.6296 63.6719 36.5403 56.2155 36.5403ZM56.2155 58.0282C51.7974 58.0282 48.2186 54.4573 48.2186 50.0859C48.2186 45.7145 51.8 42.089 56.2155 42.089C60.6311 42.089 64.1865 45.6703 64.1865 50.0859C64.1865 54.5015 60.6155 58.0282 56.2155 58.0282Z" fill="#9D9DA6"/>
</svg>
