<svg width="42" height="52" viewBox="0 0 42 52" fill="none" xmlns="http://www.w3.org/2000/svg">
<path d="M9.71984 23.8853C6.32685 23.8853 3.24238 22.5789 0.919922 20.4561V42.6826C0.919922 47.5452 4.85719 51.4824 9.71984 51.4824C14.5824 51.4824 18.5197 47.5452 18.5197 42.6826V20.4561C16.1973 22.5789 13.1127 23.8853 9.71984 23.8853Z" fill="#9D9DA6"/>
<path d="M9.71984 17.8434C14.5799 17.8434 18.5197 13.9036 18.5197 9.04357C18.5197 4.18346 14.5799 0.243652 9.71984 0.243652C4.85973 0.243652 0.919922 4.18346 0.919922 9.04357C0.919922 13.9036 4.85973 17.8434 9.71984 17.8434Z" fill="#9D9DA6"/>
<path d="M33.1983 27.8408C36.5913 27.8408 39.6757 29.1472 41.9982 31.27V9.04357C41.9982 4.18092 38.0609 0.243652 33.1983 0.243652C28.3357 0.243652 24.3984 4.18092 24.3984 9.04357V31.27C26.7208 29.1472 29.8054 27.8408 33.1983 27.8408Z" fill="#9D9DA6"/>
<path d="M33.1983 51.4826C38.0583 51.4826 41.9982 47.5428 41.9982 42.6827C41.9982 37.8227 38.0583 33.8828 33.1983 33.8828C28.3382 33.8828 24.3984 37.8227 24.3984 42.6827C24.3984 47.5428 28.3382 51.4826 33.1983 51.4826Z" fill="#9D9DA6"/>
</svg>
