<svg width="52" height="52" viewBox="0 0 52 52" fill="none" xmlns="http://www.w3.org/2000/svg">
<path d="M48.2174 35.3087V5.25905C48.1544 2.74968 46.1374 0.742188 43.6163 0.742188H12.2277C5.42052 0.867656 0 6.38826 0 13.1635C0 15.422 0.630293 17.4295 1.57573 19.1233C2.39511 20.5662 3.6557 21.8836 4.85325 22.8873C5.23143 23.201 5.04234 23.0755 6.11384 23.7029C7.56351 24.5812 9.2653 25.0203 9.2653 25.0203V42.9623C9.32833 43.8405 9.39136 44.6561 9.64348 45.4089C10.3368 47.9183 12.1016 49.863 14.4967 50.804C15.5052 51.1804 16.6397 51.4314 17.8373 51.4941L42.8599 51.6196C47.8392 51.6196 51.9361 47.6046 51.9361 42.5859C51.9361 39.6374 50.4864 36.9398 48.2174 35.3087Z" fill="#141922"/>
<path d="M48.8457 42.7732C48.7196 45.9726 46.0724 48.5447 42.8579 48.5447L25.5879 48.482C26.9745 46.9136 27.7939 44.8434 27.7939 42.585C27.7939 39.0719 25.7139 36.6252 25.7139 36.6252H42.9209C46.1985 36.6252 48.9087 39.3228 48.9087 42.585L48.8457 42.7732Z" fill="#9D9DA6"/>
<path d="M6.49202 20.378C4.47508 18.4959 3.08843 16.0493 3.08843 13.1635V12.8499C3.27752 7.95661 7.3114 3.94163 12.2277 3.81616H43.6793C44.4987 3.87889 45.129 4.4435 45.129 5.25905V31.7956C45.8223 31.9211 46.2005 32.0465 46.8938 32.2347C47.4611 32.4229 48.2174 32.8621 48.2174 32.8621V5.25905C48.1544 2.74968 46.1374 0.742188 43.6163 0.742188H12.2277C5.42052 0.867656 0 6.38826 0 13.1635C0 17.1158 1.82785 20.5034 4.7272 22.8246C4.91628 23.0128 5.10537 23.201 5.67264 23.201C6.61807 23.201 7.24837 22.4482 7.18534 21.6954C7.18534 21.0053 6.93322 20.7544 6.49202 20.378Z" fill="#9D9DA6"/>
<path d="M42.86 33.5529H18.2155C16.5767 33.5529 15.2531 34.8703 15.2531 36.5642V40.0773C15.3162 41.7084 16.7028 43.0885 18.3416 43.0885H20.1694V40.0773H18.3416V36.6269C18.3416 36.6269 18.7828 36.6269 19.35 36.6269C22.4385 36.6269 24.7706 39.5127 24.7706 42.5866C24.7706 45.3469 22.2494 48.7973 18.0894 48.5464C14.3707 48.2954 12.3538 45.0333 12.3538 42.5866V12.6625C12.3538 11.345 11.2193 10.2158 9.89564 10.2158H7.4375V13.2898H9.26535V42.6494C9.13929 48.6091 13.5513 51.6204 18.0894 51.6204L42.923 51.6831C47.9023 51.6831 51.9992 47.6681 51.9992 42.6494C51.9362 37.6306 47.9023 33.5529 42.86 33.5529ZM48.8477 42.7748C48.7217 45.9743 46.0744 48.5464 42.86 48.5464L25.5899 48.4837C26.9766 46.9153 27.796 44.8451 27.796 42.5866C27.796 39.0735 25.716 36.6269 25.716 36.6269H42.923C46.2005 36.6269 48.9108 39.3245 48.9108 42.5866L48.8477 42.7748Z" fill="#9D9DA6"/>
<path d="M36.244 13.7915H17.6504V10.7803H36.244C37.0634 10.7803 37.7567 11.4703 37.7567 12.2859C37.7567 13.1014 37.1264 13.7915 36.244 13.7915Z" fill="#9D9DA6"/>
<path d="M36.244 28.2207H17.6504V25.1467H36.244C37.0634 25.1467 37.7567 25.8368 37.7567 26.6523C37.7567 27.5306 37.1264 28.2207 36.244 28.2207Z" fill="#9D9DA6"/>
<path d="M39.5215 21.0044H17.6504V17.9304H39.5215C40.3409 17.9304 41.0343 18.6205 41.0343 19.436C41.0343 20.3143 40.3409 21.0044 39.5215 21.0044Z" fill="#9D9DA6"/>
</svg>
