<svg width="1320" height="867" viewBox="0 0 1320 867" fill="none" xmlns="http://www.w3.org/2000/svg">
<rect x="1002.77" y="789.571" width="51.4341" height="51.4341" rx="10.1182" fill="#1A212D" fill-opacity="0.65"/>
<rect x="980" y="755" width="22.7659" height="22.7659" rx="3.37273" fill="#1A212D"/>
<rect x="1035.43" y="38.8218" width="51.4341" height="51.4341" rx="10.1182" transform="rotate(89.9099 1035.43 38.8218)" fill="#1A212D"/>
<rect opacity="0.75" x="1070" y="1" width="22" height="22" rx="4" transform="rotate(89.9099 1070 1)" fill="#1A212D"/>
<rect x="1069.97" y="16" width="22.7659" height="22.7659" rx="3.37273" transform="rotate(89.9099 1069.97 16)" fill="#1A212D"/>
<rect x="287.434" y="776.822" width="51.4341" height="51.4341" rx="10.1182" transform="rotate(89.9099 287.434 776.822)" fill="#1A212D"/>
<rect x="321.969" y="754" width="22.7659" height="22.7659" rx="3.37273" transform="rotate(89.9099 321.969 754)" fill="#1A212D"/>
<rect x="239.766" y="14" width="22.7659" height="22.7659" rx="3.37273" fill="#1A212D"/>
<rect opacity="0.45" x="275" y="46.5127" width="52" height="52" rx="10" fill="#1A212D"/>
<rect x="117" y="398" width="51.4341" height="51.4341" rx="10.1182" fill="#1A212D"/>
<path opacity="0.65" d="M69 416.373C69 414.51 70.51 413 72.3727 413H88.3932C90.2559 413 91.7659 414.51 91.7659 416.373V432.393C91.7659 434.256 90.2559 435.766 88.3932 435.766H72.3727C70.51 435.766 69 434.256 69 432.393V416.373Z" fill="#1A212D"/>
<rect width="51.4341" height="51.4341" rx="10.1182" transform="matrix(-1 0 0 1 1186.43 398)" fill="#1A212D"/>
<path d="M1234.43 416.373C1234.43 414.51 1232.92 413 1231.06 413H1215.04C1213.18 413 1211.67 414.51 1211.67 416.373V432.393C1211.67 434.256 1213.18 435.766 1215.04 435.766H1231.06C1232.92 435.766 1234.43 434.256 1234.43 432.393V416.373Z" fill="#1A212D"/>
</svg>
