<svg width="59" height="68" viewBox="0 0 59 68" fill="none" xmlns="http://www.w3.org/2000/svg">
<g clip-path="url(#clip0_6118_5196)">
<path d="M0.0401678 34.0144C0.0401678 28.7796 0.0514992 23.5449 0.0288363 18.3102C0.0260035 17.4387 0.195975 16.8701 1.05433 16.3757C8.16765 12.2725 15.2413 8.09218 22.3291 3.94326C24.3971 2.73173 26.5189 1.60878 28.5387 0.322955C29.2781 -0.145656 29.7257 -0.0713641 30.4226 0.334384C36.9382 4.15185 43.4764 7.93217 50.0147 11.7096C52.4084 13.0926 54.7994 14.487 57.2385 15.7843C58.4424 16.4243 59.0033 17.2015 58.9948 18.6588C58.9353 28.9368 58.9353 39.2177 58.9977 49.4985C59.0062 50.9129 58.4141 51.6158 57.3036 52.2616C48.8645 57.1563 40.4453 62.091 32.0203 67.0143C31.4963 67.32 31.0033 67.7515 30.4368 67.8858C29.8532 68.0229 29.0827 68.0829 28.5982 67.8086C19.5557 62.6568 10.5501 57.4449 1.52175 52.2673C0.499091 51.6816 -0.0278209 51.0386 -0.00515799 49.7185C0.096825 44.4838 0.0401678 39.2491 0.0401678 34.0144ZM46.2838 33.9915C46.2838 31.3256 46.2101 28.6568 46.315 25.9965C46.3659 24.7164 45.8929 24.0192 44.839 23.4192C39.992 20.6561 35.1846 17.8216 30.3348 15.0642C29.9382 14.8385 29.2073 14.8013 28.8249 15.0185C23.9778 17.7873 19.162 20.6132 14.3489 23.4449C13.5954 23.8878 12.8475 24.3135 12.856 25.4536C12.8985 31.2598 12.8532 37.066 12.9212 42.8722C12.9269 43.4037 13.3914 44.1466 13.8589 44.4238C18.7286 47.3183 23.6464 50.1243 28.5359 52.9874C29.2668 53.416 29.89 53.4188 30.6067 52.996C35.4509 50.1357 40.3008 47.2812 45.1676 44.461C46.0005 43.9781 46.3291 43.3923 46.3093 42.4122C46.2441 39.6091 46.2838 36.8003 46.2838 33.9915Z" fill="#9D9DA6"/>
</g>
<defs>
<clipPath id="clip0_6118_5196">
<rect width="59" height="68" fill="white"/>
</clipPath>
</defs>
</svg>
