<svg width="71" height="39" viewBox="0 0 71 39" fill="none" xmlns="http://www.w3.org/2000/svg">
<path d="M18.8183 13.919C16.7567 13.9246 15.3578 15.3103 15.3672 17.3343C15.3766 19.2833 16.8956 20.7966 18.8408 20.7948C20.7841 20.7948 22.2524 19.2777 22.243 17.278C22.2374 15.2784 20.8461 13.9133 18.8183 13.919Z" fill="#9D9DA6"/>
<path d="M55.1969 16.4236C54.8514 15.1469 53.8826 14.2456 52.7072 13.9546C53.1316 14.3301 53.4564 14.8277 53.616 15.4154C54.0478 17.0132 53.1034 18.6599 51.5055 19.0917C50.4222 19.3846 49.3181 19.0448 48.584 18.2975C49.1398 20.1882 50.7921 21.1327 52.6922 20.6276C54.6242 20.1131 55.7039 18.2994 55.1969 16.4236Z" fill="#9D9DA6"/>
<path d="M66.0392 8.49452C68.6847 8.00822 70.6262 6.91921 70.6262 6.91921L61.3095 0.527832L61.7094 3.60335H51.713V3.60523C51.6924 3.60523 51.6736 3.60335 51.653 3.60335C44.0562 3.60335 37.8976 9.76191 37.8976 17.3587C37.8976 20.4906 38.9472 23.3783 40.7103 25.6896L35.3215 31.1159L35.3197 31.1178L35.3178 31.1159L29.8108 25.6089C31.5382 23.3107 32.5615 20.453 32.5615 17.3568C32.5615 9.7957 26.4611 3.66344 18.9131 3.60523V3.60335H8.91675L9.31669 0.527832L0 6.91921C0 6.91921 1.94145 8.00822 4.58699 8.49452C5.73421 8.70481 6.32754 8.69355 6.91147 8.70857C7.24005 8.71608 7.64374 8.72359 8.09436 8.7311C6.19047 11.0913 5.04888 14.0917 5.04888 17.3587C5.04888 24.9555 11.2074 31.1141 18.8042 31.1141C21.3709 31.1141 23.7724 30.4081 25.8284 29.1858L31.6677 35.0251L35.3159 38.6714L35.3178 38.6695L35.3197 38.6714L38.966 35.0251L44.013 29.9781L44.7415 29.2496C46.7731 30.4325 49.1313 31.1141 51.653 31.1141C59.2498 31.1141 65.4083 24.9555 65.4083 17.3587C65.4083 14.0917 64.2667 11.0931 62.3647 8.73298C62.8867 8.72547 63.3467 8.71796 63.7147 8.70857C64.2987 8.69355 64.892 8.70481 66.0392 8.49452ZM10.2085 17.3587C10.2085 12.614 14.052 8.76865 18.793 8.76302C18.8005 8.76302 18.808 8.76302 18.8155 8.76302C23.5583 8.76865 27.4018 12.6159 27.4018 17.3606C27.4018 22.1091 23.5527 25.9581 18.8042 25.9581C14.0576 25.9544 10.2085 22.1053 10.2085 17.3587ZM51.653 25.9544C46.9045 25.9544 43.0554 22.1053 43.0554 17.3568C43.0554 12.6084 46.9045 8.75926 51.653 8.75926C56.4014 8.75926 60.2505 12.6084 60.2505 17.3568C60.2505 22.1053 56.4014 25.9544 51.653 25.9544Z" fill="#9D9DA6"/>
</svg>
