<svg width="60" height="54" viewBox="0 0 60 54" fill="none" xmlns="http://www.w3.org/2000/svg">
<path d="M19.4644 45.0769V32.2041C19.4644 27.6701 15.7882 23.9954 11.2556 23.9954C6.72304 23.9954 3.04688 27.6701 3.04688 32.2041V45.0769C3.04688 49.6109 6.72304 53.2856 11.2556 53.2856C15.7882 53.2856 19.4644 49.6109 19.4644 45.0769Z" fill="#707077"/>
<path d="M45.08 23.9939H36.5489C28.4605 23.9939 21.9023 30.5507 21.9023 38.6404C21.9023 46.7302 28.4591 53.2869 36.5489 53.2869H45.08C53.1684 53.2869 59.7265 46.7302 59.7265 38.6404C59.7265 30.5507 53.1698 23.9939 45.08 23.9939Z" fill="#9D9DA6"/>
<path d="M0.548828 10.7073V10.8498C0.548828 16.7632 5.34153 21.5559 11.2549 21.5559H21.1599C27.0733 21.5559 31.866 16.7632 31.866 10.8498V10.7073C31.866 4.79392 27.0733 0.0012207 21.1599 0.0012207H11.2549C5.34153 0.0012207 0.548828 4.79392 0.548828 10.7073Z" fill="#9D9DA6"/>
<path d="M45.0808 21.5561C51.0343 21.5561 55.8588 16.7302 55.8588 10.778C55.8588 4.82591 51.0329 0 45.0808 0C39.1286 0 34.3027 4.82591 34.3027 10.778C34.3027 16.7302 39.1286 21.5561 45.0808 21.5561Z" fill="#707077"/>
</svg>
