<svg width="73" height="74" viewBox="0 0 73 74" fill="none" xmlns="http://www.w3.org/2000/svg">
<path d="M72.9637 41.6493L70.2028 30.8759C70.1237 30.5592 69.8687 30.3127 69.5522 30.2335L58.8867 27.6017C58.8077 27.5842 58.7196 27.5753 58.6405 27.5753C58.3855 27.549 58.1217 27.6282 57.9283 27.8218L39.9298 45.839L37.5469 36.5267C37.4678 36.2098 37.2128 35.9634 36.8963 35.8842L27.7344 33.6222L45.7241 15.6138C45.8296 15.5081 45.8912 15.3762 45.9351 15.2441C46.0142 15.0681 46.0406 14.8656 45.9879 14.672L43.227 3.89867C43.1479 3.5818 42.8929 3.33535 42.5763 3.25614L31.9108 0.624427C31.6999 0.571609 31.4888 0.606816 31.3042 0.694841H31.2954C31.2426 0.72125 31.1987 0.756457 31.1459 0.791664C31.102 0.826871 31.0404 0.844467 31.0053 0.888473L0.301156 31.6066C0.301156 31.6066 0.248395 31.6945 0.213267 31.7385C0.0198493 31.9675 -0.0505492 32.2667 0.0374844 32.5571L3.01811 42.9696C3.106 43.2689 3.33469 43.4977 3.62482 43.577L13.6133 46.4462L16.4797 56.4363C16.5676 56.7355 16.7963 56.9643 17.0864 57.0436L27.11 59.9217L29.9853 69.9557C30.0732 70.255 30.3018 70.4838 30.592 70.5631L41.0377 73.5644C41.1167 73.5908 41.2046 73.5996 41.2838 73.5996C41.3013 73.5996 41.319 73.5908 41.3453 73.5908C41.3453 73.5908 41.3541 73.5908 41.3629 73.5908C41.5916 73.5908 41.8202 73.5028 41.9961 73.3268L72.7089 42.5822C72.8142 42.4766 72.8758 42.3446 72.9198 42.2127C72.999 42.0366 73.0253 41.8341 72.9725 41.6405L72.9637 41.6493ZM59.1945 53.5932L56.9524 44.8356L61.9203 39.8713L70.4578 42.327L59.2033 53.6021L59.1945 53.5932ZM41.7762 71.0295L39.5341 62.2719L48.5202 53.2765L57.0578 55.7321L41.7762 71.0295ZM48.7048 50.5742L46.5595 43.0928L54.2706 44.9939L48.7048 50.5656V50.5742ZM55.4928 46.2966L57.4623 53.9806L49.9622 51.8241L55.4928 46.2879V46.2966ZM55.7477 43.5241L47.0079 41.3677L58.2361 30.1278L60.6629 38.604L55.7477 43.5241ZM44.8361 43.5328L47.2629 52.009L38.3207 60.9604L29.5808 58.804L44.8361 43.5328ZM68.6114 31.8178L70.8536 40.5755L62.3774 38.1375L59.9507 29.6789L68.6114 31.8178ZM28.2619 57.5012L26.0198 48.7436L29.2554 45.5044L37.7931 47.9601L28.2619 57.5012ZM29.4401 42.8023L27.2946 35.3209L35.0059 37.222L29.4401 42.7935V42.8023ZM38.1976 46.2174L30.6975 44.061L36.228 38.5247L38.1976 46.2086V46.2174ZM28.0068 44.2458L24.8152 47.4409L16.0752 45.2845L25.5802 35.7698L28.0068 44.2458ZM17.9481 16.4587L20.3748 24.9349L11.3536 33.9654L2.61364 31.809L17.9481 16.4587ZM31.2689 3.12411L33.6958 11.6002L28.8597 16.4412L20.1198 14.2847L31.2689 3.12411ZM32.3066 26.5103L30.0643 17.7614L34.9531 12.8677L43.4908 15.3145L32.3066 26.5103ZM21.8169 23.5001L19.6714 16.0187L27.3826 17.9198L21.8169 23.4913V23.5001ZM28.6047 19.2225L30.5743 26.9064L23.0829 24.75L28.6136 19.2136L28.6047 19.2225ZM21.641 26.1934L30.1787 28.6404L14.8179 44.017L12.5758 35.2681L21.641 26.1934ZM41.6444 4.83166L43.8865 13.5893L35.4103 11.1513L32.9835 2.69283L41.6444 4.83166ZM2.17404 33.5429L9.88515 35.444L4.31941 41.0157L2.17404 33.5341V33.5429ZM5.57677 42.283L11.1074 36.7467L13.077 44.4307L5.58559 42.2743L5.57677 42.283ZM18.0537 55.4769L15.6268 47.0184L24.2875 49.1573L26.5298 57.9149L18.0537 55.4769ZM29.1412 60.5378L36.8523 62.439L31.2866 68.0105L29.1412 60.529V60.5378ZM32.5439 69.2779L38.0745 63.7416L40.044 71.4255L32.5439 69.2691V69.2779Z" fill="#9D9DA6"/>
</svg>
