<svg width="141" height="28" viewBox="0 0 141 28" fill="none" xmlns="http://www.w3.org/2000/svg">
<rect x="0.5" y="0.775391" width="139.7" height="27.06" rx="13.53" fill="#121211"/>
<g clip-path="url(#clip0_5489_5097)">
<g clip-path="url(#clip1_5489_5097)">
<path d="M18.9602 6.53125L10.4102 10.234V11.5299L18.9602 15.2371L27.5102 11.5299V10.234L18.9602 6.53125ZM27.5102 13.3535L25.8002 14.0926V14.0948L18.9602 17.0584L10.4102 13.3601V15.217L18.9602 18.9221L27.5102 15.217V13.3535ZM27.5102 17.1119L25.8002 17.8533L18.9602 20.8169L10.4102 17.1186V18.9777L18.9602 22.6805L27.5102 18.9777V17.1119Z" fill="white"/>
</g>
</g>
<path d="M46.0859 13.5008C46.0859 14.5368 45.8917 15.4045 45.5032 16.1039C45.1233 16.8032 44.575 17.3299 43.8584 17.6839C43.1418 18.0378 42.2741 18.2148 41.2553 18.2148H38.6781V8.96799H41.5273C42.4597 8.96799 43.267 9.14066 43.9491 9.48602C44.6311 9.83137 45.1578 10.3408 45.5291 11.0142C45.9003 11.679 46.0859 12.5079 46.0859 13.5008ZM44.8556 13.5396C44.8556 12.7194 44.7175 12.046 44.4412 11.5193C44.1735 10.9926 43.7764 10.6041 43.2497 10.3537C42.7317 10.0947 42.1014 9.9652 41.3589 9.9652H39.8437V17.2176H41.0999C42.3518 17.2176 43.2886 16.9111 43.9102 16.2981C44.5405 15.6765 44.8556 14.757 44.8556 13.5396ZM54.0179 14.7311C54.0179 15.3096 53.9402 15.8233 53.7848 16.2722C53.638 16.7126 53.4222 17.0881 53.1372 17.3989C52.861 17.7098 52.5199 17.9472 52.1141 18.1112C51.717 18.2666 51.2723 18.3444 50.7802 18.3444C50.3226 18.3444 49.8995 18.2666 49.511 18.1112C49.1225 17.9472 48.7858 17.7098 48.5009 17.3989C48.2159 17.0881 47.9915 16.7126 47.8274 16.2722C47.672 15.8233 47.5943 15.3096 47.5943 14.7311C47.5943 13.9627 47.7238 13.3151 47.9828 12.7885C48.2418 12.2532 48.6131 11.8474 49.0966 11.5711C49.5801 11.2862 50.1542 11.1437 50.8191 11.1437C51.4493 11.1437 52.0019 11.2862 52.4768 11.5711C52.9602 11.8474 53.3358 12.2532 53.6035 12.7885C53.8798 13.3151 54.0179 13.9627 54.0179 14.7311ZM48.7728 14.7311C48.7728 15.275 48.8419 15.7499 48.98 16.1557C49.1268 16.5528 49.3513 16.8593 49.6535 17.0752C49.9557 17.291 50.3399 17.3989 50.8061 17.3989C51.2723 17.3989 51.6565 17.291 51.9587 17.0752C52.2609 16.8593 52.4811 16.5528 52.6192 16.1557C52.766 15.7499 52.8394 15.275 52.8394 14.7311C52.8394 14.1785 52.766 13.708 52.6192 13.3194C52.4724 12.9309 52.248 12.6331 51.9458 12.4258C51.6522 12.21 51.268 12.1021 50.7932 12.1021C50.0852 12.1021 49.5715 12.3352 49.252 12.8014C48.9326 13.2676 48.7728 13.9109 48.7728 14.7311ZM58.6085 18.3444C57.9955 18.3444 57.4473 18.2192 56.9638 17.9688C56.4889 17.7184 56.1134 17.3299 55.8371 16.8032C55.5694 16.2765 55.4356 15.6031 55.4356 14.7829C55.4356 13.9281 55.5781 13.2331 55.863 12.6978C56.1479 12.1625 56.5321 11.7697 57.0156 11.5193C57.5077 11.2689 58.0646 11.1437 58.6862 11.1437C59.0402 11.1437 59.3813 11.1826 59.7094 11.2603C60.0374 11.3293 60.3051 11.4157 60.5123 11.5193L60.1626 12.4647C59.9554 12.387 59.7137 12.3136 59.4374 12.2445C59.1611 12.1755 58.9021 12.1409 58.6603 12.1409C58.1941 12.1409 57.8099 12.2402 57.5077 12.4388C57.2055 12.6374 56.9811 12.9309 56.8343 13.3194C56.6875 13.708 56.6141 14.1915 56.6141 14.7699C56.6141 15.3225 56.6875 15.793 56.8343 16.1816C56.9811 16.5701 57.2012 16.8636 57.4948 17.0622C57.7883 17.2608 58.1553 17.3601 58.5956 17.3601C58.9755 17.3601 59.3079 17.3212 59.5928 17.2435C59.8864 17.1658 60.154 17.0709 60.3958 16.9586V17.9688C60.1626 18.0897 59.9036 18.1803 59.6187 18.2407C59.3424 18.3098 59.0057 18.3444 58.6085 18.3444ZM67.8485 11.2732V18.2148H66.9161L66.7477 17.2953H66.6959C66.5491 17.5371 66.3592 17.7357 66.1261 17.8911C65.893 18.0465 65.6383 18.1587 65.362 18.2278C65.0857 18.3055 64.7965 18.3444 64.4943 18.3444C63.9417 18.3444 63.4755 18.258 63.0956 18.0853C62.7243 17.904 62.4437 17.6277 62.2538 17.2565C62.0638 16.8852 61.9689 16.4061 61.9689 15.8189V11.2732H63.1215V15.7412C63.1215 16.2938 63.2467 16.7082 63.4971 16.9845C63.7474 17.2608 64.136 17.3989 64.6626 17.3989C65.1807 17.3989 65.5865 17.304 65.88 17.114C66.1822 16.9154 66.3937 16.6305 66.5146 16.2593C66.6441 15.8794 66.7089 15.4218 66.7089 14.8865V11.2732H67.8485ZM77.6673 11.1437C78.453 11.1437 79.0401 11.3466 79.4286 11.7524C79.8172 12.1496 80.0114 12.7971 80.0114 13.695V18.2148H78.8847V13.7468C78.8847 13.2029 78.7682 12.7928 78.535 12.5165C78.3106 12.2402 77.9566 12.1021 77.4731 12.1021C76.7996 12.1021 76.3161 12.2963 76.0226 12.6849C75.7377 13.0734 75.5952 13.6389 75.5952 14.3814V18.2148H74.4685V13.7468C74.4685 13.3842 74.4167 13.082 74.3131 12.8403C74.2095 12.5899 74.0541 12.4043 73.8469 12.2834C73.6396 12.1625 73.372 12.1021 73.0439 12.1021C72.5777 12.1021 72.2107 12.2014 71.9431 12.3999C71.6754 12.5899 71.4812 12.8705 71.3603 13.2417C71.2481 13.613 71.1919 14.0706 71.1919 14.6145V18.2148H70.0523V11.2732H70.9718L71.1401 12.2186H71.2049C71.3517 11.9769 71.5287 11.7783 71.7359 11.6229C71.9517 11.4589 72.1892 11.338 72.4482 11.2603C72.7072 11.1826 72.9748 11.1437 73.2511 11.1437C73.7864 11.1437 74.2311 11.2387 74.5851 11.4286C74.9477 11.6186 75.211 11.9121 75.375 12.3093H75.4398C75.6729 11.9121 75.9881 11.6186 76.3852 11.4286C76.791 11.2387 77.2184 11.1437 77.6673 11.1437ZM84.8365 11.1437C85.4322 11.1437 85.9416 11.2732 86.3647 11.5322C86.7964 11.7913 87.1245 12.1582 87.349 12.6331C87.5821 13.0993 87.6986 13.6475 87.6986 14.2778V14.9642H82.9457C82.963 15.7499 83.1615 16.3499 83.5414 16.7644C83.93 17.1701 84.4696 17.373 85.1603 17.373C85.6006 17.373 85.9891 17.3342 86.3258 17.2565C86.6712 17.1701 87.0252 17.0493 87.3878 16.8939V17.8911C87.0338 18.0465 86.6842 18.1587 86.3388 18.2278C85.9934 18.3055 85.5833 18.3444 85.1085 18.3444C84.4523 18.3444 83.8695 18.2105 83.3601 17.9429C82.8594 17.6752 82.4665 17.2781 82.1816 16.7514C81.9053 16.2161 81.7672 15.5643 81.7672 14.7958C81.7672 14.0361 81.8924 13.3842 82.1427 12.8403C82.4018 12.2963 82.7601 11.8776 83.2177 11.584C83.6839 11.2905 84.2235 11.1437 84.8365 11.1437ZM84.8236 12.0762C84.2796 12.0762 83.8479 12.2532 83.5285 12.6072C83.2177 12.9525 83.032 13.436 82.9716 14.0576H86.5072C86.5072 13.6605 86.4467 13.3151 86.3258 13.0216C86.205 12.728 86.0193 12.4992 85.769 12.3352C85.5272 12.1625 85.2121 12.0762 84.8236 12.0762ZM92.8071 11.1437C93.636 11.1437 94.2619 11.3466 94.685 11.7524C95.108 12.1496 95.3196 12.7971 95.3196 13.695V18.2148H94.1928V13.7727C94.1928 13.2115 94.0676 12.7928 93.8173 12.5165C93.5669 12.2402 93.174 12.1021 92.6387 12.1021C91.8703 12.1021 91.3393 12.3179 91.0458 12.7496C90.7522 13.1813 90.6055 13.8029 90.6055 14.6145V18.2148H89.4658V11.2732H90.3853L90.5537 12.2186H90.6184C90.7738 11.9769 90.9638 11.7783 91.1883 11.6229C91.4214 11.4589 91.6761 11.338 91.9524 11.2603C92.2286 11.1826 92.5136 11.1437 92.8071 11.1437ZM99.7897 17.4119C99.9624 17.4119 100.139 17.3989 100.321 17.373C100.502 17.3385 100.649 17.304 100.761 17.2694V18.1371C100.64 18.1976 100.467 18.2451 100.243 18.2796C100.018 18.3228 99.8027 18.3444 99.5954 18.3444C99.2328 18.3444 98.8961 18.2839 98.5853 18.163C98.2831 18.0335 98.037 17.8134 97.8471 17.5026C97.6571 17.1917 97.5622 16.7557 97.5622 16.1945V12.1539H96.5779V11.6099L97.5751 11.1567L98.0284 9.68028H98.7018V11.2732H100.709V12.1539H98.7018V16.1686C98.7018 16.5917 98.8011 16.9068 98.9997 17.114C99.2069 17.3126 99.4702 17.4119 99.7897 17.4119ZM104.78 11.1567C105.626 11.1567 106.252 11.3423 106.658 11.7136C107.064 12.0848 107.267 12.6762 107.267 13.4878V18.2148H106.438L106.218 17.2306H106.166C105.967 17.481 105.76 17.6925 105.544 17.8652C105.337 18.0292 105.095 18.1501 104.819 18.2278C104.551 18.3055 104.223 18.3444 103.835 18.3444C103.42 18.3444 103.045 18.271 102.708 18.1242C102.38 17.9774 102.121 17.7529 101.931 17.4507C101.741 17.1399 101.646 16.7514 101.646 16.2852C101.646 15.5945 101.918 15.0635 102.462 14.6922C103.006 14.3123 103.843 14.1051 104.974 14.0706L106.153 14.0317V13.6173C106.153 13.0388 106.028 12.6374 105.777 12.4129C105.527 12.1884 105.173 12.0762 104.715 12.0762C104.353 12.0762 104.007 12.1323 103.679 12.2445C103.351 12.3481 103.045 12.469 102.76 12.6072L102.41 11.7524C102.712 11.5884 103.07 11.4502 103.485 11.338C103.899 11.2171 104.331 11.1567 104.78 11.1567ZM105.117 14.8606C104.253 14.8951 103.653 15.0333 103.317 15.275C102.988 15.5168 102.824 15.8578 102.824 16.2981C102.824 16.6867 102.941 16.9716 103.174 17.1529C103.416 17.3342 103.722 17.4248 104.094 17.4248C104.681 17.4248 105.169 17.2651 105.557 16.9457C105.946 16.6176 106.14 16.1168 106.14 15.4434V14.8217L105.117 14.8606ZM111.729 17.4119C111.901 17.4119 112.078 17.3989 112.26 17.373C112.441 17.3385 112.588 17.304 112.7 17.2694V18.1371C112.579 18.1976 112.406 18.2451 112.182 18.2796C111.957 18.3228 111.742 18.3444 111.534 18.3444C111.172 18.3444 110.835 18.2839 110.524 18.163C110.222 18.0335 109.976 17.8134 109.786 17.5026C109.596 17.1917 109.501 16.7557 109.501 16.1945V12.1539H108.517V11.6099L109.514 11.1567L109.967 9.68028H110.641V11.2732H112.648V12.1539H110.641V16.1686C110.641 16.5917 110.74 16.9068 110.939 17.114C111.146 17.3126 111.409 17.4119 111.729 17.4119ZM115.23 11.2732V18.2148H114.09V11.2732H115.23ZM114.673 8.67012C114.845 8.67012 114.997 8.73055 115.126 8.85143C115.264 8.96367 115.333 9.14498 115.333 9.39536C115.333 9.63711 115.264 9.81842 115.126 9.93929C114.997 10.0602 114.845 10.1206 114.673 10.1206C114.483 10.1206 114.323 10.0602 114.194 9.93929C114.064 9.81842 113.999 9.63711 113.999 9.39536C113.999 9.14498 114.064 8.96367 114.194 8.85143C114.323 8.73055 114.483 8.67012 114.673 8.67012ZM123.464 14.7311C123.464 15.3096 123.386 15.8233 123.231 16.2722C123.084 16.7126 122.868 17.0881 122.583 17.3989C122.307 17.7098 121.966 17.9472 121.56 18.1112C121.163 18.2666 120.718 18.3444 120.226 18.3444C119.769 18.3444 119.346 18.2666 118.957 18.1112C118.569 17.9472 118.232 17.7098 117.947 17.3989C117.662 17.0881 117.437 16.7126 117.273 16.2722C117.118 15.8233 117.04 15.3096 117.04 14.7311C117.04 13.9627 117.17 13.3151 117.429 12.7885C117.688 12.2532 118.059 11.8474 118.543 11.5711C119.026 11.2862 119.6 11.1437 120.265 11.1437C120.895 11.1437 121.448 11.2862 121.923 11.5711C122.406 11.8474 122.782 12.2532 123.05 12.7885C123.326 13.3151 123.464 13.9627 123.464 14.7311ZM118.219 14.7311C118.219 15.275 118.288 15.7499 118.426 16.1557C118.573 16.5528 118.797 16.8593 119.1 17.0752C119.402 17.291 119.786 17.3989 120.252 17.3989C120.718 17.3989 121.103 17.291 121.405 17.0752C121.707 16.8593 121.927 16.5528 122.065 16.1557C122.212 15.7499 122.285 15.275 122.285 14.7311C122.285 14.1785 122.212 13.708 122.065 13.3194C121.918 12.9309 121.694 12.6331 121.392 12.4258C121.098 12.21 120.714 12.1021 120.239 12.1021C119.531 12.1021 119.017 12.3352 118.698 12.8014C118.379 13.2676 118.219 13.9109 118.219 14.7311ZM128.611 11.1437C129.44 11.1437 130.066 11.3466 130.489 11.7524C130.912 12.1496 131.124 12.7971 131.124 13.695V18.2148H129.997V13.7727C129.997 13.2115 129.872 12.7928 129.622 12.5165C129.371 12.2402 128.978 12.1021 128.443 12.1021C127.675 12.1021 127.144 12.3179 126.85 12.7496C126.557 13.1813 126.41 13.8029 126.41 14.6145V18.2148H125.27V11.2732H126.19L126.358 12.2186H126.423C126.578 11.9769 126.768 11.7783 126.993 11.6229C127.226 11.4589 127.48 11.338 127.757 11.2603C128.033 11.1826 128.318 11.1437 128.611 11.1437Z" fill="white"/>
<defs>
<clipPath id="clip0_5489_5097">
<rect width="20.52" height="20.52" fill="white" transform="translate(8.69922 4.04492)"/>
</clipPath>
<clipPath id="clip1_5489_5097">
<rect width="20.52" height="20.52" fill="white" transform="translate(8.69922 4.04492)"/>
</clipPath>
</defs>
</svg>
