<svg width="272" height="79" viewBox="0 0 272 79" fill="none" xmlns="http://www.w3.org/2000/svg">
<path d="M55.2129 44.9577C55.2129 47.9527 52.7815 50.3841 49.7865 50.3841C46.7915 50.3841 44.3601 47.9527 44.3601 44.9577C44.3601 41.9626 46.7915 39.5312 49.7865 39.5312C52.7926 39.5423 55.2129 41.9626 55.2129 44.9577Z" fill="white"/>
<path d="M43.1782 43.0835C43.3058 42.6073 42.9899 42.0911 42.5 42.0353C41.8887 41.9656 41.2764 41.8531 40.6682 41.6901L38.8214 41.1953C31.9411 39.3517 27.858 32.2796 29.7016 25.3992C31.5408 18.5351 38.6228 14.4373 45.4976 16.2794L47.3338 16.7714C54.1979 18.6106 58.2957 25.6926 56.4536 32.5674C56.1031 33.8757 55.5583 35.0823 54.862 36.1668C54.0097 37.4945 54.3231 39.481 55.2706 40.7427C56.5231 42.4104 59.5643 43.9803 60.8478 42.3362C62.5539 40.1507 63.8591 37.5957 64.6201 34.7556C67.6664 23.3866 60.8988 11.6647 49.5298 8.6184L47.6937 8.12641C36.3246 5.08008 24.6028 11.8477 21.5564 23.2168L19.7286 30.0382C18.8945 33.1511 15.6948 34.9985 12.5819 34.1644C10.3294 33.5608 8.01482 34.8972 7.41128 37.1496C6.80773 39.4021 8.14405 41.7167 10.3965 42.3202C13.5095 43.1543 15.3568 46.3541 14.5227 49.467L10.807 63.3341C10.2035 65.5865 11.5398 67.9011 13.7923 68.5047C16.0447 69.1082 18.3593 67.7719 18.9629 65.5194L20.3588 60.3099C22.474 52.4155 30.5885 47.7307 38.4829 49.846C40.9327 50.5024 42.6761 46.4928 43.0012 43.9775C43.0397 43.6798 43.0984 43.3812 43.1782 43.0835Z" fill="white"/>
<path d="M195.199 50.444H191.294V47.7136H191.222C190.624 48.7527 189.872 49.5399 188.971 50.0729C188.067 50.606 187.041 50.8691 185.869 50.8691C184.224 50.8691 182.874 50.3811 181.83 49.4139C180.775 48.4468 180.248 47.1355 180.248 45.4734C180.248 43.8473 180.775 42.527 181.839 41.5059C182.895 40.4848 184.486 39.8235 186.585 39.5087L191.32 38.8767V38.4965C191.32 37.2843 191.008 36.3913 190.383 35.8291C189.758 35.2668 188.899 34.9879 187.828 34.9879C186.98 34.9879 186.112 35.1408 185.238 35.4579C184.363 35.7751 183.504 36.2452 182.683 36.8772L180.949 34.4368C182.02 33.6047 183.147 32.9816 184.318 32.5835C185.49 32.1854 186.766 31.9785 188.152 31.9785C190.519 31.9785 192.28 32.5745 193.451 33.7688C194.614 34.9631 195.203 36.7512 195.203 39.1466V50.444H195.199ZM191.32 43.0961V41.5846L187.487 42.0997C186.351 42.2616 185.512 42.5698 184.95 43.0308C184.387 43.4919 184.111 44.1599 184.111 45.0371C184.111 45.8962 184.37 46.5732 184.896 47.0613C185.423 47.5494 186.112 47.8035 186.96 47.8035C188.266 47.8035 189.319 47.3604 190.124 46.4833C190.919 45.5994 191.32 44.468 191.32 43.0961Z" fill="white"/>
<path d="M244.004 42.492H233.285C232.675 42.492 232.216 43.0633 232.327 43.6794C232.533 44.8151 232.966 45.7192 233.619 46.3871C234.496 47.2822 235.727 47.7252 237.324 47.7252C237.949 47.7252 238.677 47.5903 239.51 47.3181C240.344 47.046 241.168 46.612 241.992 46.007L243.735 48.564C242.651 49.3691 241.548 49.9471 240.44 50.3181C239.329 50.6892 238.107 50.8691 236.779 50.8691C234.098 50.8691 232.008 50.064 230.516 48.4471C229.025 46.8301 228.271 44.57 228.262 41.6599C228.262 38.7769 229.034 36.4448 230.586 34.6547C232.139 32.8736 234.118 31.9785 236.536 31.9785C238.87 31.9785 240.691 32.7386 242.019 34.2566C243.346 35.7746 244.004 37.9268 244.004 40.7109V42.492ZM239.132 39.6719C239.755 39.6719 240.247 39.1075 240.158 38.4733C240.022 37.5085 239.72 36.7394 239.25 36.1659C238.601 35.3788 237.68 34.9808 236.499 34.9808C235.38 34.9808 234.426 35.4058 233.646 36.2559C233.141 36.8046 232.764 37.4748 232.513 38.2641C232.292 38.9568 232.784 39.6719 233.493 39.6719H239.132Z" fill="white"/>
<path d="M253.028 28.8301H248.981V32.7494H246.365V35.8769H247.71C248.41 35.8769 248.979 36.4396 248.979 37.1314V45.653C248.979 47.3769 249.418 48.6737 250.313 49.5456C251.208 50.4153 252.488 50.8513 254.155 50.8513V50.8691H255.81V47.7617L254.996 47.7795C254.333 47.7795 253.833 47.5837 253.509 47.2011C253.188 46.8185 253.026 46.189 253.026 45.3082V37.1336C253.026 36.4396 253.595 35.8791 254.294 35.8791H255.81V32.7494H253.026V28.8301H253.028Z" fill="white"/>
<path d="M177.1 50.0732H173.353V33.9096C173.353 33.3835 172.763 33.0702 172.319 33.3567L166.441 37.1933C165.671 37.6947 164.669 37.6947 163.908 37.1844L158.132 33.3724C157.688 33.0746 157.089 33.397 157.089 33.9252V50.0821H153.487V30.3863C153.487 28.5687 155.522 27.4831 157.045 28.4769L163.906 32.9515C164.667 33.444 165.644 33.4529 166.412 32.9605L173.548 28.4098C175.08 27.4338 177.091 28.5195 177.091 30.3281V50.0754H177.1V50.0732Z" fill="white"/>
<path fill-rule="evenodd" clip-rule="evenodd" d="M206.993 36.1028C204.682 36.1028 202.8 38.0283 202.8 40.3959V50.4563H199.139V40.3959C199.139 35.957 202.659 32.3528 206.993 32.3528H207.797V36.1028H206.993Z" fill="white"/>
<path d="M265.042 50.8088C261.44 50.8088 259.072 49.0708 258.115 46.4513L261.087 44.7134C261.717 46.3506 262.951 47.4085 265.142 47.4085C267.233 47.4085 267.963 46.5269 267.963 45.5446C267.963 44.2348 266.779 43.7311 264.16 42.9755C261.465 42.1947 258.845 41.0612 258.845 37.7113C258.845 34.3865 261.616 32.4723 264.639 32.4723C267.535 32.4723 269.752 33.9584 270.935 36.4267L268.014 38.1143C267.384 36.7793 266.427 35.8474 264.639 35.8474C263.178 35.8474 262.321 36.603 262.321 37.6105C262.321 38.6936 263.001 39.2729 265.671 40.0789C268.467 40.9605 271.439 41.8924 271.439 45.4942C271.439 48.7938 268.794 50.8088 265.042 50.8088Z" fill="white"/>
<path d="M226.688 50.8691L220.133 43.2307C219.442 42.4249 219.448 41.2399 220.148 40.4409L226.156 33.5947H221.283L216.014 40.2185C215.358 40.879 215.036 40.7292 214.885 40.3252V28.8301H210.945V50.8691H214.885V44.1137C215.152 43.267 216.066 43.9821 216.586 44.4837L221.668 50.8691H226.688Z" fill="white"/>
<path d="M190.48 39.3395C190.48 39.3395 191.478 38.9691 191.414 38.3939C191.368 37.9723 191.79 38.776 192.02 39.235C192.107 39.4123 192.028 39.6054 191.822 39.7295C191.516 39.9127 191.039 39.8832 190.795 39.6625L190.489 39.3887" fill="white"/>
<path d="M75.0227 50V26.7273H84.2045C85.9697 26.7273 87.4735 27.0644 88.7159 27.7386C89.9583 28.4053 90.9053 29.3333 91.5568 30.5227C92.2159 31.7045 92.5455 33.0682 92.5455 34.6136C92.5455 36.1591 92.2121 37.5227 91.5455 38.7045C90.8788 39.8864 89.9129 40.8068 88.6477 41.4659C87.3902 42.125 85.8674 42.4545 84.0795 42.4545H78.2273V38.5114H83.2841C84.2311 38.5114 85.0114 38.3485 85.625 38.0227C86.2462 37.6894 86.7083 37.2311 87.0114 36.6477C87.322 36.0568 87.4773 35.3788 87.4773 34.6136C87.4773 33.8409 87.322 33.1667 87.0114 32.5909C86.7083 32.0076 86.2462 31.5568 85.625 31.2386C85.0038 30.9129 84.2159 30.75 83.2614 30.75H79.9432V50H75.0227ZM103.324 50.3409C101.528 50.3409 99.983 49.9773 98.6875 49.25C97.3996 48.5152 96.4072 47.4773 95.7102 46.1364C95.0133 44.7879 94.6648 43.1932 94.6648 41.3523C94.6648 39.5568 95.0133 37.9811 95.7102 36.625C96.4072 35.2689 97.3883 34.2121 98.6534 33.4545C99.9261 32.697 101.419 32.3182 103.131 32.3182C104.282 32.3182 105.354 32.5038 106.347 32.875C107.347 33.2386 108.218 33.7879 108.96 34.5227C109.71 35.2576 110.294 36.1818 110.71 37.2955C111.127 38.4015 111.335 39.697 111.335 41.1818V42.5114H96.5966V39.5114H106.778C106.778 38.8144 106.627 38.197 106.324 37.6591C106.021 37.1212 105.6 36.7008 105.062 36.3977C104.532 36.0871 103.915 35.9318 103.21 35.9318C102.475 35.9318 101.824 36.1023 101.256 36.4432C100.695 36.7765 100.256 37.2273 99.9375 37.7955C99.6193 38.3561 99.4564 38.9811 99.4489 39.6705V42.5227C99.4489 43.3864 99.608 44.1326 99.9261 44.7614C100.252 45.3902 100.71 45.875 101.301 46.2159C101.892 46.5568 102.593 46.7273 103.403 46.7273C103.941 46.7273 104.434 46.6515 104.881 46.5C105.328 46.3485 105.71 46.1212 106.028 45.8182C106.347 45.5152 106.589 45.1439 106.756 44.7045L111.233 45C111.006 46.0758 110.54 47.0152 109.835 47.8182C109.138 48.6136 108.237 49.2348 107.131 49.6818C106.032 50.1212 104.763 50.3409 103.324 50.3409ZM123.778 32.5455V36.1818H113.267V32.5455H123.778ZM115.653 28.3636H120.494V44.6364C120.494 45.0833 120.563 45.4318 120.699 45.6818C120.835 45.9242 121.025 46.0947 121.267 46.1932C121.517 46.2917 121.805 46.3409 122.131 46.3409C122.358 46.3409 122.585 46.322 122.812 46.2841C123.04 46.2386 123.214 46.2045 123.335 46.1818L124.097 49.7841C123.854 49.8598 123.513 49.947 123.074 50.0455C122.634 50.1515 122.1 50.2159 121.472 50.2386C120.305 50.2841 119.282 50.1288 118.403 49.7727C117.532 49.4167 116.854 48.8636 116.369 48.1136C115.884 47.3636 115.646 46.4167 115.653 45.2727V28.3636ZM141.236 37.5227L136.804 37.7955C136.728 37.4167 136.565 37.0758 136.315 36.7727C136.065 36.4621 135.736 36.2159 135.327 36.0341C134.925 35.8447 134.444 35.75 133.884 35.75C133.134 35.75 132.501 35.9091 131.986 36.2273C131.471 36.5379 131.213 36.9545 131.213 37.4773C131.213 37.8939 131.38 38.2462 131.713 38.5341C132.046 38.822 132.618 39.053 133.429 39.2273L136.588 39.8636C138.285 40.2121 139.55 40.7727 140.384 41.5455C141.217 42.3182 141.634 43.3333 141.634 44.5909C141.634 45.7348 141.296 46.7386 140.622 47.6023C139.955 48.4659 139.039 49.1402 137.872 49.625C136.713 50.1023 135.376 50.3409 133.861 50.3409C131.55 50.3409 129.709 49.8598 128.338 48.8977C126.974 47.928 126.175 46.6098 125.94 44.9432L130.702 44.6932C130.846 45.3977 131.194 45.9356 131.747 46.3068C132.3 46.6705 133.009 46.8523 133.872 46.8523C134.721 46.8523 135.402 46.6894 135.918 46.3636C136.44 46.0303 136.705 45.6023 136.713 45.0795C136.705 44.6402 136.52 44.2803 136.156 44C135.793 43.7121 135.232 43.4924 134.474 43.3409L131.452 42.7386C129.747 42.3977 128.478 41.8068 127.645 40.9659C126.819 40.125 126.406 39.053 126.406 37.75C126.406 36.6288 126.709 35.6629 127.315 34.8523C127.929 34.0417 128.789 33.4167 129.895 32.9773C131.009 32.5379 132.312 32.3182 133.804 32.3182C136.009 32.3182 137.743 32.7841 139.009 33.7159C140.281 34.6477 141.024 35.9167 141.236 37.5227Z" fill="white"/>
</svg>
