<svg width="126" height="47" viewBox="0 0 126 47" fill="none" xmlns="http://www.w3.org/2000/svg">
<path d="M25.2267 0.11317L17.9881 4.20855C15.3717 5.68888 15.1388 9.3696 17.548 11.1678L24.9388 16.6843C26.4442 17.8078 26.2991 20.1076 24.6646 21.0332L17.9954 24.81C15.3773 26.2927 15.1483 29.9777 17.5628 31.773L24.5992 37.0052C25.3294 37.5482 25.7597 38.4044 25.7597 39.3142V39.5296C25.7597 40.192 26.4749 40.6075 27.0503 40.2796L34.3269 36.132C36.9448 34.64 37.1593 30.9472 34.732 29.1619L27.3463 23.7301C25.8302 22.615 25.963 20.3087 27.5973 19.3751L34.3403 15.523C36.954 14.0299 37.1679 10.3418 34.7441 8.55662L27.6859 3.35784C26.9497 2.81554 26.515 1.95556 26.515 1.04113V0.864455C26.515 0.203315 25.8021 -0.212389 25.2267 0.11317Z" fill="white"/>
<path d="M9.35174 6.61561L2.11312 10.711C-0.503371 12.1913 -0.736161 15.8721 1.67298 17.6702L9.06373 23.1867C10.5691 24.3102 10.4241 26.61 8.78959 27.5356L2.12031 31.3126C-0.497751 32.7952 -0.726701 36.4801 1.6877 38.2754L8.72427 43.5077C9.45437 44.0506 9.88468 44.9068 9.88468 45.8166V46.0321C9.88468 46.6944 10.5999 47.11 11.1753 46.782L18.4519 42.6346C21.0697 41.1424 21.2844 37.4496 18.8569 35.6643L11.4714 30.2325C9.95512 29.1174 10.088 26.8111 11.7223 25.8775L18.4653 22.0255C21.0789 20.5323 21.2928 16.8443 18.8692 15.059L11.8109 9.86028C11.0746 9.31798 10.64 8.458 10.64 7.54358V7.3669C10.64 6.70576 9.92716 6.29005 9.35174 6.61561Z" fill="white"/>
<path d="M63.444 36.2626C63.3353 36.2626 63.232 36.2147 63.1618 36.1317L53.6152 24.8662C53.3924 24.6034 52.9629 24.7609 52.9629 25.1055V35.8925C52.9629 36.0969 52.7972 36.2626 52.5929 36.2626H48.9638C48.7594 36.2626 48.5938 36.0969 48.5938 35.8925V9.996C48.5938 9.79164 48.7594 9.62598 48.9638 9.62598H52.5929C52.7972 9.62598 52.9629 9.79164 52.9629 9.996V21.0014C52.9629 21.3472 53.3953 21.504 53.617 21.2384L63.2 9.75887C63.2703 9.67466 63.3744 9.62598 63.484 9.62598H67.9692C68.2882 9.62598 68.4576 10.0027 68.2461 10.2414L57.19 22.7157C57.065 22.8567 57.066 23.0693 57.1923 23.2091L68.4249 35.6445C68.6398 35.8825 68.471 36.2626 68.1503 36.2626H63.444Z" fill="white"/>
<path d="M89.0689 25.1866C89.0689 25.852 89.0327 26.4633 88.9606 27.0206C88.9373 27.2009 88.7817 27.3329 88.6 27.3329H73.1794C72.964 27.3329 72.7932 27.5165 72.8204 27.7301C73.011 29.2332 73.6237 30.4549 74.6583 31.3955C75.7825 32.4174 77.1622 32.9285 78.7975 32.9285C81.0651 32.9285 82.6908 32.013 83.6745 30.182C83.7411 30.058 83.869 29.9774 84.0099 29.9774H87.9826C88.2346 29.9774 88.4128 30.2239 88.322 30.4589C87.6563 32.1848 86.5511 33.6212 85.0062 34.7681C83.3455 35.9946 81.2758 36.6078 78.7975 36.6078C76.7789 36.6078 74.9648 36.1606 73.3551 35.2664C71.771 34.3465 70.519 33.0691 69.5992 31.4338C68.705 29.773 68.2578 27.8566 68.2578 25.6849C68.2578 23.5131 68.6922 21.6096 69.5608 19.9743C70.4552 18.3135 71.6944 17.036 73.2784 16.1417C74.8882 15.2475 76.7278 14.8003 78.7975 14.8003C80.7905 14.8003 82.5662 15.2347 84.1248 16.1033C85.6834 16.9721 86.897 18.1985 87.7657 19.7827C88.6345 21.3413 89.0689 23.1426 89.0689 25.1866ZM84.1459 24.4369C84.3471 24.4296 84.5063 24.2627 84.4933 24.0618C84.3943 22.5367 83.8243 20.8351 82.7833 19.9359C81.6591 18.9651 80.2666 18.4796 78.6058 18.4796C77.0983 18.4796 75.808 18.9651 74.7349 19.9359C73.6057 20.9577 73.1102 22.8567 72.8774 24.4245C72.8439 24.6501 73.0254 24.8476 73.2534 24.8392L84.1459 24.4369Z" fill="white"/>
<path d="M107.9 19.113C108.703 17.6487 109.651 16.461 110.928 15.7967C112.206 15.1324 113.649 14.8003 115.259 14.8003C117.099 14.8003 118.772 15.2602 120.28 16.18C121.812 17.0743 123.014 18.339 123.883 19.9743C124.751 21.6096 125.185 23.4875 125.185 25.6082C125.185 27.729 124.751 29.6325 123.883 31.3188C123.014 32.9796 121.812 34.2826 120.28 35.2281C118.772 36.1478 117.099 36.6078 115.259 36.6078C113.649 36.6078 112.218 36.2884 110.967 35.6497C109.715 34.9853 108.508 33.7359 107.9 32.3334V45.9342C107.9 46.1387 107.735 46.3043 107.53 46.3043H103.901C103.697 46.3043 103.531 46.1387 103.531 45.9342V15.5152C103.531 15.3109 103.697 15.1452 103.901 15.1452H107.53C107.735 15.1452 107.9 15.3109 107.9 15.5152V19.113ZM120.739 25.6082C120.739 24.1518 120.433 22.8998 119.82 21.8522C119.232 20.7791 118.44 19.9743 117.444 19.4378C116.473 18.8756 115.425 18.5946 114.301 18.5946C113.202 18.5946 112.155 18.8756 111.158 19.4378C110.187 19.9998 109.395 20.8175 108.782 21.8906C108.194 22.9637 107.9 24.2285 107.9 25.6849C107.9 27.1412 108.194 28.4188 108.782 29.5175C109.395 30.5906 110.187 31.4082 111.158 31.9703C112.155 32.5325 113.202 32.8135 114.301 32.8135C115.425 32.8135 116.473 32.5325 117.444 31.9703C118.44 31.3827 119.232 30.5395 119.82 29.4408C120.433 28.3421 120.739 27.0646 120.739 25.6082Z" fill="white"/>
<path d="M96.9733 36.5711C94.9066 36.5711 94.4014 36.0918 93.8613 35.5507C93.084 34.7979 92.6953 33.5649 92.6953 31.8515V9.43571C92.6953 9.23135 92.861 9.06567 93.0653 9.06567H96.4448C96.6492 9.06567 96.8148 9.21827 96.8148 9.42263C96.8148 12.2052 96.8148 30.3323 96.8148 30.9534C96.8148 31.4291 97.0627 31.7167 97.2036 31.8579C97.3445 31.999 97.5539 32.228 98.3696 32.2054C98.8616 32.2054 99.3223 32.2054 99.7875 32.2054C99.9918 32.2054 100.157 32.371 100.157 32.5754V36.2011C100.157 36.4054 99.9918 36.5711 99.7875 36.5711C99.3362 36.5711 98.9168 36.5711 98.5281 36.5711C98.035 36.5711 97.5693 36.5711 96.9733 36.5711Z" fill="white"/>
</svg>
