<svg width="140" height="40" viewBox="0 0 140 40" fill="none" xmlns="http://www.w3.org/2000/svg">
<path d="M48.0167 30.1568C48.9402 33.1985 50.952 35.0473 54.9192 35.0473C58.1812 35.0473 60.5171 33.5817 60.5171 31.0258C60.5171 28.4701 57.8005 27.6575 53.7769 26.6805L51.765 26.1379C47.0364 24.9963 43.5018 22.8776 43.5018 17.933C43.5018 12.9885 48.0682 9.56616 54.4277 9.56616C60.7874 9.56616 64.865 12.2814 65.5159 17.879H60.2985C59.4831 15.3258 57.5793 13.9142 54.2657 13.9142C50.7875 13.9142 49.1024 15.3258 49.1024 17.4444C49.1024 19.7792 50.7875 20.4322 54.2657 21.4659L57.309 22.3351C63.0178 23.9652 66.0073 25.7034 66.0073 30.4834C66.0073 35.9704 61.2787 39.5007 54.7545 39.5007C47.7955 39.5007 43.7204 36.5129 42.5781 30.1568H48.014H48.0167Z" fill="white"/>
<path d="M97.8106 24.6697C97.8106 33.3632 92.4285 39.5548 83.2957 39.5548C74.1627 39.5548 68.9453 33.3606 68.9453 24.6697C68.9453 15.9788 74.4895 9.56616 83.4036 9.56616C92.3179 9.56616 97.8079 15.8144 97.8079 24.6697H97.8106ZM74.7621 24.6158C74.7621 30.9719 77.8056 34.9934 83.2416 34.9934C88.6776 34.9934 91.7751 30.9719 91.7751 24.6158C91.7751 18.2596 88.6235 14.1301 83.2416 14.1301C77.8596 14.1301 74.7621 18.5295 74.7621 24.6158Z" fill="white"/>
<path d="M102.812 0.00610352H108.303V38.8501H102.812V0.00610352Z" fill="white"/>
<path d="M122.599 38.8499L111.945 10.3269H118.197L122.655 23.3117L125.807 32.9282H125.915C127.219 28.9609 128.143 26.8987 129.447 22.7153L133.633 10.3295H139.558L128.578 38.8524H122.599V38.8499Z" fill="white"/>
<path d="M13.9325 0.774192L0.774611 13.9249C-0.258204 14.9572 -0.258204 16.6308 0.774611 17.663C1.80742 18.6953 3.48195 18.6953 4.51476 17.663L17.6727 4.51232C18.7055 3.48007 18.7055 1.80645 17.6727 0.774192C16.6399 -0.258064 14.9652 -0.258064 13.9325 0.774192Z" fill="white"/>
<path d="M24.8935 11.7263L11.7355 24.8771C10.7027 25.9093 10.7027 27.5829 11.7355 28.6152C12.7684 29.6474 14.4429 29.6474 15.4757 28.6152L28.6336 15.4644C29.6664 14.4322 29.6664 12.7586 28.6336 11.7263C27.6008 10.6941 25.9263 10.6941 24.8935 11.7263Z" fill="white"/>
<path d="M15.4637 10.1926L2.30586 23.3433C1.27305 24.3756 1.27305 26.0493 2.30586 27.0816C3.33867 28.1138 5.0132 28.1138 6.04601 27.0816L19.2038 13.9308C20.2367 12.8985 20.2367 11.2249 19.2038 10.1926C18.171 9.16039 16.4965 9.16039 15.4637 10.1926Z" fill="white"/>
<path d="M26.4207 21.1448L13.2629 34.2954C12.2301 35.3276 12.2301 37.0014 13.2629 38.0336C14.2957 39.0659 15.9702 39.0659 17.003 38.0336L30.1609 24.8829C31.1937 23.8506 31.1937 22.177 30.1609 21.1448C29.128 20.1125 27.4536 20.1125 26.4207 21.1448Z" fill="white"/>
</svg>
