<svg width="1320" height="516" viewBox="0 0 1320 516" fill="none" xmlns="http://www.w3.org/2000/svg">
<g clip-path="url(#clip0_5641_6309)">
<rect y="0.199707" width="1320" height="515" rx="32" fill="#141922"/>
<path d="M1895.06 693.971L1780.33 814.332L1727.13 855.658M-535 608.466L-517.8 631.564M-517.8 631.564L-388.382 758.28M-517.8 631.564L-426.854 562.613L-337.81 499.369L-251.163 443.089L-167.333 395.104M-517.8 631.564L-535 645.226M-388.382 758.28L-254.626 855.658M-388.382 758.28L-306.568 678.37L-226.619 604.624L-148.991 538.373L-73.9892 480.914M-388.382 758.28L-471.832 843.063M-535 414.51L-524.878 433.649L-426.854 562.611L-306.568 678.368L-166.191 779.018L-21.5142 855.657M1895.06 -335.663L1872.26 -397.195L1809.02 -510.402M1529.83 855.658L1543.34 848.123M1543.34 848.123L1695.24 731.948L1820.28 603.138L1895.06 497.808M1543.34 848.123L1549.31 855.657M1543.34 848.123L1471.03 760.259L1400.67 678.978L1332.45 605.536L1266.8 541.264L1204.09 487.458L1144.65 445.257L1088.98 415.69L1029.28 394.342L975.662 383.192L927.829 381.252L885.439 387.455L848.223 400.887M-419.281 -510.402L-435.263 -488.75M-435.263 -488.75L-495.044 -378.473M-435.263 -488.75L-349.644 -460.819L-265.205 -427.485M-435.263 -488.75L-515.174 -510.402M-495.044 -378.473L-535 -268.043M-495.044 -378.473L-403.527 -359.065L-313.494 -334.104M-495.044 -378.473L-535 -384.827M-535 145.741L-498.393 253.659L-428.984 381.821L-337.81 499.366L-226.619 604.621L-97.4294 695.948L47.4758 771.749L205.433 830.464M205.433 830.464L310.764 855.656M205.433 830.464L245.351 742.068L283.783 663.756L320.505 596.82L355.285 542.404L387.973 501.612L423.019 468.392L454.527 446.74L482.724 435.476L507.725 433.497M205.433 830.464L194.702 855.656M723.792 -510.402L714.773 -414.166L705.678 -308.988L697.458 -205.865L690.115 -105.558L683.646 -8.67511L678.052 84.2507L673.295 172.762L669.3 256.478L666.103 335.133L663.63 408.423L662.488 451.652M1895.06 659.646L1820.28 603.137L1728.12 536.583L1637.94 475.66L1550.19 421.625L1465.4 375.771L1384.05 339.241L1306.69 313.136L1233.85 298.524L1155.58 293.006L1084.95 296.051L1021.74 306.667M1021.74 306.667L965.617 324.058L916.148 347.27L884.754 375.733L846.397 399.289L843.505 401.457L842.44 402.37L838.216 405.262M1021.74 306.667L978.478 346.242L927.829 381.251L870.104 410.932L814.889 431.1L811.198 432.47L806.821 434.068L765.268 443.81L752.824 446.702L741.599 449.366L689.124 455.34L675.767 456.9L609.783 456.938M1021.74 306.667L1057.44 263.401L1085.33 217.167M-206.147 -510.402L-265.205 -427.485M-265.205 -427.485L-313.494 -334.104M-265.205 -427.485L-182.591 -388.024M-313.494 -334.104L-346.866 -235.203M-313.494 -334.104L-225.553 -302.785M-346.866 -235.203L-364.066 -131.814L-363.724 -25.0372L-344.393 83.8697M-346.866 -235.203L-254.892 -212.714M-346.866 -235.203L-441.275 -251.033L-535 -260.888M-344.393 83.8697L-304.513 193.538M-344.393 83.8697L-249.413 76.4877M-344.393 83.8697L-442.608 99.0904L-535 119.182M-304.513 193.538L-244.656 298.907M-304.513 193.538L-212.311 175.387M-304.513 193.538L-400.064 220.022L-498.393 253.661L-535 268.121M-244.656 298.907L-167.333 395.104M-244.656 298.907L-157.325 270.214L-74.0273 251.492L4.66626 243.691L89.6382 245.479L166.505 255.069L235.571 271.546L297.141 294.111L351.595 321.928M-244.656 298.907L-335.374 336.502L-428.984 381.823L-524.878 433.651L-535 439.549M-167.333 395.104L-73.9892 480.914M-167.333 395.104L-86.8127 356.594M-73.9892 480.914L33.6245 555.041L153.567 616.381L283.784 663.758L421.916 696.178L565.49 712.732L711.955 712.656L858.649 695.379L1002.83 660.561M-73.9892 480.914L-2.14496 433.462M1002.83 660.561L1141.65 608.086L1266.8 541.265L1374.87 463.142L1465.4 375.773L1538.01 281.212L1592.61 181.4L1629.22 78.1998L1647.94 -26.7503L1648.93 -131.89L1632.42 -235.775M1002.83 660.561L1041.26 738.494M1002.83 660.561L966.263 593.931M1632.42 -235.775L1598.59 -337.185L1547.67 -434.981L1492.69 -510.402M1632.42 -235.775L1726.75 -251.719M1632.42 -235.775L1540.67 -213.248M645.628 -510.402L646.123 -208.529M646.123 -208.529L697.456 -205.864L747.685 -198.026L796.241 -185.125L842.552 -167.317L886.008 -144.714M646.123 -208.529L594.219 -205.75M646.123 -208.529L647.302 171.391M647.302 171.391L647.683 255.336M647.302 171.391L673.293 172.761L698.674 176.946L723.18 183.758L746.469 193.119L768.273 205.031M647.302 171.391L621.046 172.838M647.683 255.336L648.063 334.144M647.683 255.336L669.298 256.478L690.455 259.979L710.889 265.725L730.259 273.602M647.683 255.336L625.803 256.554M648.063 334.144L666.101 335.133L683.758 338.063L700.767 342.896L716.941 349.517M648.063 334.144L629.798 335.171M648.063 334.144L648.711 451.652M1060.37 -510.402L1016.8 -429.616L969.116 -333.799L925.508 -238.552L886.008 -144.714M886.008 -144.714L850.619 -52.854L819.264 36.3799L791.828 122.494L768.273 205.031M886.008 -144.714L926.002 -117.429L961.885 -85.5418M768.273 205.031L748.371 283.609M768.273 205.031L788.213 219.338L805.945 236.005M748.371 283.609L732.009 357.927M748.371 283.609L764.924 295.635L779.689 309.638M748.371 283.609L730.259 273.602M732.009 357.927L718.995 427.754L716.179 446.514M732.009 357.927L745.822 368.048L758.075 379.769M732.009 357.927L716.941 349.517M855.489 181.78L821.203 254.956L792.322 325.506L768.539 393.126M855.489 181.78L870.368 206.705M855.489 181.78L895.406 106.397L941.146 29.2643L992.974 -49.1631L1050.97 -128.275L1115.2 -207.425M768.539 393.126L776.986 407.853L782.884 423.149L784.406 430.303M768.539 393.126L758.075 379.769M768.539 393.126L755.183 438.713M758.076 379.767L742.017 441.793M552.553 443.698L535.43 382.242L512.522 312.568L484.857 239.507L452.208 163.438L414.421 84.7068L371.269 3.80634L322.599 -78.8064L268.336 -162.523L208.44 -246.733L142.914 -330.716M142.914 -330.716L71.9072 -413.748L7.33105 -480.607M142.914 -330.716L197.634 -378.967L260.04 -421.549L329.753 -457.851L406.277 -487.228L485.656 -508.157L499.964 -510.402M142.914 -330.716L96.4127 -277.442M7.33105 -480.607L-25.9271 -510.402M7.33105 -480.607L42.2635 -510.402M7.33105 -480.607L-52.9449 -414.052M377.469 855.659L398.169 778.297L421.914 696.178L444.593 625.705L466.131 568.016L486.375 524.256L508.104 487.877L527.663 463.447M527.663 463.447L603.388 471.933L680.521 471.895L757.883 463.029L834.218 445.106L908.23 417.974L975.66 383.193L1034.68 342.249L1084.95 296.053L1126.27 245.594L1158.35 191.75L1181.11 135.508L1194.39 77.6675L1198.04 19.0655L1191.99 -39.5356L1176.16 -97.3377L1150.47 -153.656M527.663 463.447L454.526 446.742L385.155 422.274L320.617 390.386L262.016 351.61L210.302 306.327L166.503 255.07L131.456 198.333L106.76 138.628L93.0228 78.6188L89.636 19.1036L96.0671 -39.1937L111.707 -95.5493L135.947 -149.319L168.367 -199.929L208.437 -246.733L255.737 -289.163M527.663 463.447L545.167 449.711L607.003 456.636L609.781 456.94L615.489 451.689H634.782L648.71 451.651H671.313L676.108 451.118L689.616 449.558L703.01 448.036L716.177 446.514L727.288 445.258L728.658 444.916L729.039 444.84L737.372 442.899L742.015 441.795L767.891 435.745L772.685 434.603L782.618 432.282L784.558 430.912L790.875 428.591L797.953 426.688L801.682 424.672L806.742 422.16L810.662 420.523L811.499 420.22L812.109 419.42L812.565 419.192L821.431 414.663L827.254 411.658L828.547 410.972L828.966 410.782L833.913 408.232L835.93 407.205L836.881 406.482L837.908 404.922L838.288 404.503L854.157 386.238L868.769 362.569L879.462 337.644L886.121 311.844L888.632 285.512L886.92 258.989L880.869 232.619L870.368 206.705M1150.47 -153.656L1115.2 -207.425M1150.47 -153.656L1226.85 -224.663L1310.11 -293.729L1386.17 -347.954L1465.59 -394.874L1547.67 -434.981L1631.61 -468.963L1716.85 -497.579L1762.71 -510.402M1150.47 -153.656L1081.03 -81.4698L1018.43 -8.7132L962.57 63.9301L913.291 135.888L870.368 206.705M1115.2 -207.425L1072.43 -255.638L1023.45 -297.801L969.115 -333.799L910.285 -363.518L847.764 -386.921L782.351 -403.854L714.769 -414.166L645.741 -417.629L575.99 -414.015L506.163 -403.131L437.021 -384.599M1115.2 -207.425L1185.67 -286.004L1262.39 -363.214L1332.29 -424.783L1405.2 -479.351L1453.79 -510.402M437.021 -384.599L370.39 -358.647M437.021 -384.599L465.294 -283.036L491.018 -183.299M437.021 -384.599L406.274 -487.228L398.816 -510.402M370.39 -358.647L309.81 -326.644M370.39 -358.647L407.759 -260.318L441.702 -163.588M370.39 -358.647L329.751 -457.851L306.5 -510.402M309.81 -326.644L255.737 -289.163M309.81 -326.644L355.474 -232.312L396.989 -139.272L434.281 -48.1736L467.463 40.3755L496.573 125.88L521.765 207.884L543.15 286.007L560.922 359.944L575.229 429.428L578.274 447.503M309.81 -326.644L260.037 -421.549L209.503 -510.402M255.737 -289.163L308.936 -199.548L357.187 -110.885M255.737 -289.163L197.631 -378.967L134.73 -468.202L101.509 -510.402M870.368 206.705L833.532 275.885L802.481 343.048L809.635 361.276L813.668 379.769L814.696 398.378L812.793 416.794L811.195 419.877M197.595 -510.402L134.731 -468.202L71.906 -413.748L18.2134 -353.472L-25.6617 -288.097M-25.6617 -288.097L-59.0722 -218.308M-25.6617 -288.097L58.5883 -219.716M-25.6617 -288.097L-102.491 -341.751L-182.591 -388.024M-59.0722 -218.308L-81.2569 -144.866M-59.0722 -218.308L30.0095 -158.222L111.709 -95.5492L185.95 -30.9735L252.886 34.782L312.667 101.146L365.483 167.548L411.528 233.418L405.553 259.142L403.689 285.55L406.125 312.301L443.644 360.172L446.993 364.434M-59.0722 -218.308L-140.506 -264.39L-225.553 -302.785M-81.2569 -144.866L-91.3791 -68.6085L-88.6013 9.62854L-72.0103 88.8549M-81.2569 -144.866L11.3636 -93.6841L96.0694 -39.193L172.937 17.8863L242.116 76.8683L303.762 137.106L300.679 174.094L303.686 211.69L313.123 249.362L360.803 288.328L366.625 293.047L413.05 339.053L452.853 386.81M-81.2569 -144.866L-166.077 -182.843L-254.892 -212.714M-72.0103 88.8549L-40.7309 168.081M-72.0103 88.8549L21.6376 110.811L106.762 138.628L183.515 171.467L252.2 208.607L313.123 249.361L329.257 286.653M-72.0103 88.8549L-158.39 77.8566L-249.413 76.4877M-40.7309 168.081L4.66638 243.692L62.1262 312.301M-40.7309 168.081L49.607 179.8L131.458 198.332L205.167 222.838L270.961 252.52L329.257 286.653M-40.7309 168.081L-124.181 166.596L-212.311 175.387M62.1262 312.301L130.469 373.11M62.1262 312.301L139.984 304.957M62.1262 312.301L-10.1735 328.664M130.469 373.11L208.516 425.394L294.82 468.432L387.974 501.615L486.378 524.256L588.436 535.786L692.473 535.71L796.737 523.685L899.518 499.369M130.469 373.11L199.651 357.546M130.469 373.11L66.1599 397.197L-2.14496 433.462M899.518 499.369L998.836 462.648L1088.98 415.691L1167.45 360.514L1233.85 298.526L1287.92 231.02L1329.44 159.367L1358.25 84.7449L1374.27 8.3725L1377.46 -68.6846L1367.87 -145.323M899.518 499.369L931.748 539.858L966.263 593.931M899.518 499.369L865.08 466.492L834.219 445.105L806.82 434.07L782.619 432.282M1367.87 -145.323L1345.42 -220.63L1310.11 -293.729L1262.39 -363.214L1205.16 -425.24L1140.13 -479.275M1367.87 -145.323L1452.2 -183.337L1540.67 -213.248M1367.87 -145.323L1275.94 -94.0654L1191.99 -39.5353L1115.92 17.5821L1047.62 76.6025M1140.13 -479.275L1091.61 -510.402M1140.13 -479.275L1163.49 -510.402M1140.13 -479.275L1079.43 -388.785M-313.685 -510.402L-349.645 -460.819L-403.528 -359.066L-441.276 -251.034L-461.483 -137.865L-462.472 -20.7376L-442.609 99.0909L-400.065 220.023L-335.375 336.503L-251.164 443.09L-148.992 538.373L-30.6861 620.873L101.548 689.215L245.35 742.07L398.17 778.297L557.117 796.791L719.336 796.677M719.336 796.677L881.747 777.384L1041.26 738.494M719.336 796.677L724.169 855.659M719.336 796.677L711.954 712.656L704.99 640.394L698.483 581.032L692.471 535.71L686.154 497.772L680.522 471.896L675.613 456.903L671.314 451.652M1041.26 738.494L1194.54 679.969M1041.26 738.494L1081.3 826.472M1194.54 679.969L1332.44 605.537L1451.17 518.624M1194.54 679.969L1249.6 761.479L1306.57 851.321L1309.19 855.66M1194.54 679.969L1141.65 608.087L1091.19 547.165L1043.51 498.304L998.834 462.649L951.079 434.832L908.231 417.975L870.102 410.935L836.349 412.648M1451.17 518.624L1550.18 421.627L1629.22 316.906L1688.16 206.59L1727.17 92.8125L1746.42 -22.6403L1746.16 -137.979L1726.75 -251.719M1451.17 518.624L1530.28 582.781M1451.17 518.624L1374.87 463.143L1301.85 417.556L1232.56 383.004L1167.45 360.515L1097.54 346.702L1034.68 342.25L978.477 346.245L928.627 357.699M1726.75 -251.719L1688.47 -362.453M1726.75 -251.719L1822.95 -261.878M1688.47 -362.453L1631.62 -468.963L1600.87 -510.402M1688.47 -362.453L1779.91 -382.164M1688.47 -362.453L1598.59 -337.186L1510.95 -305.602L1426.32 -266.978L1345.42 -220.63L1257.06 -160.278L1176.16 -97.3382L1102.76 -32.535L1036.7 33.449L977.83 100.004L925.964 166.558L880.87 232.618L842.171 297.65M968.889 -510.402L949.101 -463.331M949.101 -463.331L910.288 -363.518L874.746 -264.619L842.553 -167.317L813.671 -72.2995L788.099 19.7512L765.725 108.376L746.47 193.119L730.259 273.602M949.101 -463.331L1016.8 -429.616L1079.43 -388.785M949.101 -463.331L877.296 -489.854M730.259 273.602L716.941 349.517M716.941 349.517L706.324 420.638M706.324 420.638L703.013 448.036M706.324 420.638L718.996 427.753L730.563 436.277M706.324 420.638L692.739 415.006M767.892 435.745L776.987 407.852L802.483 343.048L792.323 325.505L779.689 309.638M779.689 309.638L805.945 236.005M779.689 309.638L758.075 379.769M625.803 256.554L603.961 260.245M625.803 256.554L629.798 335.171M625.803 256.554L621.046 172.838M603.961 260.245L582.423 266.562L561.76 275.276M603.961 260.245L611.61 338.292M603.961 260.245L594.828 177.252M561.76 275.276L543.152 286.007L526.714 298.488M561.76 275.276L576.41 350.925M561.76 275.276L544.14 195.098L523.44 110.735L499.504 22.529L472.297 -69.1027L441.702 -163.588M526.714 298.488L512.52 312.568L500.723 327.941L525.648 395.181M526.714 298.488L547.224 370.446M526.714 298.488L501.94 222.763L472.791 143.536L439.039 61.2285L400.529 -23.744L357.187 -110.885M525.648 395.181L539.88 440.806M525.648 395.181L535.428 382.242L547.224 370.446M525.648 395.181L517.923 409.031M1286.36 -510.402L1268.1 -493.278L1205.16 -425.24L1136.05 -340.876L1072.43 -255.638L1014.36 -170.286L961.885 -85.5418M961.885 -85.5418L914.929 -1.97778L873.374 79.7979L837.11 159.291L805.945 236.005M961.885 -85.5418L992.975 -49.1624L1018.43 -8.71265L1036.7 33.4503L1047.62 76.6025M805.945 236.005L821.204 254.955L833.533 275.884L842.171 297.65M634.783 451.689L633.109 408.461L629.798 335.171M629.798 335.171L611.61 338.292M621.046 172.838L615.528 84.3268L609.25 -8.59897L602.133 -105.481L594.219 -205.75M621.046 172.838L594.828 177.252M594.219 -205.75L585.505 -308.874L575.991 -414.015L566.669 -510.402M594.219 -205.75L542.353 -197.417M-87.5354 -510.402L-126.996 -467.554L-182.591 -388.024M-182.591 -388.024L-225.553 -302.785M-225.553 -302.785L-254.892 -212.714M-254.892 -212.714L-269.428 -118.762L-268.021 -21.9937L-249.413 76.4877M-249.413 76.4877L-212.311 175.387M-212.311 175.387L-157.324 270.215L-86.8127 356.594M-86.8127 356.594L-2.14496 433.462M-86.8127 356.594L-10.1735 328.664M-2.14496 433.462L95.1566 499.788L203.341 554.546L320.506 596.823L444.596 625.705L573.52 640.431L704.992 640.393L836.693 624.982L966.263 593.931M966.263 593.931L1091.19 547.164L1204.09 487.459L1301.85 417.555L1384.05 339.243L1450.3 254.309L1500.53 164.465L1534.62 71.3502L1552.58 -23.5535L1554.56 -118.838L1540.67 -213.248M1540.67 -213.248L1510.95 -305.601L1465.59 -394.874L1405.2 -479.351L1375.6 -510.402M620.704 451.689L617.812 411.086L611.61 338.292M611.61 338.292L593.61 343.58L576.41 350.925M594.828 177.252L584.173 89.5777L571.882 -2.43396L557.955 -98.289L542.353 -197.417M594.828 177.252L568.951 184.709L544.141 195.097L521.766 207.884L501.941 222.762L484.855 239.506L470.585 257.847L459.322 277.559L491.4 344.455L517.923 409.031M542.353 -197.417L525.077 -299.285L506.164 -403.131L485.654 -508.157L485.159 -510.402M542.353 -197.417L491.018 -183.299M1895.06 451.916L1819.9 409.982L1723.36 360.209L1629.22 316.904L1538.01 281.211L1450.29 254.308L1366.73 237.26L1287.92 231.019L1202.99 234.482L1126.27 245.593L1057.44 263.402L996.209 287.147L942.136 316.029L916.145 347.271L882.621 369.227L872.956 375.582L846.243 399.061M447.563 405.3L410.347 392.667L368.146 387.377L320.618 390.383L267.496 402.712L208.514 425.392L153.566 456.215L95.1549 499.785L33.6232 555.038L-30.6863 620.87L-97.4307 695.948L-166.193 779.017L-226.544 855.656M606.395 450.662L602.704 415.576L593.609 343.581L582.421 266.562L568.95 184.71L553.159 98.4062L534.931 7.99249L514.231 -86.0742L491.018 -183.299M491.018 -183.299L441.702 -163.588M779.727 432.053L782.885 423.148L809.636 361.275L842.171 297.65M842.171 297.65L847.118 319.759L848.45 342.02L846.243 364.053L812.794 416.794L812.11 419.419M517.923 409.031L527.893 438.065M517.923 409.031L512.368 423.606L510.351 432.928M592.011 449.063L588.244 421.818L576.41 350.925M576.41 350.925L560.923 359.943L547.224 370.446M441.702 -163.588L396.99 -139.271L357.187 -110.885M-52.9449 -414.052L-102.49 -341.751L-140.505 -264.39L-166.076 -182.843L-178.291 -97.9471L-176.084 -10.7292L-158.389 77.8571L-124.18 166.597L-74.0264 251.493L-10.1735 328.664M-52.9449 -414.052L18.2151 -353.472L96.4127 -277.442M-52.9449 -414.052L-126.995 -467.554L-196.556 -510.402M-10.1735 328.664L66.1608 397.198L153.568 456.218L250.489 504.887L355.287 542.407L466.134 568.017L581.206 581.107L698.485 581.031L815.993 567.408L931.75 539.858L1043.51 498.303L1144.66 445.258L1232.56 383.004L1306.68 313.138L1366.73 237.261L1412.55 156.817L1444.02 73.2528L1461.1 -12.1376L1463.84 -98.0233L1452.2 -183.338L1426.32 -266.978L1386.18 -347.954L1332.29 -424.783L1268.1 -493.278L1247.17 -510.402M-535 -487.799L-522.481 -510.402M1295.42 855.658L1306.57 851.319L1471.04 760.259L1611.79 654.319L1728.12 536.584L1819.9 409.982L1887.26 277.292L1895.06 252.786M1093.85 855.659L1081.3 826.472M1081.3 826.472L962.761 855.659M1081.3 826.472L1249.6 761.478L1400.67 678.979L1530.28 582.781M883.651 -510.402L877.296 -489.854M877.296 -489.854L847.767 -386.921L820.75 -285.091L796.243 -185.126L774.287 -87.673L754.804 6.62219L737.794 97.2644L723.182 183.759L710.891 265.725L700.769 342.896L692.739 415.006M877.296 -489.854L802.218 -508.994M692.739 415.006L689.62 449.558M692.739 415.006L678.469 410.895L663.629 408.422L648.446 407.585L633.11 408.46L617.813 411.086L602.706 415.576L588.246 421.817L575.232 429.427L563.74 438.332L565.262 446.057M-535 780.085L-471.832 843.063M-471.832 843.063L-454.784 855.659M-471.832 843.063L-483.933 855.658M547.224 370.446L563.738 438.333L557.345 444.802M609.784 456.939L603.391 471.931L596.276 497.807L588.437 535.784L581.206 581.105L573.521 640.43L565.491 712.73L557.12 796.789L551.715 855.657M560.696 445.562L545.17 449.71L530.749 446.437L482.726 435.478L480.861 434.83L423.401 414.586L385.158 422.273L342.387 439.854L294.821 468.431L250.489 504.886L203.342 554.545L153.568 616.381L101.55 689.214L47.4767 771.751L-4.04706 855.658M1530.28 582.781L1637.93 475.662L1723.36 360.21L1786.61 238.973L1827.82 114.122L1847.3 -12.1758L1845.55 -138.055L1822.95 -261.878M1530.28 582.781L1611.79 654.321L1695.24 731.949L1780.33 814.333L1821.99 855.659M1822.95 -261.878L1779.91 -382.164M1822.95 -261.878L1895.06 -265.836M1779.91 -382.164L1716.86 -497.579L1707.15 -510.402M1779.91 -382.164L1872.26 -397.195L1895.06 -399.935M902.18 855.656L881.746 777.381L858.648 695.377L836.692 624.979L815.991 567.405L796.736 523.682L776.225 487.418L757.884 463.026L741.597 449.365L727.289 445.255M730.563 436.277L745.823 368.048L764.926 295.635L788.214 219.338L815.765 139.465L847.843 56.4337L884.527 -29.3757L926.004 -117.43L972.314 -207.121L1023.46 -297.801L1079.43 -388.785M730.563 436.277L737.375 442.899M730.563 436.277L729.041 444.839M452.283 406.101L449.619 404.388M449.619 404.388L449.086 403.704L422.525 380.948M449.619 404.388L448.477 404.769M422.525 380.948L399.275 354.235M422.525 380.948L448.477 404.769M422.525 380.948L412.098 374.366L379.145 353.626M399.275 354.235L380.363 324.515M399.275 354.235L432.533 383.307L440.6 390.385L456.164 408.232L456.545 408.384L457.268 408.955M399.275 354.235L390.827 348.527L351.595 321.928M380.363 324.515L418.416 359.675L424.656 365.459M380.363 324.515L366.625 293.045L358.482 261.195M380.363 324.515L329.257 286.653M329.257 286.653L351.595 321.928M855.491 181.778L837.111 159.289L815.764 139.464L791.829 122.492L765.725 108.374L737.794 97.2627L708.455 89.1959L678.051 84.2489L646.961 82.6119L615.529 84.3251L584.174 89.5759L553.161 98.4044L523.442 110.734L496.576 125.879L472.793 143.535L452.207 163.436L435.045 185.241L421.422 208.682L411.528 233.416L451.179 298.296L484.704 361.845L512.369 423.604L516.668 435.134M1079.43 -388.785L1136.06 -340.876L1185.68 -286.004L1226.85 -224.663L1257.06 -160.277L1275.94 -94.0656L1283.59 -26.8264L1280.05 40.566L1265.36 107.235L1239.64 172.228L1202.99 234.483L1155.58 293.008L1097.55 346.701L1029.28 394.344L951.081 434.832L865.081 466.492L776.227 487.421L686.156 497.771L596.276 497.809L508.107 487.877L423.021 468.394L342.387 439.855L267.498 402.715L199.651 357.546M96.4127 -277.442L58.5883 -219.716M96.4127 -277.442L168.371 -199.929L234.05 -121.73L293.49 -43.5312L346.687 34.0963L393.835 110.507L435.046 185.243L470.588 257.847L500.725 327.941L491.403 344.456L484.705 361.846L480.71 379.883L479.568 398.377L481.394 417.099L484.934 423.682M58.5883 -219.716L30.0106 -158.222L11.3646 -93.6847L3.25928 -26.7883L6.45557 41.6688L21.6387 110.812L49.6079 179.801L89.6392 245.48L139.984 304.957M58.5883 -219.716L135.949 -149.319L206.46 -77.7027L270.123 -5.51651L327.051 66.6697L377.433 138.247L421.421 208.683L459.323 277.559L451.179 298.298L446.308 319.912L444.862 342.021L446.993 364.434M139.984 304.957L199.651 357.546M139.984 304.957L210.304 306.327L273.396 315.498L329.524 331.518L379.145 353.626M199.651 357.546L262.018 351.61L317.841 354.235L367.5 364.51L410.348 392.669L457.344 415.767L477.055 422.235L486.149 425.889M802.218 -508.994L793.047 -510.402M802.218 -508.994L802.523 -510.402M802.218 -508.994L782.355 -403.854L764.166 -299.931L747.688 -198.026L732.924 -98.7841L719.872 -2.89102L708.457 89.1978L698.677 176.947L690.458 259.979L683.76 338.063L678.47 410.896L676.112 451.118M357.187 -110.885L322.597 -78.8058L293.487 -43.5307L270.122 -5.51587L252.884 34.7825L242.115 76.8683L238.158 120.211L241.354 164.315L252.199 208.608L270.96 252.521L297.14 294.113L329.523 331.519L367.499 364.51L411.336 381.482L449.084 403.705L451.635 405.57L452.281 406.102L456.771 409.489L458.674 410.517L461.337 412.077L466.132 414.436L466.703 414.702L468.416 415.539L474.581 418.583L482.99 423.112L485.197 424.177L487.252 424.825L494.862 428.211L506.316 433.006L509.018 433.196L511.187 433.234L516.743 435.365L519.749 436.24M466.705 414.702L462.595 408.88L452.853 386.81M452.853 386.81L473.021 416.338L474.582 418.583M452.853 386.81L446.993 364.434M466.133 414.434L462.595 408.877L456.925 402.409L424.656 365.459M424.656 365.459L440.6 390.383L456.545 408.382L457.153 409.105L458.675 410.513L461.339 412.073M424.656 365.459L413.05 339.05L406.125 312.299L402.091 307.961L358.482 261.195M358.482 261.195L355.742 229.382L300.679 174.091L238.159 120.209L167.875 68.342M358.482 261.195L353.65 256.817L303.686 211.687L297.902 207.272L241.355 164.311L171.224 119.713M167.875 68.342L89.6382 19.1018L3.2583 -26.7902L-91.3792 -68.6103L-178.292 -97.9489L-269.429 -118.764L-364.066 -131.816L-461.482 -137.866L-535 -137.943M167.875 68.342L172.937 17.8834L185.95 -30.9759L206.461 -77.705L234.049 -121.732L268.335 -162.525L308.938 -199.55L355.476 -232.314L407.761 -260.321L465.296 -283.038L525.077 -299.287L585.506 -308.876L645.895 -311.997L705.677 -308.99L764.164 -299.933L820.749 -285.093L874.746 -264.621L925.509 -238.555L972.313 -207.123L1014.36 -170.288L1050.97 -128.277L1081.03 -81.4721L1102.76 -32.5367L1115.92 17.5797L1120.68 68.2664L1117.07 118.914L1105.27 168.764L1085.33 217.167M167.875 68.342L171.224 119.713M482.877 422.655L481.393 417.099L446.993 364.434M1895.06 -135.621L1845.55 -138.057L1746.16 -137.981L1648.93 -131.892L1554.56 -118.84L1463.84 -98.0255L1377.46 -68.6868L1283.59 -26.8286L1198.04 19.0634L1120.68 68.2664L1051.31 120.17L989.743 174.053L935.632 229.344M935.632 229.344L932.778 260.661M935.632 229.344L888.636 285.51L848.453 342.019L814.699 398.376L802.18 423.642L802.065 423.871M935.632 229.344L933.385 197.874M932.778 260.661L924.939 291.37L912.305 321.052L894.915 349.286M932.778 260.661L937.535 256.286L986.584 211.079L992.254 206.665L1047.93 163.589L1117.07 118.915L1194.39 77.6658L1280.05 40.5643L1374.27 8.37073L1461.1 -12.1393L1552.58 -23.5552L1647.94 -26.752L1746.43 -22.642L1847.3 -12.1774L1895.06 -4.8335M932.778 260.661L886.125 311.843L854.617 353.13L846.246 364.052L840.614 385.628L831.633 406.442L828.97 410.78M894.915 349.286L872.959 375.581L847.387 400.24L838.292 405.605M894.915 349.286L902.563 343.884L942.138 316.029L962.649 282.542L1020.22 247.686L1085.33 217.167M894.915 349.286L854.16 386.236L839.167 404.121L838.292 405.605M838.292 405.605L836.694 406.328L832.775 407.355L828.55 410.97M838.292 405.605L837.111 406.595M836.349 412.648L818.731 418.698M836.349 412.648L885.438 387.456L928.627 357.699M818.731 418.698L811.082 421.323L806.744 422.161M818.731 418.698L811.5 420.22L811.082 420.943L809.94 422.274L801.683 424.672L790.876 428.592L784.559 430.912L779.727 432.054H779.65L778.89 432.321L772.686 434.604M1895.06 131.777L1827.82 114.12L1727.17 92.811L1629.22 78.1984L1534.62 71.3486L1444.02 73.2513L1358.24 84.7433L1265.36 107.233L1181.11 135.506L1105.27 168.764L1037.5 206.284L983.842 243.044L977.525 247.381L962.647 282.542L912.302 321.052L874.402 357.164L868.77 362.568L831.63 406.443M791.258 427.829L791.638 427.029L813.671 379.767L847.12 319.758L886.923 258.988L933.385 197.874M933.385 197.874L986.85 136.876L977.832 100.003L962.572 63.9285L941.148 29.2628L914.93 -1.97937L884.526 -29.3773L850.62 -52.8556L813.671 -72.301L774.287 -87.6745L732.923 -98.7857L690.113 -105.559L646.352 -107.842L602.135 -105.483L557.956 -98.2905L514.233 -86.0757L472.298 -69.1042L434.284 -48.1752L400.53 -23.7455L371.268 3.80475L346.686 34.0947L327.051 66.6682L312.667 101.144L303.762 137.104L358.178 198.027M933.385 197.874L925.966 166.557L913.294 135.886L895.409 106.395L873.377 79.7961L847.843 56.4321L819.265 36.3781L788.1 19.7495L754.804 6.62048L719.872 -2.89273L683.645 -8.67685L646.658 -10.6176L609.252 -8.60068L571.884 -2.43567L534.934 7.99078L499.507 22.5273L467.467 40.3738L439.041 61.2267L414.421 84.7051L393.834 110.505L377.434 138.246L365.485 167.546L358.178 198.027M358.178 198.027L405.554 259.14L446.308 319.91L480.708 379.882L504.948 430.149L505.48 431.215M358.178 198.027L355.743 229.382L403.69 285.548L444.863 342.019L479.567 398.376L494.18 426.915L494.408 427.333M505.48 431.215L494.864 428.208L486.683 425.354L486.036 424.212L484.932 423.68L482.992 423.109L477.055 422.233L457.344 415.765L423.4 414.585L368.147 387.377L317.841 354.233L273.396 315.496L235.572 271.545L205.167 222.837L183.515 171.465L171.224 119.713M505.48 431.215L509.019 433.193L516.744 435.362L519.75 436.238L527.894 438.064L552.552 443.696L557.347 444.799L560.695 445.56L565.261 446.055L578.276 447.501L592.013 449.061L606.397 450.66L615.491 451.686M928.627 357.699L965.614 324.061L996.209 287.149L1020.22 247.688L1037.5 206.286L1047.92 163.591L1051.31 120.173L1047.62 76.6025M928.627 357.699L884.752 375.736L847.385 400.242L842.438 402.373M1047.62 76.6025L986.849 136.877L989.741 174.055L986.582 211.08L977.526 247.383L930.378 286.844L924.937 291.372L879.464 337.644L840.612 385.63L822.27 413.37L821.433 414.663M351.595 321.928L379.145 353.626M448.477 404.769L411.337 381.48L379.145 353.626M448.477 404.769L456.772 409.488L458.257 410.059M1085.33 217.167L1158.35 191.749L1239.64 172.227L1329.44 159.365L1412.55 156.815L1500.53 164.464L1592.61 181.398L1688.16 206.589L1786.61 238.972L1887.26 277.291L1895.06 280.602M171.224 119.713L93.0249 78.6161L6.45459 41.666L-88.6014 9.62573L-176.085 -10.732L-268.021 -21.9964L-363.724 -25.0399L-462.471 -20.7404L-535 -13.0917M-535 -511.201H1895.02V857.866H-535V-511.201Z" stroke="url(#paint0_linear_5641_6309)" stroke-opacity="0.45" stroke-width="1.08501" stroke-linecap="round" stroke-linejoin="round"/>
<mask id="path-4-inside-1_5641_6309" fill="white">
<path fill-rule="evenodd" clip-rule="evenodd" d="M329.653 113.51L212.059 154.397V283.576V285.057H212.075C213.651 357.161 329.653 415.366 329.653 415.366C329.653 415.366 445.655 357.161 447.232 285.057H447.248V283.576V154.397L329.653 113.51Z"/>
</mask>
<path fill-rule="evenodd" clip-rule="evenodd" d="M329.653 113.51L212.059 154.397V283.576V285.057H212.075C213.651 357.161 329.653 415.366 329.653 415.366C329.653 415.366 445.655 357.161 447.232 285.057H447.248V283.576V154.397L329.653 113.51Z" fill="#141922"/>
<path d="M212.059 154.397L211.73 153.452L211.059 153.686V154.397H212.059ZM329.653 113.51L329.982 112.565L329.653 112.451L329.325 112.565L329.653 113.51ZM212.059 285.057H211.059V286.057H212.059V285.057ZM212.075 285.057L213.075 285.036L213.053 284.057H212.075V285.057ZM329.653 415.366L329.205 416.26L329.653 416.485L330.102 416.26L329.653 415.366ZM447.232 285.057V284.057H446.253L446.232 285.036L447.232 285.057ZM447.248 285.057V286.057H448.248V285.057H447.248ZM447.248 154.397H448.248V153.686L447.576 153.452L447.248 154.397ZM212.387 155.341L329.982 114.454L329.325 112.565L211.73 153.452L212.387 155.341ZM213.059 283.576V154.397H211.059V283.576H213.059ZM213.059 285.057V283.576H211.059V285.057H213.059ZM212.075 284.057H212.059V286.057H212.075V284.057ZM329.653 415.366C330.102 414.473 330.102 414.472 330.101 414.472C330.1 414.472 330.099 414.471 330.097 414.47C330.094 414.469 330.089 414.466 330.082 414.463C330.069 414.456 330.048 414.446 330.021 414.432C329.967 414.404 329.885 414.362 329.776 414.307C329.559 414.196 329.236 414.029 328.813 413.809C327.968 413.367 326.727 412.71 325.145 411.847C321.981 410.12 317.456 407.572 312.02 404.289C301.147 397.721 286.637 388.218 272.083 376.472C257.526 364.723 242.952 350.753 231.926 335.257C220.899 319.759 213.463 302.794 213.075 285.036L211.075 285.079C211.475 303.373 219.13 320.722 230.297 336.417C241.465 352.113 256.187 366.214 270.827 378.029C285.471 389.847 300.06 399.402 310.986 406.001C316.45 409.301 321.001 411.864 324.187 413.602C325.78 414.472 327.032 415.135 327.887 415.581C328.315 415.805 328.643 415.974 328.865 416.087C328.976 416.144 329.06 416.187 329.117 416.216C329.146 416.23 329.167 416.241 329.182 416.249C329.189 416.252 329.195 416.255 329.199 416.257C329.201 416.258 329.202 416.259 329.203 416.259C329.204 416.26 329.205 416.26 329.653 415.366ZM446.232 285.036C445.844 302.794 438.407 319.759 427.38 335.257C416.355 350.753 401.781 364.723 387.223 376.472C372.67 388.218 358.16 397.721 347.286 404.289C341.85 407.572 337.326 410.12 334.162 411.847C332.58 412.71 331.338 413.367 330.493 413.809C330.071 414.029 329.748 414.196 329.531 414.307C329.422 414.362 329.34 414.404 329.285 414.432C329.258 414.446 329.238 414.456 329.224 414.463C329.217 414.466 329.212 414.469 329.209 414.47C329.208 414.471 329.207 414.472 329.206 414.472C329.205 414.472 329.205 414.473 329.653 415.366C330.102 416.26 330.102 416.26 330.104 416.259C330.104 416.259 330.106 416.258 330.108 416.257C330.112 416.255 330.117 416.252 330.125 416.249C330.139 416.241 330.161 416.23 330.189 416.216C330.246 416.187 330.331 416.144 330.442 416.087C330.664 415.974 330.992 415.805 331.419 415.581C332.274 415.135 333.527 414.472 335.12 413.602C338.306 411.864 342.856 409.301 348.32 406.001C359.246 399.402 373.835 389.847 388.479 378.029C403.119 366.214 417.842 352.113 429.01 336.417C440.176 320.722 447.832 303.373 448.231 285.079L446.232 285.036ZM447.248 284.057H447.232V286.057H447.248V284.057ZM446.248 283.576V285.057H448.248V283.576H446.248ZM446.248 154.397V283.576H448.248V154.397H446.248ZM329.325 114.454L446.92 155.341L447.576 153.452L329.982 112.565L329.325 114.454Z" fill="url(#paint1_linear_5641_6309)" mask="url(#path-4-inside-1_5641_6309)"/>
<mask id="path-6-inside-2_5641_6309" fill="white">
<path fill-rule="evenodd" clip-rule="evenodd" d="M333.769 101.705C331.065 100.765 328.124 100.765 325.421 101.705L220.536 138.173C215.425 139.95 212 144.767 212 150.177V270.319V271.793C212 271.798 212.004 271.801 212.008 271.801C212.013 271.801 212.016 271.805 212.016 271.809C213.392 334.346 300.839 386.427 324.011 399.142C327.529 401.072 331.66 401.072 335.178 399.142C358.351 386.427 445.798 334.346 447.173 271.809C447.173 271.805 447.177 271.801 447.181 271.801C447.186 271.801 447.189 271.798 447.189 271.793V270.319V150.178C447.189 144.767 443.764 139.95 438.654 138.173L333.769 101.705Z"/>
</mask>
<path fill-rule="evenodd" clip-rule="evenodd" d="M333.769 101.705C331.065 100.765 328.124 100.765 325.421 101.705L220.536 138.173C215.425 139.95 212 144.767 212 150.177V270.319V271.793C212 271.798 212.004 271.801 212.008 271.801C212.013 271.801 212.016 271.805 212.016 271.809C213.392 334.346 300.839 386.427 324.011 399.142C327.529 401.072 331.66 401.072 335.178 399.142C358.351 386.427 445.798 334.346 447.173 271.809C447.173 271.805 447.177 271.801 447.181 271.801C447.186 271.801 447.189 271.798 447.189 271.793V270.319V150.178C447.189 144.767 443.764 139.95 438.654 138.173L333.769 101.705Z" fill="#141922"/>
<path d="M438.654 138.173L438.325 139.117L438.654 138.173ZM447.173 271.809L448.173 271.831L447.173 271.809ZM212.016 271.809L211.017 271.831L212.016 271.809ZM325.421 101.705L325.092 100.76L325.421 101.705ZM333.769 101.705L334.097 100.76L333.769 101.705ZM324.011 399.142L323.53 400.018L324.011 399.142ZM335.178 399.142L334.697 398.265L335.178 399.142ZM220.864 139.117L325.749 102.649L325.092 100.76L220.207 137.228L220.864 139.117ZM213 270.319V150.177H211V270.319H213ZM213 271.793V270.319H211V271.793H213ZM324.492 398.265C312.934 391.923 285.356 375.767 260.509 353.415C235.619 331.025 213.694 302.617 213.016 271.787L211.017 271.831C211.714 303.538 234.201 332.439 259.171 354.902C284.184 377.403 311.915 393.645 323.53 400.018L324.492 398.265ZM446.173 271.787C445.495 302.617 423.571 331.025 398.681 353.415C373.833 375.767 346.255 391.923 334.697 398.265L335.659 400.018C347.274 393.645 375.005 377.403 400.018 354.902C424.989 332.439 447.475 303.538 448.173 271.831L446.173 271.787ZM446.189 270.319V271.793H448.189V270.319H446.189ZM446.189 150.178V270.319H448.189V150.178H446.189ZM333.44 102.649L438.325 139.117L438.982 137.228L334.097 100.76L333.44 102.649ZM448.189 150.178C448.189 144.341 444.495 139.145 438.982 137.228L438.325 139.117C443.034 140.754 446.189 145.193 446.189 150.178H448.189ZM447.181 272.801C447.738 272.801 448.189 272.35 448.189 271.793H446.189C446.189 271.245 446.633 270.801 447.181 270.801V272.801ZM448.173 271.831C448.161 272.365 447.726 272.801 447.181 272.801V270.801C446.628 270.801 446.185 271.244 446.173 271.787L448.173 271.831ZM212.008 272.801C211.463 272.801 211.028 272.365 211.017 271.831L213.016 271.787C213.004 271.245 212.562 270.801 212.008 270.801V272.801ZM211 271.793C211 272.35 211.451 272.801 212.008 272.801V270.801C212.556 270.801 213 271.245 213 271.793H211ZM325.749 102.649C328.24 101.784 330.95 101.784 333.44 102.649L334.097 100.76C331.181 99.7465 328.008 99.7465 325.092 100.76L325.749 102.649ZM323.53 400.018C327.348 402.113 331.842 402.113 335.659 400.018L334.697 398.265C331.479 400.031 327.711 400.031 324.492 398.265L323.53 400.018ZM220.207 137.228C214.695 139.145 211 144.341 211 150.177H213C213 145.193 216.156 140.754 220.864 139.117L220.207 137.228Z" fill="url(#paint2_linear_5641_6309)" mask="url(#path-6-inside-2_5641_6309)"/>
<mask id="path-8-outside-3_5641_6309" maskUnits="userSpaceOnUse" x="265.598" y="160.548" width="129" height="162" fill="black">
<rect fill="white" x="265.598" y="160.548" width="129" height="162"/>
<path fill-rule="evenodd" clip-rule="evenodd" d="M333.836 162.253C331.133 161.313 328.191 161.313 325.488 162.253L275.133 179.761C270.023 181.538 266.598 186.356 266.598 191.766V252.006V252.796C266.598 252.799 266.6 252.801 266.602 252.801C266.604 252.801 266.606 252.803 266.606 252.805C267.3 284.328 308.774 310.897 324.073 319.638C327.557 321.628 331.767 321.628 335.251 319.638C350.55 310.897 392.024 284.328 392.718 252.805C392.718 252.803 392.72 252.801 392.722 252.801C392.724 252.801 392.726 252.799 392.726 252.796V252.006V191.766C392.726 186.356 389.301 181.538 384.191 179.761L333.836 162.253Z"/>
</mask>
<path fill-rule="evenodd" clip-rule="evenodd" d="M333.836 162.253C331.133 161.313 328.191 161.313 325.488 162.253L275.133 179.761C270.023 181.538 266.598 186.356 266.598 191.766V252.006V252.796C266.598 252.799 266.6 252.801 266.602 252.801C266.604 252.801 266.606 252.803 266.606 252.805C267.3 284.328 308.774 310.897 324.073 319.638C327.557 321.628 331.767 321.628 335.251 319.638C350.55 310.897 392.024 284.328 392.718 252.805C392.718 252.803 392.72 252.801 392.722 252.801C392.724 252.801 392.726 252.799 392.726 252.796V252.006V191.766C392.726 186.356 389.301 181.538 384.191 179.761L333.836 162.253Z" fill="#141922"/>
<path d="M384.191 179.761L383.862 180.706L384.191 179.761ZM392.718 252.805L393.717 252.827L392.718 252.805ZM266.606 252.805L265.607 252.827L266.606 252.805ZM325.488 162.253L325.16 161.309L325.488 162.253ZM333.836 162.253L333.508 163.198L333.836 162.253ZM335.251 319.638L334.755 318.769L335.251 319.638ZM275.133 179.761L275.462 180.706L275.133 179.761ZM275.462 180.706L325.816 163.198L325.16 161.309L274.805 178.817L275.462 180.706ZM267.598 252.006V191.766H265.598V252.006H267.598ZM267.598 252.796V252.006H265.598V252.796H267.598ZM324.569 318.769C316.949 314.416 302.833 305.634 290.549 294.038C278.23 282.409 267.944 268.128 267.606 252.783L265.607 252.827C265.963 269.005 276.759 283.77 289.176 295.492C301.626 307.245 315.897 316.118 323.577 320.506L324.569 318.769ZM391.718 252.783C391.38 268.128 381.094 282.409 368.775 294.038C356.491 305.634 342.375 314.416 334.755 318.769L335.747 320.506C343.427 316.118 357.698 307.245 370.148 295.492C382.565 283.77 393.362 269.005 393.717 252.827L391.718 252.783ZM391.726 252.006V252.796H393.726V252.006H391.726ZM391.726 191.766V252.006H393.726V191.766H391.726ZM333.508 163.198L383.862 180.706L384.519 178.817L334.164 161.309L333.508 163.198ZM393.726 191.766C393.726 185.93 390.032 180.733 384.519 178.817L383.862 180.706C388.571 182.343 391.726 186.781 391.726 191.766H393.726ZM392.722 253.801C393.277 253.801 393.726 253.351 393.726 252.796H391.726C391.726 252.246 392.172 251.801 392.722 251.801V253.801ZM393.717 252.827C393.706 253.363 393.268 253.801 392.722 253.801V251.801C392.171 251.801 391.73 252.242 391.718 252.783L393.717 252.827ZM266.602 253.801C266.055 253.801 265.618 253.363 265.607 252.827L267.606 252.783C267.594 252.242 267.154 251.801 266.602 251.801V253.801ZM265.598 252.796C265.598 253.351 266.047 253.801 266.602 253.801V251.801C267.152 251.801 267.598 252.246 267.598 252.796H265.598ZM325.816 163.198C328.307 162.332 331.017 162.332 333.508 163.198L334.164 161.309C331.248 160.295 328.076 160.295 325.16 161.309L325.816 163.198ZM323.577 320.506C327.369 322.672 331.955 322.672 335.747 320.506L334.755 318.769C331.578 320.584 327.746 320.584 324.569 318.769L323.577 320.506ZM274.805 178.817C269.292 180.733 265.598 185.93 265.598 191.766H267.598C267.598 186.781 270.753 182.343 275.462 180.706L274.805 178.817Z" fill="white" mask="url(#path-8-outside-3_5641_6309)"/>
<path d="M351.667 266H308.333C305.94 266 304 264.069 304 261.688V225.031C304 222.649 305.94 220.719 308.333 220.719H314.833V212.094C314.833 203.758 321.624 197 330 197C338.376 197 345.167 203.758 345.167 212.094V220.719H351.667C354.06 220.719 356 222.649 356 225.031V261.688C356 264.069 354.06 266 351.667 266ZM327.833 244.041V253.063H332.167V244.041C334.686 243.15 336.5 240.781 336.5 237.969C336.5 234.396 333.59 231.5 330 231.5C326.41 231.5 323.5 234.396 323.5 237.969C323.5 240.781 325.314 243.15 327.833 244.041ZM338.667 212.094C338.667 207.33 334.786 203.469 330 203.469C325.214 203.469 321.333 207.33 321.333 212.094V220.719H338.667L338.667 212.094Z" fill="url(#paint3_linear_5641_6309)"/>
</g>
<rect x="0.5" y="0.699707" width="1319" height="514" rx="31.5" stroke="#312F2F"/>
<defs>
<linearGradient id="paint0_linear_5641_6309" x1="680.03" y1="133.799" x2="669.5" y2="496" gradientUnits="userSpaceOnUse">
<stop stop-color="#112A3A"/>
<stop offset="0.485" stop-color="#214F6E"/>
<stop offset="1" stop-color="#00131A"/>
</linearGradient>
<linearGradient id="paint1_linear_5641_6309" x1="329.653" y1="113.51" x2="329.653" y2="415.366" gradientUnits="userSpaceOnUse">
<stop stop-color="#00F0FF"/>
<stop offset="1" stop-color="#FF6F43"/>
</linearGradient>
<linearGradient id="paint2_linear_5641_6309" x1="329.595" y1="101" x2="329.595" y2="400.59" gradientUnits="userSpaceOnUse">
<stop stop-color="#00F0FF"/>
<stop offset="1" stop-color="#FF6F43"/>
</linearGradient>
<linearGradient id="paint3_linear_5641_6309" x1="338" y1="265.799" x2="367.918" y2="232.995" gradientUnits="userSpaceOnUse">
<stop stop-color="#FFD3C6"/>
<stop offset="1" stop-color="white"/>
</linearGradient>
<clipPath id="clip0_5641_6309">
<rect y="0.199707" width="1320" height="515" rx="32" fill="white"/>
</clipPath>
</defs>
</svg>
