<svg width="214" height="206" viewBox="0 0 214 206" fill="none" xmlns="http://www.w3.org/2000/svg">
<circle cx="102.544" cy="102.544" r="102.43" transform="matrix(-1 0 0 1 205.088 0)" fill="url(#paint0_linear_5840_16936)" stroke="white" stroke-width="0.227876"/>
<circle cx="102.544" cy="102.544" r="102.43" transform="matrix(-1 0 0 1 213.291 0.911621)" fill="url(#paint1_linear_5840_16936)" stroke="white" stroke-width="0.227876"/>
<g clip-path="url(#clip0_5840_16936)">
<path d="M199.07 -3.19189H7.18164V196.587H199.07V-3.19189Z" fill="url(#paint2_linear_5840_16936)"/>
<path d="M135.305 150.251C143.487 154.718 159.856 175.701 160.362 191.837C160.868 207.973 154.618 209.909 147.916 208.882C146.74 208.293 145.179 208.419 144.656 206.035" fill="white"/>
<path d="M135.305 150.251C143.487 154.718 159.856 175.701 160.362 191.837C160.868 207.973 154.618 209.909 147.916 208.882C146.74 208.293 145.179 208.419 144.656 206.035" stroke="#FF9900" stroke-width="2.2422" stroke-linecap="round"/>
<mask id="mask0_5840_16936" style="mask-type:luminance" maskUnits="userSpaceOnUse" x="133" y="149" width="27" height="60">
<mask id="path-7-inside-1_5840_16936" fill="white">
<path d="M133.399 149.954C141.433 154.101 157.992 174.435 159.135 190.541C160.278 206.647 154.356 208.82 147.884 208.054C146.732 207.509 145.239 207.697 144.641 205.336"/>
</mask>
<path d="M133.399 149.954C141.433 154.101 157.992 174.435 159.135 190.541C160.278 206.647 154.356 208.82 147.884 208.054C146.732 207.509 145.239 207.697 144.641 205.336" fill="white"/>
<path d="M147.884 208.054L147.856 208.287L147.818 208.282L147.784 208.266L147.884 208.054ZM133.506 149.746C135.547 150.799 138.109 152.868 140.816 155.616C143.526 158.367 146.393 161.812 149.044 165.629C154.34 173.258 158.793 182.41 159.369 190.524L158.901 190.558C158.334 182.567 153.936 173.498 148.659 165.897C146.022 162.099 143.172 158.676 140.482 155.945C137.788 153.21 135.267 151.182 133.291 150.162L133.506 149.746ZM159.369 190.524C159.941 198.591 158.753 203.244 156.542 205.778C154.318 208.328 151.117 208.672 147.856 208.287L147.911 207.821C151.123 208.201 154.12 207.842 156.189 205.47C158.271 203.083 159.472 198.596 158.901 190.558L159.369 190.524ZM147.784 208.266C147.514 208.138 147.224 208.053 146.906 207.955C146.595 207.859 146.262 207.752 145.944 207.582C145.288 207.232 144.727 206.631 144.413 205.393L144.868 205.278C145.152 206.402 145.637 206.887 146.165 207.169C146.439 207.316 146.733 207.411 147.044 207.507C147.349 207.601 147.677 207.697 147.984 207.842L147.784 208.266Z" fill="white" mask="url(#path-7-inside-1_5840_16936)"/>
</mask>
<g mask="url(#mask0_5840_16936)">
<path d="M156.005 184.838C156.005 184.838 155.64 184.582 155.006 184.272C152.771 183.182 147.176 181.424 142.191 187.794C135.79 195.974 138.51 234.289 156.542 220.836C174.57 207.388 171.434 187.34 171.434 187.34L172.834 164.712L167.745 170.92" fill="white"/>
</g>
<path d="M112.363 235.64C93.3811 235.64 77.9933 214.133 77.9933 187.602C77.9933 161.071 93.3811 139.563 112.363 139.563C131.345 139.563 146.732 161.071 146.732 187.602C146.732 214.133 131.345 235.64 112.363 235.64Z" fill="white"/>
<mask id="path-11-inside-2_5840_16936" fill="white">
<path d="M91.7031 145.194C84.088 149.09 60.5684 173.999 60.3934 190.95C60.1047 218.895 79.4465 209.396 78.0768 204.558C78.0768 204.558 80.6365 198.487 80.2438 196.749C79.8511 195.01 77.1329 182.252 81.0789 177.293"/>
</mask>
<path d="M91.7031 145.194C84.088 149.09 60.5684 173.999 60.3934 190.95C60.1047 218.895 79.4465 209.396 78.0768 204.558C78.0768 204.558 80.6365 198.487 80.2438 196.749C79.8511 195.01 77.1329 182.252 81.0789 177.293" fill="white"/>
<path d="M60.3934 190.95L60.6276 190.952L60.3934 190.95ZM78.0768 204.558L77.8514 204.622L77.829 204.543L77.861 204.467L78.0768 204.558ZM91.8098 145.403C89.9382 146.36 87.0609 148.627 83.7852 151.772C80.5148 154.912 76.8631 158.912 73.4433 163.32C70.0231 167.728 66.8384 172.539 64.4987 177.3C62.1577 182.065 60.6709 186.764 60.6276 190.952L60.1591 190.948C60.2034 186.66 61.7222 181.889 64.0782 177.094C66.4357 172.296 69.6396 167.458 73.0731 163.033C76.507 158.607 80.1739 154.59 83.4607 151.434C86.7422 148.284 89.6605 145.976 91.5964 144.986L91.8098 145.403ZM60.6276 190.952C60.5557 197.916 61.7078 202.514 63.4289 205.427C65.1445 208.33 67.4288 209.566 69.6663 209.815C71.9154 210.064 74.1396 209.317 75.7165 208.211C76.5044 207.658 77.1206 207.022 77.497 206.389C77.8744 205.754 77.9992 205.144 77.8514 204.622L78.3022 204.494C78.4968 205.182 78.3169 205.927 77.8998 206.628C77.4817 207.331 76.8138 208.013 75.9856 208.594C74.3301 209.756 71.9938 210.544 69.6147 210.28C67.2241 210.015 64.8126 208.689 63.0256 205.665C61.244 202.65 60.0867 197.956 60.1591 190.948L60.6276 190.952ZM78.0768 204.558C77.861 204.467 77.861 204.467 77.861 204.467C77.861 204.467 77.861 204.467 77.861 204.467C77.8611 204.467 77.8612 204.467 77.8614 204.466C77.8617 204.465 77.8621 204.464 77.8627 204.463C77.8639 204.46 77.8657 204.456 77.8681 204.45C77.8728 204.439 77.8799 204.422 77.8891 204.4C77.9076 204.355 77.9348 204.29 77.9692 204.205C78.038 204.037 78.1361 203.794 78.2525 203.497C78.4855 202.903 78.7919 202.093 79.0858 201.23C79.38 200.366 79.6603 199.453 79.8424 198.65C79.9335 198.249 79.9991 197.88 80.0303 197.561C80.0617 197.238 80.0563 196.982 80.0153 196.8L80.4723 196.697C80.5294 196.95 80.5299 197.264 80.4966 197.606C80.4629 197.952 80.393 198.342 80.2993 198.754C80.112 199.579 79.8259 200.51 79.5293 201.381C79.2324 202.253 78.9234 203.069 78.6887 203.668C78.5713 203.967 78.4725 204.212 78.4029 204.383C78.3681 204.468 78.3406 204.534 78.3218 204.579C78.3124 204.602 78.3051 204.619 78.3002 204.631C78.2978 204.637 78.2959 204.641 78.2946 204.644C78.294 204.646 78.2935 204.647 78.2932 204.648C78.293 204.648 78.2929 204.649 78.2928 204.649C78.2928 204.649 78.2927 204.649 78.2927 204.649C78.2927 204.649 78.2927 204.649 78.0768 204.558ZM80.0153 196.8C79.8178 195.926 79.0369 192.288 78.8005 188.242C78.6822 186.22 78.6996 184.088 78.9969 182.145C79.2937 180.206 79.8727 178.432 80.8955 177.147L81.2622 177.439C80.312 178.633 79.7511 180.314 79.46 182.216C79.1695 184.115 79.151 186.211 79.2682 188.215C79.5025 192.223 80.277 195.833 80.4723 196.697L80.0153 196.8Z" fill="#FF9900" mask="url(#path-11-inside-2_5840_16936)"/>
<mask id="mask1_5840_16936" style="mask-type:luminance" maskUnits="userSpaceOnUse" x="60" y="145" width="32" height="66">
<mask id="path-13-inside-3_5840_16936" fill="white">
<path d="M91.7031 145.193C84.088 149.088 60.5684 173.997 60.3934 190.949C60.1047 218.893 79.4465 209.394 78.0768 204.557C78.0768 204.557 80.6365 198.486 80.2438 196.747C79.8511 195.008 77.1329 182.251 81.0789 177.291"/>
</mask>
<path d="M91.7031 145.193C84.088 149.088 60.5684 173.997 60.3934 190.949C60.1047 218.893 79.4465 209.394 78.0768 204.557C78.0768 204.557 80.6365 198.486 80.2438 196.747C79.8511 195.008 77.1329 182.251 81.0789 177.291" fill="white"/>
<path d="M60.3934 190.949L60.6276 190.951L60.3934 190.949ZM78.0768 204.557L77.8514 204.621L77.829 204.541L77.861 204.466L78.0768 204.557ZM91.8098 145.401C89.9382 146.359 87.0609 148.626 83.7852 151.771C80.5148 154.911 76.8631 158.911 73.4433 163.318C70.0231 167.726 66.8384 172.537 64.4987 177.299C62.1577 182.064 60.6709 186.763 60.6276 190.951L60.1591 190.946C60.2034 186.659 61.7222 181.888 64.0782 177.092C66.4357 172.294 69.6396 167.456 73.0731 163.031C76.507 158.606 80.1739 154.589 83.4607 151.433C86.7422 148.282 89.6605 145.975 91.5964 144.984L91.8098 145.401ZM60.6276 190.951C60.5557 197.915 61.7079 202.513 63.4289 205.425C65.1445 208.328 67.4288 209.565 69.6663 209.813C71.9154 210.063 74.1396 209.316 75.7165 208.209C76.5044 207.656 77.1206 207.02 77.497 206.387C77.8744 205.753 77.9992 205.143 77.8514 204.621L78.3022 204.493C78.4968 205.18 78.3169 205.925 77.8998 206.627C77.4817 207.33 76.8138 208.012 75.9856 208.593C74.3301 209.754 71.9938 210.543 69.6147 210.279C67.2241 210.013 64.8126 208.688 63.0256 205.663C61.244 202.649 60.0867 197.955 60.1591 190.946L60.6276 190.951ZM78.0768 204.557C77.861 204.466 77.861 204.466 77.861 204.466C77.861 204.466 77.861 204.466 77.861 204.465C77.8611 204.465 77.8612 204.465 77.8614 204.465C77.8617 204.464 77.8621 204.463 77.8627 204.462C77.8639 204.459 77.8657 204.454 77.8681 204.449C77.8728 204.437 77.8799 204.42 77.8891 204.398C77.9076 204.354 77.9348 204.288 77.9692 204.204C78.038 204.035 78.1361 203.792 78.2525 203.495C78.4855 202.901 78.7919 202.091 79.0858 201.228C79.38 200.364 79.6603 199.451 79.8424 198.649C79.9335 198.248 79.9991 197.878 80.0303 197.559C80.0617 197.236 80.0563 196.98 80.0153 196.799L80.4723 196.695C80.5294 196.949 80.5299 197.262 80.4966 197.605C80.4629 197.95 80.393 198.34 80.2993 198.753C80.112 199.578 79.8259 200.508 79.5293 201.379C79.2324 202.251 78.9234 203.068 78.6887 203.666C78.5713 203.966 78.4725 204.211 78.4029 204.381C78.3681 204.466 78.3406 204.533 78.3218 204.578C78.3124 204.601 78.3051 204.618 78.3002 204.63C78.2978 204.636 78.2959 204.64 78.2946 204.643C78.294 204.645 78.2935 204.646 78.2932 204.646C78.293 204.647 78.2929 204.647 78.2928 204.647C78.2928 204.647 78.2927 204.648 78.2927 204.648C78.2927 204.648 78.2927 204.648 78.0768 204.557ZM80.0153 196.799C79.8178 195.925 79.0369 192.286 78.8005 188.241C78.6822 186.218 78.6996 184.086 78.9969 182.144C79.2937 180.204 79.8727 178.431 80.8955 177.145L81.2622 177.437C80.312 178.631 79.7511 180.312 79.46 182.215C79.1695 184.113 79.151 186.209 79.2682 188.213C79.5025 192.221 80.277 195.831 80.4723 196.695L80.0153 196.799Z" fill="white" mask="url(#path-13-inside-3_5840_16936)"/>
</mask>
<g mask="url(#mask1_5840_16936)">
<mask id="path-15-inside-4_5840_16936" fill="white">
<path d="M53.3362 188.771C53.3362 188.771 53.5113 188.743 53.8259 188.698C56.2247 188.355 66.7189 187.087 69.2809 190.693C72.1812 194.772 80.6362 188.055 80.6362 188.055C80.6362 188.055 96.0983 216.728 71.6963 217.087C47.2943 217.446 46.5704 198.251 46.5704 198.251"/>
</mask>
<path d="M53.3362 188.771C53.3362 188.771 53.5113 188.743 53.8259 188.698C56.2247 188.355 66.7189 187.087 69.2809 190.693C72.1812 194.772 80.6362 188.055 80.6362 188.055C80.6362 188.055 96.0983 216.728 71.6963 217.087C47.2943 217.446 46.5704 198.251 46.5704 198.251" fill="white"/>
<path d="M53.8259 188.698L53.8591 188.93L53.8588 188.93L53.8259 188.698ZM69.2809 190.693L69.09 190.829L69.0899 190.829L69.2809 190.693ZM80.6362 188.055L80.4905 187.871L80.7095 187.697L80.8424 187.943L80.6362 188.055ZM53.3362 188.771C53.299 188.54 53.299 188.54 53.299 188.54C53.299 188.54 53.299 188.54 53.299 188.54C53.299 188.54 53.299 188.54 53.299 188.54C53.2991 188.54 53.2991 188.54 53.2992 188.54C53.2993 188.54 53.2994 188.54 53.2996 188.54C53.3 188.54 53.3005 188.54 53.3013 188.54C53.3027 188.539 53.3048 188.539 53.3076 188.539C53.3132 188.538 53.3214 188.536 53.3322 188.535C53.3539 188.531 53.386 188.526 53.4279 188.52C53.5117 188.507 53.6349 188.489 53.793 188.467L53.8588 188.93C53.7023 188.953 53.5807 188.971 53.4983 188.983C53.4571 188.989 53.4257 188.994 53.4047 188.998C53.3942 188.999 53.3863 189 53.3811 189.001C53.3785 189.002 53.3765 189.002 53.3753 189.002C53.3746 189.002 53.3742 189.002 53.3739 189.002C53.3737 189.003 53.3736 189.003 53.3735 189.003C53.3735 189.003 53.3735 189.003 53.3735 189.003C53.3735 189.003 53.3735 189.003 53.3735 189.003C53.3735 189.003 53.3735 189.003 53.3735 189.003C53.3735 189.003 53.3735 189.003 53.3362 188.771ZM53.7928 188.467C54.9967 188.294 58.2353 187.889 61.4987 187.981C63.1299 188.026 64.7779 188.196 66.1851 188.586C67.5869 188.974 68.7854 189.591 69.4719 190.557L69.0899 190.829C68.4954 189.992 67.4214 189.415 66.06 189.038C64.704 188.662 63.0981 188.494 61.4856 188.449C58.2618 188.359 55.0539 188.759 53.8591 188.93L53.7928 188.467ZM69.4718 190.557C70.1377 191.494 71.1216 191.821 72.2678 191.768C73.423 191.714 74.7189 191.271 75.9461 190.692C77.1697 190.114 78.3064 189.409 79.1386 188.846C79.5543 188.566 79.8931 188.321 80.1276 188.147C80.2449 188.06 80.336 187.991 80.3976 187.943C80.4284 187.92 80.4519 187.902 80.4675 187.889C80.4753 187.883 80.4811 187.879 80.485 187.876C80.4869 187.874 80.4883 187.873 80.4892 187.872C80.4897 187.872 80.49 187.872 80.4902 187.871C80.4903 187.871 80.4904 187.871 80.4904 187.871C80.4905 187.871 80.4905 187.871 80.6362 188.055C80.7819 188.238 80.7818 188.238 80.7817 188.238C80.7816 188.238 80.7815 188.238 80.7813 188.239C80.781 188.239 80.7806 188.239 80.78 188.24C80.7789 188.24 80.7772 188.242 80.7751 188.243C80.7708 188.247 80.7645 188.252 80.7562 188.258C80.7396 188.271 80.7152 188.29 80.6834 188.315C80.6197 188.364 80.5264 188.435 80.4068 188.523C80.1676 188.701 79.8232 188.949 79.4009 189.235C78.5572 189.804 77.3989 190.524 76.1462 191.115C74.8971 191.705 73.5355 192.177 72.2897 192.236C71.0349 192.294 69.8742 191.932 69.09 190.829L69.4718 190.557ZM80.6362 188.055C80.8424 187.943 80.8425 187.944 80.8426 187.944C80.8427 187.944 80.8429 187.945 80.8432 187.945C80.8437 187.946 80.8445 187.947 80.8455 187.949C80.8474 187.953 80.8503 187.958 80.8541 187.965C80.8616 187.98 80.8727 188 80.8872 188.028C80.9161 188.083 80.9584 188.164 81.0125 188.27C81.1206 188.482 81.2757 188.792 81.4642 189.186C81.8412 189.975 82.3521 191.101 82.8886 192.454C83.9606 195.157 85.1388 198.774 85.5497 202.41C85.9601 206.041 85.6093 209.729 83.5775 212.536C81.538 215.355 77.8459 217.231 71.6997 217.321L71.6928 216.853C77.7476 216.764 81.2736 214.921 83.1979 212.262C85.13 209.592 85.4891 206.044 85.0842 202.462C84.6798 198.885 83.5177 195.311 82.4531 192.627C81.9212 191.286 81.4148 190.169 81.0415 189.388C80.8549 188.998 80.7017 188.692 80.5952 188.483C80.542 188.379 80.5005 188.299 80.4724 188.246C80.4584 188.219 80.4477 188.199 80.4405 188.186C80.4369 188.179 80.4343 188.174 80.4325 188.171C80.4316 188.169 80.431 188.168 80.4305 188.167C80.4303 188.167 80.4302 188.166 80.4301 188.166C80.43 188.166 80.43 188.166 80.6362 188.055ZM71.6997 217.321C59.4257 217.502 53.0675 212.759 49.7888 207.936C48.154 205.53 47.2915 203.115 46.8375 201.302C46.6104 200.395 46.4853 199.637 46.4168 199.105C46.3826 198.839 46.3625 198.63 46.351 198.486C46.3452 198.414 46.3415 198.358 46.3393 198.32C46.3382 198.301 46.3375 198.286 46.337 198.276C46.3368 198.271 46.3366 198.268 46.3365 198.265C46.3364 198.263 46.3364 198.262 46.3363 198.262C46.3363 198.261 46.3363 198.261 46.3363 198.261C46.3363 198.26 46.3363 198.26 46.5704 198.251C46.8045 198.243 46.8045 198.242 46.8045 198.242C46.8045 198.243 46.8045 198.243 46.8045 198.243C46.8045 198.243 46.8045 198.244 46.8046 198.245C46.8046 198.247 46.8048 198.25 46.805 198.254C46.8054 198.263 46.806 198.275 46.8071 198.293C46.8091 198.327 46.8125 198.38 46.818 198.448C46.829 198.585 46.8483 198.787 46.8815 199.046C46.9479 199.562 47.07 200.301 47.292 201.188C47.7363 202.963 48.5799 205.324 50.1763 207.672C53.3601 212.356 59.5648 217.031 71.6928 216.853L71.6997 217.321Z" fill="#FF9900" mask="url(#path-15-inside-4_5840_16936)"/>
</g>
<path d="M91.7031 145.194C84.088 149.09 60.5684 173.999 60.3934 190.95C60.1047 218.895 79.4465 209.396 78.0768 204.558" fill="white"/>
<path d="M91.7031 145.194C84.088 149.09 60.5684 173.999 60.3934 190.95C60.1047 218.895 79.4465 209.396 78.0768 204.558" stroke="#FF9900" stroke-width="2.34258" stroke-linecap="round"/>
<path d="M133.027 152.751C136.188 157.652 148.923 183.431 145.191 202.04C142.702 225.088 139.856 224.092 141.041 227.457C141.398 228.786 141.921 228.725 143.937 230.346C145.548 231.643 145.546 237.714 145.191 240.04H116.504" fill="white"/>
<path d="M133.027 152.751C136.188 157.652 148.923 183.431 145.191 202.04C142.702 225.088 139.856 224.092 141.041 227.457C141.398 228.786 141.921 228.725 143.937 230.346C145.548 231.643 145.546 237.714 145.191 240.04H116.504" stroke="#FF9900" stroke-width="2.34258" stroke-linecap="round"/>
<path d="M94.0388 152.751C90.7978 156.278 82.8029 171.763 79.6093 182.187L94.0388 152.751ZM112.485 211.389L111.494 229.395C107.103 228.812 104.953 228.998 110.564 230.145C120.356 232.144 117.64 237.731 116.296 240.273H79.6093C79.6093 228.93 78.8877 218.461 78.8877 203.502" fill="white"/>
<path d="M94.0388 152.751C90.7978 156.278 82.8029 171.763 79.6093 182.187M112.485 211.389L111.494 229.395C107.103 228.812 104.953 228.998 110.564 230.145C120.356 232.144 117.64 237.731 116.296 240.273H79.6093C79.6093 228.93 78.8877 218.461 78.8877 203.502" stroke="#FF9900" stroke-width="2.34258" stroke-linecap="round" stroke-linejoin="round"/>
<path d="M79.6407 182.128C79.4372 183.627 78.5666 186.921 78.6045 188.023C78.7535 192.266 83.6292 195.445 79.9387 202.326C78.9239 203.936 76.7025 206.72 74.9779 202.218L75.1695 197.651" fill="white"/>
<path d="M79.6407 182.128C79.4372 183.627 78.5666 186.921 78.6045 188.023C78.7535 192.266 83.6292 195.445 79.9387 202.326C78.9239 203.936 76.7025 206.72 74.9779 202.218L75.1695 197.651" stroke="#FF9900" stroke-width="2.34258" stroke-linecap="round"/>
<path d="M161.606 90.7309C161.609 90.7415 161.612 90.7504 161.614 90.7559L161.615 90.7641L161.623 90.7862C169.749 115.612 165.192 128.396 164.907 129.096L164.9 129.113L164.895 129.13C164.894 129.133 164.894 129.134 164.893 129.135C164.893 129.136 164.893 129.136 164.893 129.136L164.887 129.147L164.881 129.158C161.311 136.525 154.771 141.907 147.532 145.817C140.297 149.725 132.396 152.145 126.158 153.602C118.81 155.317 111.217 155.666 103.737 154.659C97.0796 153.763 88.3627 152.029 80.2528 148.684C72.1399 145.337 64.6786 140.396 60.4668 133.112L60.4704 133.11L60.4701 133.11C60.4582 133.085 60.0866 132.31 59.631 130.758C59.1692 129.185 58.623 126.819 58.2791 123.64C57.5915 117.284 57.7118 107.67 60.936 94.6255C60.9444 94.5964 60.9544 94.5545 60.9569 94.504C60.9597 94.4465 60.9518 94.3991 60.9459 94.3694L60.9417 94.3484L60.9352 94.328L60.9323 94.3186C60.7504 93.7451 58.4298 86.4249 57.1007 77.508C56.4323 73.0237 56.0162 68.1458 56.2458 63.5253C56.4722 58.9718 57.3243 54.6964 59.156 51.2968C60.3279 51.7055 64.6949 53.2822 69.4811 55.6713C74.5837 58.2182 80.0822 61.65 82.7473 65.5244C82.9509 65.8222 83.3484 65.8448 83.5961 65.6623L83.5961 65.6623L83.5989 65.6602C84.4288 65.0369 89.5504 61.9584 110.122 61.1225C129.732 60.423 135.986 63.1793 136.952 63.6781L136.951 63.6783L136.964 63.6843C137.212 63.8012 137.555 63.7444 137.723 63.453C140.089 59.3804 145.325 55.5322 150.234 52.5981C154.837 49.846 159.084 47.9375 160.222 47.4413C162.3 50.6936 163.464 54.8941 164.024 59.4197C164.592 64.0098 164.534 68.9056 164.196 73.4282C163.523 82.4364 161.739 89.9232 161.604 90.4892C161.593 90.5305 161.587 90.5738 161.589 90.6181C161.59 90.6668 161.599 90.706 161.606 90.7309ZM60.3186 133.192L60.1394 133.296L60.1273 133.296L60.3186 133.192Z" fill="white" stroke="#FF9900" stroke-width="0.778845"/>
<path d="M158.313 53.2594C158.281 53.1092 158.103 53.0539 158.003 53.1665C156.742 54.6717 150.676 61.9117 146.756 66.147C145.269 67.7589 145.223 70.4324 146.659 72.0807L154.342 80.9245C154.446 81.0468 154.891 81.0991 155.015 80.9876C156.56 79.621 162.23 73.0743 158.313 53.2594Z" fill="white" stroke="#FF9900" stroke-width="2.24185" stroke-miterlimit="10" stroke-linecap="round" stroke-linejoin="round"/>
<path d="M68.8981 82.9206C69.0355 83.0053 69.4669 82.8692 69.5444 82.732L76.3117 71.0484C76.9397 69.9592 76.6193 68.4886 75.5856 67.7669C71.1777 64.6714 62.3849 57.5426 60.6991 56.1719C60.5857 56.0805 60.4159 56.1742 60.4164 56.3229C60.3286 76.5222 67.1333 81.8748 68.8981 82.9206Z" fill="white" stroke="#FF9900" stroke-width="2.24185" stroke-miterlimit="10" stroke-linecap="round" stroke-linejoin="round"/>
<path d="M161.558 90.697C161.544 90.665 161.537 90.6491 161.547 90.6182C161.794 89.5814 168.399 61.8962 160.625 48.1384C160.401 47.7365 159.137 47.3479 158.59 47.5958C154.339 49.5382 141.185 55.9958 136.946 63.299C136.894 63.3905 136.783 63.4165 136.69 63.373C135.639 62.8301 129.306 60.0725 109.66 60.7679C89.0711 61.5986 83.8435 64.6762 82.9119 65.3754C82.8221 65.4416 82.6812 65.4271 82.6151 65.3301C78.363 59.1498 67.1654 54.1738 61.6608 52.0111C60.6033 51.5931 59.2882 51.9298 58.786 52.2189C58.2917 52.5085 57.3225 53.3311 57.0196 54.2088C51.9833 68.9003 59.793 93.443 60.1128 94.4598C60.1191 94.4914 60.1184 94.507 60.1086 94.5457C53.641 120.719 59.6217 133.187 59.6866 133.307C59.6866 133.307 59.6866 133.307 59.6862 133.315C68.2365 148.096 89.9071 153.264 103.26 155.071C110.788 156.086 118.431 155.736 125.827 154.013C138.326 151.101 157.508 144.334 164.773 129.451C164.807 129.383 164.851 129.291 164.871 129.213C165.37 127.868 169.521 115.02 161.558 90.697Z" fill="white" stroke="#FF9900" stroke-width="2.24185" stroke-miterlimit="10" stroke-linecap="round" stroke-linejoin="round"/>
<path d="M157.685 52.9775C157.654 52.8304 157.48 52.7761 157.382 52.8865C156.146 54.3612 150.203 61.4545 146.363 65.604C144.906 67.1832 144.861 69.8026 146.267 71.4175L153.795 80.0822C153.896 80.2019 154.333 80.2532 154.454 80.144C155.968 78.8051 161.523 72.391 157.685 52.9775Z" fill="#FF9900"/>
<path d="M58.0898 110.193C68.9793 107.223 97.7077 101.759 119.566 101.284C141.424 100.808 158.965 104.752 164.905 106.732" stroke="#FF9900" stroke-width="2.24185" stroke-miterlimit="10" stroke-linecap="round" stroke-linejoin="round"/>
<path d="M67.5937 82.3076C66.6038 94.385 67.594 126.261 75.3155 139.923" stroke="#FF9900" stroke-width="2.24185" stroke-miterlimit="10" stroke-linecap="round" stroke-linejoin="round"/>
<path d="M77.9889 187.737C74.3261 186.945 65.6937 185.836 60.4668 187.737M145.108 187.737C147.682 186.945 153.958 185.42 158.472 185.658" stroke="#FF9900" stroke-width="2.24185" stroke-miterlimit="10" stroke-linecap="round" stroke-linejoin="round"/>
<path d="M109.756 60.8711C115.438 66.8847 122.675 91.5536 120.617 116.811" stroke="#FF9900" stroke-width="2.24185" stroke-miterlimit="10" stroke-linecap="round" stroke-linejoin="round"/>
<path d="M67.5625 141.462C84.3982 137.69 126.235 131.517 158.899 136.996" stroke="#FF9900" stroke-width="2.24185" stroke-miterlimit="10" stroke-linecap="round" stroke-linejoin="round"/>
<path d="M154.313 81.1216C158.47 106.068 159.361 119.136 151.937 135.767M70.4316 167.739C73.4015 168.927 80.4386 171.954 82.1017 174.805M142.433 174.078C143.621 172.494 146.829 168.851 150.155 166.95" stroke="#FF9900" stroke-width="2.24185" stroke-miterlimit="10" stroke-linecap="round" stroke-linejoin="round"/>
<path d="M73.2353 57.3626L69.0775 62.1143M55.1191 67.7571H60.7619M145.983 55.8047L150.451 60.0354M159.064 64.1932H162.925" stroke="#FF9900" stroke-width="2.24185" stroke-miterlimit="10" stroke-linecap="round" stroke-linejoin="round"/>
<path d="M68.1875 82.3093C84.7692 77.7555 124.882 70.9348 152.68 80.0819" stroke="#FF9900" stroke-width="2.24185" stroke-miterlimit="10" stroke-linecap="round" stroke-linejoin="round"/>
<path d="M88.9746 163.387L105.012 169.029L108.576 177.642M137.68 164.872L128.771 169.029L126.098 177.642" stroke="#FF9900" stroke-width="2.24185" stroke-miterlimit="10" stroke-linecap="round" stroke-linejoin="round"/>
<path d="M80.3633 179.424L114.517 195.164L124.229 194.385L143.7 181.687" stroke="#FF9900" stroke-width="2.24185" stroke-miterlimit="10" stroke-linecap="round" stroke-linejoin="round"/>
<path d="M102.637 136.36C103.231 140.221 102.637 149.427 100.559 153.882M135.9 134.875C135.999 138.34 135.722 146.398 133.821 150.912" stroke="#FF9900" stroke-width="2.24185" stroke-miterlimit="10" stroke-linecap="round" stroke-linejoin="round"/>
<circle cx="72.9384" cy="87.2084" r="2.37588" fill="white" stroke="#FF9900" stroke-width="2.24185" stroke-miterlimit="10" stroke-linecap="round" stroke-linejoin="round"/>
<circle cx="148.966" cy="84.8319" r="2.37588" fill="white" stroke="#FF9900" stroke-width="2.24185" stroke-miterlimit="10" stroke-linecap="round" stroke-linejoin="round"/>
<circle cx="97.1435" cy="142.001" r="2.37588" fill="white" stroke="#FF9900" stroke-width="2.24185" stroke-miterlimit="10" stroke-linecap="round" stroke-linejoin="round"/>
<circle cx="140.802" cy="140.517" r="2.37588" fill="white" stroke="#FF9900" stroke-width="2.24185" stroke-miterlimit="10" stroke-linecap="round" stroke-linejoin="round"/>
<circle cx="71.8017" cy="174.836" r="2.37588" fill="white" stroke="#FF9900" stroke-width="2.24185" stroke-miterlimit="10" stroke-linecap="round" stroke-linejoin="round"/>
<circle cx="149.677" cy="175.146" r="2.37588" fill="white" stroke="#FF9900" stroke-width="2.24185" stroke-miterlimit="10" stroke-linecap="round" stroke-linejoin="round"/>
<path d="M70.5664 122.5C81.6938 118.996 126.948 112.964 155.74 118.28" stroke="#FF9900" stroke-width="2.24232" stroke-linecap="round"/>
<path d="M121.667 112.754C121.96 112.368 122.268 112.018 122.598 111.704C122.885 111.446 123.211 111.213 123.578 110.993C123.944 110.779 124.328 110.675 124.735 110.689C125.311 110.717 125.789 110.833 126.181 111.042C126.574 111.252 126.887 111.528 127.127 111.858C127.367 112.194 127.535 112.578 127.637 113.006C127.738 113.439 127.781 113.881 127.77 114.338C127.76 114.795 127.697 115.238 127.578 115.661C127.458 116.084 127.31 116.476 127.123 116.849C126.936 117.217 126.733 117.56 126.502 117.873C126.277 118.187 126.047 118.477 125.813 118.732C125.456 119.12 125.088 119.485 124.699 119.825C124.309 120.165 123.939 120.46 123.583 120.704C123.227 120.953 122.903 121.146 122.61 121.294C122.317 121.442 122.086 121.518 121.916 121.527C121.735 121.542 121.492 121.489 121.201 121.36C120.91 121.236 120.592 121.058 120.241 120.839C119.891 120.619 119.525 120.353 119.131 120.05C118.738 119.742 118.357 119.416 117.972 119.074C117.726 118.853 117.453 118.597 117.169 118.305C116.88 118.014 116.61 117.694 116.354 117.34C116.097 116.986 115.87 116.604 115.681 116.19C115.491 115.775 115.379 115.33 115.338 114.853C115.303 114.377 115.336 113.932 115.438 113.509C115.54 113.091 115.71 112.711 115.937 112.369C116.163 112.032 116.451 111.739 116.789 111.506C117.133 111.268 117.52 111.096 117.957 110.989C118.175 110.936 118.398 110.918 118.618 110.946C118.839 110.968 119.058 111.019 119.276 111.087C119.488 111.155 119.7 111.247 119.892 111.36C120.091 111.474 120.278 111.587 120.458 111.712C120.882 111.998 121.284 112.348 121.667 112.754Z" fill="white" stroke="#FF9900" stroke-width="2.21229" stroke-miterlimit="10" stroke-linecap="round" stroke-linejoin="round"/>
<path d="M67.8573 81.9779C67.9919 82.0609 68.4145 81.9275 68.4905 81.7931L75.1207 70.3462C75.736 69.279 75.4221 67.8383 74.4093 67.1312C70.0907 64.0984 61.4761 57.114 59.8244 55.7711C59.7133 55.6815 59.5469 55.7733 59.5474 55.919C59.4614 75.7091 66.1283 80.9533 67.8573 81.9779Z" fill="#FF9900"/>
<path d="M91.0287 119.561L84.9552 125.634C84.4785 126.111 84.4785 126.884 84.9552 127.361C85.4319 127.837 86.2049 127.837 86.6816 127.361L92.7552 121.287C93.2319 120.81 93.2319 120.037 92.7552 119.561C92.2784 119.084 91.5054 119.084 91.0287 119.561Z" fill="#FF9900"/>
<path d="M95.9819 124.515L89.9083 130.588C89.4316 131.065 89.4316 131.838 89.9083 132.315C90.3851 132.791 91.158 132.791 91.6348 132.315L97.7083 126.241C98.185 125.764 98.185 124.992 97.7083 124.515C97.2316 124.038 96.4586 124.038 95.9819 124.515Z" fill="#FF9900"/>
<path d="M91.6499 123.741L85.5763 129.814C85.0996 130.291 85.0996 131.064 85.5763 131.541C86.053 132.018 86.826 132.018 87.3027 131.541L93.3763 125.467C93.853 124.991 93.853 124.218 93.3763 123.741C92.8995 123.264 92.1266 123.264 91.6499 123.741Z" fill="#FF9900"/>
<path d="M96.601 128.695L90.5275 134.768C90.0507 135.245 90.0507 136.018 90.5275 136.495C91.0042 136.972 91.7771 136.972 92.2539 136.495L98.3274 130.421C98.8042 129.945 98.8042 129.172 98.3274 128.695C97.8507 128.218 97.0778 128.218 96.601 128.695Z" fill="#FF9900"/>
<path d="M142.273 116.929L136.199 123.003C135.723 123.48 135.723 124.253 136.199 124.729C136.676 125.206 137.449 125.206 137.926 124.729L143.999 118.656C144.476 118.179 144.476 117.406 143.999 116.929C143.523 116.453 142.75 116.453 142.273 116.929Z" fill="#FF9900"/>
<path d="M147.226 121.883L141.152 127.957C140.676 128.434 140.676 129.207 141.152 129.683C141.629 130.16 142.402 130.16 142.879 129.683L148.952 123.61C149.429 123.133 149.429 122.36 148.952 121.883C148.476 121.407 147.703 121.407 147.226 121.883Z" fill="#FF9900"/>
<path d="M142.892 121.11L136.818 127.183C136.342 127.66 136.342 128.433 136.818 128.909C137.295 129.386 138.068 129.386 138.545 128.909L144.618 122.836C145.095 122.359 145.095 121.586 144.618 121.11C144.142 120.633 143.369 120.633 142.892 121.11Z" fill="#FF9900"/>
<path d="M147.845 126.064L141.772 132.137C141.295 132.614 141.295 133.387 141.772 133.864C142.248 134.34 143.021 134.34 143.498 133.864L149.572 127.79C150.048 127.313 150.048 126.54 149.572 126.064C149.095 125.587 148.322 125.587 147.845 126.064Z" fill="#FF9900"/>
<g clip-path="url(#clip1_5840_16936)">
<path d="M107.279 108.002C106.891 108.223 106.38 108.326 105.95 108.377L101.447 108.908L100.824 103.646L105.5 103.092C107.09 102.903 108.243 103.813 108.429 105.382C108.564 106.521 108.117 107.533 107.279 108.002ZM104.207 96.7722C104.852 96.6959 105.356 96.7231 105.811 96.8875C106.499 97.1761 106.932 97.8878 107.036 98.7691C107.199 100.144 106.451 101.192 105.076 101.355L100.615 101.883L100.068 97.2621L104.206 96.7723L104.207 96.7722ZM107.684 101.852L107.679 101.809C108.79 101.067 109.382 99.7989 109.206 98.3158C109.013 96.6823 107.983 95.5405 106.716 95.1451C105.924 94.8907 105.094 94.8794 103.998 95.0091L103.433 95.076L103.286 93.8352C103.279 93.7773 103.261 93.7213 103.232 93.6704C103.204 93.6195 103.165 93.5748 103.12 93.5387C103.074 93.5026 103.021 93.4759 102.965 93.4602C102.909 93.4444 102.85 93.4399 102.792 93.4468L101.524 93.5969C101.408 93.6107 101.301 93.6703 101.228 93.7625C101.156 93.8547 101.122 93.9721 101.136 94.0889L101.283 95.3312L99.8592 95.4997L99.7122 94.2573C99.6982 94.1407 99.6385 94.0343 99.5461 93.9616C99.4537 93.8889 99.3363 93.8559 99.2196 93.8697L97.9518 94.0197C97.8939 94.0264 97.838 94.0445 97.7872 94.0729C97.7363 94.1013 97.6916 94.1394 97.6555 94.1851C97.6194 94.2308 97.5927 94.2832 97.5768 94.3392C97.561 94.3953 97.5564 94.4539 97.5632 94.5117L97.7103 95.754L96.4116 95.9077C96.3384 95.9166 96.2717 95.954 96.2261 96.0119C96.1805 96.0698 96.1596 96.1434 96.168 96.2166L96.3111 97.4258C96.3292 97.5786 96.4674 97.6882 96.6202 97.6701L97.9188 97.5164L99.297 109.161L98.0724 109.306C97.9783 109.317 97.8924 109.365 97.8337 109.44C97.775 109.514 97.7483 109.609 97.7595 109.703L97.8877 110.761C97.8993 110.854 97.9475 110.94 98.0218 110.998C98.0962 111.057 98.1907 111.083 98.2845 111.072L99.506 110.927L99.6508 112.15C99.6795 112.393 99.8997 112.568 100.144 112.539L101.412 112.389C101.529 112.375 101.636 112.315 101.709 112.223C101.782 112.13 101.815 112.013 101.801 111.896L101.657 110.673L103.079 110.504L103.224 111.727C103.253 111.971 103.474 112.145 103.717 112.116L104.985 111.966C105.102 111.952 105.208 111.892 105.281 111.8C105.354 111.708 105.388 111.59 105.374 111.473L105.229 110.25L106.074 110.15C106.912 110.051 107.616 109.924 108.319 109.601C109.825 108.878 110.871 107.228 110.635 105.229C110.431 103.51 109.375 102.131 107.685 101.852L107.684 101.852Z" fill="#FF9900"/>
</g>
<g clip-path="url(#clip2_5840_16936)">
<path d="M140.357 107.797C139.945 107.968 139.425 108.007 138.993 108.005L134.458 107.979L134.487 102.68L139.195 102.705C140.796 102.713 141.829 103.758 141.821 105.337C141.814 106.484 141.247 107.434 140.357 107.797ZM138.689 96.2742C139.338 96.2778 139.835 96.3667 140.267 96.5858C140.914 96.9569 141.256 97.7163 141.251 98.6037C141.244 99.9883 140.373 100.936 138.988 100.929L134.496 100.904L134.521 96.2516L138.688 96.2742L138.689 96.2742ZM141.515 101.743L141.516 101.699C142.709 101.1 143.452 99.914 143.46 98.4206C143.469 96.7757 142.588 95.516 141.379 94.9679C140.624 94.618 139.802 94.5048 138.698 94.4988L138.129 94.4957L138.136 93.2463C138.136 93.1879 138.125 93.1301 138.103 93.0761C138.081 93.0221 138.048 92.973 138.007 92.9316C137.966 92.8901 137.917 92.8572 137.863 92.8346C137.81 92.8121 137.752 92.8004 137.694 92.8002L136.417 92.7932C136.299 92.7926 136.186 92.8386 136.103 92.9212C136.019 93.0038 135.972 93.1162 135.971 93.2337L135.964 94.4847L134.53 94.4769L134.537 93.226C134.538 93.1084 134.491 92.9955 134.409 92.912C134.326 92.8285 134.214 92.7813 134.096 92.7807L132.819 92.7737C132.761 92.7733 132.703 92.7844 132.649 92.8063C132.596 92.8282 132.546 92.8606 132.505 92.9015C132.464 92.9424 132.431 92.9911 132.408 93.0447C132.385 93.0984 132.374 93.156 132.373 93.2142L132.366 94.4652L131.059 94.4581C130.985 94.4579 130.914 94.4869 130.862 94.5387C130.809 94.5906 130.78 94.6611 130.779 94.7348L130.773 95.9523C130.772 96.1062 130.895 96.2319 131.049 96.2328L132.357 96.2399L132.293 107.966L131.06 107.959C130.965 107.958 130.874 107.996 130.807 108.062C130.739 108.129 130.701 108.22 130.701 108.314L130.698 109.38C130.698 109.474 130.735 109.565 130.802 109.632C130.869 109.699 130.959 109.737 131.054 109.738L132.284 109.744L132.277 110.976C132.276 111.221 132.473 111.421 132.718 111.422L133.996 111.429C134.113 111.429 134.227 111.383 134.31 111.301C134.394 111.218 134.442 111.105 134.442 110.988L134.449 109.756L135.882 109.764L135.875 110.995C135.874 111.24 136.072 111.44 136.316 111.441L137.593 111.448C137.711 111.449 137.824 111.403 137.908 111.32C137.992 111.237 138.039 111.125 138.04 111.007L138.047 109.775L138.897 109.78C139.741 109.785 140.456 109.745 141.193 109.511C142.776 108.978 144.017 107.47 144.028 105.457C144.038 103.726 143.158 102.228 141.516 101.743L141.515 101.743Z" fill="#FF9900"/>
</g>
<circle cx="117.496" cy="173.933" r="11.6889" fill="#FF9900"/>
<path d="M116.541 164.337L109.915 170.963C109.395 171.483 109.395 172.326 109.915 172.846C110.436 173.366 111.279 173.366 111.799 172.846L118.425 166.221C118.945 165.701 118.945 164.857 118.425 164.337C117.904 163.817 117.061 163.817 116.541 164.337Z" fill="white"/>
<path d="M122.029 169.827L115.404 176.452C114.884 176.972 114.884 177.816 115.404 178.336C115.924 178.856 116.767 178.856 117.287 178.336L123.913 171.71C124.433 171.19 124.433 170.347 123.913 169.827C123.393 169.307 122.55 169.307 122.029 169.827Z" fill="white"/>
<path d="M117.244 168.982L110.619 175.607C110.098 176.128 110.098 176.971 110.619 177.491C111.139 178.011 111.982 178.011 112.502 177.491L119.128 170.865C119.648 170.345 119.648 169.502 119.128 168.982C118.608 168.462 117.764 168.462 117.244 168.982Z" fill="white"/>
<path d="M122.735 174.471L116.109 181.097C115.589 181.617 115.589 182.46 116.109 182.98C116.629 183.5 117.472 183.5 117.992 182.98L124.618 176.354C125.138 175.834 125.138 174.991 124.618 174.471C124.098 173.951 123.255 173.951 122.735 174.471Z" fill="white"/>
</g>
<defs>
<linearGradient id="paint0_linear_5840_16936" x1="102.544" y1="0" x2="161.082" y2="205.089" gradientUnits="userSpaceOnUse">
<stop stop-color="#00F0FF"/>
<stop offset="1" stop-color="#FF6F43"/>
</linearGradient>
<linearGradient id="paint1_linear_5840_16936" x1="102.544" y1="0" x2="161.082" y2="205.089" gradientUnits="userSpaceOnUse">
<stop stop-color="#00F0FF"/>
<stop offset="1" stop-color="#FF6F43"/>
</linearGradient>
<linearGradient id="paint2_linear_5840_16936" x1="7.18164" y1="96.6973" x2="199.069" y2="96.6973" gradientUnits="userSpaceOnUse">
<stop stop-color="#101010"/>
<stop offset="1" stop-color="#484848"/>
</linearGradient>
<clipPath id="clip0_5840_16936">
<rect x="26.1699" y="19.1416" width="168.89" height="168.89" rx="84.445" fill="white"/>
</clipPath>
<clipPath id="clip1_5840_16936">
<rect width="19.4254" height="19.4254" fill="white" transform="translate(92.8027 94.2383) rotate(-6.74955)"/>
</clipPath>
<clipPath id="clip2_5840_16936">
<rect width="19.4254" height="19.4254" fill="white" transform="translate(127.68 92.3579) rotate(0.310839)"/>
</clipPath>
</defs>
</svg>
