<svg width="199" height="192" viewBox="0 0 199 192" fill="none" xmlns="http://www.w3.org/2000/svg">
<circle cx="95.5" cy="95.5" r="94.95" transform="matrix(-1 0 0 1 191 1)" fill="#0F1217" stroke="#476666" stroke-width="1.1"/>
<circle cx="95.5" cy="95.5" r="94.95" transform="matrix(-1 0 0 1 199 0)" fill="#00040C" stroke="#476666" stroke-width="1.1"/>
<circle cx="81.0689" cy="81.0689" r="80.5189" transform="matrix(-1 0 0 1 185 14)" fill="#00040C" stroke="#476666" stroke-width="1.1"/>
<path d="M101.672 30H101.669C65.9534 30 37 58.9534 37 94.6693V94.6716C37 130.388 65.9534 159.341 101.669 159.341H101.672C137.388 159.341 166.341 130.388 166.341 94.6716V94.6693C166.341 58.9534 137.388 30 101.672 30Z" fill="#0F1217"/>
<path d="M98.5468 45.8333L64.2533 80.127C61.5614 82.8189 61.5614 87.1832 64.2533 89.875C66.9451 92.5669 71.3094 92.5669 74.0013 89.875L108.295 55.5814C110.987 52.8896 110.987 48.5252 108.295 45.8333C105.603 43.1415 101.238 43.1415 98.5468 45.8333Z" fill="#1C2028"/>
<path d="M126.959 74.2435L92.6654 108.537C89.9735 111.229 89.9735 115.593 92.6654 118.285C95.3572 120.977 99.7216 120.977 102.413 118.285L136.707 83.9914C139.399 81.2997 139.399 76.9353 136.707 74.2435C134.015 71.5516 129.651 71.5516 126.959 74.2435Z" fill="#1C2028"/>
<path d="M102.188 69.8724L67.8939 104.166C65.202 106.858 65.202 111.222 67.8939 113.914C70.5857 116.606 74.9501 116.606 77.642 113.914L111.936 79.6204C114.627 76.9285 114.627 72.5642 111.936 69.8724C109.244 67.1806 104.879 67.1806 102.188 69.8724Z" fill="#1C2028"/>
<path d="M130.6 98.2826L96.306 132.576C93.6141 135.268 93.6141 139.632 96.306 142.324C98.9979 145.016 103.362 145.016 106.054 142.324L140.348 108.031C143.04 105.339 143.04 100.974 140.348 98.2826C137.656 95.5907 133.292 95.5907 130.6 98.2826Z" fill="#1C2028"/>
</svg>
