<svg width="199" height="192" viewBox="0 0 199 192" fill="none" xmlns="http://www.w3.org/2000/svg">
<circle cx="95.5" cy="95.5" r="94.95" transform="matrix(-1 0 0 1 191 1)" fill="#0F1217" stroke="#476666" stroke-width="1.1"/>
<circle cx="95.5" cy="95.5" r="94.95" transform="matrix(-1 0 0 1 199 0)" fill="#00040C" stroke="#476666" stroke-width="1.1"/>
<circle cx="81.0689" cy="81.0689" r="80.5189" transform="matrix(-1 0 0 1 185 14)" fill="#00040C" stroke="#476666" stroke-width="1.1"/>
<path d="M101.672 30H101.669C65.9534 30 37 58.9534 37 94.6693V94.6716C37 130.388 65.9534 159.341 101.669 159.341H101.672C137.388 159.341 166.341 130.388 166.341 94.6716V94.6693C166.341 58.9534 137.388 30 101.672 30Z" fill="#0F1217"/>
<path d="M62.998 100.743C63.099 100.391 63.13 100.159 63.2268 99.963C65.4839 95.4082 67.7471 90.8555 70.0123 86.3049C71.7252 82.8617 73.4484 79.4267 75.1489 75.9774C76.6989 72.8331 78.2262 69.6786 79.7536 66.524C80.3348 65.3203 81.485 64.7021 82.46 63.9201C85.3209 61.6274 88.221 59.3818 91.1129 57.1279C94.2006 54.7226 97.2821 52.3071 100.399 49.9386C102.058 48.6776 102.087 48.7227 103.899 49.8608C109.344 53.2774 114.79 56.696 120.244 60.0983C121.007 60.5732 121.388 61.2528 121.749 62.0491C122.981 64.7635 124.317 67.4309 125.601 70.1207C127.211 73.4902 128.806 76.8679 130.412 80.2394C132.64 84.9252 134.87 89.6089 137.098 94.2926C138.413 97.0561 139.724 99.8197 141.037 102.583C141.316 103.169 141.227 103.631 140.689 104.067C135.388 108.366 130.099 112.681 124.805 116.993C120.366 120.608 115.924 124.221 111.492 127.844C108.765 130.073 106.059 132.329 103.334 134.561C102.132 135.545 101.992 135.535 100.908 134.571C97.0286 131.124 93.1494 127.674 89.2702 124.227C85.1807 120.593 81.0934 116.956 76.9998 113.324C72.5249 109.357 68.0398 105.398 63.5669 101.427C63.334 101.224 63.165 100.946 62.998 100.743ZM135.74 102.424C135.66 101.916 135.68 101.574 135.552 101.3C133.976 97.9179 132.382 94.5444 130.785 91.1728C129.177 87.7767 127.569 84.3786 125.947 80.9886C123.558 75.9979 121.143 71.0194 118.778 66.0163C118.457 65.3367 118.156 65.2773 117.546 65.6028C112.846 68.1105 108.128 70.5834 103.445 73.1197C103.051 73.3326 102.695 73.8996 102.616 74.352C102.34 75.961 102.21 77.5946 101.994 79.2138C101.437 83.3448 100.856 87.4738 100.3 91.6068C100.04 93.5372 99.8359 95.4758 99.5741 97.4062C99.366 98.9394 99.1104 100.469 98.8713 101.998C98.7847 102.546 99.0795 102.755 99.5577 102.675C100.421 102.53 101.277 102.327 102.134 102.147C103.798 101.799 105.465 101.47 107.124 101.101C109.855 100.495 112.578 99.8504 115.311 99.2506C116.995 98.8801 118.708 98.6303 120.376 98.2025C121.734 97.8545 122.942 97.5904 124.381 98.2168C127.269 99.4758 130.276 100.46 133.236 101.551C134 101.832 134.771 102.086 135.74 102.424ZM94.1985 103.185C94.2748 102.941 94.3304 102.819 94.351 102.69C94.5901 101.128 94.8375 99.5679 95.056 98.006C95.4517 95.1892 95.8413 92.3724 96.2103 89.5536C96.4803 87.4861 96.6988 85.4144 96.9708 83.3469C97.3377 80.5547 97.7149 77.7625 98.1272 74.9764C98.2323 74.262 97.9417 73.916 97.313 73.7379C94.8396 73.0358 92.364 72.3316 89.8906 71.6335C87.9902 71.0972 86.0794 70.5936 84.1914 70.0184C83.27 69.7379 82.9835 69.8198 82.596 70.6366C81.5757 72.786 80.5472 74.9334 79.4877 77.0644C77.9768 80.1064 76.4206 83.1258 74.9098 86.1677C72.8114 90.3949 70.7338 94.6324 68.6705 98.878C68.5221 99.183 68.5592 99.5781 68.4891 100.08C68.9075 99.879 69.124 99.8074 69.3074 99.6846C73.2793 96.9988 77.2533 94.313 81.2129 91.6089C81.7303 91.2547 82.126 91.2752 82.563 91.7071C84.0079 93.136 85.4837 94.5341 86.9142 95.9753C89.097 98.1738 91.2489 100.403 93.4214 102.61C93.6234 102.812 93.8873 102.958 94.1985 103.185ZM99.8256 69.9201C100.157 69.8096 100.496 69.74 100.79 69.5885C101.938 68.9948 103.07 68.3705 104.212 67.7625C107.471 66.0286 110.738 64.305 113.99 62.5568C114.885 62.0757 114.874 61.8997 113.976 61.3326C110.307 59.0174 106.623 56.7226 102.963 54.3951C102.437 54.0614 102.039 54.1085 101.59 54.4668C100.576 55.2753 99.5535 56.0717 98.5332 56.8721C94.8292 59.7769 91.1232 62.6796 87.4254 65.5906C87.2646 65.7154 87.1739 65.9283 87.0503 66.1003C87.2296 66.2088 87.3945 66.3623 87.5882 66.4196C90.7007 67.3388 93.8151 68.2497 96.9317 69.1504C97.884 69.4247 98.8465 69.6601 99.8256 69.9201ZM97.8881 103.029C97.0636 103.232 96.2494 103.527 95.4126 103.615C94.586 103.701 94.4417 103.99 94.6046 104.759C95.1673 107.402 95.6764 110.055 96.1752 112.71C96.4555 114.202 96.6431 115.713 96.9296 117.203C97.5068 120.215 98.1148 123.22 98.7373 126.221C98.8053 126.552 98.9826 126.917 99.2217 127.15C99.9472 127.858 100.702 128.548 101.508 129.162C101.78 129.369 102.326 129.504 102.598 129.371C103.132 129.111 103.676 128.724 103.521 127.94C103.165 126.149 102.827 124.354 102.48 122.561C101.757 118.829 101.033 115.095 100.306 111.363C99.8091 108.819 99.2815 106.28 98.8218 103.73C98.7064 103.115 98.4425 102.968 97.8881 103.029Z" fill="#1C2028"/>
<path d="M135.74 102.421C134.772 102.083 134.001 101.829 133.24 101.549C130.28 100.458 127.273 99.471 124.385 98.2141C122.947 97.5877 121.739 97.8518 120.38 98.1998C118.713 98.6276 117 98.8794 115.316 99.2479C112.583 99.8477 109.86 100.492 107.129 101.098C105.47 101.467 103.802 101.799 102.139 102.144C101.279 102.325 100.426 102.527 99.5622 102.673C99.084 102.752 98.7913 102.544 98.8758 101.995C99.1149 100.466 99.3705 98.9367 99.5787 97.4035C99.8405 95.4731 100.045 93.5345 100.304 91.6041C100.859 87.4711 101.442 83.3441 101.999 79.2111C102.217 77.5919 102.347 75.9583 102.621 74.3493C102.699 73.8969 103.056 73.3319 103.45 73.117C108.133 70.5806 112.851 68.1078 117.55 65.6001C118.16 65.2746 118.461 65.334 118.783 66.0136C121.147 71.0167 123.563 75.9952 125.952 80.9859C127.574 84.3759 129.182 87.772 130.789 91.1701C132.387 94.5416 133.98 97.9152 135.557 101.297C135.681 101.571 135.662 101.913 135.74 102.421Z" fill="#0F1217"/>
<path d="M94.2036 103.189C93.8923 102.962 93.6285 102.817 93.4265 102.612C91.254 100.405 89.1 98.1758 86.9193 95.9773C85.4888 94.5362 84.013 93.138 82.5681 91.7091C82.1311 91.2772 81.7353 91.2567 81.218 91.6109C77.2584 94.3151 73.2844 97.0008 69.3124 99.6866C69.129 99.8094 68.9126 99.8831 68.4941 100.082C68.5642 99.5801 68.5271 99.1851 68.6755 98.88C70.7388 94.6365 72.8165 90.399 74.9148 86.1698C76.4236 83.1278 77.9798 80.1084 79.4927 77.0664C80.5522 74.9354 81.5807 72.788 82.601 70.6386C82.9885 69.8218 83.275 69.7399 84.1964 70.0204C86.0845 70.5936 87.9952 71.0972 89.8956 71.6355C92.3711 72.3356 94.8446 73.0378 97.318 73.7399C97.9467 73.918 98.2373 74.264 98.1322 74.9784C97.72 77.7645 97.3428 80.5567 96.9759 83.3489C96.7038 85.4164 96.4874 87.4881 96.2153 89.5556C95.8463 92.3744 95.4547 95.1912 95.061 98.008C94.8405 99.572 94.5952 101.132 94.3561 102.692C94.3355 102.823 94.2798 102.946 94.2036 103.189Z" fill="#0F1217"/>
<path d="M99.8222 69.9137C98.8411 69.6538 97.8806 69.4183 96.9283 69.142C93.8097 68.2413 90.6973 67.3283 87.5848 66.4112C87.3911 66.3539 87.2262 66.2003 87.0469 66.0918C87.1705 65.9199 87.2612 65.709 87.422 65.5821C91.1198 62.6712 94.8259 59.7684 98.5299 56.8636C99.5501 56.0632 100.573 55.2669 101.587 54.4583C102.036 54.1001 102.434 54.053 102.959 54.3867C106.62 56.7163 110.303 59.011 113.972 61.3242C114.869 61.8913 114.881 62.0653 113.987 62.5484C110.736 64.2986 107.469 66.0202 104.208 67.7541C103.067 68.3621 101.935 68.9864 100.787 69.5801C100.492 69.7336 100.154 69.8032 99.8222 69.9137Z" fill="#0F1217"/>
<path d="M97.8856 103.031C98.4422 102.97 98.706 103.117 98.8173 103.731C99.2769 106.282 99.8046 108.821 100.301 111.365C101.029 115.097 101.752 118.829 102.476 122.563C102.824 124.356 103.16 126.151 103.517 127.942C103.674 128.724 103.129 129.113 102.593 129.373C102.321 129.506 101.775 129.373 101.503 129.164C100.697 128.55 99.9448 127.86 99.2172 127.152C98.9781 126.919 98.8008 126.554 98.7328 126.223C98.1103 123.222 97.5043 120.217 96.9251 117.205C96.6386 115.715 96.451 114.204 96.1707 112.712C95.6719 110.057 95.1628 107.404 94.6001 104.761C94.4372 103.991 94.5815 103.703 95.4081 103.617C96.2449 103.529 97.0612 103.236 97.8856 103.031Z" fill="#1C2028"/>
</svg>
