<svg width="214" height="206" viewBox="0 0 214 206" fill="none" xmlns="http://www.w3.org/2000/svg">
<circle cx="111.103" cy="102.544" r="102.43" fill="url(#paint0_linear_5840_14838)" stroke="white" stroke-width="0.227876"/>
<circle cx="102.9" cy="103.455" r="102.43" fill="url(#paint1_linear_5840_14838)" stroke="white" stroke-width="0.227876"/>
<g clip-path="url(#clip0_5840_14838)">
<path d="M191.486 -3.19238H-0.402344V196.586H191.486V-3.19238Z" fill="url(#paint2_linear_5840_14838)"/>
<path d="M126.731 143.109C135.272 147.771 152.356 169.672 152.884 186.513C153.412 203.355 146.889 205.376 139.894 204.304C138.667 203.689 137.037 203.821 136.491 201.332" fill="white"/>
<path d="M126.731 143.109C135.272 147.771 152.356 169.672 152.884 186.513C153.412 203.355 146.889 205.376 139.894 204.304C138.667 203.689 137.037 203.821 136.491 201.332" stroke="black" stroke-width="2.34026" stroke-linecap="round"/>
<mask id="mask0_5840_14838" style="mask-type:luminance" maskUnits="userSpaceOnUse" x="124" y="142" width="28" height="62">
<path d="M124.736 142.797C133.121 147.126 150.405 168.349 151.598 185.159C152.79 201.969 146.61 204.237 139.854 203.438C138.652 202.869 137.094 203.065 136.469 200.601" fill="white"/>
</mask>
<g mask="url(#mask0_5840_14838)">
<path d="M148.331 179.209C148.331 179.209 147.951 178.941 147.289 178.618C144.956 177.48 139.116 175.646 133.914 182.294C127.232 190.832 130.072 230.823 148.892 216.781C167.709 202.745 164.435 181.82 164.435 181.82L165.896 158.203L160.585 164.682" fill="white"/>
</g>
<path d="M102.786 232.231C82.9737 232.231 66.9129 209.783 66.9129 182.092C66.9129 154.401 82.9737 131.953 102.786 131.953C122.597 131.953 138.658 154.401 138.658 182.092C138.658 209.783 122.597 232.231 102.786 232.231Z" fill="white"/>
<path d="M81.2227 137.829C73.2745 141.895 48.7263 167.893 48.5436 185.586C48.2424 214.752 68.4301 204.838 67.0004 199.789C67.0004 199.789 69.672 193.453 69.2622 191.638C68.8523 189.823 66.0152 176.508 70.1338 171.331" fill="white"/>
<mask id="mask1_5840_14838" style="mask-type:luminance" maskUnits="userSpaceOnUse" x="48" y="137" width="34" height="69">
<path d="M81.2227 137.829C73.2745 141.894 48.7263 167.893 48.5436 185.585C48.2424 214.752 68.4301 204.838 67.0004 199.789C67.0004 199.789 69.672 193.452 69.2622 191.637C68.8523 189.823 66.0152 176.507 70.1338 171.331" fill="white"/>
</mask>
<g mask="url(#mask1_5840_14838)">
<path d="M41.1772 183.312C41.1772 183.312 41.3599 183.283 41.6883 183.236C44.192 182.878 55.1451 181.554 57.8191 185.318C60.8463 189.575 69.671 182.564 69.671 182.564C69.671 182.564 85.8093 212.491 60.3401 212.866C34.871 213.242 34.1154 193.207 34.1154 193.207" fill="white"/>
</g>
<path d="M81.2227 137.829C73.2745 141.895 48.7263 167.893 48.5436 185.586C48.2424 214.752 68.4301 204.838 67.0004 199.789" stroke="black" stroke-width="2.44503" stroke-linecap="round"/>
<path d="M124.354 145.718C127.653 150.833 140.945 177.739 137.05 197.162C134.452 221.218 131.482 220.178 132.719 223.69C133.092 225.078 133.637 225.014 135.741 226.706C137.422 228.06 137.42 234.396 137.05 236.824H107.109" fill="white"/>
<path d="M124.354 145.718C127.653 150.833 140.945 177.739 137.05 197.162C134.452 221.218 131.482 220.178 132.719 223.69C133.092 225.078 133.637 225.014 135.741 226.706C137.422 228.06 137.42 234.396 137.05 236.824H107.109" stroke="black" stroke-width="2.44503" stroke-linecap="round"/>
<path d="M83.6608 145.718C80.2781 149.399 71.9336 165.561 68.6003 176.441L83.6608 145.718ZM102.914 206.92L101.879 225.713C97.2966 225.105 95.0521 225.299 100.909 226.496C111.129 228.582 108.294 234.414 106.892 237.067H68.6003C68.6003 225.228 67.8472 214.301 67.8472 198.687" fill="white"/>
<path d="M83.6608 145.718C80.2781 149.399 71.9336 165.561 68.6003 176.441M102.914 206.92L101.879 225.713C97.2966 225.105 95.0521 225.299 100.909 226.496C111.129 228.582 108.294 234.414 106.892 237.067H68.6003C68.6003 225.228 67.8472 214.301 67.8472 198.687" stroke="black" stroke-width="2.44503" stroke-linecap="round" stroke-linejoin="round"/>
<path d="M146.537 192.369C145.428 194.071 142.554 196.997 139.945 195.084C139.231 193.922 138.47 191.116 141.12 189.187" fill="white"/>
<path d="M146.537 192.369C145.428 194.071 142.554 196.997 139.945 195.084C139.231 193.922 138.47 191.116 141.12 189.187" stroke="black" stroke-width="2.34026" stroke-linecap="round" stroke-linejoin="round"/>
<path d="M68.6338 176.377C68.4214 177.942 67.5128 181.38 67.5523 182.53C67.7078 186.959 72.7967 190.277 68.9449 197.459C67.8856 199.139 65.5671 202.045 63.7671 197.346L63.9671 192.579" stroke="black" stroke-width="2.44503" stroke-linecap="round"/>
<path d="M154.59 80.914C154.583 80.881 154.568 80.8639 154.578 80.8317C154.837 79.7492 162.097 49.3747 152.983 35.4238C152.929 35.3478 152.848 35.3195 152.765 35.3482C151.104 36.0622 133.961 43.6103 128.908 52.3091C128.854 52.4046 128.737 52.4318 128.641 52.3864C127.544 51.8199 120.936 48.9427 100.436 49.6741C78.9522 50.5469 73.4964 53.7614 72.5241 54.4916C72.4303 54.5607 72.2833 54.5455 72.2144 54.4443C66.5228 46.1694 48.912 39.9624 47.2002 39.3751C47.1113 39.3464 47.0355 39.3837 46.9905 39.4632C38.9262 54.0654 48.3916 83.8081 48.7254 84.8614C48.732 84.8943 48.7312 84.9106 48.7214 84.9429C41.965 112.269 48.2021 125.284 48.2697 125.41C48.2697 125.41 48.2697 125.41 48.2693 125.418C57.1871 140.846 79.7983 146.235 93.7312 148.11C101.587 149.168 109.562 148.801 117.28 147C130.34 143.949 150.416 136.858 157.971 121.268C157.989 121.236 157.998 121.212 158.008 121.179C158.344 120.354 163.1 106.911 154.59 80.914Z" fill="white"/>
<path d="M150.753 41.8723C150.719 41.7155 150.533 41.6578 150.429 41.7753C149.112 43.3463 142.782 50.903 138.69 55.3235C137.138 57.0059 137.09 59.7964 138.589 61.5167L146.608 70.7473C146.716 70.8749 147.181 70.9295 147.31 70.8131C148.923 69.3868 154.841 62.5537 150.753 41.8723Z" fill="black" stroke="black" stroke-width="2.33989" stroke-miterlimit="10" stroke-linecap="round" stroke-linejoin="round"/>
<path d="M57.4249 72.8321C57.5682 72.9205 58.0185 72.7784 58.0995 72.6353L65.1627 60.4407C65.8182 59.3038 65.4838 57.769 64.4048 57.0157C59.8042 53.7848 50.6268 46.3442 48.8673 44.9136C48.7489 44.8182 48.5717 44.916 48.5722 45.0712C48.4806 66.1539 55.5829 71.7406 57.4249 72.8321Z" fill="black" stroke="black" stroke-width="2.33989" stroke-miterlimit="10" stroke-linecap="round" stroke-linejoin="round"/>
<path d="M154.141 80.9493C154.126 80.9159 154.118 80.8992 154.128 80.867C154.387 79.7848 161.281 50.8889 153.166 36.5294C152.932 36.1099 151.614 35.7043 151.042 35.9631C146.605 37.9904 132.876 44.7305 128.452 52.3531C128.398 52.4485 128.281 52.4757 128.185 52.4303C127.087 51.8636 120.477 48.9854 99.9725 49.7113C78.4833 50.5783 73.027 53.7905 72.0547 54.5203C71.9609 54.5893 71.8138 54.5742 71.7449 54.4729C67.3068 48.0224 55.6196 42.8288 49.8742 40.5714C48.7704 40.1352 47.3978 40.4866 46.8737 40.7884C46.3577 41.0907 45.3462 41.9492 45.03 42.8653C39.7734 58.1993 47.9248 83.8153 48.2585 84.8766C48.2651 84.9096 48.2643 84.9259 48.2541 84.9662C41.5036 112.284 47.7459 125.297 47.8136 125.423C47.8136 125.423 47.8136 125.423 47.8132 125.431C56.7375 140.858 79.3558 146.252 93.2923 148.138C101.15 149.197 109.127 148.833 116.847 147.035C129.892 143.995 149.913 136.932 157.495 121.398C157.532 121.327 157.578 121.231 157.598 121.15C158.119 119.745 162.451 106.336 154.141 80.9493Z" stroke="black" stroke-width="2.33989" stroke-miterlimit="10" stroke-linecap="round" stroke-linejoin="round"/>
<path d="M46.1406 103.652C57.5063 100.553 87.4911 94.8491 110.305 94.3531C133.119 93.8572 151.427 97.9737 157.627 100.04" stroke="black" stroke-width="2.33989" stroke-miterlimit="10" stroke-linecap="round" stroke-linejoin="round"/>
<path d="M56.0588 72.1938C55.0256 84.7994 56.0591 118.07 64.1183 132.329" stroke="black" stroke-width="2.33989" stroke-miterlimit="10" stroke-linecap="round" stroke-linejoin="round"/>
<path d="M66.9056 182.232C63.0826 181.405 54.0727 180.248 48.6172 182.232M136.96 182.232C139.646 181.405 146.197 179.814 150.908 180.062" stroke="black" stroke-width="2.33989" stroke-miterlimit="10" stroke-linecap="round" stroke-linejoin="round"/>
<path d="M100.064 49.8179C105.995 56.0944 113.548 81.8422 111.401 108.204" stroke="black" stroke-width="2.33989" stroke-miterlimit="10" stroke-linecap="round" stroke-linejoin="round"/>
<path d="M56.0273 133.933C73.5993 129.996 117.266 123.552 151.358 129.271" stroke="black" stroke-width="2.33989" stroke-miterlimit="10" stroke-linecap="round" stroke-linejoin="round"/>
<path d="M146.573 70.9551C150.913 96.9928 151.842 110.632 144.093 127.99M58.2305 160.537C61.3302 161.777 69.4682 165.76 71.204 168.736M134.174 167.977C135.414 166.324 138.762 162.521 142.233 160.537" stroke="black" stroke-width="2.33989" stroke-miterlimit="10" stroke-linecap="round" stroke-linejoin="round"/>
<path d="M61.9494 46.1559L57.6098 51.1155M43.041 57.005H48.9305M137.273 43.0562L142.542 48.9456M151.532 53.2853H155.561" stroke="black" stroke-width="2.33989" stroke-miterlimit="10" stroke-linecap="round" stroke-linejoin="round"/>
<path d="M56.6797 72.1953C73.9865 67.4424 115.854 60.3233 144.867 69.8705" stroke="black" stroke-width="2.33989" stroke-miterlimit="10" stroke-linecap="round" stroke-linejoin="round"/>
<path d="M78.3789 156.816L95.1175 162.706L98.8372 171.695M129.215 158.366L119.915 162.706L117.126 171.695" stroke="black" stroke-width="2.33989" stroke-miterlimit="10" stroke-linecap="round" stroke-linejoin="round"/>
<path d="M69.3887 173.554L105.036 189.983H115.265L134.173 176.344" stroke="black" stroke-width="2.33989" stroke-miterlimit="10" stroke-linecap="round" stroke-linejoin="round"/>
<path d="M92.6366 128.608C93.2566 132.638 92.6366 142.247 90.4668 146.897M127.354 127.059C127.457 130.675 127.168 139.086 125.184 143.797" stroke="black" stroke-width="2.33989" stroke-miterlimit="10" stroke-linecap="round" stroke-linejoin="round"/>
<circle cx="61.6399" cy="77.3074" r="2.47979" fill="black" stroke="black" stroke-width="2.33989" stroke-miterlimit="10" stroke-linecap="round" stroke-linejoin="round"/>
<circle cx="140.992" cy="74.8255" r="2.47979" fill="black" stroke="black" stroke-width="2.33989" stroke-miterlimit="10" stroke-linecap="round" stroke-linejoin="round"/>
<circle cx="86.9017" cy="134.495" r="2.47979" fill="black" stroke="black" stroke-width="2.33989" stroke-miterlimit="10" stroke-linecap="round" stroke-linejoin="round"/>
<circle cx="132.468" cy="132.945" r="2.47979" fill="black" stroke="black" stroke-width="2.33989" stroke-miterlimit="10" stroke-linecap="round" stroke-linejoin="round"/>
<circle cx="59.9349" cy="166.734" r="2.47979" fill="black" stroke="black" stroke-width="2.33989" stroke-miterlimit="10" stroke-linecap="round" stroke-linejoin="round"/>
<circle cx="141.148" cy="167.662" r="2.47979" fill="black" stroke="black" stroke-width="2.33989" stroke-miterlimit="10" stroke-linecap="round" stroke-linejoin="round"/>
<path d="M126.881 98.1996C125.032 98.2305 123.432 97.251 122.328 95.8226C121.223 94.3943 120.556 92.4608 120.52 90.3627C120.484 88.2651 121.083 86.3104 122.137 84.8458C123.192 83.3808 124.757 82.3485 126.606 82.3176C128.455 82.2867 130.055 83.267 131.16 84.6955C132.265 86.124 132.931 88.0574 132.967 90.1544C133.003 92.251 132.405 94.2056 131.35 95.6704C130.296 97.1354 128.731 98.1687 126.881 98.1996Z" fill="#A8A8A8" stroke="black" stroke-width="2.33989" stroke-miterlimit="10" stroke-linecap="round" stroke-linejoin="round"/>
<path d="M88.7546 97.2493C89.9019 98.74 91.5615 99.7606 93.4775 99.7282C95.3936 99.6958 97.0175 98.6197 98.1129 97.0909C99.2083 95.5622 99.8317 93.5203 99.7933 91.3278L88.7546 97.2493ZM88.7546 97.2493C87.6072 95.7586 86.9136 93.739 86.8763 91.5463L88.7546 97.2493ZM86.8763 91.5461C86.8378 89.3536 87.4613 87.3117 88.5567 85.783C89.6521 84.2542 91.2759 83.1781 93.192 83.1457C95.108 83.1134 96.7677 84.134 97.915 85.6246C99.0623 87.1152 99.7558 89.1346 99.7932 91.3271L86.8763 91.5461Z" fill="#A8A8A8" stroke="black" stroke-width="2.33989" stroke-miterlimit="10" stroke-linecap="round" stroke-linejoin="round"/>
<path d="M59.1641 114.143C70.778 110.486 118.011 104.191 148.062 109.739" stroke="black" stroke-width="2.34038" stroke-linecap="round"/>
<path d="M59.1641 114.244L75.9046 128.41L86.2953 110.845L99.3249 126.101L111.282 109.855L123.075 125.524L133.053 109.031L144.764 125.524" stroke="black" stroke-width="2.34038" stroke-linecap="round" stroke-linejoin="round"/>
<path d="M112.5 103.971C112.806 103.568 113.128 103.203 113.472 102.875C113.771 102.605 114.112 102.362 114.494 102.132C114.876 101.909 115.277 101.801 115.702 101.816C116.303 101.844 116.803 101.965 117.212 102.184C117.621 102.403 117.948 102.691 118.199 103.035C118.45 103.386 118.625 103.787 118.731 104.233C118.837 104.686 118.881 105.147 118.87 105.624C118.859 106.101 118.794 106.563 118.669 107.005C118.544 107.446 118.39 107.855 118.195 108.245C118 108.628 117.788 108.987 117.546 109.314C117.311 109.641 117.072 109.944 116.827 110.21C116.455 110.615 116.071 110.996 115.664 111.351C115.257 111.706 114.871 112.014 114.5 112.268C114.128 112.528 113.79 112.73 113.484 112.884C113.178 113.039 112.937 113.118 112.76 113.127C112.571 113.142 112.318 113.088 112.014 112.953C111.71 112.823 111.378 112.638 111.012 112.409C110.646 112.18 110.264 111.901 109.853 111.586C109.443 111.264 109.046 110.924 108.643 110.567C108.387 110.337 108.101 110.069 107.806 109.765C107.504 109.46 107.222 109.126 106.954 108.757C106.686 108.387 106.45 107.989 106.252 107.557C106.054 107.124 105.937 106.659 105.894 106.162C105.857 105.664 105.892 105.2 105.999 104.758C106.105 104.322 106.283 103.926 106.519 103.569C106.755 103.217 107.056 102.911 107.409 102.668C107.768 102.42 108.172 102.24 108.628 102.129C108.856 102.073 109.088 102.054 109.318 102.083C109.548 102.106 109.777 102.16 110.004 102.231C110.226 102.302 110.447 102.397 110.648 102.516C110.855 102.634 111.05 102.753 111.238 102.882C111.68 103.182 112.101 103.546 112.5 103.971Z" fill="#A8A8A8" stroke="black" stroke-width="2.30904" stroke-miterlimit="10" stroke-linecap="round" stroke-linejoin="round"/>
<path d="M96.8066 173.068C96.8364 172.965 96.8455 172.897 96.874 172.839C97.5381 171.498 98.204 170.159 98.8705 168.82C99.3745 167.807 99.8816 166.796 100.382 165.781C100.838 164.856 101.287 163.928 101.737 163C101.908 162.645 102.246 162.463 102.533 162.233C103.375 161.559 104.228 160.898 105.079 160.235C105.988 159.527 106.894 158.816 107.811 158.119C108.3 157.748 108.308 157.762 108.841 158.097C110.444 159.102 112.046 160.108 113.651 161.109C113.875 161.249 113.987 161.449 114.093 161.683C114.456 162.482 114.849 163.266 115.227 164.058C115.701 165.049 116.17 166.043 116.643 167.035C117.298 168.414 117.954 169.792 118.61 171.17C118.997 171.983 119.383 172.797 119.769 173.61C119.851 173.782 119.825 173.918 119.667 174.046C118.107 175.311 116.55 176.581 114.993 177.849C113.687 178.913 112.38 179.976 111.076 181.042C110.273 181.698 109.477 182.362 108.675 183.019C108.322 183.308 108.28 183.305 107.961 183.022C106.82 182.007 105.678 180.992 104.537 179.978C103.334 178.909 102.131 177.839 100.927 176.77C99.6098 175.603 98.2901 174.438 96.974 173.269C96.9055 173.21 96.8558 173.128 96.8066 173.068ZM118.21 173.563C118.187 173.413 118.193 173.313 118.155 173.232C117.691 172.237 117.222 171.244 116.752 170.252C116.279 169.253 115.806 168.253 115.329 167.256C114.626 165.787 113.915 164.322 113.22 162.85C113.125 162.65 113.036 162.633 112.857 162.729C111.474 163.466 110.086 164.194 108.708 164.94C108.592 165.003 108.487 165.17 108.464 165.303C108.383 165.776 108.345 166.257 108.281 166.733C108.117 167.949 107.946 169.164 107.782 170.38C107.706 170.948 107.646 171.518 107.569 172.086C107.508 172.538 107.432 172.987 107.362 173.437C107.337 173.599 107.423 173.66 107.564 173.637C107.818 173.594 108.07 173.534 108.322 173.481C108.812 173.379 109.302 173.282 109.79 173.174C110.594 172.995 111.395 172.806 112.199 172.629C112.695 172.52 113.199 172.447 113.69 172.321C114.089 172.218 114.445 172.141 114.868 172.325C115.718 172.695 116.603 172.985 117.473 173.306C117.698 173.389 117.925 173.463 118.21 173.563ZM105.987 173.787C106.01 173.715 106.026 173.679 106.032 173.641C106.102 173.181 106.175 172.722 106.239 172.263C106.356 171.434 106.47 170.605 106.579 169.776C106.659 169.167 106.723 168.558 106.803 167.95C106.911 167.128 107.022 166.306 107.143 165.487C107.174 165.276 107.089 165.175 106.904 165.122C106.176 164.916 105.447 164.708 104.72 164.503C104.16 164.345 103.598 164.197 103.043 164.028C102.771 163.945 102.687 163.969 102.573 164.21C102.273 164.842 101.97 165.474 101.659 166.101C101.214 166.996 100.756 167.884 100.312 168.78C99.6942 170.023 99.0828 171.27 98.4757 172.519C98.432 172.609 98.443 172.725 98.4223 172.873C98.5455 172.814 98.6091 172.793 98.6631 172.757C99.8318 171.967 101.001 171.176 102.166 170.381C102.318 170.276 102.435 170.282 102.563 170.409C102.989 170.83 103.423 171.241 103.844 171.665C104.486 172.312 105.119 172.968 105.758 173.618C105.818 173.677 105.896 173.72 105.987 173.787ZM107.643 163.999C107.74 163.966 107.84 163.946 107.927 163.901C108.264 163.727 108.597 163.543 108.933 163.364C109.892 162.854 110.854 162.347 111.811 161.832C112.074 161.691 112.071 161.639 111.806 161.472C110.727 160.791 109.643 160.116 108.566 159.431C108.411 159.333 108.294 159.346 108.162 159.452C107.864 159.69 107.563 159.924 107.263 160.16C106.173 161.014 105.082 161.868 103.994 162.725C103.947 162.762 103.92 162.824 103.884 162.875C103.937 162.907 103.985 162.952 104.042 162.969C104.958 163.239 105.874 163.507 106.791 163.772C107.072 163.853 107.355 163.922 107.643 163.999ZM107.073 173.741C106.83 173.801 106.591 173.887 106.344 173.913C106.101 173.939 106.059 174.023 106.107 174.25C106.272 175.028 106.422 175.808 106.569 176.589C106.651 177.029 106.706 177.473 106.791 177.912C106.961 178.798 107.139 179.682 107.323 180.565C107.343 180.662 107.395 180.77 107.465 180.838C107.679 181.047 107.901 181.25 108.138 181.43C108.218 181.491 108.379 181.531 108.459 181.492C108.616 181.415 108.776 181.301 108.73 181.071C108.625 180.544 108.526 180.015 108.424 179.488C108.211 178.39 107.998 177.291 107.784 176.193C107.638 175.444 107.483 174.697 107.347 173.947C107.314 173.766 107.236 173.723 107.073 173.741Z" fill="black"/>
<path d="M118.211 173.562C117.926 173.463 117.699 173.388 117.475 173.305C116.604 172.984 115.719 172.694 114.87 172.324C114.446 172.14 114.091 172.217 113.691 172.32C113.201 172.446 112.697 172.52 112.201 172.628C111.397 172.805 110.596 172.994 109.792 173.173C109.304 173.281 108.813 173.379 108.324 173.481C108.071 173.534 107.82 173.593 107.566 173.636C107.425 173.659 107.339 173.598 107.364 173.437C107.434 172.987 107.509 172.537 107.57 172.086C107.647 171.518 107.708 170.947 107.784 170.379C107.947 169.163 108.119 167.949 108.282 166.733C108.347 166.256 108.385 165.776 108.466 165.302C108.489 165.169 108.594 165.003 108.709 164.939C110.087 164.193 111.476 163.466 112.858 162.728C113.038 162.632 113.127 162.649 113.221 162.849C113.917 164.321 114.628 165.786 115.331 167.255C115.808 168.252 116.281 169.252 116.754 170.251C117.224 171.244 117.693 172.236 118.157 173.231C118.193 173.312 118.188 173.413 118.211 173.562Z" fill="white"/>
<path d="M105.989 173.788C105.897 173.721 105.819 173.678 105.76 173.618C105.121 172.969 104.487 172.313 103.845 171.666C103.424 171.242 102.99 170.83 102.565 170.41C102.436 170.283 102.32 170.277 102.168 170.381C101.003 171.177 99.8333 171.967 98.6646 172.757C98.6106 172.793 98.5469 172.815 98.4238 172.874C98.4444 172.726 98.4335 172.61 98.4772 172.52C99.0843 171.271 99.6956 170.025 100.313 168.78C100.757 167.885 101.215 166.997 101.66 166.102C101.972 165.474 102.274 164.843 102.575 164.21C102.689 163.97 102.773 163.946 103.044 164.028C103.6 164.197 104.162 164.345 104.721 164.504C105.449 164.71 106.177 164.916 106.905 165.123C107.09 165.175 107.176 165.277 107.145 165.487C107.023 166.307 106.912 167.128 106.804 167.95C106.724 168.558 106.661 169.168 106.581 169.776C106.472 170.606 106.357 171.435 106.241 172.263C106.176 172.724 106.104 173.183 106.033 173.642C106.027 173.68 106.011 173.716 105.989 173.788Z" fill="white"/>
<path d="M107.642 163.997C107.353 163.92 107.071 163.851 106.79 163.77C105.873 163.505 104.957 163.236 104.041 162.966C103.984 162.949 103.936 162.904 103.883 162.872C103.919 162.822 103.946 162.76 103.993 162.722C105.081 161.866 106.172 161.012 107.262 160.157C107.562 159.921 107.863 159.687 108.161 159.449C108.293 159.344 108.41 159.33 108.565 159.428C109.642 160.114 110.726 160.789 111.805 161.469C112.069 161.636 112.073 161.688 111.81 161.83C110.853 162.345 109.892 162.851 108.932 163.361C108.596 163.54 108.264 163.724 107.926 163.899C107.839 163.944 107.739 163.964 107.642 163.997Z" fill="white"/>
<path d="M107.072 173.742C107.236 173.723 107.313 173.767 107.346 173.948C107.481 174.698 107.637 175.445 107.783 176.194C107.997 177.292 108.21 178.39 108.423 179.488C108.525 180.016 108.624 180.544 108.729 181.071C108.775 181.301 108.615 181.416 108.457 181.492C108.377 181.532 108.216 181.492 108.136 181.431C107.899 181.25 107.678 181.047 107.464 180.839C107.393 180.77 107.341 180.663 107.321 180.565C107.138 179.682 106.96 178.798 106.789 177.912C106.705 177.474 106.65 177.029 106.567 176.59C106.421 175.809 106.271 175.028 106.105 174.251C106.057 174.024 106.1 173.939 106.343 173.914C106.589 173.888 106.829 173.802 107.072 173.742Z" fill="#FEF0D4"/>
<path d="M153.41 82.9912L62.0386 86.947L62.3948 94.1102L65.8725 93.877L66.1008 97.565L69.6811 97.4395L69.6038 100.699L73.0741 100.782L73.3048 104.365L99.6368 103.2L99.5162 99.4093L102.991 99.2813L102.868 95.5958L106.238 95.4652L105.987 88.3045L113.253 88.0558L113.504 95.2166L117.08 95.3014L117.208 98.7766L120.786 98.7562L120.919 102.021L143.304 100.954L143.179 97.3739L147.074 97.2558L146.839 93.8833L150.527 93.655L150.296 90.0722L153.879 89.8415L153.41 82.9912Z" fill="black"/>
<rect x="89.2266" y="90.1553" width="2.90045" height="2.90045" transform="rotate(-2.60337 89.2266 90.1553)" fill="#EFCB4F"/>
<rect x="95.1758" y="89.8281" width="2.90045" height="2.90045" transform="rotate(-2.60337 95.1758 89.8281)" fill="#EFCB4F"/>
<rect x="92.2871" y="92.8862" width="2.90045" height="2.90045" transform="rotate(-2.60337 92.2871 92.8862)" fill="#EFCB4F"/>
<rect x="89.5566" y="95.9502" width="2.90045" height="2.90045" transform="rotate(-2.60337 89.5566 95.9502)" fill="#EFCB4F"/>
<rect x="83.7676" y="96.125" width="2.90045" height="2.90045" transform="rotate(-2.60337 83.7676 96.125)" fill="#EFCB4F"/>
<rect x="86.4941" y="93.2192" width="2.90045" height="2.90045" transform="rotate(-2.60337 86.4941 93.2192)" fill="#EFCB4F"/>
<rect x="136.926" y="87.9834" width="2.90045" height="2.90045" transform="rotate(-2.60337 136.926 87.9834)" fill="#EFCB4F"/>
<rect x="142.875" y="87.6562" width="2.90045" height="2.90045" transform="rotate(-2.60337 142.875 87.6562)" fill="#EFCB4F"/>
<rect x="139.986" y="90.7144" width="2.90045" height="2.90045" transform="rotate(-2.60337 139.986 90.7144)" fill="#EFCB4F"/>
<rect x="137.256" y="93.7769" width="2.90045" height="2.90045" transform="rotate(-2.60337 137.256 93.7769)" fill="#EFCB4F"/>
<rect x="131.467" y="93.9531" width="2.90045" height="2.90045" transform="rotate(-2.60337 131.467 93.9531)" fill="#EFCB4F"/>
<rect x="134.193" y="91.0474" width="2.90045" height="2.90045" transform="rotate(-2.60337 134.193 91.0474)" fill="#EFCB4F"/>
</g>
<defs>
<linearGradient id="paint0_linear_5840_14838" x1="111.103" y1="-0.000488281" x2="169.64" y2="205.088" gradientUnits="userSpaceOnUse">
<stop stop-color="#00F0FF"/>
<stop offset="1" stop-color="#FF6F43"/>
</linearGradient>
<linearGradient id="paint1_linear_5840_14838" x1="102.9" y1="0.911133" x2="161.437" y2="206" gradientUnits="userSpaceOnUse">
<stop stop-color="#00F0FF"/>
<stop offset="1" stop-color="#FF6F43"/>
</linearGradient>
<linearGradient id="paint2_linear_5840_14838" x1="-0.402344" y1="96.6968" x2="191.485" y2="96.6968" gradientUnits="userSpaceOnUse">
<stop stop-color="#101010"/>
<stop offset="1" stop-color="#484848"/>
</linearGradient>
<clipPath id="clip0_5840_14838">
<rect x="18.5859" y="19.1411" width="168.89" height="168.89" rx="84.445" fill="white"/>
</clipPath>
</defs>
</svg>
