<svg width="526" height="348" viewBox="0 0 526 348" fill="none" xmlns="http://www.w3.org/2000/svg">
<path d="M234.427 40.7462C241.334 28.7911 258.126 19.0996 271.934 19.0996H438.934C452.741 19.0996 458.334 28.7911 451.427 40.7462L287.507 324.453C280.6 336.408 263.807 346.1 250 346.1H83.0003C69.1931 346.1 63.5998 336.408 70.5072 324.453L234.427 40.7462Z" fill="#141922"/>
<path opacity="0.45" d="M67.5 338.1L64 316.6L447 7.09961C454.318 12.0761 455.835 21.6408 455.468 29.0912C455.237 33.788 453.356 38.119 451.037 42.21C398.079 135.637 296.065 314.296 285.5 327.6C274.7 341.2 262.333 345.266 257.5 345.6C199.833 345.766 83 346 77 345.6C71 345.2 68.1667 340.433 67.5 338.1Z" fill="#141922" stroke="url(#paint0_linear_5840_6774)"/>
<rect x="0.249861" y="0.432933" width="216" height="376.657" rx="24.5" transform="matrix(1 0 -0.500278 0.865865 242.15 1.15768)" fill="#141922" stroke="url(#paint1_linear_5840_6774)"/>
<rect x="0.249861" y="0.432933" width="196.092" height="342.01" rx="24.5" transform="matrix(1 0 -0.500278 0.865865 243.439 16.1577)" fill="#141922" stroke="url(#paint2_linear_5840_6774)"/>
<rect x="438.645" y="42.2227" width="6.94532" height="43.4082" rx="3.47266" transform="rotate(29.7676 438.645 42.2227)" fill="#00F0FF"/>
<rect x="297" y="23.0996" width="59" height="11" rx="5.5" fill="#141922"/>
<rect x="146" y="331.1" width="43" height="8" rx="4" fill="#FF6F43"/>
<path d="M397 114.6L402.5 119.1L323 254.6L320.5 247.6L397 114.6Z" fill="url(#paint3_linear_5840_6774)" stroke="url(#paint4_linear_5840_6774)"/>
<path opacity="0.45" d="M329 246.6L397.5 125.1H516.5C524.5 125.1 525.167 132.766 524.5 136.6C507.667 165.6 472.7 225.7 467.5 234.1C462.3 242.5 450 245.933 444.5 246.6H329Z" fill="#141922" stroke="url(#paint5_linear_5840_6774)"/>
<path d="M327 241.6L395.5 120.1H514.5C522.5 120.1 523.167 127.766 522.5 131.6C505.667 160.6 470.7 220.7 465.5 229.1C460.3 237.5 448 240.933 442.5 241.6H327Z" fill="#141922" stroke="url(#paint6_linear_5840_6774)"/>
<path d="M478.596 153.447L478.49 153.474C477.808 153.649 476.795 153.92 475.851 154.242C475.801 154.26 475.752 154.31 475.752 154.31C475.723 154.34 475.689 154.377 475.651 154.419L475.646 154.424C475.48 154.603 475.243 154.872 475.142 154.982L475.064 155.068C475.052 155.082 475.049 155.097 475.058 155.107C475.063 155.114 475.07 155.118 475.081 155.118C475.086 155.118 475.093 155.116 475.1 155.114L475.214 155.074C475.474 154.983 475.812 154.845 476.155 154.723L476.168 154.719C476.822 154.49 477.56 154.23 478.006 154.073C478.006 154.073 478.079 154.045 478.132 153.992L478.624 153.498C478.637 153.485 478.641 153.47 478.635 153.458C478.628 153.447 478.613 153.443 478.596 153.447Z" fill="url(#paint7_linear_5840_6774)"/>
<path d="M476.678 152.636C476.748 152.565 477.065 152.242 477.137 152.17L477.15 152.157C479.261 150.04 481.587 148.042 484.063 146.221L484.132 146.17C484.152 146.155 484.165 146.131 484.162 146.114C484.158 146.095 484.141 146.085 484.118 146.088L484.042 146.097C482.862 146.24 481.645 146.437 480.424 146.683C480.3 146.712 480.2 146.779 480.179 146.794C478.953 147.718 477.751 148.689 476.604 149.686C476.547 149.737 476.506 149.803 476.492 149.857C476.477 149.91 476.127 151.154 475.99 152.11C474.591 153.861 473.027 156.169 473.027 156.169C473.015 156.184 473.013 156.2 473.016 156.213C473.021 156.226 473.033 156.233 473.051 156.233H473.427C473.451 156.233 473.477 156.22 473.495 156.2L473.548 156.135C474.338 155.17 475.178 154.217 476.054 153.288C476.256 153.072 476.678 152.636 476.678 152.636Z" fill="url(#paint8_linear_5840_6774)"/>
<path d="M484.342 146.648L484.368 146.582C484.376 146.561 484.369 146.544 484.352 146.537C484.334 146.53 484.308 146.535 484.286 146.551L484.219 146.6C481.355 148.704 478.709 151.038 476.354 153.539L476.299 153.598C476.281 153.616 476.275 153.638 476.284 153.654C476.29 153.663 476.301 153.669 476.315 153.669C476.322 153.669 476.33 153.668 476.338 153.665L476.413 153.641C477.702 153.218 478.99 152.851 480.242 152.551C480.317 152.533 480.392 152.489 480.448 152.432C481.316 151.546 483.185 149.831 483.185 149.831C483.231 149.793 483.247 149.735 483.247 149.735C483.247 149.735 483.916 147.685 484.342 146.648Z" fill="url(#paint9_linear_5840_6774)"/>
<path d="M488.196 143.645C488.009 143.419 487.644 143.314 487.015 143.301C486.444 143.289 485.71 143.404 484.835 143.639C484.703 143.677 484.584 143.737 484.47 143.811C483.392 144.494 482.319 145.219 481.278 145.967L481.198 146.023C481.175 146.04 481.163 146.063 481.167 146.081C481.171 146.1 481.191 146.109 481.216 146.104L481.304 146.088C482.571 145.857 483.826 145.681 485.034 145.565C485.114 145.556 485.183 145.58 485.219 145.628C485.256 145.676 485.258 145.746 485.227 145.817C484.76 146.878 484.352 147.943 484.015 148.983L483.993 149.051C483.986 149.072 483.995 149.089 484.015 149.095C484.019 149.096 484.022 149.096 484.027 149.097C484.044 149.097 484.064 149.09 484.082 149.076L484.147 149.021C485.162 148.163 486.225 147.328 487.306 146.538C487.427 146.45 487.472 146.395 487.521 146.315C488.34 144.93 488.411 143.905 488.196 143.645Z" fill="url(#paint10_linear_5840_6774)"/>
<rect x="0.741996" y="-0.374382" width="22.641" height="4.93967" rx="2.46984" transform="matrix(0.491478 -0.87089 0.992515 0.122126 394.397 147.006)" fill="#141922" stroke="url(#paint11_linear_5840_6774)"/>
<rect x="0.741996" y="-0.374382" width="22.641" height="4.93967" rx="2.46984" transform="matrix(0.491478 -0.87089 0.992515 0.122126 379.741 175.006)" fill="#141922" stroke="url(#paint12_linear_5840_6774)"/>
<rect x="0.22265" y="0.416025" width="29.716" height="36.2574" rx="2.96119" transform="matrix(1 0 -0.5547 0.83205 479.188 129.169)" stroke="#656565"/>
<path d="M474.987 139.517L502.326 139.395" stroke="url(#paint13_linear_5840_6774)"/>
<path d="M476.288 134.93L504.991 134.674" stroke="url(#paint14_linear_5840_6774)"/>
<path d="M193.008 213.509C181.228 231.179 154.463 245.503 133.227 245.503C111.991 245.503 104.325 231.179 116.104 213.509C127.884 195.84 154.649 181.516 175.885 181.516C197.121 181.516 204.787 195.84 193.008 213.509Z" fill="#141922" stroke="url(#paint15_linear_5840_6774)"/>
<circle cx="38.9516" cy="38.9516" r="38.4516" transform="matrix(1 0 -0.5547 0.83205 134.396 177.003)" fill="#141922" stroke="url(#paint16_linear_5840_6774)"/>
<path d="M143.33 225.167L141.83 227.418H136.516L138.017 225.167C132.172 225.167 130.091 221.116 133.392 216.165H138.705C137.055 218.64 138.095 220.666 141.018 220.666L147.02 211.663C141.175 211.663 139.093 207.612 142.394 202.661C145.695 197.709 153.178 193.658 159.023 193.658L160.524 191.407H165.837L164.337 193.658C170.182 193.658 172.263 197.709 168.962 202.661H163.648C165.299 200.185 164.258 198.159 161.336 198.159L155.334 207.162H156.397C158.256 207.162 160.047 208.062 161.007 209.413C162.082 210.988 162.025 213.464 160.225 216.165C156.658 221.116 149.175 225.167 143.33 225.167ZM146.331 220.666C149.254 220.666 152.995 218.64 154.646 216.165C156.296 213.689 155.255 211.663 152.333 211.663L146.331 220.666ZM156.022 198.159C153.1 198.159 149.358 200.185 147.708 202.661C146.057 205.136 147.098 207.162 150.02 207.162L156.022 198.159Z" fill="url(#paint17_linear_5840_6774)"/>
<circle cx="38.9516" cy="38.9516" r="38.4516" transform="matrix(1 0 -0.5547 0.83205 78.332 128.1)" fill="#141922" stroke="url(#paint18_linear_5840_6774)"/>
<circle cx="38.9516" cy="38.9516" r="38.4516" transform="matrix(1 0 -0.5547 0.83205 76.2129 122.1)" fill="#141922" stroke="url(#paint19_linear_5840_6774)"/>
<path d="M111.106 154.681L87.5835 163.813L97.5752 148.157L109.085 130.129L111.106 154.681Z" fill="url(#paint20_linear_5840_6774)"/>
<path d="M109.078 130.129L97.5655 148.162L87.5764 163.813L75.3487 155.25L109.078 130.129Z" fill="url(#paint21_linear_5840_6774)"/>
<path d="M97.5696 148.162L111.103 154.681L87.5805 163.812L75.3529 155.25L97.5696 148.162Z" fill="url(#paint22_linear_5840_6774)"/>
<path d="M109.287 157.524L77.9496 178.901L85.7669 166.651L109.287 157.524Z" fill="#FFEDE9"/>
<path d="M85.7676 166.652L77.9503 178.902L73.5265 158.09L85.7676 166.652Z" fill="url(#paint23_linear_5840_6774)"/>
<path d="M295.597 90.6283C294.783 91.8493 292.931 92.8406 291.463 92.8406C289.996 92.8406 289.465 91.8493 290.279 90.6283C291.093 89.4073 292.945 88.416 294.413 88.416C295.883 88.4205 296.411 89.4073 295.597 90.6283Z" fill="#E0C091"/>
<path d="M290.208 89.8644C290.399 89.6703 290.385 89.4599 290.16 89.4371C289.879 89.4087 289.61 89.3628 289.356 89.2964L288.586 89.0947C285.716 88.343 285.637 85.4598 288.411 82.6548C291.177 79.8564 295.761 78.1857 298.629 78.9367L299.395 79.1373C302.258 79.8871 302.341 82.7744 299.57 85.5772C299.043 86.1105 298.448 86.6025 297.812 87.0446C297.034 87.5859 296.647 88.3958 296.769 88.9101C296.929 89.5901 297.993 90.2301 299.068 89.5598C300.498 88.6688 301.832 87.6271 302.977 86.4693C307.56 81.8342 307.43 77.0554 302.687 75.8134L301.921 75.6129C297.178 74.3709 289.596 77.13 285.013 81.765L282.263 84.546C281.009 85.8151 278.939 86.5683 277.64 86.2282C276.7 85.9822 275.203 86.527 274.295 87.4453C273.387 88.3636 273.413 89.3072 274.353 89.5533C275.651 89.8933 275.687 91.1978 274.432 92.467L268.842 98.1204C267.934 99.0387 267.96 99.9823 268.9 100.228C269.839 100.474 271.337 99.9296 272.245 99.0113L274.344 96.8875C277.526 93.669 282.776 91.7591 286.069 92.6214C287.091 92.8891 289.035 91.2544 289.878 90.229C289.978 90.1075 290.087 89.9858 290.208 89.8644Z" fill="#EC724A"/>
<path d="M238.746 120.604H236.264L235.972 118.132C235.915 117.699 235.801 117.401 235.632 117.235C235.459 117.067 235.185 116.982 234.805 116.972H234.159C233.894 116.972 233.558 117.156 233.406 117.383L231.257 120.606H229.103L235.307 111.3H239.458C240.783 111.3 241.675 111.515 242.141 111.949C242.607 112.382 242.55 113.028 241.982 113.882C241.553 114.524 240.949 115.066 240.172 115.51C239.394 115.957 238.515 116.282 237.537 116.49L237.519 116.517C237.771 116.616 237.962 116.769 238.086 116.975C238.21 117.18 238.293 117.426 238.336 117.712L238.746 120.604ZM236.606 112.576L235.212 114.668C234.837 115.229 235.161 115.683 235.933 115.683H236.176C236.857 115.683 237.517 115.526 238.158 115.215C238.8 114.904 239.282 114.509 239.604 114.027C239.909 113.569 239.956 113.211 239.74 112.955C239.528 112.699 239.043 112.572 238.292 112.572H236.609L236.606 112.576Z" fill="white"/>
<path d="M249.157 120.605H247.122L249.464 117.093C249.651 116.811 249.51 116.583 249.149 116.583H244.878C244.516 116.583 244.07 116.811 243.882 117.093L241.541 120.606H239.515L245.719 111.3H247.745L245.481 114.696C245.293 114.977 245.434 115.206 245.796 115.206H250.066C250.428 115.206 250.874 114.977 251.062 114.696L253.326 111.3H255.36L249.157 120.605Z" fill="white"/>
<path d="M255.567 120.759C254.08 120.759 253.16 120.339 252.806 119.499C252.452 118.66 252.727 117.566 253.626 116.217C254.585 114.78 255.819 113.627 257.328 112.757C258.836 111.889 260.376 111.453 261.939 111.453C263.402 111.453 264.303 111.872 264.642 112.712C264.981 113.551 264.695 114.655 263.785 116.02C262.822 117.464 261.591 118.618 260.095 119.474C258.593 120.329 257.088 120.759 255.567 120.759ZM256.478 119.421C257.46 119.421 258.428 119.133 259.376 118.558C260.324 117.983 261.145 117.177 261.834 116.143C262.544 115.078 262.817 114.255 262.654 113.67C262.49 113.085 261.927 112.794 260.965 112.794C260.002 112.794 259.024 113.098 258.031 113.71C257.042 114.318 256.212 115.121 255.547 116.119C254.877 117.124 254.628 117.926 254.806 118.525C254.99 119.12 255.546 119.421 256.478 119.421Z" fill="white"/>
<path d="M285.524 120.432H283.61L284.352 119.319H284.317C283.742 119.743 283.159 120.064 282.573 120.281C281.985 120.498 281.411 120.606 280.837 120.606C280.031 120.606 279.502 120.407 279.253 120.013C278.999 119.618 279.097 119.084 279.549 118.406C279.991 117.743 280.608 117.205 281.407 116.789C282.202 116.372 283.161 116.103 284.275 115.974L286.767 115.717L286.87 115.562C287.2 115.067 287.29 114.703 287.136 114.474C286.983 114.245 286.638 114.131 286.113 114.131C285.698 114.131 285.231 114.194 284.716 114.323C284.201 114.452 283.652 114.644 283.078 114.901L282.892 113.907C283.643 113.567 284.364 113.313 285.047 113.151C285.729 112.989 286.41 112.904 287.089 112.904C288.25 112.904 288.95 113.147 289.2 113.634C289.445 114.121 289.247 114.85 288.596 115.827L285.526 120.432H285.524ZM285.62 117.437L286.031 116.821L284.013 117.031C283.412 117.097 282.917 117.222 282.517 117.41C282.116 117.598 281.799 117.871 281.56 118.228C281.327 118.578 281.269 118.854 281.395 119.053C281.52 119.252 281.789 119.356 282.205 119.356C282.844 119.356 283.481 119.175 284.114 118.818C284.743 118.457 285.247 117.996 285.62 117.437Z" fill="white"/>
<path d="M311.598 117.191H306.346C306.047 117.191 305.667 117.423 305.554 117.675C305.346 118.138 305.312 118.506 305.451 118.779C305.637 119.143 306.12 119.324 306.902 119.324C307.209 119.324 307.602 119.269 308.085 119.158C308.567 119.047 309.089 118.87 309.657 118.624L309.816 119.666C309.066 119.994 308.369 120.23 307.725 120.381C307.079 120.532 306.432 120.606 305.781 120.606C304.468 120.606 303.662 120.278 303.371 119.618C303.08 118.959 303.324 118.038 304.111 116.851C304.894 115.676 305.907 114.725 307.154 113.995C308.399 113.269 309.612 112.904 310.797 112.904C311.94 112.904 312.626 113.214 312.863 113.833C313.101 114.452 312.839 115.329 312.082 116.464L311.598 117.191ZM309.977 116.041C310.283 116.041 310.677 115.811 310.806 115.552C311.001 115.159 311.063 114.845 310.988 114.611C310.884 114.291 310.541 114.128 309.962 114.128C309.414 114.128 308.831 114.302 308.218 114.648C307.821 114.872 307.454 115.145 307.117 115.467C306.82 115.749 306.867 116.041 307.214 116.041H309.977Z" fill="white"/>
<path d="M319.733 111.621H317.751L316.685 113.218H315.404L314.553 114.494H315.213C315.555 114.494 315.681 114.723 315.493 115.005L313.177 118.479C312.709 119.182 312.571 119.711 312.773 120.066C312.975 120.421 313.484 120.598 314.3 120.598L314.296 120.606H315.107L315.951 119.339L315.547 119.346C315.222 119.346 315.031 119.266 314.976 119.11C314.923 118.954 315.014 118.698 315.254 118.339L317.475 115.006C317.664 114.723 318.095 114.494 318.438 114.494H319.181L320.032 113.218H318.667L319.732 111.621H319.733Z" fill="white"/>
<path d="M276.756 120.281H274.92L279.314 113.692C279.456 113.477 279.252 113.349 278.957 113.466L275.034 115.03C274.52 115.235 274.03 115.235 273.796 115.027L272.002 113.472C271.865 113.351 271.484 113.483 271.34 113.698L266.949 120.285H265.184L270.537 112.255C271.031 111.514 272.323 111.071 272.799 111.477L274.945 113.301C275.184 113.502 275.66 113.505 276.17 113.305L280.904 111.449C281.92 111.051 282.61 111.494 282.118 112.231L276.751 120.282H276.756L276.756 120.281Z" fill="white"/>
<path fill-rule="evenodd" clip-rule="evenodd" d="M295.2 114.586C294.068 114.586 292.623 115.371 291.979 116.336L289.245 120.438H287.451L290.185 116.336C291.391 114.527 294.096 113.057 296.219 113.057H296.613L295.594 114.586H295.2Z" fill="white"/>
<path d="M319.646 120.581C317.882 120.581 317.194 119.873 317.437 118.805L319.366 118.096C319.229 118.763 319.546 119.195 320.62 119.195C321.644 119.195 322.242 118.835 322.509 118.435C322.865 117.901 322.422 117.696 321.344 117.387C320.235 117.069 319.26 116.607 320.17 115.241C321.074 113.886 322.952 113.105 324.433 113.105C325.852 113.105 326.534 113.711 326.443 114.718L324.553 115.406C324.607 114.861 324.392 114.481 323.515 114.481C322.8 114.481 322.175 114.79 321.901 115.2C321.606 115.642 321.782 115.878 322.871 116.207C324.002 116.566 325.205 116.946 324.226 118.414C323.329 119.76 321.485 120.581 319.646 120.581Z" fill="white"/>
<path d="M300.837 120.606L299.701 117.492C299.581 117.164 299.907 116.68 300.467 116.355L305.271 113.564H302.883L298.501 116.264C298 116.533 297.884 116.472 297.919 116.308L301.044 111.621H299.113L293.123 120.606H295.054L296.89 117.852C297.251 117.507 297.504 117.798 297.623 118.003L298.377 120.606H300.837Z" fill="white"/>
<path d="M286.23 115.905C286.23 115.905 286.82 115.754 286.945 115.52C287.037 115.348 287.025 115.676 287.013 115.863C287.007 115.935 286.916 116.014 286.781 116.065C286.582 116.139 286.356 116.127 286.296 116.037L286.221 115.926" fill="white"/>
<defs>
<linearGradient id="paint0_linear_5840_6774" x1="225.946" y1="324.663" x2="253.216" y2="6.53868" gradientUnits="userSpaceOnUse">
<stop stop-color="#DE643E"/>
<stop offset="1" stop-color="#9EFEFF"/>
</linearGradient>
<linearGradient id="paint1_linear_5840_6774" x1="89.7588" y1="354.067" x2="149.592" y2="7.08578" gradientUnits="userSpaceOnUse">
<stop stop-color="#DE643E"/>
<stop offset="1" stop-color="#9EFEFF"/>
</linearGradient>
<linearGradient id="paint2_linear_5840_6774" x1="75.992" y1="274.391" x2="298.263" y2="212.825" gradientUnits="userSpaceOnUse">
<stop stop-color="#DE643E"/>
<stop offset="1" stop-color="#9EFEFF"/>
</linearGradient>
<linearGradient id="paint3_linear_5840_6774" x1="354.418" y1="245.855" x2="376.201" y2="117.087" gradientUnits="userSpaceOnUse">
<stop stop-color="#DE643E"/>
<stop offset="1" stop-color="#9EFEFF"/>
</linearGradient>
<linearGradient id="paint4_linear_5840_6774" x1="354.418" y1="245.855" x2="376.201" y2="117.087" gradientUnits="userSpaceOnUse">
<stop stop-color="#DE643E"/>
<stop offset="1" stop-color="#9EFEFF"/>
</linearGradient>
<linearGradient id="paint5_linear_5840_6774" x1="409.946" y1="239.01" x2="416.991" y2="124.493" gradientUnits="userSpaceOnUse">
<stop stop-color="#DE643E"/>
<stop offset="1" stop-color="#9EFEFF"/>
</linearGradient>
<linearGradient id="paint6_linear_5840_6774" x1="407.946" y1="234.01" x2="414.991" y2="119.493" gradientUnits="userSpaceOnUse">
<stop stop-color="#DE643E"/>
<stop offset="1" stop-color="#9EFEFF"/>
</linearGradient>
<linearGradient id="paint7_linear_5840_6774" x1="477.198" y1="153.445" x2="477.198" y2="155.118" gradientUnits="userSpaceOnUse">
<stop stop-color="#F9F1EE"/>
<stop offset="1" stop-color="#F4E3DE"/>
</linearGradient>
<linearGradient id="paint8_linear_5840_6774" x1="480.73" y1="146.087" x2="480.73" y2="156.233" gradientUnits="userSpaceOnUse">
<stop stop-color="#F9F1EE"/>
<stop offset="1" stop-color="#F4E3DE"/>
</linearGradient>
<linearGradient id="paint9_linear_5840_6774" x1="481.938" y1="146.534" x2="481.938" y2="153.669" gradientUnits="userSpaceOnUse">
<stop stop-color="#F9F1EE"/>
<stop offset="1" stop-color="#F4E3DE"/>
</linearGradient>
<linearGradient id="paint10_linear_5840_6774" x1="485.601" y1="143.3" x2="485.601" y2="149.097" gradientUnits="userSpaceOnUse">
<stop stop-color="#F9F1EE"/>
<stop offset="1" stop-color="#F4E3DE"/>
</linearGradient>
<linearGradient id="paint11_linear_5840_6774" x1="-2.55117e-07" y1="4.61975" x2="19.6092" y2="-7.72456" gradientUnits="userSpaceOnUse">
<stop stop-color="#DE643E"/>
<stop offset="1" stop-color="#9EFEFF"/>
</linearGradient>
<linearGradient id="paint12_linear_5840_6774" x1="-2.55117e-07" y1="4.61975" x2="19.6092" y2="-7.72456" gradientUnits="userSpaceOnUse">
<stop stop-color="#DE643E"/>
<stop offset="1" stop-color="#9EFEFF"/>
</linearGradient>
<linearGradient id="paint13_linear_5840_6774" x1="474.445" y1="139.592" x2="478.638" y2="130.073" gradientUnits="userSpaceOnUse">
<stop stop-color="#141922"/>
<stop offset="0.460206" stop-color="#713B2F"/>
<stop offset="1" stop-color="#DE643E"/>
</linearGradient>
<linearGradient id="paint14_linear_5840_6774" x1="477.176" y1="135.254" x2="481.07" y2="125.832" gradientUnits="userSpaceOnUse">
<stop stop-color="#141922"/>
<stop offset="1" stop-color="#9EFEFF"/>
</linearGradient>
<linearGradient id="paint15_linear_5840_6774" x1="128.921" y1="241.87" x2="134.539" y2="177.469" gradientUnits="userSpaceOnUse">
<stop stop-color="#DE643E"/>
<stop offset="1" stop-color="#9EFEFF"/>
</linearGradient>
<linearGradient id="paint16_linear_5840_6774" x1="32.2235" y1="73.0371" x2="39.4553" y2="0.049901" gradientUnits="userSpaceOnUse">
<stop stop-color="#DE643E"/>
<stop offset="1" stop-color="#9EFEFF"/>
</linearGradient>
<linearGradient id="paint17_linear_5840_6774" x1="163.313" y1="191.407" x2="163.313" y2="227.418" gradientUnits="userSpaceOnUse">
<stop stop-color="white"/>
<stop offset="1" stop-color="#F5E7E3"/>
</linearGradient>
<linearGradient id="paint18_linear_5840_6774" x1="32.2235" y1="73.0371" x2="39.4553" y2="0.049901" gradientUnits="userSpaceOnUse">
<stop stop-color="#DE643E"/>
<stop offset="1" stop-color="#9EFEFF"/>
</linearGradient>
<linearGradient id="paint19_linear_5840_6774" x1="32.2235" y1="73.0371" x2="39.4553" y2="0.049901" gradientUnits="userSpaceOnUse">
<stop stop-color="#DE643E"/>
<stop offset="1" stop-color="#9EFEFF"/>
</linearGradient>
<linearGradient id="paint20_linear_5840_6774" x1="113.964" y1="129.586" x2="117.406" y2="160.491" gradientUnits="userSpaceOnUse">
<stop stop-color="white"/>
<stop offset="1" stop-color="#FFDDD4"/>
</linearGradient>
<linearGradient id="paint21_linear_5840_6774" x1="97.7841" y1="131.387" x2="101.226" y2="162.292" gradientUnits="userSpaceOnUse">
<stop stop-color="white"/>
<stop offset="1" stop-color="#FFDDD4"/>
</linearGradient>
<linearGradient id="paint22_linear_5840_6774" x1="96.524" y1="148.278" x2="98.1234" y2="162.638" gradientUnits="userSpaceOnUse">
<stop stop-color="white"/>
<stop offset="1" stop-color="#FFDDD4"/>
</linearGradient>
<linearGradient id="paint23_linear_5840_6774" x1="82.2349" y1="157.12" x2="84.5788" y2="178.163" gradientUnits="userSpaceOnUse">
<stop stop-color="white"/>
<stop offset="1" stop-color="#FFDDD4"/>
</linearGradient>
</defs>
</svg>
