<svg width="27" height="27" viewBox="0 0 27 27" fill="none" xmlns="http://www.w3.org/2000/svg">
<g clip-path="url(#clip0_19_50)">
<path d="M27 13.5C27 6.04416 20.9558 0 13.5 0C6.04416 0 0 6.04416 0 13.5C0 20.9558 6.04416 27 13.5 27C20.9558 27 27 20.9558 27 13.5Z" fill="#202939"/>
<path d="M7.24727 13.2744L10.4732 14.361L11.7218 17.9847C11.8017 18.2168 12.1162 18.3026 12.3249 18.1486L14.1231 16.8257C14.3115 16.6871 14.58 16.6802 14.777 16.8092L18.0202 18.9342C18.2435 19.0806 18.5599 18.9702 18.6159 18.7267L20.9918 8.41353C21.0529 8.14755 20.7633 7.92564 20.4826 8.02361L7.2435 12.6325C6.91679 12.7462 6.91964 13.1636 7.24727 13.2744ZM11.5206 13.7826L17.8251 10.2785C17.9384 10.2157 18.055 10.3539 17.9577 10.4354L12.7546 14.8C12.5717 14.9536 12.4537 15.1592 12.4203 15.3824L12.2431 16.5677C12.2196 16.726 11.9733 16.7417 11.9249 16.5885L11.2432 14.427C11.1651 14.1805 11.2789 13.9172 11.5206 13.7826Z" fill="#D2D6DB"/>
</g>
<defs>
<clipPath id="clip0_19_50">
<rect width="27" height="27" fill="white"/>
</clipPath>
</defs>
</svg>
