<svg width="26" height="27" viewBox="0 0 26 27" fill="none" xmlns="http://www.w3.org/2000/svg">
<g clip-path="url(#clip0_19_45)">
<path d="M0.459214 14.5079L6.45014 16.8785L8.76901 24.7848C8.9174 25.2911 9.50143 25.4783 9.8891 25.1423L13.2285 22.2561C13.5786 21.9537 14.0772 21.9386 14.443 22.2202L20.4662 26.8563C20.8809 27.1759 21.4684 26.935 21.5724 26.4037L25.9847 3.90225C26.0982 3.32193 25.5604 2.83776 25.0391 3.0515L0.452206 13.1073C-0.154528 13.3554 -0.149247 14.2661 0.459214 14.5079ZM8.39531 15.6165L20.1038 7.97117C20.3142 7.83415 20.5307 8.13581 20.35 8.31353L10.6871 17.8364C10.3475 18.1715 10.1284 18.6201 10.0663 19.107L9.73716 21.6932C9.69359 22.0385 9.23605 22.0728 9.14617 21.7386L7.88024 17.0226C7.73526 16.4847 7.94656 15.9102 8.39531 15.6165Z" fill="#969190"/>
</g>
<defs>
<clipPath id="clip0_19_45">
<rect width="26" height="27" fill="white"/>
</clipPath>
</defs>
</svg>
