<svg width="199" height="192" viewBox="0 0 199 192" fill="none" xmlns="http://www.w3.org/2000/svg">
<circle cx="95.5" cy="95.5" r="94.95" transform="matrix(-1 0 0 1 191 1)" fill="#0F1217" stroke="#476666" stroke-width="1.1"/>
<circle cx="95.5" cy="95.5" r="94.95" transform="matrix(-1 0 0 1 199 0)" fill="#00040C" stroke="#476666" stroke-width="1.1"/>
<circle cx="81.0689" cy="81.0689" r="80.5189" transform="matrix(-1 0 0 1 185 14)" fill="#00040C" stroke="#476666" stroke-width="1.1"/>
<path d="M101.672 30H101.669C65.9534 30 37 58.9534 37 94.6693V94.6716C37 130.388 65.9534 159.341 101.669 159.341H101.672C137.388 159.341 166.341 130.388 166.341 94.6716V94.6693C166.341 58.9534 137.388 30 101.672 30Z" fill="#0F1217"/>
<path fill-rule="evenodd" clip-rule="evenodd" d="M110.409 88.1417C110.409 93.5866 102.031 92.926 99.3731 92.926V83.3338C102.035 83.3338 110.409 82.4798 110.409 88.1417ZM112.596 103.033C112.596 108.982 102.561 108.303 99.3637 108.303V97.767C102.561 97.767 112.596 96.8233 112.596 103.056M119.206 86.0185C118.671 80.3094 113.849 78.4221 107.746 77.8276V70H103.059V77.6719C101.817 77.6719 100.551 77.6719 99.2893 77.7191V70H94.5789V77.8748H85.0233V82.9988C85.0233 82.9988 88.5048 82.9375 88.4536 82.9988C89.082 82.9287 89.7125 83.1091 90.212 83.5018C90.7115 83.8945 91.0407 84.4688 91.13 85.1032V106.67C91.1169 106.892 91.0608 107.109 90.9647 107.309C90.8687 107.509 90.7347 107.688 90.5704 107.835C90.406 107.983 90.2146 108.096 90.0072 108.168C89.7997 108.24 89.5802 108.27 89.3613 108.256C89.4218 108.312 85.9309 108.256 85.9309 108.256L85 113.979H94.5184V122H99.2334V114.097H102.999V121.948H107.714V114.036C115.678 113.564 121.212 111.549 121.929 103.976C122.492 97.8755 119.671 95.1578 115.161 94.0679C117.903 92.6524 119.625 90.1564 119.215 86.0044" fill="#1C2028"/>
<path d="M75.9897 65.9769C80.831 61.6797 86.7083 58.6636 93.067 57.2131C99.4257 55.7626 106.056 55.9255 112.333 57.6865L112.88 57.8391C113.153 57.9178 113.422 58.0011 113.691 58.089C114.077 58.2093 114.464 58.3388 114.841 58.473L115.218 58.6071C115.732 58.7922 116.246 58.9911 116.751 59.1993L116.812 59.227C120.834 60.9236 124.571 63.2071 127.897 66L130 63.7701C129.717 63.4925 129.425 63.2381 129.137 62.9744C121.856 56.7859 112.617 53.2615 102.988 53C102.474 53 101.96 53 101.446 53H101.338C98.2144 53.0424 95.105 53.4147 92.0632 54.1103L91.4408 54.2584L90.9221 54.3925C87.8911 55.1899 84.9617 56.3213 82.1899 57.7651C79.1549 59.3639 76.3919 61.4164 74 63.8488L75.9897 65.9769Z" fill="#1C2028"/>
<path d="M73.9503 69.0265L71.5134 67C54.9822 83.4575 57.3893 110.236 71.5134 123L74 121.153C67.1251 114.046 63.3063 104.749 63.298 95.098C63.2897 85.4469 67.0926 76.1438 73.9552 69.0265H73.9503Z" fill="#1C2028"/>
<path d="M134.13 68.1028C133.768 67.7258 133.401 67.3535 133.019 67L131 69.2151C142.862 82.7085 145.366 104.129 131.372 120.62L133.339 123C140.062 115.485 143.847 105.791 143.995 95.703C144.144 85.6151 140.647 75.8132 134.149 68.1028H134.13Z" fill="#1C2028"/>
<path d="M128.172 124C126.805 125.01 125.448 125.937 124.086 126.794C119.144 130.245 113.446 132.491 107.457 133.35C104.392 133.832 101.276 133.904 98.1925 133.564C90.4254 132.819 83.0726 129.753 77.1148 124.773C76.8038 124.549 76.4975 124.331 76.1723 124.098L74 126.021C81.6008 133.438 92.0195 137.005 102.273 137C102.499 137 102.745 137 102.952 137H103.06C112.598 136.754 121.762 133.281 129.02 127.162C129.35 126.854 129.684 126.552 130 126.23L128.172 124Z" fill="#1C2028"/>
<path d="M101.981 49.2889C111.024 49.2852 119.864 51.9634 127.384 56.9848C134.904 62.0062 140.766 69.1451 144.228 77.4984C147.69 85.8518 148.597 95.0443 146.834 103.913C145.071 112.782 140.717 120.929 134.323 127.323C127.929 133.717 119.782 138.07 110.913 139.834C102.044 141.597 92.8518 140.69 84.4984 137.228C76.1451 133.766 69.0062 127.904 63.9848 120.384C58.9634 112.864 56.2852 104.024 56.2889 94.9812C56.3076 82.8686 61.1275 71.2574 69.6925 62.6925C78.2574 54.1275 89.8686 49.3075 101.981 49.2889ZM101.981 46C92.2899 46.0037 82.8174 48.8812 74.7614 54.2684C66.7055 59.6557 60.428 67.3109 56.7227 76.2659C53.0175 85.2209 52.0509 95.0735 53.9452 104.578C55.8395 114.082 60.5097 122.811 67.3651 129.662C74.2205 136.512 82.9532 141.175 92.459 143.062C101.965 144.949 111.817 143.975 120.769 140.263C129.721 136.551 137.371 130.267 142.752 122.207C148.134 114.147 151.004 104.672 151 94.9812C150.998 88.5464 149.728 82.1752 147.263 76.2311C144.798 70.2871 141.187 64.8868 136.635 60.3385C132.083 55.7902 126.68 52.1829 120.734 49.7227C114.788 47.2625 108.416 45.9975 101.981 46Z" fill="#1C2028"/>
</svg>
