<svg width="214" height="206" viewBox="0 0 214 206" fill="none" xmlns="http://www.w3.org/2000/svg">
<circle cx="102.544" cy="102.544" r="102.43" transform="matrix(-1 0 0 1 205.088 0)" fill="url(#paint0_linear_5840_15720)" stroke="white" stroke-width="0.227876"/>
<circle cx="102.544" cy="102.544" r="102.43" transform="matrix(-1 0 0 1 213.291 0.911133)" fill="url(#paint1_linear_5840_15720)" stroke="white" stroke-width="0.227876"/>
<g clip-path="url(#clip0_5840_15720)">
<path d="M199.07 -3.19141H7.18164V196.587H199.07V-3.19141Z" fill="url(#paint2_linear_5840_15720)"/>
<path d="M135.613 143.648C143.826 148.131 160.254 169.191 160.762 185.386C161.27 201.582 154.997 203.525 148.271 202.494C147.091 201.902 145.523 202.03 144.999 199.636" fill="white"/>
<path d="M135.613 143.648C143.826 148.131 160.254 169.191 160.762 185.386C161.27 201.582 154.997 203.525 148.271 202.494C147.091 201.902 145.523 202.03 144.999 199.636" stroke="black" stroke-width="2.25042" stroke-linecap="round"/>
<mask id="mask0_5840_15720" style="mask-type:luminance" maskUnits="userSpaceOnUse" x="133" y="143" width="27" height="59">
<mask id="path-7-inside-1_5840_15720" fill="white">
<path d="M133.696 143.351C141.76 147.513 158.38 167.922 159.527 184.086C160.674 200.251 154.731 202.432 148.235 201.664C147.078 201.117 145.58 201.305 144.979 198.935"/>
</mask>
<path d="M133.696 143.351C141.76 147.513 158.38 167.922 159.527 184.086C160.674 200.251 154.731 202.432 148.235 201.664C147.078 201.117 145.58 201.305 144.979 198.935" fill="white"/>
<path d="M148.235 201.664L148.207 201.897L148.169 201.893L148.134 201.876L148.235 201.664ZM133.804 143.142C135.853 144.199 138.424 146.275 141.14 149.033C143.86 151.795 146.738 155.252 149.399 159.083C154.714 166.74 159.184 175.925 159.762 184.07L159.293 184.103C158.724 176.083 154.309 166.981 149.012 159.352C146.366 155.54 143.505 152.104 140.805 149.363C138.102 146.619 135.572 144.583 133.589 143.56L133.804 143.142ZM159.762 184.07C160.336 192.166 159.143 196.836 156.924 199.38C154.692 201.939 151.48 202.284 148.207 201.897L148.262 201.43C151.485 201.812 154.493 201.451 156.57 199.07C158.66 196.675 159.865 192.171 159.293 184.103L159.762 184.07ZM148.134 201.876C147.864 201.748 147.572 201.663 147.253 201.564C146.941 201.468 146.607 201.361 146.288 201.19C145.629 200.838 145.066 200.235 144.752 198.993L145.207 198.878C145.493 200.005 145.98 200.493 146.509 200.776C146.784 200.923 147.079 201.019 147.392 201.115C147.698 201.209 148.027 201.305 148.335 201.451L148.134 201.876Z" fill="white" mask="url(#path-7-inside-1_5840_15720)"/>
</mask>
<g mask="url(#mask0_5840_15720)">
<path d="M156.388 178.363C156.388 178.363 156.022 178.106 155.386 177.795C153.142 176.701 147.527 174.937 142.524 181.33C136.099 189.541 138.83 227.996 156.927 214.494C175.022 200.996 171.874 180.875 171.874 180.875L173.279 158.164L168.172 164.394" fill="white"/>
</g>
<path d="M112.586 229.351C93.5349 229.351 78.0907 207.765 78.0907 181.137C78.0907 154.508 93.5349 132.922 112.586 132.922C131.638 132.922 147.082 154.508 147.082 181.137C147.082 207.765 131.638 229.351 112.586 229.351Z" fill="white"/>
<mask id="path-11-inside-2_5840_15720" fill="white">
<path d="M91.8516 138.573C84.2085 142.483 60.6026 167.483 60.4269 184.497C60.1373 212.544 79.55 203.01 78.1753 198.155C78.1753 198.155 80.7443 192.062 80.3502 190.317C79.956 188.572 77.2279 175.767 81.1883 170.789"/>
</mask>
<path d="M91.8516 138.573C84.2085 142.483 60.6026 167.483 60.4269 184.497C60.1373 212.544 79.55 203.01 78.1753 198.155C78.1753 198.155 80.7443 192.062 80.3502 190.317C79.956 188.572 77.2279 175.767 81.1883 170.789" fill="white"/>
<path d="M60.4269 184.497L60.662 184.499L60.4269 184.497ZM78.1753 198.155L77.949 198.219L77.9266 198.14L77.9586 198.064L78.1753 198.155ZM91.9586 138.783C90.0802 139.743 87.1923 142.019 83.9046 145.175C80.6222 148.327 76.9571 152.342 73.5247 156.765C70.092 161.189 66.8956 166.018 64.5474 170.797C62.1977 175.579 60.7054 180.295 60.662 184.499L60.1918 184.494C60.2363 180.191 61.7606 175.403 64.1253 170.59C66.4914 165.774 69.7071 160.918 73.1532 156.477C76.5996 152.035 80.2801 148.003 83.5789 144.836C86.8724 141.674 89.8014 139.358 91.7445 138.364L91.9586 138.783ZM60.662 184.499C60.5898 191.489 61.7462 196.103 63.4736 199.026C65.1955 201.94 67.4882 203.181 69.7339 203.431C71.9912 203.681 74.2236 202.931 75.8063 201.821C76.5971 201.266 77.2156 200.628 77.5934 199.992C77.9721 199.355 78.0974 198.743 77.949 198.219L78.4015 198.091C78.5968 198.781 78.4162 199.528 77.9976 200.233C77.578 200.938 76.9076 201.622 76.0764 202.206C74.4148 203.372 72.0699 204.163 69.6821 203.898C67.2827 203.632 64.8624 202.301 63.0688 199.266C61.2807 196.24 60.1192 191.529 60.1918 184.494L60.662 184.499ZM78.1753 198.155C77.9586 198.064 77.9586 198.064 77.9586 198.063C77.9586 198.063 77.9587 198.063 77.9587 198.063C77.9588 198.063 77.9589 198.063 77.959 198.063C77.9593 198.062 77.9598 198.061 77.9604 198.059C77.9616 198.057 77.9634 198.052 77.9657 198.047C77.9705 198.035 77.9776 198.018 77.9869 197.996C78.0054 197.951 78.0327 197.885 78.0672 197.801C78.1363 197.632 78.2347 197.388 78.3516 197.09C78.5855 196.493 78.893 195.681 79.1879 194.814C79.4833 193.947 79.7645 193.031 79.9473 192.225C80.0388 191.823 80.1046 191.452 80.1359 191.132C80.1674 190.808 80.162 190.551 80.1208 190.368L80.5795 190.265C80.6369 190.519 80.6374 190.834 80.6039 191.177C80.5701 191.524 80.4999 191.916 80.4059 192.33C80.2179 193.158 79.9308 194.092 79.6331 194.966C79.3351 195.841 79.0249 196.661 78.7894 197.261C78.6716 197.562 78.5724 197.808 78.5025 197.979C78.4676 198.064 78.44 198.131 78.4211 198.176C78.4117 198.199 78.4044 198.216 78.3995 198.228C78.397 198.234 78.3952 198.238 78.3939 198.242C78.3932 198.243 78.3928 198.244 78.3924 198.245C78.3923 198.245 78.3921 198.246 78.3921 198.246C78.392 198.246 78.392 198.246 78.392 198.246C78.3919 198.246 78.3919 198.246 78.1753 198.155ZM80.1208 190.368C79.9226 189.491 79.1389 185.839 78.9016 181.779C78.7829 179.749 78.8003 177.609 79.0987 175.66C79.3966 173.713 79.9778 171.933 81.0043 170.643L81.3723 170.936C80.4187 172.134 79.8557 173.822 79.5635 175.731C79.2719 177.636 79.2534 179.74 79.371 181.752C79.6061 185.774 80.3835 189.397 80.5795 190.265L80.1208 190.368Z" fill="black" mask="url(#path-11-inside-2_5840_15720)"/>
<mask id="mask1_5840_15720" style="mask-type:luminance" maskUnits="userSpaceOnUse" x="60" y="138" width="32" height="66">
<mask id="path-13-inside-3_5840_15720" fill="white">
<path d="M91.8477 138.571C84.2046 142.481 60.5987 167.481 60.423 184.495C60.1333 212.542 79.5461 203.008 78.1714 198.153C78.1714 198.153 80.7404 192.06 80.3463 190.315C79.9521 188.57 77.224 175.765 81.1844 170.787"/>
</mask>
<path d="M91.8477 138.571C84.2046 142.481 60.5987 167.481 60.423 184.495C60.1333 212.542 79.5461 203.008 78.1714 198.153C78.1714 198.153 80.7404 192.06 80.3463 190.315C79.9521 188.57 77.224 175.765 81.1844 170.787" fill="white"/>
<path d="M60.423 184.495L60.6581 184.497L60.423 184.495ZM78.1714 198.153L77.9451 198.217L77.9227 198.138L77.9547 198.062L78.1714 198.153ZM91.9547 138.781C90.0763 139.742 87.1884 142.017 83.9007 145.173C80.6183 148.325 76.9532 152.34 73.5208 156.763C70.0881 161.187 66.8917 166.016 64.5435 170.795C62.1938 175.577 60.7015 180.294 60.6581 184.497L60.1879 184.492C60.2323 180.19 61.7567 175.401 64.1214 170.588C66.4875 165.772 69.7032 160.916 73.1493 156.475C76.5957 152.033 80.2762 148.001 83.575 144.834C86.8685 141.672 89.7975 139.356 91.7406 138.362L91.9547 138.781ZM60.6581 184.497C60.5859 191.487 61.7423 196.101 63.4697 199.024C65.1916 201.938 67.4843 203.179 69.73 203.429C71.9873 203.679 74.2197 202.929 75.8024 201.819C76.5932 201.264 77.2116 200.626 77.5895 199.99C77.9682 199.353 78.0935 198.741 77.9451 198.217L78.3976 198.089C78.5929 198.779 78.4123 199.526 77.9936 200.231C77.5741 200.936 76.9037 201.62 76.0725 202.204C74.4109 203.37 72.066 204.161 69.6782 203.896C67.2788 203.63 64.8585 202.299 63.0649 199.264C61.2768 196.238 60.1153 191.527 60.1879 184.492L60.6581 184.497ZM78.1714 198.153C77.9547 198.062 77.9547 198.062 77.9547 198.062C77.9547 198.061 77.9548 198.061 77.9548 198.061C77.9549 198.061 77.955 198.061 77.9551 198.061C77.9554 198.06 77.9559 198.059 77.9565 198.057C77.9576 198.055 77.9594 198.05 77.9618 198.045C77.9666 198.033 77.9737 198.016 77.983 197.994C78.0015 197.949 78.0288 197.883 78.0633 197.799C78.1324 197.63 78.2308 197.386 78.3477 197.088C78.5816 196.491 78.889 195.679 79.184 194.812C79.4793 193.945 79.7606 193.029 79.9434 192.223C80.0348 191.821 80.1007 191.45 80.132 191.13C80.1635 190.806 80.1581 190.549 80.1169 190.366L80.5756 190.263C80.633 190.517 80.6335 190.832 80.6 191.175C80.5662 191.522 80.496 191.914 80.402 192.328C80.214 193.156 79.9269 194.09 79.6292 194.964C79.3312 195.839 79.021 196.659 78.7855 197.259C78.6677 197.56 78.5685 197.806 78.4986 197.977C78.4637 198.062 78.4361 198.129 78.4172 198.174C78.4078 198.197 78.4005 198.214 78.3956 198.226C78.3931 198.232 78.3912 198.237 78.39 198.24C78.3893 198.241 78.3889 198.242 78.3885 198.243C78.3884 198.243 78.3882 198.244 78.3881 198.244C78.3881 198.244 78.3881 198.244 78.388 198.244C78.388 198.244 78.388 198.244 78.1714 198.153ZM80.1169 190.366C79.9187 189.489 79.135 185.837 78.8977 181.777C78.779 179.747 78.7964 177.607 79.0948 175.658C79.3927 173.711 79.9739 171.931 81.0004 170.641L81.3684 170.934C80.4148 172.132 79.8518 173.82 79.5596 175.729C79.268 177.634 79.2495 179.738 79.3671 181.75C79.6022 185.772 80.3796 189.395 80.5756 190.263L80.1169 190.366Z" fill="white" mask="url(#path-13-inside-3_5840_15720)"/>
</mask>
<g mask="url(#mask1_5840_15720)">
<mask id="path-15-inside-4_5840_15720" fill="white">
<path d="M53.3414 182.31C53.3414 182.31 53.5171 182.282 53.8329 182.237C56.2405 181.893 66.7731 180.619 69.3446 184.239C72.2555 188.333 80.7415 181.591 80.7415 181.591C80.7415 181.591 96.2603 210.369 71.7688 210.73C47.2773 211.09 46.5507 191.825 46.5507 191.825"/>
</mask>
<path d="M53.3414 182.31C53.3414 182.31 53.5171 182.282 53.8329 182.237C56.2405 181.893 66.7731 180.619 69.3446 184.239C72.2555 188.333 80.7415 181.591 80.7415 181.591C80.7415 181.591 96.2603 210.369 71.7688 210.73C47.2773 211.09 46.5507 191.825 46.5507 191.825" fill="white"/>
<path d="M53.8329 182.237L53.8662 182.47L53.8659 182.47L53.8329 182.237ZM69.3446 184.239L69.153 184.375L69.1529 184.375L69.3446 184.239ZM80.7415 181.591L80.5952 181.407L80.8151 181.232L80.9484 181.479L80.7415 181.591ZM53.3414 182.31C53.304 182.078 53.304 182.078 53.304 182.078C53.304 182.078 53.304 182.078 53.304 182.078C53.304 182.078 53.304 182.078 53.3041 182.078C53.3041 182.078 53.3041 182.078 53.3042 182.078C53.3043 182.078 53.3044 182.078 53.3046 182.078C53.305 182.078 53.3056 182.078 53.3063 182.078C53.3077 182.077 53.3099 182.077 53.3127 182.077C53.3182 182.076 53.3265 182.074 53.3374 182.073C53.3591 182.069 53.3913 182.064 53.4334 182.058C53.5175 182.045 53.6411 182.027 53.7999 182.004L53.8659 182.47C53.7088 182.492 53.5867 182.51 53.504 182.523C53.4627 182.529 53.4312 182.534 53.4102 182.537C53.3996 182.539 53.3917 182.54 53.3864 182.541C53.3838 182.541 53.3819 182.542 53.3806 182.542C53.3799 182.542 53.3795 182.542 53.3792 182.542C53.379 182.542 53.3789 182.542 53.3788 182.542C53.3788 182.542 53.3788 182.542 53.3788 182.542C53.3788 182.542 53.3788 182.542 53.3788 182.542C53.3788 182.542 53.3788 182.542 53.3788 182.542C53.3788 182.542 53.3788 182.542 53.3414 182.31ZM53.7996 182.004C55.008 181.831 58.2585 181.425 61.5339 181.516C63.171 181.562 64.825 181.733 66.2374 182.124C67.6443 182.514 68.8472 183.133 69.5362 184.103L69.1529 184.375C68.5562 183.535 67.4782 182.956 66.1118 182.577C64.7509 182.2 63.1391 182.032 61.5207 181.986C58.285 181.896 55.0654 182.298 53.8662 182.47L53.7996 182.004ZM69.5362 184.103C70.2045 185.043 71.192 185.371 72.3424 185.317C73.5018 185.263 74.8025 184.819 76.0342 184.237C77.2623 183.657 78.4032 182.95 79.2385 182.385C79.6557 182.104 79.9957 181.858 80.2311 181.684C80.3488 181.596 80.4402 181.527 80.5021 181.479C80.533 181.455 80.5565 181.437 80.5722 181.425C80.58 181.419 80.5859 181.414 80.5898 181.411C80.5917 181.41 80.5931 181.408 80.594 181.408C80.5945 181.407 80.5948 181.407 80.595 181.407C80.5951 181.407 80.5952 181.407 80.5952 181.407C80.5952 181.407 80.5952 181.407 80.7415 181.591C80.8877 181.775 80.8877 181.775 80.8876 181.775C80.8875 181.775 80.8874 181.775 80.8872 181.775C80.8869 181.776 80.8864 181.776 80.8859 181.776C80.8847 181.777 80.8831 181.779 80.8809 181.78C80.8766 181.784 80.8702 181.789 80.8619 181.795C80.8453 181.808 80.8208 181.827 80.7889 181.852C80.725 181.901 80.6313 181.972 80.5113 182.061C80.2712 182.239 79.9255 182.489 79.5017 182.775C78.6549 183.347 77.4924 184.069 76.235 184.663C74.9814 185.255 73.6148 185.729 72.3644 185.787C71.105 185.846 69.9401 185.482 69.153 184.375L69.5362 184.103ZM80.7415 181.591C80.9484 181.479 80.9485 181.479 80.9487 181.48C80.9488 181.48 80.949 181.48 80.9493 181.481C80.9498 181.482 80.9506 181.483 80.9515 181.485C80.9535 181.489 80.9564 181.494 80.9602 181.501C80.9677 181.515 80.9789 181.536 80.9934 181.564C81.0224 181.619 81.0649 181.701 81.1192 181.807C81.2277 182.02 81.3834 182.331 81.5726 182.727C81.951 183.518 82.4638 184.649 83.0022 186.006C84.0781 188.719 85.2607 192.35 85.6731 195.999C86.085 199.643 85.7329 203.344 83.6936 206.162C81.6466 208.991 77.941 210.874 71.7723 210.965L71.7653 210.495C77.8423 210.405 81.3812 208.555 83.3127 205.887C85.2518 203.207 85.6122 199.647 85.2058 196.051C84.8 192.461 83.6336 188.874 82.5651 186.18C82.0313 184.834 81.523 183.713 81.1484 182.929C80.9611 182.538 80.8072 182.23 80.7004 182.021C80.647 181.916 80.6053 181.836 80.5771 181.783C80.563 181.756 80.5523 181.736 80.5451 181.722C80.5415 181.715 80.5388 181.71 80.5371 181.707C80.5362 181.705 80.5355 181.704 80.5351 181.703C80.5349 181.703 80.5348 181.703 80.5347 181.703C80.5346 181.702 80.5345 181.702 80.7415 181.591ZM71.7723 210.965C59.4532 211.146 53.0717 206.386 49.781 201.545C48.1402 199.131 47.2745 196.707 46.8188 194.887C46.5909 193.976 46.4653 193.216 46.3966 192.682C46.3622 192.415 46.3421 192.204 46.3305 192.06C46.3247 191.988 46.321 191.932 46.3188 191.894C46.3177 191.875 46.317 191.86 46.3165 191.85C46.3162 191.845 46.3161 191.841 46.316 191.838C46.3159 191.837 46.3159 191.836 46.3158 191.835C46.3158 191.835 46.3158 191.834 46.3158 191.834C46.3158 191.834 46.3158 191.834 46.5507 191.825C46.7857 191.816 46.7857 191.816 46.7857 191.816C46.7857 191.816 46.7857 191.816 46.7857 191.816C46.7857 191.817 46.7857 191.817 46.7858 191.818C46.7859 191.82 46.786 191.823 46.7862 191.828C46.7866 191.836 46.7873 191.849 46.7883 191.866C46.7903 191.901 46.7937 191.954 46.7992 192.022C46.8102 192.16 46.8296 192.363 46.863 192.622C46.9297 193.14 47.0521 193.882 47.275 194.772C47.7209 196.553 48.5676 198.923 50.1699 201.28C53.3653 205.982 59.5928 210.674 71.7653 210.495L71.7723 210.965Z" fill="black" mask="url(#path-15-inside-4_5840_15720)"/>
</g>
<path d="M91.8516 138.573C84.2085 142.483 60.6026 167.483 60.4269 184.497C60.1373 212.544 79.55 203.01 78.1753 198.155" fill="white"/>
<path d="M91.8516 138.573C84.2085 142.483 60.6026 167.483 60.4269 184.497C60.1373 212.544 79.55 203.01 78.1753 198.155" stroke="black" stroke-width="2.35117" stroke-linecap="round"/>
<path d="M133.328 146.158C136.5 151.077 149.281 176.95 145.536 195.628C143.038 218.761 140.182 217.761 141.371 221.137C141.73 222.472 142.254 222.411 144.277 224.038C145.894 225.34 145.892 231.433 145.536 233.767H116.744" fill="white"/>
<path d="M133.328 146.158C136.5 151.077 149.281 176.95 145.536 195.628C143.038 218.761 140.182 217.761 141.371 221.137C141.73 222.472 142.254 222.411 144.277 224.038C145.894 225.34 145.892 231.433 145.536 233.767H116.744" stroke="black" stroke-width="2.35117" stroke-linecap="round"/>
<path d="M94.1942 146.158C90.9413 149.698 82.9171 165.239 79.7118 175.702L94.1942 146.158ZM112.708 205.011L111.713 223.083C107.307 222.498 105.148 222.685 110.78 223.835C120.608 225.842 117.882 231.45 116.533 234.001H79.7118C79.7118 222.616 78.9876 212.109 78.9876 197.095" fill="white"/>
<path d="M94.1942 146.158C90.9413 149.698 82.9171 165.239 79.7118 175.702M112.708 205.011L111.713 223.083C107.307 222.498 105.148 222.685 110.78 223.835C120.608 225.842 117.882 231.45 116.533 234.001H79.7118C79.7118 222.616 78.9876 212.109 78.9876 197.095" stroke="black" stroke-width="2.35117" stroke-linecap="round" stroke-linejoin="round"/>
<path d="M154.658 191.02C153.592 192.656 150.828 195.469 148.319 193.63C147.632 192.512 146.901 189.815 149.449 187.959" fill="white"/>
<path d="M154.658 191.02C153.592 192.656 150.828 195.469 148.319 193.63C147.632 192.512 146.901 189.815 149.449 187.959" stroke="black" stroke-width="2.25042" stroke-linecap="round" stroke-linejoin="round"/>
<path d="M79.7439 175.643C79.5397 177.147 78.6659 180.453 78.7039 181.559C78.8535 185.818 83.7471 189.008 80.0431 195.915C79.0245 197.53 76.7949 200.325 75.064 195.807L75.2563 191.222" fill="white"/>
<path d="M79.7439 175.643C79.5397 177.147 78.6659 180.453 78.7039 181.559C78.8535 185.818 83.7471 189.008 80.0431 195.915C79.0245 197.53 76.7949 200.325 75.064 195.807L75.2563 191.222" stroke="black" stroke-width="2.35117" stroke-linecap="round"/>
<path d="M162.016 83.9251C162.017 83.929 162.019 83.9323 162.019 83.9349L162.021 83.9431L162.028 83.9653C170.184 108.882 165.611 121.713 165.325 122.416L165.318 122.433L165.313 122.45C165.312 122.452 165.311 122.454 165.311 122.455L165.311 122.456L165.304 122.467L165.299 122.478C161.716 129.872 155.151 135.274 147.886 139.198C140.624 143.121 132.695 145.549 126.434 147.012C119.059 148.732 111.438 149.083 103.93 148.073C97.2484 147.174 88.4995 145.433 80.3599 142.075C72.2524 138.731 64.7933 133.8 60.5564 126.541L60.5564 126.54L60.5049 126.445L60.5046 126.444C60.493 126.42 60.1199 125.642 59.6625 124.084C59.1989 122.505 58.6508 120.131 58.3056 116.94C57.6155 110.56 57.7362 100.911 60.9723 87.8186C60.9807 87.7894 60.9907 87.7473 60.9932 87.6967C60.996 87.6389 60.9881 87.5914 60.9821 87.5616L60.9779 87.5405L60.9714 87.52L60.9685 87.5107C60.786 86.9351 58.4568 79.588 57.1228 70.6384C56.452 66.1376 56.0344 61.2418 56.2649 56.6044C56.492 52.0341 57.3473 47.7431 59.1857 44.331C60.3619 44.7412 64.7449 46.3237 69.5487 48.7215C74.67 51.2778 80.1888 54.7222 82.8637 58.6109C83.0681 58.9097 83.4669 58.9323 83.7155 58.7491L83.7155 58.7492L83.7183 58.747C84.5512 58.1215 89.6916 55.0316 110.339 54.1927C130.021 53.4906 136.297 56.257 137.267 56.7577L137.267 56.7579L137.279 56.7639C137.528 56.8812 137.873 56.8243 138.041 56.5318C140.416 52.4443 145.671 48.5819 150.597 45.6371C155.218 42.8748 159.48 40.9594 160.623 40.4614C162.708 43.7255 163.877 47.9415 164.438 52.4836C165.008 57.0906 164.951 62.0043 164.611 66.5436C163.935 75.5844 162.145 83.0984 162.009 83.667C161.998 83.7086 161.993 83.752 161.994 83.7965C161.996 83.8454 162.005 83.8847 162.012 83.9097C162.013 83.9154 162.015 83.9206 162.016 83.9251Z" fill="white" stroke="black" stroke-width="0.781702"/>
<path d="M158.71 46.301C158.678 46.1503 158.499 46.0948 158.399 46.2078C157.133 47.7185 151.045 54.9851 147.111 59.2359C145.618 60.8537 145.572 63.5371 147.013 65.1914L154.724 74.0677C154.829 74.1904 155.276 74.2429 155.4 74.131C156.951 72.7594 162.641 66.1886 158.71 46.301Z" fill="white" stroke="black" stroke-width="2.25007" stroke-miterlimit="10" stroke-linecap="round" stroke-linejoin="round"/>
<path d="M68.9663 76.0712C69.1042 76.1562 69.5371 76.0196 69.615 75.8819L76.4071 64.1554C77.0374 63.0622 76.7158 61.5862 75.6783 60.8618C71.2543 57.755 62.4292 50.6 60.7372 49.2243C60.6234 49.1325 60.4529 49.2266 60.4535 49.3758C60.3654 69.6493 67.195 75.0215 68.9663 76.0712Z" fill="white" stroke="black" stroke-width="2.25007" stroke-miterlimit="10" stroke-linecap="round" stroke-linejoin="round"/>
<path d="M161.964 83.8767C161.949 83.8446 161.942 83.8286 161.952 83.7976C162.2 82.757 168.83 54.9702 161.027 41.1619C160.802 40.7586 159.534 40.3685 158.984 40.6173C154.718 42.5669 141.516 49.0482 137.261 56.3782C137.209 56.47 137.097 56.4961 137.004 56.4524C135.949 55.9076 129.593 53.1398 109.875 53.8378C89.2104 54.6715 83.9637 57.7605 83.0286 58.4622C82.9385 58.5286 82.797 58.5141 82.7307 58.4167C78.463 52.2138 67.2244 47.2195 61.6996 45.0488C60.6381 44.6293 59.3182 44.9672 58.8142 45.2575C58.3181 45.5481 57.3454 46.3737 57.0413 47.2546C51.9865 62.0001 59.8249 86.6328 60.1459 87.6533C60.1522 87.685 60.1515 87.7007 60.1416 87.7395C53.6503 114.009 59.6529 126.523 59.7181 126.643C59.7181 126.643 59.7181 126.643 59.7177 126.651C68.2994 141.486 90.0495 146.673 103.451 148.487C111.007 149.505 118.678 149.154 126.101 147.425C138.646 144.502 157.898 137.711 165.19 122.773C165.225 122.704 165.269 122.612 165.288 122.534C165.789 121.184 169.955 108.289 161.964 83.8767Z" fill="white" stroke="black" stroke-width="2.25007" stroke-miterlimit="10" stroke-linecap="round" stroke-linejoin="round"/>
<path d="M158.078 46.0191C158.046 45.8714 157.871 45.817 157.773 45.9278C156.533 47.4079 150.568 54.5272 146.713 58.6919C145.251 60.2769 145.206 62.906 146.618 64.5267L154.173 73.2232C154.275 73.3434 154.713 73.3949 154.834 73.2852C156.354 71.9414 161.929 65.5038 158.078 46.0191Z" fill="black"/>
<path d="M67.6516 75.4561C66.658 87.5778 67.6518 119.571 75.4016 133.283" stroke="black" stroke-width="2.25007" stroke-miterlimit="10" stroke-linecap="round" stroke-linejoin="round"/>
<path d="M78.0864 181.272C74.4102 180.477 65.7461 179.364 60.5 181.272M145.451 181.272C148.035 180.477 154.334 178.947 158.865 179.185" stroke="black" stroke-width="2.25007" stroke-miterlimit="10" stroke-linecap="round" stroke-linejoin="round"/>
<path d="M109.967 53.9414C115.67 59.977 122.933 84.7364 120.868 110.086" stroke="black" stroke-width="2.25007" stroke-miterlimit="10" stroke-linecap="round" stroke-linejoin="round"/>
<path d="M67.6211 134.827C84.5186 131.042 126.509 124.845 159.292 130.344" stroke="black" stroke-width="2.25007" stroke-miterlimit="10" stroke-linecap="round" stroke-linejoin="round"/>
<path d="M154.689 74.2656C158.862 99.3039 159.756 112.419 152.304 129.111M70.5 161.201C73.4808 162.393 80.5437 165.431 82.2129 168.293M142.766 167.563C143.958 165.973 147.177 162.317 150.516 160.409" stroke="black" stroke-width="2.25007" stroke-miterlimit="10" stroke-linecap="round" stroke-linejoin="round"/>
<path d="M73.3134 50.4191L69.1404 55.1883M55.1309 60.8517H60.7943M146.328 48.8555L150.813 53.1017M159.457 57.2748H163.332" stroke="black" stroke-width="2.25007" stroke-miterlimit="10" stroke-linecap="round" stroke-linejoin="round"/>
<path d="M68.2461 75.4571C84.8886 70.8866 125.149 64.0409 153.048 73.2216" stroke="black" stroke-width="2.25007" stroke-miterlimit="10" stroke-linecap="round" stroke-linejoin="round"/>
<path d="M89.1113 156.833L105.207 162.496L108.784 171.141M137.996 158.323L129.053 162.496L126.371 171.141" stroke="black" stroke-width="2.25007" stroke-miterlimit="10" stroke-linecap="round" stroke-linejoin="round"/>
<path d="M80.4668 172.929L114.745 188.727L124.494 187.945L144.036 175.2" stroke="black" stroke-width="2.25007" stroke-miterlimit="10" stroke-linecap="round" stroke-linejoin="round"/>
<path d="M102.823 129.707C103.419 133.582 102.823 142.822 100.736 147.294M136.207 128.217C136.307 131.694 136.028 139.782 134.121 144.313" stroke="black" stroke-width="2.25007" stroke-miterlimit="10" stroke-linecap="round" stroke-linejoin="round"/>
<circle cx="74.5174" cy="82.4832" r="2.3846" fill="white" stroke="black" stroke-width="2.25007" stroke-miterlimit="10" stroke-linecap="round" stroke-linejoin="round"/>
<circle cx="150.29" cy="78.7683" r="2.33081" fill="white" stroke="black" stroke-width="2.19932" stroke-miterlimit="10" stroke-linecap="round" stroke-linejoin="round"/>
<circle cx="97.3104" cy="135.369" r="2.3846" fill="white" stroke="black" stroke-width="2.25007" stroke-miterlimit="10" stroke-linecap="round" stroke-linejoin="round"/>
<circle cx="141.127" cy="133.88" r="2.3846" fill="white" stroke="black" stroke-width="2.25007" stroke-miterlimit="10" stroke-linecap="round" stroke-linejoin="round"/>
<circle cx="71.8748" cy="168.325" r="2.3846" fill="white" stroke="black" stroke-width="2.25007" stroke-miterlimit="10" stroke-linecap="round" stroke-linejoin="round"/>
<circle cx="150.035" cy="168.637" r="2.3846" fill="white" stroke="black" stroke-width="2.25007" stroke-miterlimit="10" stroke-linecap="round" stroke-linejoin="round"/>
<path d="M70.6348 115.794C81.8029 112.278 127.223 106.224 156.121 111.559" stroke="black" stroke-width="2.25054" stroke-linecap="round"/>
<path d="M121.924 106.013C122.218 105.626 122.527 105.275 122.859 104.96C123.146 104.7 123.474 104.466 123.842 104.245C124.209 104.031 124.594 103.927 125.003 103.941C125.581 103.969 126.061 104.085 126.455 104.295C126.848 104.506 127.163 104.783 127.404 105.114C127.645 105.451 127.814 105.837 127.916 106.266C128.017 106.701 128.06 107.145 128.049 107.603C128.039 108.062 127.976 108.506 127.856 108.931C127.736 109.355 127.588 109.749 127.4 110.124C127.212 110.492 127.008 110.837 126.777 111.151C126.551 111.466 126.32 111.757 126.085 112.013C125.727 112.403 125.358 112.769 124.967 113.11C124.575 113.452 124.204 113.748 123.847 113.992C123.489 114.242 123.164 114.436 122.87 114.585C122.576 114.733 122.344 114.809 122.174 114.819C121.992 114.833 121.749 114.781 121.457 114.65C121.164 114.526 120.845 114.348 120.493 114.128C120.141 113.907 119.774 113.64 119.379 113.336C118.984 113.026 118.602 112.7 118.215 112.356C117.968 112.135 117.694 111.878 117.41 111.585C117.12 111.292 116.849 110.971 116.591 110.616C116.333 110.261 116.106 109.878 115.916 109.462C115.725 109.046 115.612 108.599 115.571 108.12C115.536 107.642 115.569 107.196 115.672 106.771C115.774 106.351 115.945 105.97 116.173 105.627C116.4 105.289 116.689 104.995 117.028 104.761C117.373 104.522 117.762 104.349 118.2 104.242C118.419 104.189 118.643 104.17 118.864 104.198C119.085 104.22 119.305 104.272 119.524 104.34C119.737 104.409 119.949 104.5 120.143 104.614C120.342 104.728 120.53 104.842 120.711 104.967C121.136 105.255 121.54 105.605 121.924 106.013Z" fill="white" stroke="black" stroke-width="2.22041" stroke-miterlimit="10" stroke-linecap="round" stroke-linejoin="round"/>
<path d="M67.919 75.124C68.0541 75.2073 68.4783 75.0734 68.5546 74.9385L75.2091 63.4497C75.8266 62.3785 75.5116 60.9325 74.495 60.2228C70.1606 57.1789 61.5144 50.1689 59.8566 48.8211C59.7451 48.7312 59.5781 48.8233 59.5786 48.9695C59.4923 68.8322 66.1836 74.0956 67.919 75.124Z" fill="black"/>
<path d="M79.0371 206.423L116.635 188.58" stroke="black" stroke-width="2.25162"/>
<path d="M145.312 198.139L124.496 187.73" stroke="black" stroke-width="2.25162"/>
<path d="M108.366 88.1717C107.343 87.8203 88.9054 85.0984 87.9664 86.0791C87.0274 87.0598 83.8717 98.5058 93.9803 99.5709C104.089 100.636 109.389 88.5231 108.366 88.1717Z" fill="#FF9900" stroke="black" stroke-width="2.25001"/>
<path d="M156.537 93.7931C157.155 93.8624 157.711 93.418 157.781 92.8005C157.85 92.1831 157.406 91.6264 156.788 91.5571L156.537 93.7931ZM76.7457 84.8426L156.537 93.7931L156.788 91.5571L76.9965 82.6066L76.7457 84.8426Z" fill="black"/>
<circle cx="117.74" cy="167.416" r="11.7318" fill="#FF9900" stroke="black" stroke-width="1.86465"/>
<path fill-rule="evenodd" clip-rule="evenodd" d="M119.418 166.287C119.418 167.349 117.761 167.22 117.236 167.22V165.349C117.762 165.349 119.418 165.182 119.418 166.287ZM119.851 169.192C119.851 170.353 117.866 170.221 117.234 170.221V168.165C117.866 168.165 119.851 167.981 119.851 169.197M121.158 165.873C121.053 164.759 120.099 164.39 118.892 164.274V162.747H117.965V164.244C117.719 164.244 117.468 164.244 117.219 164.253V162.747H116.287V164.284H114.397V165.283C114.397 165.283 115.086 165.271 115.076 165.283C115.2 165.27 115.325 165.305 115.424 165.382C115.522 165.458 115.587 165.57 115.605 165.694V169.902C115.602 169.946 115.591 169.988 115.572 170.027C115.553 170.066 115.527 170.101 115.494 170.13C115.462 170.158 115.424 170.18 115.383 170.194C115.342 170.209 115.299 170.214 115.255 170.212C115.267 170.223 114.577 170.212 114.577 170.212L114.393 171.328H116.275V172.893H117.208V171.351H117.953V172.883H118.885V171.339C120.461 171.247 121.555 170.854 121.697 169.377C121.808 168.186 121.25 167.656 120.358 167.443C120.901 167.167 121.241 166.68 121.16 165.87" fill="black"/>
<path d="M112.722 162.001C113.668 161.146 114.815 160.546 116.057 160.257C117.299 159.969 118.593 160.001 119.819 160.352L119.926 160.382C119.979 160.398 120.031 160.414 120.084 160.432C120.159 160.456 120.235 160.481 120.309 160.508L120.382 160.535C120.483 160.572 120.583 160.611 120.681 160.653L120.693 160.658C121.479 160.996 122.208 161.45 122.858 162.006L123.268 161.562C123.213 161.507 123.156 161.456 123.1 161.404C121.678 160.172 119.874 159.471 117.994 159.419C117.894 159.419 117.793 159.419 117.693 159.419H117.672C117.062 159.427 116.455 159.501 115.861 159.64L115.739 159.669L115.638 159.696C115.046 159.855 114.474 160.08 113.933 160.367C113.341 160.685 112.801 161.094 112.334 161.578L112.722 162.001Z" fill="black"/>
<path d="M112.204 162.518L111.752 162.123C108.692 165.331 109.138 170.55 111.752 173.037L112.213 172.677C110.94 171.292 110.233 169.48 110.232 167.599C110.23 165.718 110.934 163.905 112.204 162.518H112.204Z" fill="black"/>
<path d="M124.009 162.323C123.938 162.249 123.866 162.176 123.791 162.107L123.396 162.54C125.717 165.176 126.206 169.36 123.469 172.582L123.854 173.047C125.169 171.579 125.909 169.685 125.938 167.714C125.967 165.744 125.283 163.829 124.012 162.323H124.009Z" fill="black"/>
<path d="M122.888 173.197C122.621 173.397 122.356 173.58 122.09 173.75C121.125 174.432 120.011 174.876 118.841 175.046C118.243 175.141 117.634 175.156 117.031 175.088C115.514 174.941 114.077 174.335 112.913 173.35C112.852 173.306 112.793 173.263 112.729 173.217L112.305 173.597C113.79 175.063 115.825 175.769 117.829 175.768C117.873 175.768 117.921 175.768 117.961 175.768H117.982C119.846 175.719 121.636 175.032 123.054 173.822C123.119 173.762 123.184 173.702 123.246 173.638L122.888 173.197Z" fill="black"/>
<path d="M117.781 158.66C119.553 158.659 121.285 159.184 122.759 160.168C124.232 161.152 125.381 162.551 126.059 164.188C126.738 165.824 126.915 167.626 126.57 169.364C126.225 171.101 125.371 172.698 124.119 173.951C122.866 175.203 121.269 176.057 119.532 176.402C117.794 176.748 115.992 176.57 114.356 175.891C112.719 175.213 111.32 174.064 110.336 172.591C109.352 171.117 108.827 169.385 108.828 167.613C108.832 165.24 109.776 162.965 111.454 161.286C113.133 159.608 115.408 158.664 117.781 158.66ZM117.781 158.016C115.882 158.016 114.026 158.58 112.448 159.636C110.869 160.691 109.639 162.191 108.913 163.946C108.187 165.701 107.998 167.631 108.369 169.494C108.74 171.356 109.655 173.067 110.998 174.409C112.342 175.751 114.053 176.665 115.915 177.035C117.778 177.404 119.709 177.214 121.463 176.486C123.217 175.759 124.716 174.528 125.77 172.948C126.825 171.369 127.387 169.512 127.386 167.613C127.386 166.352 127.137 165.104 126.654 163.939C126.171 162.775 125.464 161.716 124.572 160.825C123.68 159.934 122.621 159.227 121.456 158.745C120.291 158.263 119.042 158.015 117.781 158.016Z" fill="black"/>
<path d="M70.7745 119.062C78.8438 120.768 91.3498 131.207 118.048 117.225C128.501 111.752 142.121 120.113 153.632 123.286" stroke="black" stroke-width="2.17542" stroke-linecap="round"/>
<mask id="path-63-inside-5_5840_15720" fill="white">
<rect x="130.867" y="82.8076" width="12.1202" height="17.5588" rx="1.86465"/>
</mask>
<rect x="130.867" y="82.8076" width="12.1202" height="17.5588" rx="1.86465" fill="#FF9900" stroke="black" stroke-width="4.35085" mask="url(#path-63-inside-5_5840_15720)"/>
</g>
<defs>
<linearGradient id="paint0_linear_5840_15720" x1="102.544" y1="0" x2="161.082" y2="205.089" gradientUnits="userSpaceOnUse">
<stop stop-color="#00F0FF"/>
<stop offset="1" stop-color="#FF6F43"/>
</linearGradient>
<linearGradient id="paint1_linear_5840_15720" x1="102.544" y1="0" x2="161.082" y2="205.089" gradientUnits="userSpaceOnUse">
<stop stop-color="#00F0FF"/>
<stop offset="1" stop-color="#FF6F43"/>
</linearGradient>
<linearGradient id="paint2_linear_5840_15720" x1="7.18164" y1="96.6978" x2="199.069" y2="96.6978" gradientUnits="userSpaceOnUse">
<stop stop-color="#101010"/>
<stop offset="1" stop-color="#484848"/>
</linearGradient>
<clipPath id="clip0_5840_15720">
<rect x="26.1699" y="19.1416" width="168.89" height="168.89" rx="84.445" fill="white"/>
</clipPath>
</defs>
</svg>
