<svg width="202" height="191" viewBox="0 0 202 191" fill="none" xmlns="http://www.w3.org/2000/svg">
<circle cx="106.5" cy="95.4995" r="94.95" fill="#0F1217" stroke="#476666" stroke-width="1.1"/>
<circle cx="95.5" cy="95.4995" r="94.95" fill="#00040C" stroke="#476666" stroke-width="1.1"/>
<circle cx="95.4986" cy="95.0684" r="80.5189" fill="#00040C" stroke="#476666" stroke-width="1.1"/>
<path d="M95.6716 29.9995H95.6693C59.9534 29.9995 31 58.9529 31 94.6688V94.6712C31 130.387 59.9534 159.34 95.6693 159.34H95.6716C131.388 159.34 160.341 130.387 160.341 94.6712V94.6688C160.341 58.9529 131.388 29.9995 95.6716 29.9995Z" fill="#0F1217"/>
<path d="M100.507 51.9995C111.891 51.9995 122.255 56.3817 130.014 63.5526C130.588 64.0792 130.615 64.9773 130.054 65.5175L124.22 71.2501L117.211 78.1576L111.708 83.5796C111.216 84.0591 110.453 84.0928 109.912 83.6607C107.178 81.473 103.68 80.2305 99.8853 80.3791C92.7685 80.6694 86.7117 86.0104 85.5706 93.0395C85.125 95.7742 85.4423 98.4278 86.3268 100.784C86.5092 101.277 86.3809 101.831 86.0095 102.202L81.2559 106.888C80.6145 107.523 79.5274 107.368 79.1155 106.564C77.2046 102.891 76.212 98.6844 76.4483 94.2076C77.0831 82.2224 86.6712 72.4047 98.6429 71.4797C101.972 71.2231 105.145 71.7025 108.103 72.641C109.048 72.9381 109.669 72.7423 109.926 72.6208C110.007 72.5803 110.074 72.5263 110.135 72.4587L115.132 66.8004C115.733 66.1252 115.51 65.0583 114.693 64.6734C108.427 61.77 101.114 60.7369 93.4977 62.2696C80.2633 64.9435 69.8379 75.423 67.2451 88.6641C65.3882 98.1442 67.4949 107.125 72.2215 114.228C72.5861 114.775 72.5253 115.497 72.0594 115.957L67.0763 120.859C66.4821 121.446 65.503 121.352 65.0168 120.67C59.9662 113.553 57.002 104.869 57.002 95.5041C57.002 71.4864 76.4889 51.9995 100.507 51.9995Z" fill="#1C2028"/>
<path d="M89.4407 107.531L89.488 107.484C89.9269 107.031 90.6359 106.991 91.1288 107.376L91.1355 107.383C93.9444 109.597 97.5636 110.846 101.493 110.597C109.421 110.097 115.687 103.331 115.626 95.3906C115.612 93.8174 115.362 92.3184 114.91 90.9004C114.762 90.4345 114.897 89.9213 115.241 89.5702L120.015 84.6816C120.663 84.0199 121.784 84.1819 122.189 85.0125C123.857 88.4628 124.735 92.3724 124.566 96.4845C124.053 109.152 113.519 119.408 100.845 119.577C95.2881 119.651 94.1133 118.571 92.4049 118.112C91.9323 117.984 91.4259 118.125 91.0883 118.476L85.7 124.047C85.0585 124.716 85.2543 125.816 86.0916 126.215C90.2307 128.152 94.8155 129.287 99.6771 129.408C118.59 129.867 134.431 114.418 134.431 95.4987C134.431 88.6857 132.419 82.3521 128.982 77.0583C128.631 76.5249 128.691 75.8227 129.137 75.3635L134.039 70.3331C134.633 69.7254 135.633 69.8132 136.119 70.5087C143.398 80.8801 146.281 94.5804 142 108.909C137.955 122.454 127.219 133.122 113.647 137.072C97.4826 141.785 82.1281 137.437 71.5068 127.903C70.9329 127.383 70.8924 126.498 71.4325 125.944L89.4407 107.531Z" fill="#1C2028"/>
</svg>
