<svg width="214" height="206" viewBox="0 0 214 206" fill="none" xmlns="http://www.w3.org/2000/svg">
<circle cx="110.747" cy="102.544" r="102.43" fill="url(#paint0_linear_5840_18046)" stroke="white" stroke-width="0.227876"/>
<circle cx="102.544" cy="103.456" r="102.43" fill="url(#paint1_linear_5840_18046)" stroke="white" stroke-width="0.227876"/>
<g clip-path="url(#clip0_5840_18046)">
<path d="M191.131 -3.19189H-0.757812V196.587H191.131V-3.19189Z" fill="url(#paint2_linear_5840_18046)"/>
<mask id="mask0_5840_18046" style="mask-type:luminance" maskUnits="userSpaceOnUse" x="53" y="146" width="28" height="61">
<path d="M80.0905 146.22C71.812 150.493 54.7479 171.447 53.5704 188.043C52.393 204.639 58.4946 206.879 65.1643 206.09C66.3514 205.528 67.8897 205.722 68.5064 203.288" fill="white"/>
</mask>
<g mask="url(#mask0_5840_18046)">
<path d="M56.7971 182.167C56.7971 182.167 57.1725 181.903 57.8258 181.584C60.1295 180.46 65.8947 178.649 71.031 185.213C77.6275 193.643 74.8241 233.125 56.2437 219.262C37.6658 205.404 40.8982 184.746 40.8982 184.746L39.4551 161.429L44.6986 167.825" fill="white"/>
</g>
<path d="M78.1294 146.525C69.6973 151.127 52.8306 172.749 52.309 189.377C51.7873 206.004 58.2278 207.999 65.1339 206.941C66.3454 206.334 67.9543 206.464 68.493 204.007" fill="white"/>
<path d="M101.77 234.515C121.33 234.515 137.186 212.353 137.186 185.014C137.186 157.675 121.33 135.512 101.77 135.512C82.2099 135.512 66.3535 157.675 66.3535 185.014C66.3535 212.353 82.2099 234.515 101.77 234.515Z" fill="white"/>
<path d="M123.059 141.314C130.906 145.328 155.142 170.996 155.322 188.463C155.619 217.259 135.688 207.471 137.1 202.486C137.1 202.486 134.462 196.23 134.867 194.438C135.272 192.647 138.073 179.501 134.006 174.39" fill="white"/>
<mask id="mask1_5840_18046" style="mask-type:luminance" maskUnits="userSpaceOnUse" x="123" y="141" width="33" height="68">
<path d="M123.059 141.313C130.906 145.327 155.142 170.995 155.322 188.462C155.619 217.258 135.688 207.47 137.1 202.485C137.1 202.485 134.462 196.229 134.867 194.437C135.272 192.646 138.073 179.5 134.006 174.389" fill="white"/>
</mask>
<g mask="url(#mask1_5840_18046)">
<path d="M162.594 186.217C162.594 186.217 162.413 186.188 162.089 186.142C159.617 185.789 148.803 184.482 146.163 188.198C143.175 192.401 134.462 185.479 134.462 185.479C134.462 185.479 118.529 215.025 143.674 215.395C168.819 215.766 169.565 195.986 169.565 195.986" fill="white"/>
</g>
<path d="M137.192 185.153C140.967 184.337 149.862 183.194 155.248 185.153M68.0294 185.153C65.3771 184.337 58.9097 182.766 54.258 183.01" stroke="#7309DD" stroke-width="2.31012" stroke-miterlimit="10" stroke-linecap="round" stroke-linejoin="round"/>
<path d="M145.762 163.73C142.701 164.954 134.667 168.886 132.953 171.824M70.7843 171.075C69.5602 169.443 66.255 165.689 62.8275 163.73" stroke="#7309DD" stroke-width="2.31012" stroke-miterlimit="10" stroke-linecap="round" stroke-linejoin="round"/>
<path d="M125.871 160.058L109.345 165.873L105.673 174.748M75.6821 161.588L84.863 165.873L87.6173 174.748" stroke="#7A52E6" stroke-width="2.31012" stroke-miterlimit="10" stroke-linecap="round" stroke-linejoin="round"/>
<path d="M120.652 149.101C123.992 152.735 132.23 168.691 135.521 179.433M101.644 209.524L102.665 228.078C107.19 227.478 109.406 227.669 103.623 228.851C93.5337 230.911 96.3322 236.668 97.7168 239.288H135.521C135.521 227.599 136.265 216.811 136.265 201.396" stroke="#7309DD" stroke-width="2.41392" stroke-linecap="round" stroke-linejoin="round"/>
<path d="M78.1294 146.525C69.6973 151.127 52.8306 172.749 52.309 189.377C51.7873 206.004 58.2278 207.999 65.1339 206.941C66.3454 206.334 67.9543 206.464 68.493 204.007" stroke="#7309DD" stroke-width="2.31049" stroke-linecap="round"/>
<path d="M80.4751 149.101C77.2183 154.151 64.0957 180.714 67.9413 199.89C70.5058 223.641 73.4384 222.614 72.2171 226.081C71.849 227.451 71.3103 227.388 69.2333 229.059C67.5732 230.395 67.5757 236.651 67.9413 239.048H97.5012" stroke="#7309DD" stroke-width="2.41392" stroke-linecap="round"/>
<path d="M135.49 179.373C135.7 180.917 136.597 184.311 136.558 185.447C136.405 189.819 131.38 193.095 135.183 200.186C136.229 201.844 138.518 204.713 140.295 200.075L140.098 195.368" stroke="#7309DD" stroke-width="2.41392" stroke-linecap="round"/>
<path d="M123.059 141.314C130.906 145.328 155.142 170.996 155.322 188.463C155.619 217.259 135.688 207.471 137.1 202.486" stroke="#7309DD" stroke-width="2.41392" stroke-linecap="round"/>
<path d="M50.6313 85.1249C50.6378 85.0923 50.6531 85.0754 50.6435 85.0436C50.3879 83.9749 43.2198 53.9868 52.218 40.2134C52.271 40.1383 52.3507 40.1103 52.4332 40.1387C54.0733 40.8436 70.9975 48.2957 75.9871 56.8838C76.0404 56.9781 76.1553 57.005 76.2503 56.9601C77.3333 56.4009 83.8569 53.5603 104.096 54.2824C125.307 55.1441 130.693 58.3176 131.653 59.0385C131.746 59.1068 131.891 59.0918 131.959 58.9918C137.578 50.8223 154.965 44.6942 156.655 44.1144C156.743 44.086 156.818 44.1228 156.862 44.2014C164.824 58.6178 155.479 87.9821 155.149 89.022C155.143 89.0546 155.144 89.0707 155.153 89.1025C161.824 116.081 155.666 128.93 155.599 129.054C155.599 129.054 155.599 129.054 155.599 129.062C146.795 144.295 124.472 149.615 110.716 151.467C102.96 152.51 95.0864 152.148 87.4667 150.37C74.5728 147.358 54.7524 140.357 47.2936 124.965C47.2758 124.934 47.2666 124.91 47.2569 124.878C46.9246 124.063 42.2301 110.791 50.6313 85.1249Z" fill="white"/>
<path d="M144.842 117.926C133.376 114.316 86.7435 108.101 57.0745 113.578" stroke="#7309DD" stroke-width="2.31012" stroke-miterlimit="10" stroke-linecap="round" stroke-linejoin="round"/>
<path d="M157.699 107.57C146.478 104.51 116.875 98.8789 94.3509 98.3892C71.8271 97.8996 53.7519 101.964 47.6313 104.004" stroke="#7309DD" stroke-width="2.31012" stroke-miterlimit="10" stroke-linecap="round" stroke-linejoin="round"/>
<path d="M147.904 76.5117C148.924 88.957 147.904 121.804 139.947 135.882" stroke="#7309DD" stroke-width="2.31012" stroke-miterlimit="10" stroke-linecap="round" stroke-linejoin="round"/>
<path d="M104.459 54.4214C98.6039 60.6181 91.1466 86.0383 93.2666 112.064" stroke="#7309DD" stroke-width="2.31012" stroke-miterlimit="10" stroke-linecap="round" stroke-linejoin="round"/>
<path d="M147.934 137.466C130.585 133.58 87.4738 127.218 53.8158 132.864" stroke="#7309DD" stroke-width="2.31012" stroke-miterlimit="10" stroke-linecap="round" stroke-linejoin="round"/>
<path d="M58.5439 75.2876C54.2595 100.994 53.3414 114.459 60.9922 131.597" stroke="#7309DD" stroke-width="2.31012" stroke-miterlimit="10" stroke-linecap="round" stroke-linejoin="round"/>
<path d="M142.09 50.8053L146.374 55.7018M160.758 61.5164H154.943M67.0566 48.6406L62.5221 53.5596M53.6472 57.844H49.6688" stroke="#7309DD" stroke-width="2.31012" stroke-miterlimit="10" stroke-linecap="round" stroke-linejoin="round"/>
<path d="M147.293 76.5119C130.206 71.8195 88.8718 64.791 60.2273 74.2167" stroke="#7309DD" stroke-width="2.31012" stroke-miterlimit="10" stroke-linecap="round" stroke-linejoin="round"/>
<path d="M111.793 132.209C111.181 136.188 111.793 145.675 113.936 150.265M77.5179 130.679C77.4159 134.25 77.7016 142.553 79.6602 147.205" stroke="#7309DD" stroke-width="2.31012" stroke-miterlimit="10" stroke-linecap="round" stroke-linejoin="round"/>
<path d="M51.0697 85.1585C51.0843 85.1255 51.0916 85.109 51.0819 85.0773C50.8266 84.0089 44.0204 55.4805 52.0316 41.3037C52.2626 40.8895 53.5647 40.4891 54.1287 40.7445C58.5091 42.7461 72.0634 49.4004 76.432 56.9261C76.4853 57.0203 76.6002 57.0471 76.6953 57.0023C77.7787 56.4428 84.3047 53.6012 104.549 54.3179C125.765 55.1738 131.151 58.3452 132.111 59.0657C132.204 59.1339 132.349 59.1189 132.417 59.0189C136.799 52.6505 148.337 47.5229 154.01 45.2943C155.1 44.8636 156.455 45.2105 156.972 45.5085C157.482 45.8069 158.48 46.6546 158.792 47.559C163.982 62.6979 155.934 87.9881 155.605 89.0358C155.598 89.0684 155.599 89.0845 155.609 89.1243C162.274 116.095 156.111 128.942 156.044 129.067C156.044 129.067 156.044 129.067 156.045 129.075C147.234 144.305 124.903 149.631 111.144 151.493C103.386 152.538 95.5103 152.178 87.8892 150.403C75.0095 147.402 55.244 140.429 47.7577 125.093C47.7217 125.022 47.6765 124.928 47.6564 124.848C47.1421 123.461 42.865 110.222 51.0697 85.1585Z" stroke="#7A52E6" stroke-width="2.31012" stroke-miterlimit="10" stroke-linecap="round" stroke-linejoin="round"/>
<path d="M54.4189 46.5792C54.4517 46.4245 54.6352 46.3674 54.7382 46.4835C56.0381 48.0345 62.2884 55.495 66.3279 59.8593C67.8601 61.5203 67.9073 64.2753 66.428 65.9737L58.5111 75.0869C58.4039 75.2129 57.9449 75.2668 57.8177 75.1519C56.2251 73.7437 50.3828 66.9976 54.4189 46.5792Z" fill="#7A52E6" stroke="#7A52E6" stroke-width="2.31012" stroke-miterlimit="10" stroke-linecap="round" stroke-linejoin="round"/>
<path d="M146.559 77.1453C146.417 77.2326 145.973 77.0923 145.893 76.951L138.919 64.9116C138.272 63.7891 138.602 62.2738 139.668 61.5301C144.21 58.3403 153.27 50.9944 155.007 49.5819C155.124 49.4877 155.299 49.5843 155.299 49.7375C155.389 70.552 148.377 76.0677 146.559 77.1453Z" fill="#7A52E6" stroke="#7A52E6" stroke-width="2.31012" stroke-miterlimit="10" stroke-linecap="round" stroke-linejoin="round"/>
<circle cx="2.44824" cy="2.44824" r="2.44824" transform="matrix(-1 0 0 1 144.846 79.1128)" fill="#9AF452" stroke="#744CEB" stroke-width="2.31012" stroke-miterlimit="10" stroke-linecap="round" stroke-linejoin="round"/>
<circle cx="2.44824" cy="2.44824" r="2.44824" transform="matrix(-1 0 0 1 66.502 76.6646)" fill="#9AF452" stroke="#744CEB" stroke-width="2.31012" stroke-miterlimit="10" stroke-linecap="round" stroke-linejoin="round"/>
<circle cx="2.44824" cy="2.44824" r="2.44824" transform="matrix(-1 0 0 1 119.902 135.576)" fill="#9AF452" stroke="#744CEB" stroke-width="2.31012" stroke-miterlimit="10" stroke-linecap="round" stroke-linejoin="round"/>
<circle cx="2.44824" cy="2.44824" r="2.44824" transform="matrix(-1 0 0 1 74.916 134.045)" fill="#9AF452" stroke="#744CEB" stroke-width="2.31012" stroke-miterlimit="10" stroke-linecap="round" stroke-linejoin="round"/>
<circle cx="2.44824" cy="2.44824" r="2.44824" transform="matrix(-1 0 0 1 146.527 167.402)" fill="#9AF452" stroke="#744CEB" stroke-width="2.31012" stroke-miterlimit="10" stroke-linecap="round" stroke-linejoin="round"/>
<circle cx="2.44824" cy="2.44824" r="2.44824" transform="matrix(-1 0 0 1 66.3477 168.321)" fill="#9AF452" stroke="#744CEB" stroke-width="2.31012" stroke-miterlimit="10" stroke-linecap="round" stroke-linejoin="round"/>
<path d="M92.3375 104.715C92.0358 104.318 91.7178 103.957 91.3776 103.633C91.0822 103.367 90.7461 103.127 90.3686 102.9C89.9913 102.68 89.5956 102.573 89.1758 102.587C88.5823 102.616 88.0895 102.735 87.6854 102.951C87.2814 103.168 86.9587 103.452 86.7109 103.792C86.4634 104.138 86.2904 104.534 86.1857 104.975C86.0813 105.421 86.0374 105.877 86.0483 106.348C86.0592 106.819 86.1235 107.275 86.2468 107.711C86.3702 108.146 86.522 108.551 86.715 108.935C86.9076 109.314 87.1171 109.668 87.3551 109.99C87.5872 110.313 87.824 110.612 88.0651 110.875C88.4331 111.275 88.8118 111.651 89.2134 112.002C89.615 112.352 89.9963 112.656 90.363 112.907C90.73 113.164 91.0641 113.363 91.3659 113.515C91.6678 113.668 91.9059 113.746 92.0806 113.755C92.2676 113.77 92.5173 113.717 92.8172 113.583C93.1174 113.455 93.445 113.272 93.8065 113.046C94.168 112.82 94.5451 112.545 94.9505 112.233C95.3556 111.916 95.7479 111.58 96.1452 111.227C96.3985 111 96.6801 110.736 96.9719 110.436C97.2697 110.135 97.548 109.805 97.8126 109.441C98.0773 109.076 98.3105 108.683 98.506 108.256C98.7015 107.829 98.8173 107.37 98.8595 106.878C98.8957 106.387 98.8614 105.929 98.756 105.493C98.6509 105.062 98.4757 104.671 98.2422 104.318C98.009 103.971 97.712 103.669 97.3638 103.43C97.0094 103.184 96.6102 103.006 96.1603 102.897C95.9353 102.842 95.7061 102.823 95.4792 102.852C95.252 102.875 95.0262 102.927 94.8013 102.998C94.5825 103.068 94.3647 103.162 94.1661 103.279C93.9616 103.396 93.769 103.513 93.583 103.641C93.1467 103.936 92.7317 104.296 92.3375 104.715Z" fill="#09FFFF" stroke="#7309DD" stroke-width="2.27967" stroke-miterlimit="10" stroke-linecap="round" stroke-linejoin="round"/>
<path d="M96.5286 165.636C94.206 165.636 92.0915 166.53 90.5086 167.993C90.3916 168.101 90.386 168.284 90.5004 168.394L91.6906 169.564L93.1205 170.973L94.2432 172.079C94.3438 172.177 94.4995 172.184 94.6097 172.096C95.1676 171.649 95.8812 171.396 96.6554 171.426C98.1073 171.485 99.343 172.575 99.5758 174.009C99.6667 174.567 99.602 175.108 99.4215 175.589C99.3843 175.69 99.4105 175.803 99.4863 175.878L100.456 176.834C100.587 176.964 100.809 176.932 100.893 176.768C101.283 176.019 101.485 175.161 101.437 174.247C101.307 171.802 99.3513 169.799 96.9088 169.611C96.2297 169.558 95.5822 169.656 94.9789 169.847C94.786 169.908 94.6593 169.868 94.6069 169.843C94.5904 169.835 94.5766 169.824 94.5642 169.81L93.5448 168.656C93.4222 168.518 93.4677 168.3 93.6343 168.222C94.9127 167.63 96.4046 167.419 97.9585 167.732C100.659 168.277 102.786 170.415 103.315 173.116C103.693 175.051 103.264 176.883 102.299 178.332C102.225 178.443 102.237 178.591 102.332 178.685L103.349 179.685C103.47 179.805 103.67 179.785 103.769 179.646C104.8 178.194 105.404 176.423 105.404 174.512C105.404 169.612 101.429 165.636 96.5286 165.636Z" fill="#7A52E6"/>
<path d="M98.7872 176.965L98.7776 176.956C98.688 176.863 98.5434 176.855 98.4428 176.934L98.4414 176.935C97.8684 177.387 97.13 177.642 96.3282 177.591C94.711 177.489 93.4326 176.108 93.445 174.488C93.4477 174.167 93.4987 173.862 93.591 173.572C93.6213 173.477 93.5938 173.373 93.5235 173.301L92.5496 172.304C92.4173 172.169 92.1886 172.202 92.106 172.371C91.7657 173.075 91.5866 173.873 91.6211 174.712C91.7258 177.296 93.8748 179.388 96.4605 179.423C97.5942 179.438 97.8339 179.218 98.1824 179.124C98.2789 179.098 98.3822 179.127 98.4511 179.198L99.5504 180.335C99.6812 180.471 99.6413 180.696 99.4705 180.777C98.626 181.172 97.6907 181.404 96.6988 181.429C92.8402 181.522 89.6085 178.37 89.6085 174.51C89.6085 173.12 90.019 171.828 90.7202 170.748C90.7918 170.639 90.7794 170.496 90.6885 170.403L89.6884 169.376C89.5671 169.252 89.3633 169.27 89.2641 169.412C87.779 171.528 87.1908 174.323 88.0642 177.246C88.8894 180.01 91.0797 182.186 93.8486 182.992C97.1465 183.954 100.279 183.067 102.446 181.121C102.563 181.015 102.571 180.835 102.461 180.722L98.7872 176.965Z" fill="#7A52E6"/>
<path d="M144.973 118.025L132.213 128.45C130.128 130.152 127.017 129.6 125.647 127.283L121.069 119.543C119.608 117.073 116.21 116.642 114.179 118.669L107.574 125.259C105.573 127.256 102.235 126.873 100.739 124.474L96.2801 117.327C94.5687 114.584 90.5812 114.564 88.8428 117.291L84.9465 123.401C83.2269 126.098 79.2946 126.115 77.5524 123.433L75.0341 119.555C73.2198 116.762 69.079 116.922 67.486 119.847L61.5707 130.709" stroke="#7309DD" stroke-width="2.31061" stroke-linecap="round"/>
<g clip-path="url(#clip1_5840_18046)">
<path d="M107.516 103.745L107.516 103.746C107.307 103.858 107.147 103.891 107.005 103.891C106.67 103.891 106.349 103.736 106.141 103.473L106.126 103.454L106.11 103.437C105.902 103.202 105.808 102.876 105.869 102.513C105.869 102.513 105.869 102.512 105.869 102.512L106.789 97.1094L106.791 97.0986L106.793 97.0877C106.873 96.5233 106.715 95.9079 106.232 95.4611L102.342 91.6438C102.026 91.3252 101.915 90.8736 102.055 90.4473C102.199 90.0357 102.553 89.7325 103.009 89.6573L108.429 88.8588C108.429 88.8587 108.43 88.8586 108.431 88.8586C109.018 88.7741 109.535 88.43 109.83 87.8813L109.838 87.8677L109.845 87.8537L112.267 82.9123C112.467 82.5144 112.861 82.2741 113.307 82.2741C113.753 82.2741 114.147 82.5144 114.347 82.9124L116.769 87.8537L116.772 87.8595L116.772 87.8595C117.045 88.4067 117.6 88.7747 118.183 88.8585C118.183 88.8586 118.184 88.8587 118.185 88.8588L123.604 89.6573C124.057 89.732 124.412 90.0322 124.557 90.4675L124.557 90.4676C124.699 90.8935 124.589 91.3404 124.257 91.6578L124.253 91.6615L124.253 91.6615L120.327 95.467L120.318 95.4758L120.318 95.4759C119.904 95.8895 119.686 96.4811 119.772 97.0878L119.774 97.1001L119.776 97.1123L120.721 102.536C120.721 102.537 120.721 102.538 120.721 102.539C120.781 102.901 120.687 103.227 120.479 103.461L107.516 103.745ZM107.516 103.745L107.523 103.741L112.403 101.181M107.516 103.745L112.403 101.181M112.403 101.181C112.661 101.032 112.97 100.958 113.282 100.958C113.578 100.958 113.875 101.035 114.07 101.113L114.111 101.129L114.15 101.15L119.022 103.744L119.036 103.751L119.049 103.759C119.207 103.851 119.354 103.891 119.56 103.891C119.894 103.891 120.235 103.735 120.479 103.461L112.403 101.181Z" fill="white"/>
<path d="M107.516 103.745L107.516 103.746C107.307 103.858 107.147 103.891 107.005 103.891C106.67 103.891 106.349 103.736 106.141 103.473L106.126 103.454L106.11 103.437C105.902 103.202 105.808 102.876 105.869 102.513C105.869 102.513 105.869 102.512 105.869 102.512L106.789 97.1094L106.791 97.0986L106.793 97.0877C106.873 96.5233 106.715 95.9079 106.232 95.4611L102.342 91.6438C102.026 91.3252 101.915 90.8736 102.055 90.4473C102.199 90.0357 102.553 89.7325 103.009 89.6573L108.429 88.8588C108.429 88.8587 108.43 88.8586 108.431 88.8586C109.018 88.7741 109.535 88.43 109.83 87.8813L109.838 87.8677L109.845 87.8537L112.267 82.9123C112.467 82.5144 112.861 82.2741 113.307 82.2741C113.753 82.2741 114.147 82.5144 114.347 82.9124L116.769 87.8537L116.772 87.8595L116.772 87.8595C117.045 88.4067 117.6 88.7747 118.183 88.8585C118.183 88.8586 118.184 88.8587 118.185 88.8588L123.604 89.6573C124.057 89.732 124.412 90.0322 124.557 90.4675L124.557 90.4676C124.699 90.8935 124.589 91.3404 124.257 91.6578L124.253 91.6615L124.253 91.6615L120.327 95.467L120.318 95.4758L120.318 95.4759C119.904 95.8895 119.686 96.4811 119.772 97.0878L119.774 97.1001L119.776 97.1123L120.721 102.536C120.721 102.537 120.721 102.538 120.721 102.539C120.781 102.901 120.687 103.227 120.479 103.461L107.516 103.745ZM107.516 103.745L107.523 103.741L112.403 101.181M107.516 103.745L112.403 101.181M112.403 101.181C112.661 101.032 112.97 100.958 113.282 100.958C113.578 100.958 113.875 101.035 114.07 101.113L114.111 101.129L114.15 101.15L119.022 103.744L119.036 103.751L119.049 103.759C119.207 103.851 119.354 103.891 119.56 103.891C119.894 103.891 120.235 103.735 120.479 103.461L112.403 101.181Z" fill="white"/>
<path d="M107.516 103.745L107.516 103.746C107.307 103.858 107.147 103.891 107.005 103.891C106.67 103.891 106.349 103.736 106.141 103.473L106.126 103.454L106.11 103.437C105.902 103.202 105.808 102.876 105.869 102.513C105.869 102.513 105.869 102.512 105.869 102.512L106.789 97.1094L106.791 97.0986L106.793 97.0877C106.873 96.5233 106.715 95.9079 106.232 95.4611L102.342 91.6438C102.026 91.3252 101.915 90.8736 102.055 90.4473C102.199 90.0357 102.553 89.7325 103.009 89.6573L108.429 88.8588C108.429 88.8587 108.43 88.8586 108.431 88.8586C109.018 88.7741 109.535 88.43 109.83 87.8813L109.838 87.8677L109.845 87.8537L112.267 82.9123C112.467 82.5144 112.861 82.2741 113.307 82.2741C113.753 82.2741 114.147 82.5144 114.347 82.9124L116.769 87.8537L116.772 87.8595L116.772 87.8595C117.045 88.4067 117.6 88.7747 118.183 88.8585C118.183 88.8586 118.184 88.8587 118.185 88.8588L123.604 89.6573C124.057 89.732 124.412 90.0322 124.557 90.4675L124.557 90.4676C124.699 90.8935 124.589 91.3404 124.257 91.6578L124.253 91.6615L124.253 91.6615L120.327 95.467L120.318 95.4758L120.318 95.4759C119.904 95.8895 119.686 96.4811 119.772 97.0878L119.774 97.1001L119.776 97.1123L120.721 102.536C120.721 102.537 120.721 102.538 120.721 102.539C120.781 102.901 120.687 103.227 120.479 103.461L107.516 103.745ZM107.516 103.745L107.523 103.741L112.403 101.181M107.516 103.745L112.403 101.181M112.403 101.181C112.661 101.032 112.97 100.958 113.282 100.958C113.578 100.958 113.875 101.035 114.07 101.113L114.111 101.129L114.15 101.15L119.022 103.744L119.036 103.751L119.049 103.759C119.207 103.851 119.354 103.891 119.56 103.891C119.894 103.891 120.235 103.735 120.479 103.461L112.403 101.181Z" stroke="#7309DD" stroke-width="1.62834"/>
</g>
<g clip-path="url(#clip2_5840_18046)">
<path d="M110.53 97.8569L110.53 97.8568L110.535 97.854L112.792 96.6699C112.943 96.5836 113.119 96.5428 113.292 96.5428C113.458 96.5428 113.62 96.5854 113.728 96.6285L113.757 96.64L113.784 96.6546L116.04 97.8556L116.05 97.8608L116.06 97.8664C116.101 97.8903 116.135 97.901 116.199 97.901C116.295 97.901 116.401 97.8555 116.48 97.7667C116.534 97.7062 116.565 97.6157 116.546 97.4999L116.109 94.988L116.107 94.9795L116.106 94.9709C116.057 94.6266 116.181 94.2928 116.413 94.0607L116.413 94.0607L116.42 94.0545L118.238 92.2922L118.238 92.2922L118.241 92.2896C118.341 92.1938 118.372 92.0647 118.33 91.9388L118.33 91.9388C118.286 91.8062 118.181 91.7166 118.042 91.6932L115.533 91.3236C115.206 91.2764 114.892 91.0704 114.735 90.7563L114.735 90.7563L114.733 90.7523L113.612 88.465C113.552 88.3471 113.437 88.2765 113.303 88.2765C113.169 88.2765 113.054 88.3471 112.994 88.465L111.873 90.7523L111.868 90.7621L111.863 90.7716C111.696 91.081 111.403 91.2759 111.073 91.3236C111.072 91.3237 111.072 91.3237 111.071 91.3238L108.564 91.6932C108.423 91.717 108.319 91.8087 108.275 91.9304C108.234 92.0566 108.266 92.1891 108.362 92.2858L110.16 94.0507C110.434 94.306 110.522 94.6562 110.477 94.9708L110.476 94.9784L110.475 94.986L110.049 97.487C110.049 97.4873 110.049 97.4876 110.049 97.4878C110.03 97.604 110.061 97.6948 110.115 97.7555L110.126 97.768L110.136 97.781C110.195 97.8562 110.288 97.901 110.385 97.901C110.416 97.901 110.458 97.8954 110.53 97.8569Z" fill="white"/>
<path d="M110.53 97.8569L110.53 97.8568L110.535 97.854L112.792 96.6699C112.943 96.5836 113.119 96.5428 113.292 96.5428C113.458 96.5428 113.62 96.5854 113.728 96.6285L113.757 96.64L113.784 96.6546L116.04 97.8556L116.05 97.8608L116.06 97.8664C116.101 97.8903 116.135 97.901 116.199 97.901C116.295 97.901 116.401 97.8555 116.48 97.7667C116.534 97.7062 116.565 97.6157 116.546 97.4999L116.109 94.988L116.107 94.9795L116.106 94.9709C116.057 94.6266 116.181 94.2928 116.413 94.0607L116.413 94.0607L116.42 94.0545L118.238 92.2922L118.238 92.2922L118.241 92.2896C118.341 92.1938 118.372 92.0647 118.33 91.9388L118.33 91.9388C118.286 91.8062 118.181 91.7166 118.042 91.6932L115.533 91.3236C115.206 91.2764 114.892 91.0704 114.735 90.7563L114.735 90.7563L114.733 90.7523L113.612 88.465C113.552 88.3471 113.437 88.2765 113.303 88.2765C113.169 88.2765 113.054 88.3471 112.994 88.465L111.873 90.7523L111.868 90.7621L111.863 90.7716C111.696 91.081 111.403 91.2759 111.073 91.3236C111.072 91.3237 111.072 91.3237 111.071 91.3238L108.564 91.6932C108.423 91.717 108.319 91.8087 108.275 91.9304C108.234 92.0566 108.266 92.1891 108.362 92.2858L110.16 94.0507C110.434 94.306 110.522 94.6562 110.477 94.9708L110.476 94.9784L110.475 94.986L110.049 97.487C110.049 97.4873 110.049 97.4876 110.049 97.4878C110.03 97.604 110.061 97.6948 110.115 97.7555L110.126 97.768L110.136 97.781C110.195 97.8562 110.288 97.901 110.385 97.901C110.416 97.901 110.458 97.8954 110.53 97.8569Z" fill="white"/>
<path d="M110.53 97.8569L110.53 97.8568L110.535 97.854L112.792 96.6699C112.943 96.5836 113.119 96.5428 113.292 96.5428C113.458 96.5428 113.62 96.5854 113.728 96.6285L113.757 96.64L113.784 96.6546L116.04 97.8556L116.05 97.8608L116.06 97.8664C116.101 97.8903 116.135 97.901 116.199 97.901C116.295 97.901 116.401 97.8555 116.48 97.7667C116.534 97.7062 116.565 97.6157 116.546 97.4999L116.109 94.988L116.107 94.9795L116.106 94.9709C116.057 94.6266 116.181 94.2928 116.413 94.0607L116.413 94.0607L116.42 94.0545L118.238 92.2922L118.238 92.2922L118.241 92.2896C118.341 92.1938 118.372 92.0647 118.33 91.9388L118.33 91.9388C118.286 91.8062 118.181 91.7166 118.042 91.6932L115.533 91.3236C115.206 91.2764 114.892 91.0704 114.735 90.7563L114.735 90.7563L114.733 90.7523L113.612 88.465C113.552 88.3471 113.437 88.2765 113.303 88.2765C113.169 88.2765 113.054 88.3471 112.994 88.465L111.873 90.7523L111.868 90.7621L111.863 90.7716C111.696 91.081 111.403 91.2759 111.073 91.3236C111.072 91.3237 111.072 91.3237 111.071 91.3238L108.564 91.6932C108.423 91.717 108.319 91.8087 108.275 91.9304C108.234 92.0566 108.266 92.1891 108.362 92.2858L110.16 94.0507C110.434 94.306 110.522 94.6562 110.477 94.9708L110.476 94.9784L110.475 94.986L110.049 97.487C110.049 97.4873 110.049 97.4876 110.049 97.4878C110.03 97.604 110.061 97.6948 110.115 97.7555L110.126 97.768L110.136 97.781C110.195 97.8562 110.288 97.901 110.385 97.901C110.416 97.901 110.458 97.8954 110.53 97.8569Z" stroke="#7309DD" stroke-width="1.13984"/>
</g>
<path d="M71.5791 102.491C71.8328 102.491 72.0866 102.428 72.3615 102.28L76.6334 100.038C76.7391 99.9746 76.8871 99.9323 77.0563 99.9323C77.2043 99.9323 77.3735 99.9746 77.4793 100.017L81.73 102.28C81.9837 102.428 82.2375 102.491 82.5336 102.491C83.0411 102.491 83.5275 102.259 83.8659 101.878C84.2043 101.497 84.3311 100.99 84.2466 100.482L83.4218 95.745C83.3795 95.449 83.4852 95.1529 83.6967 94.9414L87.1226 91.6212C87.609 91.156 87.7782 90.4792 87.5667 89.8448C87.3553 89.2103 86.8266 88.7662 86.171 88.6605L81.4339 87.9626C81.1378 87.9203 80.8629 87.73 80.736 87.4762L78.6213 83.1621C78.3252 82.57 77.7331 82.2104 77.0775 82.2104C76.4219 82.2104 75.8298 82.57 75.5337 83.1621L73.4189 87.4762C73.2709 87.7512 73.0171 87.9203 72.721 87.9626L67.9839 88.6605C67.3284 88.7663 66.7997 89.2104 66.5882 89.8236C66.3767 90.4581 66.5459 91.1348 67.0111 91.6001L70.4159 94.9414C70.6486 95.1529 70.7331 95.4489 70.6909 95.745L69.8873 100.461C69.8027 100.968 69.9295 101.476 70.2679 101.857C70.5851 102.259 71.0715 102.491 71.5791 102.491Z" fill="#41FDA0" stroke="#7309DD" stroke-width="2.27967"/>
</g>
<defs>
<linearGradient id="paint0_linear_5840_18046" x1="110.747" y1="0" x2="169.285" y2="205.089" gradientUnits="userSpaceOnUse">
<stop stop-color="#00F0FF"/>
<stop offset="1" stop-color="#FF6F43"/>
</linearGradient>
<linearGradient id="paint1_linear_5840_18046" x1="102.544" y1="0.911621" x2="161.082" y2="206" gradientUnits="userSpaceOnUse">
<stop stop-color="#00F0FF"/>
<stop offset="1" stop-color="#FF6F43"/>
</linearGradient>
<linearGradient id="paint2_linear_5840_18046" x1="-0.757812" y1="96.6973" x2="191.13" y2="96.6973" gradientUnits="userSpaceOnUse">
<stop stop-color="#101010"/>
<stop offset="1" stop-color="#484848"/>
</linearGradient>
<clipPath id="clip0_5840_18046">
<rect x="18.2305" y="19.1416" width="168.89" height="168.89" rx="84.445" fill="white"/>
</clipPath>
<clipPath id="clip1_5840_18046">
<rect width="24.2622" height="24.2622" fill="white" transform="matrix(-1 0 0 1 125.432 80.9634)"/>
</clipPath>
<clipPath id="clip2_5840_18046">
<rect width="11.2355" height="11.2355" fill="white" transform="matrix(-1 0 0 1 118.918 87.4766)"/>
</clipPath>
</defs>
</svg>
