<svg width="199" height="192" viewBox="0 0 199 192" fill="none" xmlns="http://www.w3.org/2000/svg">
<circle cx="95.5" cy="95.5" r="94.95" transform="matrix(-1 0 0 1 191 1)" fill="#0F1217" stroke="#476666" stroke-width="1.1"/>
<circle cx="95.5" cy="95.5" r="94.95" transform="matrix(-1 0 0 1 199 0)" fill="#00040C" stroke="#476666" stroke-width="1.1"/>
<circle cx="81.0689" cy="81.0689" r="80.5189" transform="matrix(-1 0 0 1 185 14)" fill="#00040C" stroke="#476666" stroke-width="1.1"/>
<path d="M101.672 30H101.669C65.9534 30 37 58.9534 37 94.6693V94.6716C37 130.388 65.9534 159.341 101.669 159.341H101.672C137.388 159.341 166.341 130.388 166.341 94.6716V94.6693C166.341 58.9534 137.388 30 101.672 30Z" fill="#0F1217"/>
<path fill-rule="evenodd" clip-rule="evenodd" d="M87.5226 64.5938H86.1447L85.251 65.6429L62.1855 92.7351L60.5391 94.6692L62.1855 96.6031L85.251 123.695L86.1447 124.745H87.5226H129.049H132.032V121.761V104.538H126.065V118.778H94.0467L113.21 96.6206L114.898 94.6692L113.21 92.7175L94.0467 70.5603H126.065V84.8002H132.032V67.577V64.5938H129.049H87.5226ZM87.5402 72.1584L68.3751 94.6692L87.5402 117.18L107.009 94.6692L87.5402 72.1584Z" fill="#1C2028"/>
</svg>
