<svg width="202" height="191" viewBox="0 0 202 191" fill="none" xmlns="http://www.w3.org/2000/svg">
<circle cx="106.5" cy="95.4995" r="94.95" fill="#0F1217" stroke="#476666" stroke-width="1.1"/>
<circle cx="95.5" cy="95.4995" r="94.95" fill="#00040C" stroke="#476666" stroke-width="1.1"/>
<circle cx="95.0689" cy="95.0684" r="80.5189" fill="#00040C" stroke="#476666" stroke-width="1.1"/>
<path d="M95.6716 29.9995H95.6693C59.9534 29.9995 31 58.9529 31 94.6688V94.6712C31 130.387 59.9534 159.34 95.6693 159.34H95.6716C131.388 159.34 160.341 130.387 160.341 94.6712V94.6688C160.341 58.9529 131.388 29.9995 95.6716 29.9995Z" fill="#0F1217"/>
<rect x="64.043" y="57.9995" width="63.228" height="15.662" fill="#1C2028"/>
<path fill-rule="evenodd" clip-rule="evenodd" d="M95.0749 102.081C117.981 102.081 136.55 97.7962 136.55 92.5102C136.55 87.2241 117.981 82.939 95.0749 82.939C72.1687 82.939 53.5996 87.2241 53.5996 92.5102C53.5996 97.7962 72.1687 102.081 95.0749 102.081ZM95.3669 98.599C116.511 98.599 133.652 95.4825 133.652 91.6381C133.652 87.7937 116.511 84.6772 95.3669 84.6772C74.2227 84.6772 57.082 87.7937 57.082 91.6381C57.082 95.4825 74.2227 98.599 95.3669 98.599Z" fill="#1C2028"/>
<path fill-rule="evenodd" clip-rule="evenodd" d="M87.2422 98.7085L87.2422 133.414H103.484L103.484 98.6829C100.909 98.822 98.1987 98.8969 95.3649 98.8969C92.4859 98.8969 89.7795 98.8313 87.2422 98.7085ZM87.2422 95.5495C89.8601 95.6523 92.5778 95.7065 95.3649 95.7065C98.1509 95.7065 100.867 95.6524 103.484 95.5496V70.1855H87.2422L87.2422 95.5495Z" fill="#1C2028"/>
</svg>
