<svg width="214" height="206" viewBox="0 0 214 206" fill="none" xmlns="http://www.w3.org/2000/svg">
<circle cx="110.747" cy="102.544" r="102.43" fill="url(#paint0_linear_5840_17287)" stroke="white" stroke-width="0.227876"/>
<circle cx="102.544" cy="103.456" r="102.43" fill="url(#paint1_linear_5840_17287)" stroke="white" stroke-width="0.227876"/>
<g clip-path="url(#clip0_5840_17287)">
<path d="M191.131 -3.19189H-0.757812V196.587H191.131V-3.19189Z" fill="url(#paint2_linear_5840_17287)"/>
<mask id="mask0_5840_17287" style="mask-type:luminance" maskUnits="userSpaceOnUse" x="52" y="147" width="28" height="61">
<path d="M79.4837 147.364C71.1201 151.681 53.8806 172.85 52.6911 189.617C51.5016 206.383 57.6659 208.646 64.4041 207.848C65.6035 207.281 67.1575 207.477 67.7806 205.018" fill="white"/>
</mask>
<g mask="url(#mask0_5840_17287)">
<path d="M55.9499 183.681C55.9499 183.681 56.3292 183.414 56.9892 183.091C59.3166 181.956 65.141 180.127 70.3301 186.758C76.9944 195.274 74.1622 235.162 55.3909 221.157C36.622 207.156 39.8877 186.285 39.8877 186.285L38.4297 162.729L43.7271 169.191" fill="white"/>
</g>
<path d="M77.4986 147.671C68.9798 152.321 51.9398 174.165 51.4128 190.964C50.8857 207.762 57.3924 209.778 64.3695 208.709C65.5935 208.095 67.2189 208.227 67.7632 205.744" fill="white"/>
<path d="M101.384 236.566C121.145 236.566 137.164 214.175 137.164 186.556C137.164 158.936 121.145 136.545 101.384 136.545C81.6229 136.545 65.6035 158.936 65.6035 186.556C65.6035 214.175 81.6229 236.566 101.384 236.566Z" fill="white"/>
<path d="M122.891 142.407C130.818 146.463 155.303 172.394 155.486 190.041C155.786 219.133 135.65 209.244 137.076 204.208C137.076 204.208 134.412 197.888 134.82 196.078C135.229 194.268 138.059 180.986 133.951 175.823" fill="white"/>
<mask id="mask1_5840_17287" style="mask-type:luminance" maskUnits="userSpaceOnUse" x="122" y="142" width="34" height="68">
<path d="M122.891 142.406C130.818 146.462 155.303 172.393 155.486 190.04C155.786 219.132 135.65 209.243 137.076 204.207C137.076 204.207 134.412 197.887 134.82 196.077C135.229 194.267 138.059 180.985 133.951 175.822" fill="white"/>
</mask>
<g mask="url(#mask1_5840_17287)">
<path d="M162.832 187.772C162.832 187.772 162.65 187.743 162.322 187.697C159.825 187.339 148.9 186.019 146.233 189.773C143.214 194.019 134.412 187.026 134.412 187.026C134.412 187.026 118.315 216.876 143.719 217.25C169.122 217.625 169.876 197.642 169.876 197.642" fill="white"/>
</g>
<path d="M137.171 186.696C140.984 185.871 149.971 184.717 155.412 186.696M67.297 186.696C64.6175 185.871 58.0836 184.284 53.3841 184.531" stroke="#00DFA7" stroke-width="2.33387" stroke-miterlimit="10" stroke-linecap="round" stroke-linejoin="round"/>
<path d="M145.826 165.053C142.734 166.29 134.617 170.262 132.886 173.23M70.0781 172.473C68.8414 170.825 65.5023 167.032 62.0396 165.053" stroke="#00DFA7" stroke-width="2.33387" stroke-miterlimit="10" stroke-linecap="round" stroke-linejoin="round"/>
<path d="M125.73 161.343L109.035 167.218L105.325 176.184M75.0257 162.889L84.3009 167.218L87.0835 176.184" stroke="#06908F" stroke-width="2.33387" stroke-miterlimit="10" stroke-linecap="round" stroke-linejoin="round"/>
<path d="M120.459 150.273C123.833 153.945 132.156 170.065 135.481 180.918M101.256 211.318L102.288 230.063C106.859 229.456 109.097 229.65 103.256 230.843C93.0621 232.925 95.8894 238.741 97.2882 241.388H135.481C135.481 229.579 136.232 218.68 136.232 203.107" stroke="#053A3B" stroke-width="2.43873" stroke-linecap="round" stroke-linejoin="round"/>
<path d="M77.4986 147.671C68.9798 152.321 51.9398 174.165 51.4128 190.964C50.8857 207.762 57.3924 209.778 64.3695 208.709C65.5935 208.095 67.2189 208.227 67.7632 205.744" stroke="#053A3B" stroke-width="2.33423" stroke-linecap="round"/>
<path d="M79.869 150.273C76.5787 155.376 63.3212 182.212 67.2063 201.585C69.7972 225.58 72.7599 224.542 71.5261 228.045C71.1542 229.429 70.6099 229.366 68.5116 231.053C66.8345 232.404 66.8369 238.724 67.2063 241.145H97.0701" stroke="#053A3B" stroke-width="2.43873" stroke-linecap="round"/>
<path d="M135.45 180.856C135.661 182.417 136.568 185.846 136.528 186.993C136.373 191.41 131.297 194.72 135.139 201.884C136.196 203.559 138.508 206.458 140.304 201.771L140.104 197.016" stroke="#053A3B" stroke-width="2.43873" stroke-linecap="round"/>
<path d="M122.891 142.406C130.818 146.462 155.303 172.393 155.486 190.04C155.786 219.132 135.65 209.243 137.076 204.207" stroke="#053A3B" stroke-width="2.43873" stroke-linecap="round"/>
<path d="M49.7157 85.64C49.7222 85.6071 49.7378 85.5901 49.728 85.5579C49.4698 84.4782 42.228 54.1819 51.3187 40.267C51.3723 40.1911 51.4528 40.1628 51.5361 40.1915C53.1931 40.9037 70.2912 48.4323 75.3321 57.1087C75.386 57.204 75.502 57.2311 75.598 57.1858C76.6922 56.6208 83.2828 53.751 103.73 54.4805C125.159 55.3511 130.601 58.5573 131.57 59.2856C131.664 59.3545 131.811 59.3394 131.879 59.2384C137.556 50.9849 155.122 44.7939 156.829 44.208C156.918 44.1794 156.993 44.2166 157.038 44.2959C165.082 58.8605 155.641 88.5267 155.308 89.5772C155.301 89.6101 155.302 89.6264 155.312 89.6585C162.051 116.915 155.83 129.896 155.762 130.021C155.762 130.021 155.762 130.021 155.763 130.029C146.868 145.418 124.315 150.793 110.418 152.664C102.583 153.718 94.6277 153.352 86.9296 151.556C73.9032 148.512 53.8791 141.44 46.3437 125.89C46.3257 125.858 46.3164 125.834 46.3066 125.802C45.9709 124.978 41.2281 111.57 49.7157 85.64Z" fill="white"/>
<path d="M157.885 108.316C146.548 105.224 116.641 99.5352 93.8854 99.0405C71.1301 98.5458 52.8691 102.652 46.6856 104.713" stroke="#06908F" stroke-width="2.33387" stroke-miterlimit="10" stroke-linecap="round" stroke-linejoin="round"/>
<path d="M147.991 76.9385C149.021 89.5116 147.991 122.696 139.952 136.919" stroke="#06908F" stroke-width="2.33387" stroke-miterlimit="10" stroke-linecap="round" stroke-linejoin="round"/>
<path d="M104.1 54.6206C98.1843 60.881 90.6504 86.5625 92.7922 112.856" stroke="#06908F" stroke-width="2.33387" stroke-miterlimit="10" stroke-linecap="round" stroke-linejoin="round"/>
<path d="M148.021 138.519C130.495 134.593 86.9403 128.166 52.9363 133.869" stroke="#06908F" stroke-width="2.33387" stroke-miterlimit="10" stroke-linecap="round" stroke-linejoin="round"/>
<path d="M57.7121 75.7012C53.3837 101.672 52.4562 115.276 60.1855 132.59" stroke="#06908F" stroke-width="2.33387" stroke-miterlimit="10" stroke-linecap="round" stroke-linejoin="round"/>
<path d="M142.117 50.9672L146.445 55.9141M160.977 61.7884H155.102M66.9871 47.8755L61.7312 53.7498M52.7651 58.0783H48.7458" stroke="#06908F" stroke-width="2.33387" stroke-miterlimit="10" stroke-linecap="round" stroke-linejoin="round"/>
<path d="M147.375 76.9379C130.113 72.1972 88.3534 65.0965 59.4145 74.6191" stroke="#06908F" stroke-width="2.33387" stroke-miterlimit="10" stroke-linecap="round" stroke-linejoin="round"/>
<path d="M111.51 133.208C110.891 137.228 111.51 146.812 113.674 151.45M76.8819 131.663C76.7789 135.27 77.0674 143.659 79.0461 148.358" stroke="#06908F" stroke-width="2.33387" stroke-miterlimit="10" stroke-linecap="round" stroke-linejoin="round"/>
<path d="M50.1633 85.6737C50.178 85.6404 50.1854 85.6238 50.1756 85.5917C49.9176 84.5123 43.0415 55.6907 51.135 41.3682C51.3684 40.9498 52.6839 40.5452 53.2537 40.8033C57.6791 42.8254 71.3727 49.5481 75.7863 57.1511C75.8401 57.2463 75.9561 57.2734 76.0522 57.2281C77.1468 56.6629 83.7398 53.7921 104.192 54.5161C125.626 55.3809 131.068 58.5849 132.038 59.3128C132.131 59.3816 132.278 59.3665 132.347 59.2655C136.774 52.8316 148.431 47.6513 154.161 45.3998C155.262 44.9647 156.631 45.3152 157.154 45.6162C157.669 45.9177 158.678 46.7741 158.993 47.6878C164.236 62.9823 156.106 88.5324 155.773 89.5909C155.766 89.6238 155.767 89.6401 155.777 89.6803C162.51 116.928 156.284 129.908 156.217 130.033C156.217 130.033 156.217 130.033 156.217 130.041C147.316 145.429 124.756 150.808 110.855 152.69C103.017 153.746 95.0606 153.382 87.3612 151.589C74.3491 148.557 54.3804 141.513 46.8172 126.019C46.7809 125.947 46.7352 125.852 46.7148 125.771C46.1952 124.37 41.8742 110.995 50.1633 85.6737Z" stroke="#053A3B" stroke-width="2.33387" stroke-miterlimit="10" stroke-linecap="round" stroke-linejoin="round"/>
<path d="M53.5449 46.6985C53.5781 46.5422 53.7635 46.4845 53.8675 46.6018C55.1808 48.1688 61.4953 55.7059 65.5763 60.1151C67.1243 61.7931 67.172 64.5765 65.6775 66.2923L57.6793 75.4992C57.571 75.6265 57.1072 75.681 56.9787 75.5649C55.3697 74.1422 49.4674 67.3267 53.5449 46.6985Z" fill="#06908F" stroke="#06908F" stroke-width="2.33387" stroke-miterlimit="10" stroke-linecap="round" stroke-linejoin="round"/>
<path d="M146.631 77.578C146.488 77.6662 146.039 77.5245 145.958 77.3817L138.913 65.2185C138.259 64.0845 138.593 62.5536 139.669 61.8023C144.258 58.5797 153.412 51.1583 155.167 49.7313C155.285 49.6362 155.461 49.7337 155.461 49.8885C155.552 70.9169 148.468 76.4893 146.631 77.578Z" fill="#06908F" stroke="#06908F" stroke-width="2.33387" stroke-miterlimit="10" stroke-linecap="round" stroke-linejoin="round"/>
<circle cx="2.47341" cy="2.47341" r="2.47341" transform="matrix(-1 0 0 1 144.896 79.5659)" fill="#00DFA7" stroke="#06908F" stroke-width="2.33387" stroke-miterlimit="10" stroke-linecap="round" stroke-linejoin="round"/>
<circle cx="2.47341" cy="2.47341" r="2.47341" transform="matrix(-1 0 0 1 65.748 77.0928)" fill="#00DFA7" stroke="#06908F" stroke-width="2.33387" stroke-miterlimit="10" stroke-linecap="round" stroke-linejoin="round"/>
<circle cx="2.47341" cy="2.47341" r="2.47341" transform="matrix(-1 0 0 1 119.699 136.609)" fill="#00DFA7" stroke="#06908F" stroke-width="2.33387" stroke-miterlimit="10" stroke-linecap="round" stroke-linejoin="round"/>
<circle cx="2.47341" cy="2.47341" r="2.47341" transform="matrix(-1 0 0 1 74.25 135.063)" fill="#00DFA7" stroke="#06908F" stroke-width="2.33387" stroke-miterlimit="10" stroke-linecap="round" stroke-linejoin="round"/>
<circle cx="2.47341" cy="2.47341" r="2.47341" transform="matrix(-1 0 0 1 146.672 171.75)" fill="#00DFA7" stroke="#06908F" stroke-width="2.33387" stroke-miterlimit="10" stroke-linecap="round" stroke-linejoin="round"/>
<circle cx="2.47341" cy="2.47341" r="2.47341" transform="matrix(-1 0 0 1 65.0762 171.256)" fill="#00DFA7" stroke="#06908F" stroke-width="2.33387" stroke-miterlimit="10" stroke-linecap="round" stroke-linejoin="round"/>
<path d="M69.6775 89.1976C69.7181 88.8478 69.9144 88.5351 70.2118 88.3465C70.5092 88.1579 70.8759 88.1138 71.2095 88.2263L85.3572 92.997C85.9191 93.1865 86.2496 93.7674 86.1253 94.3472C85.7697 96.007 84.8767 98.4341 83.301 100.341C81.6949 102.284 79.2812 103.776 76.0419 103.144C72.7107 102.494 71.0298 99.7503 70.2417 97.0124C69.4491 94.259 69.4463 91.1914 69.6775 89.1976ZM119.395 88.2043C119.746 88.1111 120.119 88.186 120.407 88.4069C120.694 88.6278 120.862 88.9696 120.862 89.332C120.862 91.2773 120.608 94.1187 119.52 96.7668C118.423 99.4388 116.441 101.987 112.982 103.109C110.093 104.046 107.431 102.698 105.41 100.902C103.369 99.0875 101.725 96.606 100.723 94.6306C100.564 94.3167 100.555 93.9476 100.699 93.6262C100.843 93.3048 101.124 93.0656 101.464 92.975L119.395 88.2043Z" fill="#00DFA7" stroke="#053A3B" stroke-width="2.33387" stroke-miterlimit="10" stroke-linecap="round" stroke-linejoin="round"/>
<path d="M91.6963 108.632C91.3914 108.231 91.0702 107.867 90.7265 107.539C90.4281 107.27 90.0885 107.028 89.7071 106.799C89.326 106.576 88.9262 106.468 88.502 106.483C87.9025 106.512 87.4046 106.632 86.9964 106.85C86.5882 107.069 86.2622 107.356 86.0119 107.7C85.7618 108.049 85.5871 108.449 85.4813 108.894C85.3758 109.346 85.3314 109.806 85.3424 110.282C85.3534 110.757 85.4184 111.218 85.543 111.658C85.6676 112.099 85.821 112.507 86.016 112.896C86.2106 113.278 86.4223 113.636 86.6627 113.962C86.8971 114.288 87.1364 114.59 87.38 114.856C87.7517 115.26 88.1344 115.639 88.5401 115.994C88.9458 116.348 89.331 116.655 89.7015 116.908C90.0723 117.168 90.4098 117.369 90.7147 117.523C91.0197 117.677 91.2602 117.756 91.4367 117.766C91.6256 117.781 91.8779 117.726 92.1809 117.591C92.4842 117.462 92.8151 117.277 93.1803 117.049C93.5456 116.82 93.9266 116.543 94.3361 116.228C94.7454 115.907 95.1417 115.568 95.5431 115.211C95.7991 114.982 96.0835 114.715 96.3783 114.412C96.6791 114.108 96.9603 113.775 97.2277 113.406C97.495 113.038 97.7307 112.641 97.9282 112.209C98.1257 111.778 98.2427 111.314 98.2853 110.818C98.3219 110.322 98.2872 109.859 98.1808 109.418C98.0746 108.983 97.8976 108.588 97.6617 108.231C97.4261 107.881 97.126 107.576 96.7743 107.333C96.4162 107.085 96.0129 106.906 95.5584 106.795C95.3311 106.74 95.0995 106.721 94.8702 106.75C94.6407 106.773 94.4126 106.826 94.1854 106.897C93.9643 106.968 93.7444 107.063 93.5437 107.181C93.337 107.3 93.1425 107.417 92.9545 107.547C92.5138 107.845 92.0945 108.209 91.6963 108.632Z" fill="#06908F" stroke="#053A3B" stroke-width="2.3031" stroke-miterlimit="10" stroke-linecap="round" stroke-linejoin="round"/>
<rect width="13.7933" height="3.41669" transform="matrix(-1 0 0 1 103.104 166.321)" fill="#038383"/>
<path fill-rule="evenodd" clip-rule="evenodd" d="M96.333 175.938C91.3359 175.938 87.2851 175.003 87.2851 173.85C87.2851 172.697 91.3359 171.762 96.333 171.762C101.33 171.762 105.381 172.697 105.381 173.85C105.381 175.003 101.33 175.938 96.333 175.938ZM96.2711 175.179C91.6585 175.179 87.9192 174.499 87.9192 173.661C87.9192 172.822 91.6585 172.142 96.2711 172.142C100.884 172.142 104.623 172.822 104.623 173.661C104.623 174.499 100.884 175.179 96.2711 175.179Z" fill="#038383"/>
<path fill-rule="evenodd" clip-rule="evenodd" d="M98.041 175.201V182.772H94.4978L94.4978 175.196C95.0596 175.226 95.6509 175.242 96.2692 175.242C96.8972 175.242 97.4875 175.228 98.041 175.201ZM98.041 174.512C97.47 174.535 96.8772 174.546 96.2692 174.546C95.6614 174.546 95.0687 174.535 94.4978 174.512L94.4978 168.979H98.041V174.512Z" fill="#038383"/>
<path d="M91.2351 118.121V122.233M140.094 135.229L91.2351 123.056L60.1432 130.13" stroke="#053A3B" stroke-width="2.3031" stroke-miterlimit="10" stroke-linecap="round" stroke-linejoin="round"/>
</g>
<defs>
<linearGradient id="paint0_linear_5840_17287" x1="110.747" y1="0" x2="169.285" y2="205.089" gradientUnits="userSpaceOnUse">
<stop stop-color="#00F0FF"/>
<stop offset="1" stop-color="#FF6F43"/>
</linearGradient>
<linearGradient id="paint1_linear_5840_17287" x1="102.544" y1="0.911621" x2="161.082" y2="206" gradientUnits="userSpaceOnUse">
<stop stop-color="#00F0FF"/>
<stop offset="1" stop-color="#FF6F43"/>
</linearGradient>
<linearGradient id="paint2_linear_5840_17287" x1="-0.757812" y1="96.6973" x2="191.13" y2="96.6973" gradientUnits="userSpaceOnUse">
<stop stop-color="#101010"/>
<stop offset="1" stop-color="#484848"/>
</linearGradient>
<clipPath id="clip0_5840_17287">
<rect x="18.2305" y="19.1416" width="168.89" height="168.89" rx="84.445" fill="white"/>
</clipPath>
</defs>
</svg>
