<svg width="199" height="192" viewBox="0 0 199 192" fill="none" xmlns="http://www.w3.org/2000/svg">
<circle cx="103.5" cy="96.4995" r="94.95" fill="#0F1217" stroke="#476666" stroke-width="1.1"/>
<circle cx="95.5" cy="95.4995" r="94.95" fill="#00040C" stroke="#476666" stroke-width="1.1"/>
<circle cx="95.0689" cy="95.0684" r="80.5189" fill="#00040C" stroke="#476666" stroke-width="1.1"/>
<path d="M95.6716 29.9995H95.6693C59.9534 29.9995 31 58.9529 31 94.6688V94.6712C31 130.387 59.9534 159.34 95.6693 159.34H95.6716C131.388 159.34 160.341 130.387 160.341 94.6712V94.6688C160.341 58.9529 131.388 29.9995 95.6716 29.9995Z" fill="#0F1217"/>
<path d="M94.697 89.6664L82.2266 87.562L87.4485 99.253L98.1263 101.357L94.697 89.6664Z" stroke="#1C2028" stroke-width="1.1" stroke-linejoin="round"/>
<path d="M82.3825 102.914L69.9121 100.81L75.1341 112.501L85.8119 114.605L82.3825 102.914Z" stroke="#1C2028" stroke-width="1.1" stroke-linejoin="round"/>
<path d="M101.322 52.723L88.8516 50.6187L94.0735 62.3097L104.751 64.414L101.322 52.723Z" stroke="#1C2028" stroke-width="1.1" stroke-linejoin="round"/>
<path d="M86.279 67.9965L73.8086 65.8921L79.0306 77.5831L89.7084 79.6875L86.279 67.9965Z" stroke="#1C2028" stroke-width="1.1" stroke-linejoin="round"/>
<path d="M65.861 87.9516L53.3906 85.8472L58.6126 97.5382L69.2904 99.6426L65.861 87.9516Z" stroke="#1C2028" stroke-width="1.1" stroke-linejoin="round"/>
<path d="M88.8524 50.4624L53 85.3016" stroke="#1C2028" stroke-width="1.1" stroke-linejoin="round"/>
<path d="M104.677 64.8003L68.8242 99.6395" stroke="#1C2028" stroke-width="1.1" stroke-linejoin="round"/>
<path d="M93.7626 62.1519L57.9102 96.9911" stroke="#1C2028" stroke-width="1.1" stroke-linejoin="round"/>
<path d="M134.134 82.4945L121.664 80.3901L126.886 92.0812L137.564 94.1855L134.134 82.4945Z" stroke="#1C2028" stroke-width="1.1" stroke-linejoin="round"/>
<path d="M119.092 97.768L106.621 95.6636L111.843 107.355L122.521 109.459L119.092 97.768Z" stroke="#1C2028" stroke-width="1.1" stroke-linejoin="round"/>
<path d="M98.6735 117.723L86.2031 115.619L91.4251 127.31L102.103 129.414L98.6735 117.723Z" stroke="#1C2028" stroke-width="1.1" stroke-linejoin="round"/>
<path d="M121.665 80.2339L85.8125 115.073" stroke="#1C2028" stroke-width="1.1" stroke-linejoin="round"/>
<path d="M137.489 94.5718L101.637 129.411" stroke="#1C2028" stroke-width="1.1" stroke-linejoin="round"/>
<path d="M126.575 91.9233L90.7227 126.763" stroke="#1C2028" stroke-width="1.1" stroke-linejoin="round"/>
<path d="M94.9308 90.2104L82.2266 102.759" stroke="#1C2028" stroke-width="1.1" stroke-linejoin="round"/>
</svg>
