<svg width="214" height="206" viewBox="0 0 214 206" fill="none" xmlns="http://www.w3.org/2000/svg">
<circle cx="110.747" cy="102.544" r="102.43" fill="url(#paint0_linear_5840_17601)" stroke="white" stroke-width="0.227876"/>
<circle cx="102.544" cy="103.456" r="102.43" fill="url(#paint1_linear_5840_17601)" stroke="white" stroke-width="0.227876"/>
<g clip-path="url(#clip0_5840_17601)">
<path d="M191.131 -3.19189H-0.757812V196.587H191.131V-3.19189Z" fill="url(#paint2_linear_5840_17601)"/>
<path d="M77.7239 146.286C69.3871 150.836 52.7111 172.214 52.1953 188.653C51.6796 205.093 58.0473 207.065 64.8753 206.019C66.0731 205.418 67.6639 205.548 68.1965 203.118" fill="white"/>
<path d="M77.7239 146.286C69.3871 150.836 52.7111 172.214 52.1953 188.653C51.6796 205.093 58.0473 207.065 64.8753 206.019C66.0731 205.418 67.6639 205.548 68.1965 203.118" stroke="#012DFF" stroke-width="2.28437" stroke-linecap="round"/>
<mask id="mask0_5840_17601" style="mask-type:luminance" maskUnits="userSpaceOnUse" x="53" y="145" width="27" height="61">
<path d="M79.6641 145.985C71.4791 150.21 54.6079 170.927 53.4438 187.336C52.2797 203.744 58.3123 205.958 64.9066 205.178C66.0803 204.623 67.6012 204.814 68.2109 202.409" fill="white"/>
</mask>
<g mask="url(#mask0_5840_17601)">
<path d="M56.6323 181.526C56.6323 181.526 57.0035 181.265 57.6494 180.949C59.927 179.838 65.6271 178.048 70.7053 184.537C77.2273 192.871 74.4556 231.907 56.0852 218.201C37.7173 204.5 40.9132 184.075 40.9132 184.075L39.4863 161.021L44.6706 167.346" fill="white"/>
</g>
<path d="M101.098 233.281C120.437 233.281 136.114 211.369 136.114 184.339C136.114 157.31 120.437 135.397 101.098 135.397C81.7592 135.397 66.082 157.31 66.082 184.339C66.082 211.369 81.7592 233.281 101.098 233.281Z" fill="white"/>
<path d="M122.146 141.134C129.905 145.102 153.867 170.48 154.045 187.75C154.339 216.22 134.634 206.543 136.029 201.614C136.029 201.614 133.421 195.429 133.821 193.658C134.221 191.886 136.991 178.889 132.971 173.836" fill="white"/>
<mask id="mask1_5840_17601" style="mask-type:luminance" maskUnits="userSpaceOnUse" x="122" y="141" width="33" height="67">
<path d="M122.145 141.133C129.903 145.101 153.865 170.479 154.043 187.749C154.337 216.219 134.632 206.542 136.027 201.613C136.027 201.613 133.419 195.428 133.819 193.657C134.22 191.885 136.989 178.888 132.969 173.835" fill="white"/>
</mask>
<g mask="url(#mask1_5840_17601)">
<path d="M161.233 185.53C161.233 185.53 161.055 185.501 160.734 185.456C158.29 185.106 147.599 183.814 144.988 187.488C142.034 191.643 133.42 184.8 133.42 184.8C133.42 184.8 117.667 214.012 142.528 214.378C167.389 214.744 168.126 195.188 168.126 195.188" fill="white"/>
</g>
<path d="M122.146 141.134C129.905 145.102 153.867 170.48 154.045 187.75C154.339 216.22 134.634 206.543 136.029 201.614" stroke="#012DFF" stroke-width="2.38664" stroke-linecap="round"/>
<path d="M80.0443 148.833C76.8243 153.826 63.8501 180.089 67.6522 199.048C70.1877 222.53 73.0871 221.515 71.8796 224.943C71.5157 226.298 70.9831 226.235 68.9296 227.887C67.2883 229.208 67.2907 235.393 67.6522 237.763H96.878" fill="white"/>
<path d="M80.0443 148.833C76.8243 153.826 63.8501 180.089 67.6522 199.048C70.1877 222.53 73.0871 221.515 71.8796 224.943C71.5157 226.298 70.9831 226.235 68.9296 227.887C67.2883 229.208 67.2907 235.393 67.6522 237.763H96.878" stroke="#012DFF" stroke-width="2.38664" stroke-linecap="round"/>
<path d="M119.765 148.833C123.067 152.425 131.213 168.202 134.466 178.822L119.765 148.833ZM100.972 208.573L101.982 226.918C106.455 226.324 108.646 226.513 102.929 227.681C92.9534 229.718 95.7203 235.41 97.0893 238H134.466C134.466 226.444 135.201 215.778 135.201 200.537" fill="white"/>
<path d="M119.765 148.833C123.067 152.425 131.213 168.202 134.466 178.822M100.972 208.573L101.982 226.918C106.455 226.324 108.646 226.513 102.929 227.681C92.9534 229.718 95.7203 235.41 97.0893 238H134.466C134.466 226.444 135.201 215.778 135.201 200.537" stroke="#012DFF" stroke-width="2.38664" stroke-linecap="round" stroke-linejoin="round"/>
<path d="M134.434 178.762C134.641 180.289 135.528 183.645 135.489 184.767C135.338 189.09 130.37 192.329 134.13 199.34C135.164 200.98 137.427 203.816 139.184 199.23L138.989 194.577" stroke="#012DFF" stroke-width="2.38664" stroke-linecap="round"/>
<path d="M50.5308 85.5804C50.5372 85.5482 50.5524 85.5316 50.5429 85.5001C50.2902 84.4435 43.2031 54.7943 52.0996 41.1766C52.152 41.1023 52.2308 41.0747 52.3124 41.1027C53.934 41.7997 70.6668 49.1675 75.6001 57.6586C75.6528 57.7518 75.7663 57.7783 75.8603 57.734C76.9311 57.1811 83.3809 54.3726 103.391 55.0865C124.363 55.9385 129.688 59.0762 130.637 59.789C130.729 59.8564 130.872 59.8417 130.939 59.7428C136.495 51.6656 153.685 45.6068 155.356 45.0335C155.443 45.0055 155.517 45.0418 155.561 45.1195C163.433 59.3729 154.193 88.4054 153.867 89.4336C153.861 89.4658 153.862 89.4817 153.871 89.5131C160.466 116.187 154.378 128.891 154.312 129.014C154.312 129.014 154.312 129.014 154.313 129.021C145.608 144.081 123.537 149.342 109.936 151.172C102.268 152.204 94.4835 151.846 86.9499 150.089C74.2017 147.11 54.6053 140.188 47.2309 124.97C47.2133 124.939 47.2041 124.916 47.1946 124.884C46.8661 124.079 42.2246 110.956 50.5308 85.5804Z" fill="white"/>
<path d="M54.278 47.4704C54.3105 47.3174 54.4919 47.261 54.5937 47.3758C55.8789 48.9093 62.0586 56.2854 66.0524 60.6004C67.5673 62.2426 67.614 64.9665 66.1514 66.6457L58.324 75.6559C58.218 75.7805 57.7642 75.8338 57.6384 75.7202C56.0638 74.3279 50.2875 67.658 54.278 47.4704Z" fill="#012DFF" stroke="#012DFF" stroke-width="2.28401" stroke-miterlimit="10" stroke-linecap="round" stroke-linejoin="round"/>
<path d="M145.376 77.6907C145.236 77.777 144.797 77.6383 144.718 77.4985L137.823 65.5952C137.183 64.4854 137.51 62.9872 138.563 62.2519C143.054 59.0982 152.012 51.8353 153.729 50.4388C153.845 50.3457 154.018 50.4412 154.017 50.5927C154.107 71.1719 147.174 76.6252 145.376 77.6907Z" fill="#012DFF" stroke="#012DFF" stroke-width="2.28401" stroke-miterlimit="10" stroke-linecap="round" stroke-linejoin="round"/>
<path d="M50.97 85.6135C50.9844 85.5809 50.9916 85.5646 50.982 85.5332C50.7296 84.4769 44.0003 56.271 51.9209 42.2544C52.1493 41.8449 53.4367 41.449 53.9943 41.7015C58.3252 43.6805 71.7263 50.2596 76.0456 57.7002C76.0983 57.7933 76.2119 57.8198 76.3059 57.7755C77.3771 57.2224 83.8293 54.4129 103.845 55.1215C124.821 55.9677 130.147 59.1033 131.096 59.8156C131.187 59.883 131.331 59.8683 131.398 59.7694C135.73 53.4729 147.138 48.4033 152.747 46.1999C153.824 45.774 155.164 46.1171 155.675 46.4117C156.179 46.7067 157.166 47.5448 157.475 48.439C162.606 63.4068 154.649 88.4111 154.324 89.447C154.317 89.4792 154.318 89.4951 154.328 89.5345C160.917 116.2 154.824 128.903 154.758 129.025C154.758 129.025 154.758 129.025 154.758 129.033C146.047 144.092 123.969 149.357 110.365 151.198C102.695 152.232 94.9083 151.876 87.3733 150.121C74.6392 147.153 55.097 140.26 47.6953 125.097C47.6598 125.027 47.6151 124.933 47.5952 124.854C47.0867 123.483 42.8579 110.394 50.97 85.6135Z" stroke="#012DFF" stroke-width="2.28401" stroke-miterlimit="10" stroke-linecap="round" stroke-linejoin="round"/>
<path d="M156.391 107.77C145.296 104.744 116.028 99.1771 93.7583 98.6929C71.4891 98.2088 53.6182 102.227 47.5667 104.244" stroke="#012DFF" stroke-width="2.28401" stroke-miterlimit="10" stroke-linecap="round" stroke-linejoin="round"/>
<path d="M146.711 77.0635C147.719 89.3681 146.711 121.844 138.844 135.762" stroke="#012DFF" stroke-width="2.28401" stroke-miterlimit="10" stroke-linecap="round" stroke-linejoin="round"/>
<path d="M136.119 184.476C139.851 183.669 148.645 182.54 153.971 184.476M67.7378 184.476C65.1156 183.669 58.7212 182.116 54.1221 182.358" stroke="#012DFF" stroke-width="2.28401" stroke-miterlimit="10" stroke-linecap="round" stroke-linejoin="round"/>
<path d="M103.752 55.2227C97.963 61.3493 90.5901 86.4822 92.6861 112.214" stroke="#012DFF" stroke-width="2.28401" stroke-miterlimit="10" stroke-linecap="round" stroke-linejoin="round"/>
<path d="M146.738 137.329C129.586 133.486 86.9618 127.197 53.6842 132.779" stroke="#012DFF" stroke-width="2.28401" stroke-miterlimit="10" stroke-linecap="round" stroke-linejoin="round"/>
<path d="M58.357 75.8535C54.121 101.27 53.2133 114.583 60.7775 131.527M144.59 163.297C141.564 164.507 133.62 168.395 131.926 171.299M70.4598 170.558C69.2496 168.945 65.9818 165.233 62.593 163.297" stroke="#012DFF" stroke-width="2.28401" stroke-miterlimit="10" stroke-linecap="round" stroke-linejoin="round"/>
<path d="M140.959 51.6478L145.195 56.4889M159.416 62.2378H153.667M67.4343 48.6221L62.2906 54.3709M53.516 58.6069H49.5826" stroke="#012DFF" stroke-width="2.28401" stroke-miterlimit="10" stroke-linecap="round" stroke-linejoin="round"/>
<path d="M146.104 77.0637C129.21 72.4243 88.3426 65.4752 60.0219 74.7944" stroke="#012DFF" stroke-width="2.28401" stroke-miterlimit="10" stroke-linecap="round" stroke-linejoin="round"/>
<path d="M124.924 159.666L108.585 165.415L102.677 175.018M75.3021 161.179L84.3793 165.415L89.2336 175.018" stroke="#012DFF" stroke-width="2.28401" stroke-miterlimit="10" stroke-linecap="round" stroke-linejoin="round"/>
<path d="M133.697 176.005L98.9015 192.041H88.9167L70.4598 178.728" stroke="#012DFF" stroke-width="2.28401" stroke-miterlimit="10" stroke-linecap="round" stroke-linejoin="round"/>
<path d="M111.003 132.132C110.398 136.065 111.003 145.445 113.121 149.983M77.1151 130.619C77.0142 134.149 77.2966 142.358 79.2331 146.958" stroke="#012DFF" stroke-width="2.28401" stroke-miterlimit="10" stroke-linecap="round" stroke-linejoin="round"/>
<circle cx="2.42057" cy="2.42057" r="2.42057" transform="matrix(-1 0 0 1 143.684 79.6348)" fill="#012DFF" stroke="#012DFF" stroke-width="2.28401" stroke-miterlimit="10" stroke-linecap="round" stroke-linejoin="round"/>
<circle cx="2.42057" cy="2.42057" r="2.42057" transform="matrix(-1 0 0 1 66.2266 77.2144)" fill="#012DFF" stroke="#012DFF" stroke-width="2.28401" stroke-miterlimit="10" stroke-linecap="round" stroke-linejoin="round"/>
<circle cx="2.42057" cy="2.42057" r="2.42057" transform="matrix(-1 0 0 1 119.023 135.459)" fill="#012DFF" stroke="#012DFF" stroke-width="2.28401" stroke-miterlimit="10" stroke-linecap="round" stroke-linejoin="round"/>
<circle cx="2.42057" cy="2.42057" r="2.42057" transform="matrix(-1 0 0 1 74.5449 133.946)" fill="#012DFF" stroke="#012DFF" stroke-width="2.28401" stroke-miterlimit="10" stroke-linecap="round" stroke-linejoin="round"/>
<circle cx="2.42057" cy="2.42057" r="2.42057" transform="matrix(-1 0 0 1 145.348 166.927)" fill="#012DFF" stroke="#012DFF" stroke-width="2.28401" stroke-miterlimit="10" stroke-linecap="round" stroke-linejoin="round"/>
<circle cx="2.42057" cy="2.42057" r="2.42057" transform="matrix(-1 0 0 1 66.0742 167.835)" fill="#012DFF" stroke="#012DFF" stroke-width="2.28401" stroke-miterlimit="10" stroke-linecap="round" stroke-linejoin="round"/>
<path d="M142.201 127.122C124.921 122.721 86.1433 115.53 57.6797 123.258" stroke="#012DFF" stroke-width="2.25391" stroke-miterlimit="10" stroke-linecap="round" stroke-linejoin="round"/>
<path d="M127.551 116.336C126.907 120.897 125.619 127.026 124.975 129.215M111.29 113.76C110.807 118.053 109.97 123.58 109.198 127.444M78.7698 112.472C78.9845 116.711 79.4943 121.809 80.5408 126.478M66.6953 113.76C67.0173 116.658 67.4037 121.262 69.5932 127.444M92.4543 111.989C92.4543 115.772 92.4543 123.017 93.0982 126.478" stroke="#012DFF" stroke-width="2.25391" stroke-miterlimit="10" stroke-linecap="round" stroke-linejoin="round"/>
<path d="M120.789 89.2744L104.737 101.116M106.208 87.6785L119.318 102.712" stroke="#EE10CA" stroke-width="3.05887" stroke-miterlimit="10" stroke-linecap="round" stroke-linejoin="round"/>
<path d="M83.6974 88.6187L70.827 99.955M71.7617 88.2587L83.0259 99.955" stroke="#EE10CA" stroke-width="3.05887" stroke-miterlimit="10" stroke-linecap="round" stroke-linejoin="round"/>
<path d="M92.2547 107.137C91.9564 106.744 91.642 106.388 91.3057 106.068C91.0137 105.804 90.6813 105.567 90.3081 105.343C89.9351 105.125 89.5439 105.019 89.1287 105.034C88.542 105.062 88.0547 105.179 87.6552 105.393C87.2558 105.607 86.9368 105.888 86.6918 106.224C86.447 106.566 86.276 106.958 86.1725 107.394C86.0692 107.835 86.0258 108.286 86.0366 108.751C86.0474 109.217 86.1109 109.668 86.2329 110.099C86.3548 110.529 86.505 110.929 86.6958 111.309C86.8862 111.684 87.0934 112.034 87.3287 112.353C87.5581 112.672 87.7923 112.968 88.0306 113.228C88.3944 113.623 88.7689 113.994 89.166 114.341C89.563 114.688 89.94 114.988 90.3026 115.236C90.6654 115.49 90.9957 115.687 91.2942 115.838C91.5926 115.989 91.828 116.066 92.0007 116.075C92.1856 116.09 92.4325 116.037 92.729 115.905C93.0258 115.778 93.3497 115.598 93.7071 115.374C94.0645 115.15 94.4374 114.879 94.8382 114.57C95.2387 114.256 95.6265 113.925 96.0194 113.576C96.2699 113.351 96.5482 113.09 96.8367 112.793C97.1311 112.496 97.4064 112.17 97.668 111.809C97.9296 111.449 98.1602 111.06 98.3535 110.638C98.5468 110.215 98.6613 109.762 98.703 109.276C98.7388 108.79 98.7049 108.338 98.6007 107.906C98.4968 107.48 98.3235 107.093 98.0927 106.745C97.8622 106.402 97.5684 106.103 97.2242 105.866C96.8738 105.623 96.4792 105.448 96.0343 105.339C95.8119 105.285 95.5852 105.266 95.3609 105.295C95.1363 105.317 94.9131 105.369 94.6907 105.439C94.4743 105.508 94.2591 105.601 94.0627 105.717C93.8604 105.833 93.67 105.948 93.4861 106.075C93.0548 106.367 92.6444 106.723 92.2547 107.137Z" fill="#EE10CA" stroke="#012DFF" stroke-width="2.25391" stroke-miterlimit="10" stroke-linecap="round" stroke-linejoin="round"/>
<g clip-path="url(#clip1_5840_17601)">
<path fill-rule="evenodd" clip-rule="evenodd" d="M95.8341 163.03L90.2618 171.758L95.8341 175.008L101.41 171.754L95.8341 163.03ZM99.7017 171.341L95.8341 165.288L91.9665 171.341L95.8341 173.595L99.7017 171.341Z" fill="#EE10CA"/>
<path d="M95.8424 176.921L102.309 173.152L102.487 173.428C104.475 176.546 104.032 180.63 101.415 183.247C98.3349 186.327 93.346 186.327 90.2663 183.247C87.6488 180.63 87.2056 176.55 89.1981 173.428L89.3761 173.152L95.8424 176.921Z" fill="#EE10CA"/>
</g>
</g>
<defs>
<linearGradient id="paint0_linear_5840_17601" x1="110.747" y1="0" x2="169.285" y2="205.089" gradientUnits="userSpaceOnUse">
<stop stop-color="#00F0FF"/>
<stop offset="1" stop-color="#FF6F43"/>
</linearGradient>
<linearGradient id="paint1_linear_5840_17601" x1="102.544" y1="0.911621" x2="161.082" y2="206" gradientUnits="userSpaceOnUse">
<stop stop-color="#00F0FF"/>
<stop offset="1" stop-color="#FF6F43"/>
</linearGradient>
<linearGradient id="paint2_linear_5840_17601" x1="-0.757812" y1="96.6973" x2="191.13" y2="96.6973" gradientUnits="userSpaceOnUse">
<stop stop-color="#101010"/>
<stop offset="1" stop-color="#484848"/>
</linearGradient>
<clipPath id="clip0_5840_17601">
<rect x="18.2305" y="19.1416" width="168.89" height="168.89" rx="84.445" fill="white"/>
</clipPath>
<clipPath id="clip1_5840_17601">
<rect width="16.7433" height="22.5391" fill="white" transform="matrix(-1 0 0 1 103.723 163.023)"/>
</clipPath>
</defs>
</svg>
