<svg width="199" height="192" viewBox="0 0 199 192" fill="none" xmlns="http://www.w3.org/2000/svg">
<circle cx="103.5" cy="96.4995" r="94.95" fill="#0F1217" stroke="#476666" stroke-width="1.1"/>
<circle cx="95.5" cy="95.4995" r="94.95" fill="#00040C" stroke="#476666" stroke-width="1.1"/>
<circle cx="95.0689" cy="95.0684" r="80.5189" fill="#00040C" stroke="#476666" stroke-width="1.1"/>
<path d="M95.6716 29.9995H95.6693C59.9534 29.9995 31 58.9529 31 94.6688V94.6712C31 130.387 59.9534 159.34 95.6693 159.34H95.6716C131.388 159.34 160.341 130.387 160.341 94.6712V94.6688C160.341 58.9529 131.388 29.9995 95.6716 29.9995Z" fill="#0F1217"/>
<g clip-path="url(#clip0_5840_17158)">
<path fill-rule="evenodd" clip-rule="evenodd" d="M93.2749 54.0269L113.243 85.7795L93.2749 97.604L73.293 85.7657L93.2749 54.0269ZM79.4151 84.2635L93.2749 62.2406L107.135 84.2635L93.2749 92.4635L79.4151 84.2635Z" fill="#1C2028"/>
<path d="M93.2481 104.563L70.0761 90.8506L69.4381 91.8566C62.3114 103.199 63.8997 118.055 73.2798 127.578C84.316 138.783 102.194 138.783 113.23 127.578C122.61 118.055 124.198 103.213 117.058 91.8566L116.42 90.8506L93.2481 104.563Z" fill="#1C2028"/>
</g>
<defs>
<clipPath id="clip0_5840_17158">
<rect width="60" height="82" fill="white" transform="translate(65 53.9995)"/>
</clipPath>
</defs>
</svg>
